;TYPE=PLATED
;Layer: PTH_Through
;EasyEDA Pro v2.2.35.2, 2025-02-12 23:49:44
;Gerber Generator version 0.3
M48
METRIC,LZ,0000.00000
;Hole size 1 = 0.30480 METRIC
T01C0.30480
;Hole size 2 = 0.30500 METRIC
T02C0.30500
;Hole size 3 = 0.70002 METRIC
T03C0.70002
;Hole size 4 = 1.00000 METRIC
T04C1.00000
;Hole size 5 = 1.04999 METRIC
T05C1.04999
;Hole size 6 = 1.40000 METRIC
T06C1.40000
%
G05
G90
T01
X8.37413Y-4.05613
X8.37413Y-3.05613
X7.374Y-3.056
X7.374Y-4.056
X8.37413Y-13.96221
X8.37413Y-12.96221
X7.374Y-12.96208
X7.374Y-13.96208
X4.40453Y14.859
X2.70747Y14.859
X3.556Y15.70753
X3.556Y14.01047
T02
X-11.811Y28.829
X-15.494Y28.829
X1.016Y11.938
X7.493Y16.891
X5.969Y18.161
X-9.906Y18.796
X6.731Y-9.779
X5.969Y0.635
X10.414Y-9.906
X10.287Y-0.762
X8.763Y-9.779
X7.239Y1.27
X-0.762Y-17.653
X2.286Y-17.653
X-15.875Y-28.702
X5.588Y7.366
X-3.302Y-11.684
X-4.699Y-8.382
X-9.82299Y-8.04499
X10.541Y21.844
X-15.70711Y8.509
X-12.065Y-10.414
X-13.208Y-8.001
X-2.032Y15.748
X-11.43Y-8.382
X-2.794Y14.605
X-16.129Y-15.621
X4.953Y-11.049
X-15.24Y-16.053
X3.683Y1.778
X-0.762Y13.081
X-10.668Y-21.971
X-18.415Y-17.78
X-17.526Y-8.636
X-7.366Y8.763
X5.08Y8.636
X-17.653Y21.59
X1.27Y26.61282
X1.27Y25.654
X1.27Y24.68305
X0.762Y23.622
X1.905Y23.622
T03
X-18.16303Y31.49827G85X-18.16303Y32.09825
X-9.52297Y31.49827G85X-9.52297Y32.09825
X-18.16303Y27.0682G85X-18.16303Y28.16817
X-9.52297Y27.0682G85X-9.52297Y28.16817
T04
X-2.286Y-24.638
X-4.826Y-24.638
X-7.366Y-24.638
X-9.90597Y-24.638
X-9.90597Y-32.25797
X-7.366Y-32.25797
X-4.826Y-32.25797
X-2.286Y-32.25797
T05
X6.858Y-31.623
X4.318Y-31.623
X6.858Y-29.083
X4.318Y-29.083
X6.858Y-26.543
X4.318Y-26.543
T06
X16.31544Y10.78802
X16.31544Y15.78801
X16.31544Y20.788
X16.31544Y25.78799
X17.018Y-24.69198
X17.018Y-19.69199
X17.018Y-14.69199
X17.018Y-9.692
X17.018Y-4.69202
X17.018Y0.30798
M30