G04 Layer: TopLayer*
G04 EasyEDA Pro v2.2.35.2, 2025-02-12 23:49:44*
G04 Gerber Generator version 0.3*
G04 Scale: 100 percent, Rotated: No, Reflected: No*
G04 Dimensions in millimeters*
G04 Leading zeros omitted, absolute positions, 4 integers and 5 decimals*
%FSLAX45Y45*%
%MOMM*%
%AMOval*1,1,$1,$2,$3*1,1,$1,$4,$5*20,1,$1,$2,$3,$4,$5,0*%
%AMRect*21,1,$1,$2,0,0,$3*%
%ADD10C,0.2032*%
%ADD11C,0.254*%
%ADD12C,0.6096*%
%ADD13O,0.36401X0.84699*%
%ADD14O,0.84699X0.36401*%
%ADD15R,3.25001X3.25001*%
%ADD16R,1.35001X1.41*%
%ADD17R,1.13254X1.37701*%
%ADD18R,1.41X1.35001*%
%ADD19R,1.3846X1.13254*%
%ADD20R,1.37701X1.13254*%
%ADD21R,1.5X1.9*%
%ADD22R,0.3X1.3*%
%ADD23R,0.6X1.3*%
%ADD24O,1.2X1.8*%
%ADD25O,1.2X2.2*%
%ADD26R,1.25001X1.0*%
%ADD27R,1.25001X1.0*%
%ADD28C,1.8*%
%ADD29R,1.8X1.8*%
%ADD30Oval,0.36401X0.17076X0.17076X-0.17076X-0.17076*%
%ADD31Oval,0.36401X-0.17076X0.17076X0.17076X-0.17076*%
%ADD32Rect,4.69999X4.69999X-45.0*%
%ADD33O,0.3X1.3*%
%ADD34O,1.3X0.3*%
%ADD35R,5.19999X5.19999*%
%ADD36R,1.41X1.35001*%
%ADD37C,1.5*%
%ADD38R,4.94101X1.08374*%
%ADD39R,1.37701X1.13254*%
%ADD40R,1.35001X1.41*%
%ADD41R,0.80648X0.86401*%
%ADD42R,2.69999X1.635*%
%ADD43R,2.0X2.0*%
%ADD44R,2.0X2.0*%
%ADD45R,1.25001X2.99999*%
%ADD46R,1.13254X1.37701*%
%ADD47R,1.07201X0.532*%
%ADD48R,0.6X1.4*%
%ADD49R,0.6X1.4*%
%ADD50C,2.1*%
%ADD51R,2.0X2.0*%
%ADD52C,2.2*%
%ADD53R,2.47X3.59999*%
%ADD54R,2.47X0.98001*%
%ADD55C,0.61*%
%ADD56C,0.508*%
%ADD57C,0.5*%
G75*


G04 Copper Start*
G36*
G01X-2200000Y3464186D02*
G01X2200000Y3464186D01*
G02X2464186Y3200001I0J-264186D01*
G01X2464186Y-3200000D01*
G02X2200000Y-3464186I-264186J0D01*
G01X-2200000Y-3464186D01*
G02X-2464186Y-3200000I0J264186D01*
G01X-2464186Y3200000D01*
G02X-2200000Y3464186I264186J0D01*
G37*
%LPC*%
G36*
G01X-1939586Y3200000D02*
G03X-2460414Y3200000I-260414J0D01*
G03X-1939586Y3200000I260414J0D01*
G37*
G36*
G01X-1939586Y-3200000D02*
G03X-2460414Y-3200000I-260414J0D01*
G03X-1939586Y-3200000I260414J0D01*
G37*
G36*
G01X-2194414Y2054996D02*
G01X-2228251Y2054996D01*
G03X-2264065Y2019182I0J-35814D01*
G01X-2264065Y1910808D01*
G03X-2228251Y1874994I35814J0D01*
G01X-1734149Y1874994D01*
G03X-1698335Y1910808I0J35814D01*
G01X-1698335Y2019182D01*
G03X-1734149Y2054996I-35814J0D01*
G01X-1783300Y2054996D01*
G01X-1740996Y2097300D01*
G03X-1718409Y2205891I-24304J61700D01*
G03X-1827000Y2183304I-46891J-46891D01*
G01X-1955308Y2054996D01*
G01X-2072786Y2054996D01*
G01X-2072786Y2173300D01*
G03X-2090598Y2216302I-60814J0D01*
G01X-2119185Y2244890D01*
G01X-2119185Y2332700D01*
G03X-2134691Y2362200I-35814J0D01*
G03X-2119185Y2391700I-20308J29500D01*
G01X-2119185Y2532700D01*
G03X-2154999Y2568514I-35814J0D01*
G01X-2290000Y2568514D01*
G03X-2325814Y2532700I0J-35814D01*
G01X-2325814Y2391700D01*
G03X-2310309Y2362200I35814J0D01*
G03X-2325814Y2332700I20308J-29500D01*
G01X-2325814Y2191700D01*
G03X-2290000Y2155886I35814J0D01*
G01X-2202190Y2155886D01*
G01X-2194414Y2148110D01*
G01X-2194414Y2054996D01*
G37*
G36*
G01X-2062020Y-406D02*
G03X-2097834Y-36220I0J-35814D01*
G01X-2097834Y-171221D01*
G03X-2062020Y-207035I35814J0D01*
G01X-2053775Y-207035D01*
G01X-2054322Y-264759D01*
G01X-2062751Y-264759D01*
G03X-2093424Y-282086I0J-35814D01*
G01X-2120900Y-282086D01*
G03X-2163902Y-299898I0J-60814D01*
G01X-2238502Y-374498D01*
G03X-2256314Y-417500I43002J-43002D01*
G01X-2256314Y-2272141D01*
G03X-2257914Y-2286000I59214J-13859D01*
G01X-2257914Y-2768600D01*
G03X-2240102Y-2811602I60814J0D01*
G01X-2190902Y-2860802D01*
G03X-2147900Y-2878614I43002J43002D01*
G01X-2085619Y-2878614D01*
G03X-2050051Y-2910241I35568J4187D01*
G01X-2042014Y-2910241D01*
G01X-2042014Y-2946400D01*
G03X-2024202Y-2989402I60814J0D01*
G01X-1948002Y-3065602D01*
G03X-1905000Y-3083414I43002J43002D01*
G01X-1181100Y-3083414D01*
G03X-1138098Y-3065602I0J60814D01*
G01X-1087298Y-3014802D01*
G03X-1069486Y-2971800I-43002J43002D01*
G01X-1069486Y-2715114D01*
G01X-165100Y-2715114D01*
G03X-122098Y-2697302I0J60814D01*
G01X-33198Y-2608402D01*
G03X-15386Y-2565400I-43002J43002D01*
G01X-15386Y-1791743D01*
G03X-51896Y-1703600I-60814J26443D01*
G01X-96698Y-1658798D01*
G03X-131325Y-1641565I-43002J-43002D01*
G01X-134796Y-1638095D01*
G03X-169100Y-1623885I-34305J-34305D01*
G01X-217270Y-1623885D01*
G03X-175798Y-1551882I-24030J61786D01*
G03X-169100Y-1552514I6698J35182D01*
G01X-34099Y-1552514D01*
G03X1715Y-1516700I0J35814D01*
G01X1715Y-1375700D01*
G03X-13791Y-1346200I-35814J0D01*
G03X1715Y-1316700I-20308J29500D01*
G01X1715Y-1175700D01*
G03X-34099Y-1139886I-35814J0D01*
G01X-169100Y-1139886D01*
G03X-204914Y-1175700I0J-35814D01*
G01X-204914Y-1223886D01*
G01X-293884Y-1223886D01*
G03X-263927Y-1170736I-36316J55486D01*
G01X-245095Y-1151905D01*
G03X-230886Y-1117600I-34305J34305D01*
G01X-230886Y-553495D01*
G01X-219605Y-542214D01*
G01X12617Y-542214D01*
G01X12617Y-564200D01*
G03X48431Y-600014I35814J0D01*
G01X183432Y-600014D01*
G03X219246Y-564200I0J35814D01*
G01X219246Y-534111D01*
G01X253436Y-534111D01*
G01X253436Y-563720D01*
G03X289250Y-599534I35814J0D01*
G01X424251Y-599534D01*
G03X460065Y-563720I0J35814D01*
G01X460065Y-534111D01*
G01X489644Y-534111D01*
G03X513391Y-539612I23748J48514D01*
G01X561689Y-539612D01*
G03X591382Y-530718I0J54014D01*
G03X612282Y-551618I33518J12618D01*
G03X603388Y-581311I45121J-29693D01*
G01X603388Y-629609D01*
G03X608889Y-653356I54014J0D01*
G01X608889Y-673566D01*
G01X568424Y-673566D01*
G03X532610Y-709380I0J-35814D01*
G01X532610Y-847081D01*
G03X537944Y-865886I35814J0D01*
G01X508000Y-865886D01*
G03X473695Y-880095I0J-48514D01*
G01X460995Y-892795D01*
G03X446786Y-927100I34305J-34305D01*
G01X446786Y-1059690D01*
G03X441159Y-1143193I48514J-45210D01*
G03X425130Y-1139406I-16029J-32027D01*
G01X290129Y-1139406D01*
G03X254315Y-1175220I0J-35814D01*
G01X254315Y-1316220D01*
G03X269821Y-1345720I35814J0D01*
G03X254315Y-1375219I20308J-29500D01*
G01X254315Y-1397686D01*
G01X230315Y-1397686D01*
G01X230315Y-1375700D01*
G03X214809Y-1346200I-35814J0D01*
G03X230315Y-1316700I-20308J29500D01*
G01X230315Y-1175700D01*
G03X194501Y-1139886I-35814J0D01*
G01X59500Y-1139886D01*
G03X23686Y-1175700I0J-35814D01*
G01X23686Y-1316700D01*
G03X39191Y-1346200I35814J0D01*
G03X23686Y-1375700I20308J-29500D01*
G01X23686Y-1516700D01*
G03X59500Y-1552514I35814J0D01*
G01X194501Y-1552514D01*
G03X230315Y-1516700I0J35814D01*
G01X230315Y-1494714D01*
G01X254315Y-1494714D01*
G01X254315Y-1516220D01*
G03X290129Y-1552034I35814J0D01*
G01X309116Y-1552034D01*
G01X309116Y-1704486D01*
G01X255043Y-1704486D01*
G03X162286Y-1765300I-26443J-60814D01*
G03X255043Y-1826114I66314J0D01*
G01X296816Y-1826114D01*
G01X296816Y-2046730D01*
G03X314628Y-2089732I60814J0D01*
G01X379629Y-2154733D01*
G03X422631Y-2172545I43002J43002D01*
G01X431010Y-2172545D01*
G01X431010Y-2180581D01*
G03X466824Y-2216395I35814J0D01*
G01X513037Y-2216395D01*
G01X513037Y-2314151D01*
G03X527246Y-2348456I48514J0D01*
G01X624586Y-2445795D01*
G01X624586Y-2544382D01*
G03X699579Y-2779357I61214J-109918D01*
G03X721614Y-2533691I-13779J125057D01*
G01X721614Y-2425700D01*
G03X707405Y-2391395I-48514J0D01*
G01X610065Y-2294056D01*
G01X610065Y-2200162D01*
G03X615892Y-2180581I-29987J19581D01*
G01X615892Y-2042880D01*
G03X580078Y-2007066I-35814J0D01*
G01X466824Y-2007066D01*
G03X431891Y-2034987I0J-35814D01*
G01X418444Y-2021540D01*
G01X418444Y-1766423D01*
G03X406144Y-1729753I-60814J0D01*
G01X406144Y-1552034D01*
G01X425130Y-1552034D01*
G03X459921Y-1524719I0J35814D01*
G01X489643Y-1524719D01*
G03X513391Y-1530220I23749J48513D01*
G01X561689Y-1530220D01*
G03X591382Y-1521326I0J54014D01*
G03X612282Y-1542226I33518J12618D01*
G03X603388Y-1571919I45121J-29693D01*
G01X603388Y-1605622D01*
G01X487996Y-1721015D01*
G03X473786Y-1755320I34305J-34305D01*
G01X473786Y-1762235D01*
G01X465673Y-1762235D01*
G03X429859Y-1798049I0J-35814D01*
G01X429859Y-1935751D01*
G03X465673Y-1971565I35814J0D01*
G01X578927Y-1971565D01*
G03X614741Y-1935751I0J35814D01*
G01X614741Y-1798049D01*
G03X583677Y-1762552I-35814J0D01*
G01X674915Y-1671314D01*
G03X689902Y-1663361I-17513J51097D01*
G03X738886Y-1671655I32499J43143D01*
G01X738886Y-1762235D01*
G01X665673Y-1762235D01*
G03X629859Y-1798049I0J-35814D01*
G01X629859Y-1935751D01*
G03X665673Y-1971565I35814J0D01*
G01X778927Y-1971565D01*
G03X802386Y-1962812I0J35814D01*
G01X802386Y-2014863D01*
G03X780077Y-2007066I-22309J-28017D01*
G01X666824Y-2007066D01*
G03X631010Y-2042880I0J-35814D01*
G01X631010Y-2180581D01*
G03X666824Y-2216395I35814J0D01*
G01X674937Y-2216395D01*
G01X674937Y-2247451D01*
G03X689146Y-2281755I48514J0D01*
G01X740395Y-2333005D01*
G03X774700Y-2347214I34305J34305D01*
G01X1621915Y-2347214D01*
G03X1721359Y-2613694I79885J-121983D01*
G03X1746381Y-2330366I-19559J144496D01*
G03X1736105Y-2315195I-44581J-19134D01*
G01X1685305Y-2264395D01*
G03X1651000Y-2250186I-34305J-34305D01*
G01X794795Y-2250186D01*
G01X771965Y-2227356D01*
G01X771965Y-2216395D01*
G01X780077Y-2216395D01*
G03X815891Y-2180581I0J35814D01*
G01X815891Y-2065586D01*
G01X816595Y-2066305D01*
G01X843926Y-2093635D01*
G03X875736Y-2107780I34305J34305D01*
G01X875736Y-2129831D01*
G03X911550Y-2165645I35814J0D01*
G01X1046551Y-2165645D01*
G03X1082365Y-2129831I0J35814D01*
G01X1082365Y-2107845D01*
G01X1229969Y-2107845D01*
G03X1264274Y-2093635I0J48514D01*
G01X1291605Y-2066305D01*
G03X1305814Y-2032000I-34305J34305D01*
G01X1305814Y-1531395D01*
G01X1319496Y-1517713D01*
G01X1564293Y-1517713D01*
G03X1847614Y-1469199I137507J48514D01*
G03X1564293Y-1420685I-145814J0D01*
G01X1299401Y-1420685D01*
G03X1265096Y-1434895I0J-48514D01*
G01X1242314Y-1457677D01*
G01X1242314Y-1394722D01*
G01X1324792Y-1394722D01*
G03X1359097Y-1380513I0J48514D01*
G01X1638873Y-1100737D01*
G03X1804906Y-866095I62927J131536D01*
G03X1570264Y-1032128I-103106J-103106D01*
G01X1304697Y-1297694D01*
G01X1112846Y-1297694D01*
G03X1104552Y-1248710I-51437J16485D01*
G03X1061409Y-1162197I-43143J32499D01*
G01X1013111Y-1162197D01*
G03X983418Y-1171090I0J-54014D01*
G03X962518Y-1150190I-33518J-12618D01*
G03X971412Y-1120498I-45121J29693D01*
G01X971412Y-1110943D01*
G01X1027019Y-1055336D01*
G03X1100322Y-960174I14381J64736D01*
G03X980292Y-964845I-58922J-30426D01*
G01X933232Y-1011905D01*
G03X911124Y-921465I-56932J34005D01*
G03X820374Y-942265I-34824J-56435D01*
G01X760000Y-881890D01*
G03X768424Y-882895I8424J34809D01*
G01X881677Y-882895D01*
G03X917491Y-847081I0J35814D01*
G01X917491Y-709380D01*
G03X904968Y-682174I-35814J0D01*
G03X965604Y-653974I12429J52565D01*
G01X1096340Y-653974D01*
G03X1130645Y-639764I0J48514D01*
G01X1169483Y-600926D01*
G03X1183693Y-566621I-34305J34305D01*
G01X1183693Y-469113D01*
G01X1555986Y-469113D01*
G03X1677711Y-613012I145814J-89D01*
G03X1839683Y-516634I24089J143810D01*
G03X1863803Y-503506I-10185J47433D01*
G01X1952005Y-415305D01*
G03X1966214Y-381000I-34305J34305D01*
G01X1966214Y165100D01*
G03X1952005Y199405I-48514J0D01*
G01X1804736Y346674D01*
G03X1770431Y360883I-34305J-34305D01*
G01X1056965Y360883D01*
G01X1056965Y382869D01*
G03X1021151Y418683I-35814J0D01*
G01X886150Y418683D01*
G03X861314Y408672I0J-35814D01*
G01X861314Y520700D01*
G03X847105Y555005I-48514J0D01*
G01X732805Y669305D01*
G03X698500Y683514I-34305J-34305D01*
G01X598542Y683514D01*
G03X609674Y779138I-39742J53086D01*
G03X513590Y785114I-50874J-42538D01*
G01X444500Y785114D01*
G03X410195Y770905I0J-48514D01*
G01X386305Y747014D01*
G01X316453Y747014D01*
G03X344841Y782049I-7427J35035D01*
G01X344841Y815086D01*
G01X462790Y815086D01*
G03X574314Y863600I45210J48514D01*
G03X462790Y912114I-66314J0D01*
G01X344841Y912114D01*
G01X344841Y919751D01*
G03X344690Y923036I-35814J0D01*
G01X450850Y923036D01*
G03X485155Y937245I0J48514D01*
G01X629695Y1081786D01*
G01X714413Y1081786D01*
G01X714413Y983840D01*
G03X750227Y948026I35814J0D01*
G01X778586Y948026D01*
G01X778586Y941515D01*
G01X756600Y941515D01*
G03X720786Y905701I0J-35814D01*
G01X720786Y770700D01*
G03X756600Y734886I35814J0D01*
G01X897600Y734886D01*
G03X927100Y750391I0J35814D01*
G03X956600Y734886I29500J20308D01*
G01X1097600Y734886D01*
G03X1133414Y770700I0J35814D01*
G01X1133414Y905701D01*
G03X1097600Y941515I-35814J0D01*
G01X956600Y941515D01*
G03X927100Y926009I0J-35814D01*
G03X897600Y941515I-29500J-20308D01*
G01X875614Y941515D01*
G01X875614Y948026D01*
G01X891227Y948026D01*
G03X920727Y963532I0J35814D01*
G03X950226Y948026I29500J20308D01*
G01X1091227Y948026D01*
G03X1127041Y983840I0J35814D01*
G01X1127041Y1118841D01*
G03X1091227Y1154655I-35814J0D01*
G01X950226Y1154655D01*
G03X920727Y1139149I0J-35814D01*
G03X891227Y1154655I-29500J-20308D01*
G01X786021Y1154655D01*
G01X776072Y1164605D01*
G03X741767Y1178814I-34305J-34305D01*
G01X658114Y1178814D01*
G01X658114Y1207042D01*
G03X688822Y1196086I30708J37558D01*
G01X1553610Y1196086D01*
G03X1631539Y937988I77929J-117284D01*
G03X1709467Y1196086I0J140814D01*
G01X1816100Y1196086D01*
G03X1850405Y1210295I0J48514D01*
G01X1926605Y1286495D01*
G03X1940814Y1320800I-34305J34305D01*
G01X1940814Y2006600D01*
G03X1926605Y2040905I-48514J0D01*
G01X1837705Y2129805D01*
G03X1803400Y2144014I-34305J-34305D01*
G01X1756341Y2144014D01*
G03X1491855Y2060990I-124802J-65214D01*
G03X1768711Y2046986I139683J17809D01*
G01X1783305Y2046986D01*
G01X1843786Y1986505D01*
G01X1843786Y1340895D01*
G01X1796005Y1293114D01*
G01X1247423Y1293114D01*
G01X1278905Y1324595D01*
G03X1293114Y1358900I-34305J34305D01*
G01X1293114Y1503905D01*
G01X1319496Y1530287D01*
G01X1499346Y1530287D01*
G03X1772352Y1578801I132193J48514D01*
G03X1499346Y1627315I-140814J0D01*
G01X1299401Y1627315D01*
G03X1265096Y1613105I0J-48514D01*
G01X1210295Y1558305D01*
G03X1196086Y1524000I34305J-34305D01*
G01X1196086Y1378995D01*
G01X1170731Y1353640D01*
G01X757697Y1353640D01*
G03X760777Y1432877I-35114J41043D01*
G01X726625Y1467029D01*
G03X720935Y1471974I-38194J-38194D01*
G03X720935Y1499826I-32996J13926D01*
G03X726625Y1504771I-32505J43139D01*
G01X760777Y1538923D01*
G03X751529Y1622720I-38194J38194D01*
G01X751726Y1622917D01*
G03X796191Y1735991I-2362J66208D01*
G03X683027Y1691436I-46891J-46891D01*
G01X680777Y1689186D01*
G03X638187Y1722526I-50116J-20147D01*
G03X621516Y1754524I-53487J-7526D01*
G03X658267Y1790967I-24616J61576D01*
G03X675612Y1786486I17345J31333D01*
G01X735612Y1786486D01*
G03X765556Y1802653I0J35814D01*
G03X795500Y1786486I29944J19647D01*
G01X855500Y1786486D01*
G03X885444Y1802653I0J35814D01*
G03X915388Y1786486I29944J19647D01*
G01X975388Y1786486D01*
G03X1011202Y1822300I0J35814D01*
G01X1011202Y1962300D01*
G03X993665Y1993099I-35814J0D01*
G03X979693Y2022617I-48277J-4787D01*
G01X948705Y2053605D01*
G03X914400Y2067814I-34305J-34305D01*
G01X613234Y2067814D01*
G03X578930Y2053605I0J-48514D01*
G01X429305Y1903979D01*
G03X408623Y1891077I17512J-51097D01*
G01X374471Y1856925D01*
G03X369526Y1851235I38194J-38194D01*
G03X341674Y1851235I-13926J-32996D01*
G03X336729Y1856925I-43139J-32505D01*
G01X302577Y1891077D01*
G03X210896Y1860409I-38194J-38194D01*
G03X164935Y1814448I7526J-53487D01*
G03X129331Y1793478I7526J-53487D01*
G01X123205Y1799605D01*
G03X88900Y1813814I-34305J-34305D01*
G01X-190500Y1813814D01*
G03X-224805Y1799605I0J-48514D01*
G01X-389905Y1634505D01*
G03X-404114Y1600200I34305J-34305D01*
G01X-404114Y1056923D01*
G01X-537195Y1190005D01*
G03X-571500Y1204214I-34305J-34305D01*
G01X-1132554Y1204214D01*
G01X-1157986Y1229646D01*
G01X-1157986Y1750659D01*
G01X-1137649Y1750659D01*
G03X-1101835Y1786473I0J35814D01*
G01X-1101835Y1899727D01*
G03X-1137649Y1935541I-35814J0D01*
G01X-1275351Y1935541D01*
G03X-1311165Y1899727I0J-35814D01*
G01X-1311165Y1786473D01*
G03X-1275351Y1750659I35814J0D01*
G01X-1255014Y1750659D01*
G01X-1255014Y1690148D01*
G01X-1366317Y1801450D01*
G01X-1366317Y1894133D01*
G03X-1402131Y1929947I-35814J0D01*
G01X-1539832Y1929947D01*
G03X-1575646Y1894133I0J-35814D01*
G01X-1575646Y1780879D01*
G03X-1539832Y1745065I35814J0D01*
G01X-1447150Y1745065D01*
G01X-1331214Y1629129D01*
G01X-1331214Y1568558D01*
G03X-1355997Y1578517I-24783J-25855D01*
G01X-1555996Y1578517D01*
G03X-1591810Y1542703I0J-35814D01*
G01X-1591810Y1499419D01*
G01X-1698954Y1499419D01*
G03X-1734149Y1528606I-35196J-6627D01*
G01X-2228251Y1528606D01*
G03X-2264065Y1492792I0J-35814D01*
G01X-2264065Y1384418D01*
G03X-2228251Y1348604I35814J0D01*
G01X-1734149Y1348604D01*
G03X-1698954Y1377791I0J35814D01*
G01X-1591810Y1377791D01*
G01X-1591810Y1342704D01*
G03X-1555996Y1306890I35814J0D01*
G01X-1504511Y1306890D01*
G01X-1504511Y1176597D01*
G03X-1490301Y1142292I48514J0D01*
G01X-1361652Y1013643D01*
G03X-1320770Y954752I66252J2357D01*
G03X-1250219Y967486I25370J61248D01*
G01X-667795Y967486D01*
G01X-594614Y894305D01*
G01X-594614Y-411705D01*
G01X-616995Y-434086D01*
G01X-1028700Y-434086D01*
G03X-1063005Y-448295I0J-48514D01*
G01X-1126505Y-511795D01*
G03X-1140714Y-546100I34305J-34305D01*
G01X-1140714Y-688086D01*
G01X-1765300Y-688086D01*
G03X-1799605Y-702295I0J-48514D01*
G01X-1895596Y-798286D01*
G01X-1895596Y-754398D01*
G03X-1931410Y-718584I-35814J0D01*
G01X-1945386Y-718584D01*
G01X-1945386Y-649641D01*
G01X-1925049Y-649641D01*
G03X-1889235Y-613827I0J35814D01*
G01X-1889235Y-500573D01*
G03X-1925049Y-464759I-35814J0D01*
G01X-2062751Y-464759D01*
G03X-2098565Y-500573I0J-35814D01*
G01X-2098565Y-613827D01*
G03X-2062751Y-649641I35814J0D01*
G01X-2042414Y-649641D01*
G01X-2042414Y-718584D01*
G01X-2056411Y-718584D01*
G03X-2092225Y-754398I0J-35814D01*
G01X-2092225Y-854398D01*
G03X-2056411Y-890212I35814J0D01*
G01X-1987521Y-890212D01*
G01X-2028215Y-930906D01*
G03X-2034474Y-938599I34305J-34305D01*
G01X-2056411Y-938599D01*
G03X-2092225Y-974413I0J-35814D01*
G01X-2092225Y-1074412D01*
G03X-2056411Y-1110226I35814J0D01*
G01X-1931410Y-1110226D01*
G03X-1902714Y-1095841I0J35814D01*
G01X-1902714Y-1122905D01*
G01X-1926936Y-1147127D01*
G01X-2134686Y-1147127D01*
G01X-2134686Y-442690D01*
G01X-2098565Y-406568D01*
G01X-2098565Y-413827D01*
G03X-2062751Y-449641I35814J0D01*
G01X-1925049Y-449641D01*
G03X-1889235Y-413827I0J35814D01*
G01X-1889235Y-367214D01*
G01X-1017600Y-367214D01*
G03X-974598Y-349402I0J60814D01*
G01X-972998Y-347802D01*
G03X-955186Y-304800I-43002J43002D01*
G01X-955186Y762210D01*
G01X-901910Y815486D01*
G01X-763043Y815486D01*
G03X-670286Y876300I26443J60814D01*
G03X-763043Y937114I-66314J0D01*
G01X-927100Y937114D01*
G03X-970102Y919302I0J-60814D01*
G01X-1059002Y830402D01*
G03X-1076814Y787400I43002J-43002D01*
G01X-1076814Y-245586D01*
G01X-1932507Y-245586D01*
G01X-1932142Y-207035D01*
G01X-1921020Y-207035D01*
G03X-1891520Y-191529I0J35814D01*
G03X-1862021Y-207035I29500J20308D01*
G01X-1721020Y-207035D01*
G03X-1685206Y-171221I0J35814D01*
G01X-1685206Y-36220D01*
G03X-1721020Y-406I-35814J0D01*
G01X-1862021Y-406D01*
G03X-1891520Y-15912I0J-35814D01*
G03X-1921020Y-406I-29500J-20308D01*
G01X-1930706Y-406D01*
G01X-1930706Y249857D01*
G03X-1927576Y264500I-32683J14644D01*
G01X-1927576Y383686D01*
G01X-1677220Y383686D01*
G03X-1643410Y359686I33810J11814D01*
G01X-1396411Y359686D01*
G03X-1360597Y395500I0J35814D01*
G01X-1360597Y493500D01*
G03X-1396411Y529314I-35814J0D01*
G01X-1643410Y529314D01*
G03X-1677220Y505314I0J-35814D01*
G01X-1927576Y505314D01*
G01X-1927576Y624500D01*
G03X-1963390Y660314I-35814J0D01*
G01X-2038375Y660314D01*
G01X-2038375Y689889D01*
G03X-2052585Y724194I-48514J0D01*
G01X-2107708Y779317D01*
G03X-2227151Y798332I-63992J-17317D01*
G03X-2162025Y696416I55451J-36332D01*
G01X-2135403Y669794D01*
G01X-2135403Y660314D01*
G01X-2210389Y660314D01*
G03X-2246203Y624500I0J-35814D01*
G01X-2246203Y264500D01*
G03X-2210389Y228686I35814J0D01*
G01X-2052334Y228686D01*
G01X-2052334Y-406D01*
G01X-2062020Y-406D01*
G37*
G36*
G01X-1851802Y640192D02*
G03X-1817497Y625983I34305J34305D01*
G01X-1679224Y625983D01*
G01X-1679224Y625497D01*
G03X-1643410Y589683I35814J0D01*
G01X-1396411Y589683D01*
G03X-1360597Y625497I0J35814D01*
G01X-1360597Y723497D01*
G03X-1396411Y759311I-35814J0D01*
G01X-1509897Y759311D01*
G01X-1509897Y824457D01*
G03X-1570711Y917214I-60814J26443D01*
G03X-1631525Y824457I0J-66314D01*
G01X-1631525Y759311D01*
G01X-1643410Y759311D01*
G03X-1679224Y723497I0J-35814D01*
G01X-1679224Y723011D01*
G01X-1797402Y723011D01*
G01X-1905686Y831295D01*
G01X-1905686Y887286D01*
G01X-1883700Y887286D01*
G03X-1854200Y902791I0J35814D01*
G03X-1824700Y887286I29500J20308D01*
G01X-1683700Y887286D01*
G03X-1647886Y923100I0J35814D01*
G01X-1647886Y1058101D01*
G03X-1683700Y1093915I-35814J0D01*
G01X-1824700Y1093915D01*
G03X-1854200Y1078409I0J-35814D01*
G03X-1883700Y1093915I-29500J-20308D01*
G01X-2024700Y1093915D01*
G03X-2060514Y1058101I0J-35814D01*
G01X-2060514Y988314D01*
G01X-2126519Y988314D01*
G03X-2237994Y939800I-45181J-48514D01*
G03X-2126519Y891286I66294J0D01*
G01X-2041148Y891286D01*
G03X-2024700Y887286I16448J31814D01*
G01X-2002714Y887286D01*
G01X-2002714Y811200D01*
G03X-1988504Y776895I48514J0D01*
G01X-1851802Y640192D01*
G37*
G36*
G01X-2237994Y1117600D02*
G03X-2105406Y1117600I66294J0D01*
G03X-2237994Y1117600I-66294J0D01*
G37*
G36*
G01X-1720489Y3149826D02*
G01X-1720489Y3209826D01*
G03X-1912117Y3209826I-95814J0D01*
G01X-1912117Y3149826D01*
G03X-1720489Y3149826I95814J0D01*
G37*
G36*
G01X-1293611Y3346786D02*
G03X-1307821Y3312481I34305J-34305D01*
G01X-1307821Y2853446D01*
G03X-1320800Y2855214I-12979J-46746D01*
G01X-1384300Y2855214D01*
G03X-1418605Y2841005I0J-48514D01*
G01X-1444005Y2815605D01*
G03X-1457693Y2788388I34305J-34305D01*
G01X-1474306Y2788388D01*
G03X-1484300Y2786965I0J-35814D01*
G03X-1494293Y2788388I-9994J-34391D01*
G01X-1512092Y2788388D01*
G03X-1500886Y2819400I-37308J31012D01*
G01X-1500886Y2837690D01*
G03X-1548761Y2949211I-48514J45210D01*
G03X-1598776Y2838633I-639J-66311D01*
G01X-1605417Y2831992D01*
G03X-1661042Y2881577I-67884J-20162D01*
G03X-1730241Y2853933I-12259J-69746D01*
G03X-1912117Y2811818I-86062J-42115D01*
G01X-1912117Y2711818D01*
G03X-1770103Y2627879I95814J0D01*
G01X-1770103Y2622574D01*
G03X-1734289Y2586760I35814J0D01*
G01X-1674289Y2586760D01*
G03X-1664297Y2588182I0J35814D01*
G03X-1654305Y2586760I9992J34392D01*
G01X-1607820Y2586760D01*
G01X-1607820Y2534270D01*
G01X-1643508Y2534270D01*
G03X-1679322Y2498456I0J-35814D01*
G01X-1679322Y2360755D01*
G03X-1643508Y2324941I35814J0D01*
G01X-1530255Y2324941D01*
G03X-1494441Y2360755I0J35814D01*
G01X-1494441Y2498456D01*
G03X-1510792Y2528520I-35814J0D01*
G01X-1510792Y2586760D01*
G01X-1507737Y2586760D01*
G03X-1493611Y2555302I48430J2846D01*
G01X-1482105Y2543795D01*
G03X-1447800Y2529586I34305J34305D01*
G01X-1407820Y2529586D01*
G01X-1407820Y2397870D01*
G03X-1393611Y2363566I48514J0D01*
G01X-1355755Y2325710D01*
G01X-1355755Y2304900D01*
G01X-1505286Y2155370D01*
G03X-1518675Y2129946I34305J-34305D01*
G01X-1539832Y2129946D01*
G03X-1575646Y2094132I0J-35814D01*
G01X-1575646Y1980879D01*
G03X-1539832Y1945065I35814J0D01*
G01X-1402131Y1945065D01*
G03X-1366317Y1980879I0J35814D01*
G01X-1366317Y2094132D01*
G03X-1394347Y2129090I-35814J0D01*
G01X-1287146Y2236291D01*
G01X-1255014Y2236291D01*
G01X-1255014Y2135541D01*
G01X-1275351Y2135541D01*
G03X-1311165Y2099727I0J-35814D01*
G01X-1311165Y1986473D01*
G03X-1275351Y1950659I35814J0D01*
G01X-1137649Y1950659D01*
G03X-1101835Y1986473I0J35814D01*
G01X-1101835Y2099727D01*
G03X-1137649Y2135541I-35814J0D01*
G01X-1157986Y2135541D01*
G01X-1157986Y2236291D01*
G01X-1088621Y2236291D01*
G03X-1052807Y2272105I0J35814D01*
G01X-1052807Y2358506D01*
G03X-1088621Y2394320I-35814J0D01*
G01X-1157986Y2394320D01*
G01X-1157986Y2444153D01*
G03X-1155700Y2451166I-32727J14547D01*
G03X-1120687Y2422886I35013J7534D01*
G01X-1040040Y2422886D01*
G03X-1004226Y2458700I0J35814D01*
G01X-1004226Y2545100D01*
G03X-1040040Y2580914I-35814J0D01*
G01X-1120687Y2580914D01*
G03X-1155700Y2552634I0J-35814D01*
G03X-1190713Y2580914I-35013J-7534D01*
G01X-1241442Y2580914D01*
G01X-1247287Y2586760D01*
G01X-1244307Y2586760D01*
G03X-1234300Y2588186I0J35814D01*
G03X-1224294Y2586760I10006J34388D01*
G01X-1194294Y2586760D01*
G03X-1184295Y2588184I0J35814D01*
G03X-1174295Y2586760I9999J34390D01*
G01X-1114295Y2586760D01*
G03X-1104303Y2588182I0J35814D01*
G03X-1094311Y2586760I9992J34392D01*
G01X-1034311Y2586760D01*
G03X-998497Y2622574I0J35814D01*
G01X-998497Y2627879D01*
G03X-856483Y2711818I46200J83940D01*
G01X-856483Y2811818D01*
G03X-1038359Y2853933I-95814J0D01*
G03X-1114854Y2879892I-56940J-42102D01*
G03X-1144983Y2938516I-66246J3008D01*
G03X-1210793Y2942195I-36117J-55616D01*
G01X-1210793Y3289367D01*
G01X-1005715Y3289367D01*
G03X-1048111Y3209826I53418J-79541D01*
G01X-1048111Y3149826D01*
G03X-856483Y3149826I95814J0D01*
G01X-856483Y3209826D01*
G03X-898879Y3289367I-95814J0D01*
G01X-797339Y3289367D01*
G03X-813646Y3259332I19507J-30035D01*
G01X-813646Y3146078D01*
G03X-777832Y3110264I35814J0D01*
G01X-640131Y3110264D01*
G03X-604317Y3146078I0J35814D01*
G01X-604317Y3259332D01*
G03X-640131Y3295146I-35814J0D01*
G01X-647767Y3295146D01*
G01X-647767Y3312481D01*
G03X-661977Y3346786I-48514J0D01*
G01X-687377Y3372186D01*
G03X-721681Y3386395I-34305J-34305D01*
G01X-1233907Y3386395D01*
G03X-1268211Y3372186I0J-48514D01*
G01X-1293611Y3346786D01*
G37*
G36*
G01X-1694440Y2498456D02*
G03X-1730254Y2534270I-35814J0D01*
G01X-1843508Y2534270D01*
G03X-1879322Y2498456I0J-35814D01*
G01X-1879322Y2360755D01*
G03X-1843508Y2324941I35814J0D01*
G01X-1730254Y2324941D01*
G03X-1694440Y2360755I0J35814D01*
G01X-1694440Y2498456D01*
G37*
G36*
G01X-1512500Y-3350213D02*
G03X-1476686Y-3314399I0J35814D01*
G01X-1476686Y-3124399D01*
G03X-1512500Y-3088585I-35814J0D01*
G01X-1662500Y-3088585D01*
G03X-1698314Y-3124399I0J-35814D01*
G01X-1698314Y-3314399D01*
G03X-1662500Y-3350213I35814J0D01*
G01X-1512500Y-3350213D01*
G37*
G36*
G01X-1679224Y165503D02*
G03X-1643410Y129689I35814J0D01*
G01X-1396411Y129689D01*
G03X-1360597Y165503I0J35814D01*
G01X-1360597Y263503D01*
G03X-1396411Y299317I-35814J0D01*
G01X-1643410Y299317D01*
G03X-1679224Y263503I0J-35814D01*
G01X-1679224Y165503D01*
G37*
G36*
G01X-1051414Y1578517D02*
G01X-1115992Y1578517D01*
G03X-1151806Y1542703I0J-35814D01*
G01X-1151806Y1342704D01*
G03X-1115992Y1306890I35814J0D01*
G01X-915993Y1306890D01*
G03X-880179Y1342704I0J35814D01*
G01X-880179Y1378278D01*
G01X-813013Y1378278D01*
G01X-813013Y1339092D01*
G03X-777199Y1303278I35814J0D01*
G01X-577200Y1303278D01*
G03X-541386Y1339092I0J35814D01*
G01X-541386Y1539091D01*
G03X-577200Y1574905I-35814J0D01*
G01X-777199Y1574905D01*
G03X-813013Y1539091I0J-35814D01*
G01X-813013Y1499906D01*
G01X-880179Y1499906D01*
G01X-880179Y1542703D01*
G03X-915993Y1578517I-35814J0D01*
G01X-929786Y1578517D01*
G01X-929786Y1853157D01*
G03X-990600Y1945914I-60814J26443D01*
G03X-1051414Y1853157I0J-66314D01*
G01X-1051414Y1578517D01*
G37*
G36*
G01X-879786Y-3225800D02*
G03X-1101414Y-3225800I-110814J0D01*
G03X-879786Y-3225800I110814J0D01*
G37*
G36*
G01X-657714Y2453041D02*
G01X-665751Y2453041D01*
G03X-701319Y2421414I0J-35814D01*
G01X-801700Y2421414D01*
G03X-844702Y2403602I0J-60814D01*
G01X-906602Y2341702D01*
G03X-924414Y2298700I43002J-43002D01*
G01X-924414Y1892300D01*
G03X-906602Y1849298I60814J0D01*
G01X-871247Y1813943D01*
G03X-828245Y1796131I43002J43002D01*
G01X-813013Y1796131D01*
G01X-813013Y1779096D01*
G03X-777199Y1743282I35814J0D01*
G01X-577200Y1743282D01*
G03X-541386Y1779096I0J35814D01*
G01X-541386Y1843786D01*
G01X-439114Y1843786D01*
G03X-327640Y1892300I45181J48514D01*
G03X-439114Y1940814I-66294J0D01*
G01X-541386Y1940814D01*
G01X-541386Y1979096D01*
G03X-577200Y2014910I-35814J0D01*
G01X-777199Y2014910D01*
G03X-802786Y2004155I0J-35814D01*
G01X-802786Y2273510D01*
G01X-776510Y2299786D01*
G01X-701319Y2299786D01*
G03X-665751Y2268159I35568J4187D01*
G01X-528049Y2268159D01*
G03X-492235Y2303973I0J35814D01*
G01X-492235Y2417227D01*
G03X-528049Y2453041I-35814J0D01*
G01X-536086Y2453041D01*
G01X-536086Y2616410D01*
G01X-482810Y2669686D01*
G01X-442632Y2669686D01*
G01X-442632Y2642437D01*
G03X-406818Y2606623I35814J0D01*
G01X-136818Y2606623D01*
G03X-101004Y2642437I0J35814D01*
G01X-101004Y2805937D01*
G03X-136818Y2841751I-35814J0D01*
G01X-303378Y2841751D01*
G01X-321461Y2859834D01*
G01X-321461Y2921083D01*
G01X-319775Y2921083D01*
G03X-283961Y2956897I0J35814D01*
G01X-283961Y3256896D01*
G03X-319775Y3292710I-35814J0D01*
G01X-444776Y3292710D01*
G03X-480590Y3256896I0J-35814D01*
G01X-480590Y2956897D01*
G03X-444776Y2921083I35814J0D01*
G01X-443089Y2921083D01*
G01X-443089Y2834644D01*
G03X-440664Y2817643I60814J0D01*
G03X-442632Y2805937I33847J-11707D01*
G01X-442632Y2791314D01*
G01X-508000Y2791314D01*
G03X-551002Y2773502I0J-60814D01*
G01X-639902Y2684602D01*
G03X-657714Y2641600I43002J-43002D01*
G01X-657714Y2453041D01*
G37*
G36*
G01X-625786Y-3225800D02*
G03X-847414Y-3225800I-110814J0D01*
G03X-625786Y-3225800I110814J0D01*
G37*
G36*
G01X-640131Y2910265D02*
G03X-604317Y2946079I0J35814D01*
G01X-604317Y3059332D01*
G03X-640131Y3095146I-35814J0D01*
G01X-777832Y3095146D01*
G03X-813646Y3059332I0J-35814D01*
G01X-813646Y2946079D01*
G03X-777832Y2910265I35814J0D01*
G01X-640131Y2910265D01*
G37*
G36*
G01X-93802Y2450516D02*
G03X-101004Y2441834I43002J-43002D01*
G01X-101004Y2502458D01*
G03X-136818Y2538272I-35814J0D01*
G01X-406818Y2538272D01*
G03X-442632Y2502458I0J-35814D01*
G01X-442632Y2338958D01*
G03X-406818Y2303144I35814J0D01*
G01X-145060Y2303144D01*
G01X-209939Y2238265D01*
G01X-270927Y2238265D01*
G03X-301308Y2221414I0J-35814D01*
G01X-492481Y2221414D01*
G03X-528049Y2253041I-35568J-4187D01*
G01X-665751Y2253041D01*
G03X-701565Y2217227I0J-35814D01*
G01X-701565Y2103973D01*
G03X-665751Y2068159I35814J0D01*
G01X-528049Y2068159D01*
G03X-492481Y2099786I0J35814D01*
G01X-306741Y2099786D01*
G01X-306741Y2064749D01*
G03X-270927Y2028935I35814J0D01*
G01X-157673Y2028935D01*
G03X-121859Y2064749I0J35814D01*
G01X-121859Y2154337D01*
G01X-106741Y2169455D01*
G01X-106741Y2064749D01*
G03X-70927Y2028935I35814J0D01*
G01X42327Y2028935D01*
G03X78141Y2064749I0J35814D01*
G01X78141Y2202451D01*
G03X42327Y2238265I-35814J0D01*
G01X-37932Y2238265D01*
G01X-7798Y2268398D01*
G03X10014Y2311400I-43002J43002D01*
G01X10014Y2382324D01*
G01X35680Y2407990D01*
G01X65691Y2407990D01*
G03X101505Y2443804I0J35814D01*
G01X101505Y2497004D01*
G03X94775Y2517902I-35814J0D01*
G03X101505Y2538800I-29085J20898D01*
G01X101505Y2592000D01*
G03X94775Y2612898I-35814J0D01*
G03X101505Y2633796I-29085J20898D01*
G01X101505Y2686996D01*
G03X73514Y2721945I-35814J0D01*
G01X73514Y2756110D01*
G01X186809Y2869405D01*
G03X198982Y2886833I-43002J43002D01*
G01X211308Y2886833D01*
G03X218586Y2887581I0J35814D01*
G01X218586Y2799676D01*
G01X198908Y2779998D01*
G03X181096Y2736996I43002J-43002D01*
G01X181096Y2722076D01*
G03X152495Y2686996I7214J-35080D01*
G01X152495Y2633796D01*
G03X159225Y2612898I35814J0D01*
G03X152495Y2592000I29085J-20898D01*
G01X152495Y2538800D01*
G03X159225Y2517902I35814J0D01*
G03X152495Y2497004I29085J-20898D01*
G01X152495Y2443804D01*
G03X188309Y2407990I35814J0D01*
G01X295510Y2407990D01*
G03X323781Y2421818I0J35814D01*
G01X339133Y2421805D01*
G03X374947Y2386016I35801J13D01*
G01X395284Y2386016D01*
G01X395284Y2352565D01*
G01X373573Y2352565D01*
G03X337759Y2316751I0J-35814D01*
G01X337759Y2179049D01*
G03X373573Y2143235I35814J0D01*
G01X486827Y2143235D01*
G03X522641Y2179049I0J35814D01*
G01X522641Y2316751D01*
G03X492312Y2352142I-35814J0D01*
G01X492312Y2386016D01*
G01X512648Y2386016D01*
G03X548462Y2421830I0J35814D01*
G01X548462Y2535084D01*
G03X512648Y2570898I-35814J0D01*
G01X422809Y2570898D01*
G01X437927Y2586016D01*
G01X512648Y2586016D01*
G03X548119Y2616886I0J35814D01*
G01X601156Y2616886D01*
G01X601156Y2614647D01*
G03X616662Y2585147I35814J0D01*
G03X601156Y2555648I20308J-29500D01*
G01X601156Y2414647D01*
G03X636970Y2378833I35814J0D01*
G01X771971Y2378833D01*
G03X807785Y2414647I0J35814D01*
G01X807785Y2555648D01*
G03X792279Y2585147I-35814J0D01*
G03X807785Y2614647I-20308J29500D01*
G01X807785Y2616886D01*
G01X874586Y2616886D01*
G01X874586Y2607600D01*
G03X890091Y2578100I35814J0D01*
G03X874586Y2548600I20308J-29500D01*
G01X874586Y2407600D01*
G03X910400Y2371786I35814J0D01*
G01X1045401Y2371786D01*
G03X1081215Y2407600I0J35814D01*
G01X1081215Y2548600D01*
G03X1065709Y2578100I-35814J0D01*
G03X1081215Y2607600I-20308J29500D01*
G01X1081215Y2748600D01*
G03X1045401Y2784414I-35814J0D01*
G01X910400Y2784414D01*
G03X874586Y2748600I0J-35814D01*
G01X874586Y2739314D01*
G01X807785Y2739314D01*
G01X807785Y2755647D01*
G03X771971Y2791461I-35814J0D01*
G01X691709Y2791461D01*
G01X691709Y2988389D01*
G01X730895Y2988389D01*
G03X766709Y3024203I0J35814D01*
G01X766709Y3224202D01*
G03X730895Y3260016I-35814J0D01*
G01X530896Y3260016D01*
G03X495082Y3224202I0J-35814D01*
G01X495082Y3160014D01*
G01X464281Y3160014D01*
G03X352806Y3111500I-45181J-48514D01*
G03X464281Y3062986I66294J0D01*
G01X495082Y3062986D01*
G01X495082Y3024203D01*
G03X530896Y2988389I35814J0D01*
G01X570081Y2988389D01*
G01X570081Y2758722D01*
G03X573262Y2739314I60814J0D01*
G01X548211Y2739314D01*
G03X512648Y2770897I-35563J-4230D01*
G01X374947Y2770897D01*
G03X339133Y2735083I0J-35814D01*
G01X339133Y2660362D01*
G01X331324Y2652553D01*
G01X331324Y2686996D01*
G03X310459Y2719541I-35814J0D01*
G01X322402Y2731484D01*
G03X340214Y2774486I-43002J43002D01*
G01X340214Y3149600D01*
G03X322402Y3192602I-60814J0D01*
G01X278855Y3236149D01*
G03X247122Y3252908I-43002J-43002D01*
G01X247122Y3263647D01*
G03X211308Y3299461I-35814J0D01*
G01X76307Y3299461D01*
G03X40493Y3263647I0J-35814D01*
G01X40493Y3253961D01*
G01X-58967Y3253961D01*
G01X-58967Y3256896D01*
G03X-94781Y3292710I-35814J0D01*
G01X-219782Y3292710D01*
G03X-255596Y3256896I0J-35814D01*
G01X-255596Y2956897D01*
G03X-219782Y2921083I35814J0D01*
G01X-94781Y2921083D01*
G03X-58967Y2956897I0J35814D01*
G01X-58967Y3119207D01*
G01X-45841Y3132333D01*
G01X40493Y3132333D01*
G01X40493Y3122647D01*
G03X55999Y3093147I35814J0D01*
G03X40493Y3063648I20308J-29500D01*
G01X40493Y2922647D01*
G03X47190Y2901794I35814J0D01*
G01X-30302Y2824302D01*
G03X-48114Y2781300I43002J-43002D01*
G01X-48114Y2722196D01*
G03X-77324Y2686996I6604J-35200D01*
G01X-77324Y2633796D01*
G03X-70595Y2612898I35814J0D01*
G03X-77324Y2592000I29085J-20898D01*
G01X-77324Y2538800D01*
G03X-70595Y2517902I35814J0D01*
G03X-77324Y2497004I29085J-20898D01*
G01X-77324Y2466994D01*
G01X-93802Y2450516D01*
G37*
G36*
G01X-371786Y-3225800D02*
G03X-593414Y-3225800I-110814J0D01*
G03X-371786Y-3225800I110814J0D01*
G37*
G36*
G01X-117786Y-3225800D02*
G03X-339414Y-3225800I-110814J0D01*
G03X-117786Y-3225800I110814J0D01*
G37*
G36*
G01X137759Y2179049D02*
G03X173573Y2143235I35814J0D01*
G01X286827Y2143235D01*
G03X322641Y2179049I0J35814D01*
G01X322641Y2316751D01*
G03X286827Y2352565I-35814J0D01*
G01X173573Y2352565D01*
G03X137759Y2316751I0J-35814D01*
G01X137759Y2179049D01*
G37*
G36*
G01X431800Y-2782486D02*
G03X431800Y-3034114I0J-125814D01*
G03X431800Y-2782486I0J125814D01*
G37*
G36*
G01X431800Y-3036486D02*
G03X431800Y-3288114I0J-125814D01*
G03X431800Y-3036486I0J125814D01*
G37*
G36*
G01X305986Y-2744300D02*
G03X341800Y-2780114I35814J0D01*
G01X521800Y-2780114D01*
G03X557614Y-2744300I0J35814D01*
G01X557614Y-2564300D01*
G03X521800Y-2528486I-35814J0D01*
G01X341800Y-2528486D01*
G03X305986Y-2564300I0J-35814D01*
G01X305986Y-2744300D01*
G37*
G36*
G01X685800Y-2782486D02*
G03X685800Y-3034114I0J-125814D01*
G03X685800Y-2782486I0J125814D01*
G37*
G36*
G01X685800Y-3036486D02*
G03X685800Y-3288114I0J-125814D01*
G03X685800Y-3036486I0J125814D01*
G37*
G36*
G01X1109998Y2148722D02*
G03X1056436Y2250673I-55898J35678D01*
G01X1029585Y2277524D01*
G03X1002027Y2291262I-34305J-34305D01*
G01X1002027Y2310720D01*
G03X966213Y2346534I-35814J0D01*
G01X825212Y2346534D01*
G03X795713Y2331028I0J-35814D01*
G03X766213Y2346534I-29500J-20308D01*
G01X625213Y2346534D01*
G03X589399Y2310720I0J-35814D01*
G01X589399Y2175719D01*
G03X625213Y2139905I35814J0D01*
G01X766213Y2139905D01*
G03X795713Y2155411I0J35814D01*
G03X825212Y2139905I29500J20308D01*
G01X966213Y2139905D01*
G03X994972Y2154376I0J35814D01*
G03X1109998Y2148722I59128J30024D01*
G37*
G36*
G01X1536907Y3063389D02*
G01X1577486Y3022810D01*
G01X1577486Y2708825D01*
G03X1624039Y2438185I54052J-130026D01*
G03X1699114Y2702338I7499J140614D01*
G01X1699114Y3048000D01*
G03X1681302Y3091002I-60814J0D01*
G01X1605099Y3167204D01*
G03X1562097Y3185016I-43002J-43002D01*
G01X1206713Y3185016D01*
G01X1206713Y3224202D01*
G03X1170899Y3260016I-35814J0D01*
G01X970900Y3260016D01*
G03X935086Y3224202I0J-35814D01*
G01X935086Y3024203D01*
G03X970900Y2988389I35814J0D01*
G01X1170899Y2988389D01*
G03X1206713Y3024203I0J35814D01*
G01X1206713Y3063389D01*
G01X1536907Y3063389D01*
G37*
G36*
G01X1701800Y-2115012D02*
G03X1701800Y-1823385I0J145814D01*
G03X1701800Y-2115012I0J-145814D01*
G37*
G36*
G01X2460414Y3200000D02*
G03X1939586Y3200000I-260414J0D01*
G03X2460414Y3200000I260414J0D01*
G37*
G36*
G01X2460414Y-3200000D02*
G03X1939586Y-3200000I-260414J0D01*
G03X2460414Y-3200000I260414J0D01*
G37*
%LPD*%
G36*
G01X-1906841Y-1244155D02*
G03X-1872536Y-1229946I0J48514D01*
G01X-1819895Y-1177305D01*
G03X-1805686Y-1143000I-34305J34305D01*
G01X-1805686Y-1010695D01*
G01X-1788922Y-993932D01*
G03X-1793814Y-1011999I30922J-18068D01*
G01X-1793814Y-1147000D01*
G03X-1758000Y-1182814I35814J0D01*
G01X-1617000Y-1182814D01*
G03X-1587500Y-1167309I0J35814D01*
G03X-1558000Y-1182814I29500J20308D01*
G01X-1489295Y-1182814D01*
G01X-1365404Y-1306705D01*
G03X-1331100Y-1320914I34305J34305D01*
G01X-1276292Y-1320914D01*
G03X-1276291Y-1323886I50793J-1473D01*
G01X-1414498Y-1323886D01*
G01X-1414498Y-1314300D01*
G03X-1450312Y-1278486I-35814J0D01*
G01X-1510312Y-1278486D01*
G03X-1540256Y-1294653I0J-35814D01*
G03X-1570200Y-1278486I-29944J-19647D01*
G01X-1630200Y-1278486D01*
G03X-1660144Y-1294653I0J-35814D01*
G03X-1690088Y-1278486I-29944J-19647D01*
G01X-1750088Y-1278486D01*
G03X-1785902Y-1314300I0J-35814D01*
G01X-1785902Y-1454300D01*
G03X-1753675Y-1489934I35814J0D01*
G01X-1723405Y-1520205D01*
G03X-1689100Y-1534414I34305J34305D01*
G01X-1673158Y-1534414D01*
G03X-1660768Y-1607993I60258J-27686D01*
G03X-1587776Y-1623471I47868J45893D01*
G03X-1554137Y-1664370I63776J18171D01*
G03X-1501279Y-1667600I30137J59070D01*
G03X-1499678Y-1678686I66179J3900D01*
G01X-1618205Y-1678686D01*
G01X-1841008Y-1455883D01*
G03X-1875312Y-1441674I-34305J-34305D01*
G01X-1895575Y-1441674D01*
G01X-1895575Y-1440188D01*
G03X-1931389Y-1404374I-35814J0D01*
G01X-2056390Y-1404374D01*
G03X-2092204Y-1440188I0J-35814D01*
G01X-2092204Y-1540187D01*
G03X-2056390Y-1576001I35814J0D01*
G01X-1931389Y-1576001D01*
G03X-1895575Y-1540187I0J35814D01*
G01X-1895575Y-1538702D01*
G01X-1895306Y-1538702D01*
G01X-1672605Y-1761505D01*
G03X-1638300Y-1775714I34305J34305D01*
G01X-1270000Y-1775714D01*
G03X-1235695Y-1761505I0J48514D01*
G01X-1197404Y-1723213D01*
G01X-1126313Y-1723213D01*
G01X-1126313Y-1822399D01*
G03X-1074001Y-1873191I50814J0D01*
G01X-1074001Y-1918192D01*
G01X-1084495Y-1928685D01*
G01X-1189700Y-1928685D01*
G03X-1219200Y-1944191I0J-35814D01*
G03X-1248700Y-1928685I-29500J-20308D01*
G01X-1389700Y-1928685D01*
G03X-1425514Y-1964499I0J-35814D01*
G01X-1425514Y-2099500D01*
G03X-1389700Y-2135314I35814J0D01*
G01X-1248700Y-2135314D01*
G03X-1235143Y-2132650I0J35814D01*
G01X-1236802Y-2134308D01*
G03X-1254614Y-2177310I43002J-43002D01*
G01X-1254614Y-2590800D01*
G03X-1236802Y-2633802I60814J0D01*
G01X-1191114Y-2679490D01*
G01X-1191114Y-2946610D01*
G01X-1206290Y-2961786D01*
G01X-1879810Y-2961786D01*
G01X-1920386Y-2921210D01*
G01X-1920386Y-2910241D01*
G01X-1912349Y-2910241D01*
G03X-1876535Y-2874427I0J35814D01*
G01X-1876535Y-2761173D01*
G03X-1912349Y-2725359I-35814J0D01*
G01X-2050051Y-2725359D01*
G03X-2085619Y-2756986I0J-35814D01*
G01X-2122710Y-2756986D01*
G01X-2136286Y-2743410D01*
G01X-2136286Y-2332914D01*
G01X-2085865Y-2332914D01*
G01X-2085865Y-2341027D01*
G03X-2050051Y-2376841I35814J0D01*
G01X-1912349Y-2376841D01*
G03X-1876535Y-2341027I0J35814D01*
G01X-1876535Y-2227773D01*
G03X-1912349Y-2191959I-35814J0D01*
G01X-2050051Y-2191959D01*
G03X-2085865Y-2227773I0J-35814D01*
G01X-2085865Y-2235886D01*
G01X-2134686Y-2235886D01*
G01X-2134686Y-1244155D01*
G01X-1906841Y-1244155D01*
G37*
%LPC*%
G36*
G01X-2042404Y-1991959D02*
G01X-2050051Y-1991959D01*
G03X-2085865Y-2027773I0J-35814D01*
G01X-2085865Y-2141027D01*
G03X-2050051Y-2176841I35814J0D01*
G01X-1912349Y-2176841D01*
G03X-1876535Y-2141027I0J35814D01*
G01X-1876535Y-2027773D01*
G03X-1912349Y-1991959I-35814J0D01*
G01X-1945376Y-1991959D01*
G01X-1945376Y-1796016D01*
G01X-1931389Y-1796016D01*
G03X-1907247Y-1786656I0J35814D01*
G03X-1796290Y-1826514I65747J8656D01*
G01X-1747295Y-1826514D01*
G01X-1636014Y-1937795D01*
G01X-1636014Y-2288587D01*
G01X-1662500Y-2288587D01*
G03X-1698314Y-2324401I0J-35814D01*
G01X-1698314Y-2481605D01*
G01X-1735195Y-2518486D01*
G01X-1930400Y-2518486D01*
G03X-1955293Y-2525359I0J-48514D01*
G01X-2050051Y-2525359D01*
G03X-2085865Y-2561173I0J-35814D01*
G01X-2085865Y-2674427D01*
G03X-2050051Y-2710241I35814J0D01*
G01X-1912349Y-2710241D01*
G03X-1876535Y-2674427I0J35814D01*
G01X-1876535Y-2615514D01*
G01X-1715099Y-2615514D01*
G03X-1680795Y-2601305I0J48514D01*
G01X-1636014Y-2556524D01*
G01X-1636014Y-2824990D01*
G03X-1587500Y-2936514I48514J-45210D01*
G03X-1538986Y-2824990I0J66314D01*
G01X-1538986Y-2550215D01*
G01X-1512500Y-2550215D01*
G03X-1476686Y-2514401I0J35814D01*
G01X-1476686Y-2324401D01*
G03X-1512500Y-2288587I-35814J0D01*
G01X-1538986Y-2288587D01*
G01X-1538986Y-1917700D01*
G03X-1553195Y-1883395I-48514J0D01*
G01X-1692895Y-1743695D01*
G03X-1727200Y-1729486I-34305J-34305D01*
G01X-1796290Y-1729486D01*
G03X-1895575Y-1739615I-45210J-48514D01*
G01X-1895575Y-1660202D01*
G03X-1931389Y-1624388I-35814J0D01*
G01X-2056390Y-1624388D01*
G03X-2092204Y-1660202I0J-35814D01*
G01X-2092204Y-1760202D01*
G03X-2056390Y-1796016I35814J0D01*
G01X-2042404Y-1796016D01*
G01X-2042404Y-1991959D01*
G37*
%LPD*%
G36*
G01X-606486Y-715677D02*
G01X-606486Y-592899D01*
G03X-642300Y-557085I-35814J0D01*
G01X-783300Y-557085D01*
G03X-812800Y-572591I0J-35814D01*
G03X-842300Y-557085I-29500J-20308D01*
G01X-983300Y-557085D01*
G03X-1019114Y-592899I0J-35814D01*
G01X-1019114Y-699074D01*
G01X-1043686Y-674502D01*
G01X-1043686Y-566195D01*
G01X-1008605Y-531114D01*
G01X-596900Y-531114D01*
G03X-562595Y-516905I0J48514D01*
G01X-531114Y-485423D01*
G01X-531114Y-640305D01*
G01X-606486Y-715677D01*
G37*
G36*
G01X-654524Y-763714D02*
G01X-759792Y-868983D01*
G03X-774001Y-903287I34305J-34305D01*
G01X-774001Y-971609D01*
G03X-776973Y-971608I-1499J-50792D01*
G01X-776973Y-763714D01*
G01X-654524Y-763714D01*
G37*
G36*
G01X-425501Y-1723213D02*
G03X-410386Y-1720913I0J50814D01*
G01X-197432Y-1720913D01*
G03X-182702Y-1744802I57732J19114D01*
G01X-137900Y-1789604D01*
G01X-137014Y-1791743D01*
G01X-137014Y-2401416D01*
G03X-180086Y-2364170I-91586J-62384D01*
G01X-180086Y-2298700D01*
G03X-194295Y-2264395I-48514J0D01*
G01X-257795Y-2200895D01*
G03X-292100Y-2186686I-34305J-34305D01*
G01X-564105Y-2186686D01*
G01X-620170Y-2130621D01*
G03X-612000Y-2131314I8169J47821D01*
G01X-578581Y-2131314D01*
G03X-478540Y-2120020I45181J48514D01*
G03X-505018Y-2022889I-54860J37220D01*
G03X-476820Y-1928429I-28382J59911D01*
G03X-573729Y-1910361I-56580J-34549D01*
G01X-576974Y-1907117D01*
G01X-576974Y-1873192D01*
G03X-524687Y-1822399I1473J50793D01*
G01X-524687Y-1723213D01*
G01X-425501Y-1723213D01*
G37*
G36*
G01X-307086Y797277D02*
G01X-47005Y537195D01*
G03X-12700Y522986I34305J34305D01*
G01X640305Y522986D01*
G01X675386Y487905D01*
G01X675386Y172210D01*
G03X673367Y169942I48514J-45210D01*
G01X631205Y212105D01*
G03X596900Y226314I-34305J-34305D01*
G01X413510Y226314D01*
G03X301986Y177800I-45210J-48514D01*
G03X413510Y129286I66314J0D01*
G01X576805Y129286D01*
G01X578796Y127295D01*
G03X594564Y-2773I18104J-63795D01*
G01X628043Y-36253D01*
G03X603388Y-81591I29359J-45339D01*
G01X603388Y-129889D01*
G03X612282Y-159582I54014J0D01*
G03X591382Y-180482I12618J-33518D01*
G03X561689Y-171588I-29693J-45121D01*
G01X513391Y-171588D01*
G03X459830Y-218620I0J-54014D01*
G03X424251Y-186906I-35579J-4099D01*
G01X289250Y-186906D01*
G03X253436Y-222720I0J-35814D01*
G01X253436Y-363720D01*
G03X268942Y-393220I35814J0D01*
G03X253436Y-422719I20308J-29500D01*
G01X253436Y-437083D01*
G01X219246Y-437083D01*
G01X219246Y-423200D01*
G03X203740Y-393700I-35814J0D01*
G03X219246Y-364200I-20308J29500D01*
G01X219246Y-223200D01*
G03X183432Y-187386I-35814J0D01*
G01X48431Y-187386D01*
G03X12617Y-223200I0J-35814D01*
G01X12617Y-364200D01*
G03X28123Y-393700I35814J0D01*
G03X12617Y-423200I20308J-29500D01*
G01X12617Y-445186D01*
G01X-239700Y-445186D01*
G03X-274004Y-459395I0J-48514D01*
G01X-307086Y-492477D01*
G01X-307086Y797277D01*
G37*
G36*
G01X484809Y-1170379D02*
G03X460944Y-1203292I28582J-45832D01*
G01X460944Y-1175220D01*
G03X457123Y-1159122I-35814J0D01*
G03X484809Y-1170379I38177J54222D01*
G37*
G36*
G01X460065Y-234200D02*
G03X470248Y-258102I53326J8597D01*
G03X460065Y-282004I43143J-32499D01*
G01X460065Y-234200D01*
G37*
G36*
G01X460944Y-1229130D02*
G03X470248Y-1248710I52447J12919D01*
G03X460944Y-1268291I43143J-32499D01*
G01X460944Y-1229130D01*
G37*
G36*
G01X561689Y-1162197D02*
G01X528686Y-1162197D01*
G03X543814Y-1059690I-33386J57297D01*
G01X543814Y-962914D01*
G01X608501Y-962914D01*
G03X628238Y-1026736I64599J-14986D01*
G03X603388Y-1072200I29165J-45464D01*
G01X603388Y-1120498D01*
G03X612282Y-1150190I54014J0D01*
G03X591382Y-1171090I12618J-33518D01*
G03X561689Y-1162197I-29693J-45121D01*
G37*
G36*
G01X1021151Y6055D02*
G03X1056965Y41869I0J35814D01*
G01X1056965Y63855D01*
G01X1559783Y63855D01*
G03X1653286Y-106709I142017J-33058D01*
G01X1653286Y-170405D01*
G01X1581603Y-242087D01*
G01X1112846Y-242087D01*
G03X1061409Y-171588I-51437J16485D01*
G01X1013111Y-171588D01*
G03X983418Y-180482I0J-54014D01*
G03X962518Y-159582I-33518J-12618D01*
G03X971412Y-129889I-45121J29693D01*
G01X971412Y-124714D01*
G01X983490Y-124714D01*
G03X1095014Y-76200I45210J48514D01*
G03X983490Y-27686I-66314J0D01*
G01X958285Y-27686D01*
G03X951702Y-19493I-40888J-26111D01*
G01X926154Y6055D01*
G01X1021151Y6055D01*
G37*
G36*
G01X1013111Y-1530220D02*
G01X1061409Y-1530220D01*
G03X1069086Y-1529672I0J54014D01*
G01X1069086Y-1542005D01*
G01X1059405Y-1551686D01*
G01X980589Y-1551686D01*
G03X965720Y-1547785I-19592J-44382D01*
G03X962518Y-1542226I-48323J-24135D01*
G03X983418Y-1521326I-12618J33518D01*
G03X1013111Y-1530220I29693J45121D01*
G37*
G36*
G01X983418Y-530718D02*
G03X1013111Y-539612I29693J45121D01*
G01X1061409Y-539612D01*
G03X1086665Y-533343I0J54014D01*
G01X1086665Y-546526D01*
G01X1076245Y-556946D01*
G01X965604Y-556946D01*
G03X962518Y-551618I-48207J-24365D01*
G03X983418Y-530718I-12618J33518D01*
G37*
G54D10*
G01X-2200000Y3464186D02*
G01X2200000Y3464186D01*
G02X2464186Y3200001I0J-264186D01*
G01X2464186Y-3200000D01*
G02X2200000Y-3464186I-264186J0D01*
G01X-2200000Y-3464186D01*
G02X-2464186Y-3200000I0J264186D01*
G01X-2464186Y3200000D01*
G02X-2200000Y3464186I264186J0D01*
G01X-1939586Y3200000D02*
G03X-2460414Y3200000I-260414J0D01*
G03X-1939586Y3200000I260414J0D01*
G01X-1939586Y-3200000D02*
G03X-2460414Y-3200000I-260414J0D01*
G03X-1939586Y-3200000I260414J0D01*
G01X-2194414Y2054996D02*
G01X-2228251Y2054996D01*
G03X-2264065Y2019182I0J-35814D01*
G01X-2264065Y1910808D01*
G03X-2228251Y1874994I35814J0D01*
G01X-1734149Y1874994D01*
G03X-1698335Y1910808I0J35814D01*
G01X-1698335Y2019182D01*
G03X-1734149Y2054996I-35814J0D01*
G01X-1783300Y2054996D01*
G01X-1740996Y2097300D01*
G03X-1718409Y2205891I-24304J61700D01*
G03X-1827000Y2183304I-46891J-46891D01*
G01X-1955308Y2054996D01*
G01X-2072786Y2054996D01*
G01X-2072786Y2173300D01*
G03X-2090598Y2216302I-60814J0D01*
G01X-2119185Y2244890D01*
G01X-2119185Y2332700D01*
G03X-2134691Y2362200I-35814J0D01*
G03X-2119185Y2391700I-20308J29500D01*
G01X-2119185Y2532700D01*
G03X-2154999Y2568514I-35814J0D01*
G01X-2290000Y2568514D01*
G03X-2325814Y2532700I0J-35814D01*
G01X-2325814Y2391700D01*
G03X-2310309Y2362200I35814J0D01*
G03X-2325814Y2332700I20308J-29500D01*
G01X-2325814Y2191700D01*
G03X-2290000Y2155886I35814J0D01*
G01X-2202190Y2155886D01*
G01X-2194414Y2148110D01*
G01X-2194414Y2054996D01*
G01X-2062020Y-406D02*
G03X-2097834Y-36220I0J-35814D01*
G01X-2097834Y-171221D01*
G03X-2062020Y-207035I35814J0D01*
G01X-2053775Y-207035D01*
G01X-2054322Y-264759D01*
G01X-2062751Y-264759D01*
G03X-2093424Y-282086I0J-35814D01*
G01X-2120900Y-282086D01*
G03X-2163902Y-299898I0J-60814D01*
G01X-2238502Y-374498D01*
G03X-2256314Y-417500I43002J-43002D01*
G01X-2256314Y-2272141D01*
G03X-2257914Y-2286000I59214J-13859D01*
G01X-2257914Y-2768600D01*
G03X-2240102Y-2811602I60814J0D01*
G01X-2190902Y-2860802D01*
G03X-2147900Y-2878614I43002J43002D01*
G01X-2085619Y-2878614D01*
G03X-2050051Y-2910241I35568J4187D01*
G01X-2042014Y-2910241D01*
G01X-2042014Y-2946400D01*
G03X-2024202Y-2989402I60814J0D01*
G01X-1948002Y-3065602D01*
G03X-1905000Y-3083414I43002J43002D01*
G01X-1181100Y-3083414D01*
G03X-1138098Y-3065602I0J60814D01*
G01X-1087298Y-3014802D01*
G03X-1069486Y-2971800I-43002J43002D01*
G01X-1069486Y-2715114D01*
G01X-165100Y-2715114D01*
G03X-122098Y-2697302I0J60814D01*
G01X-33198Y-2608402D01*
G03X-15386Y-2565400I-43002J43002D01*
G01X-15386Y-1791743D01*
G03X-51896Y-1703600I-60814J26443D01*
G01X-96698Y-1658798D01*
G03X-131325Y-1641565I-43002J-43002D01*
G01X-134796Y-1638095D01*
G03X-169100Y-1623885I-34305J-34305D01*
G01X-217270Y-1623885D01*
G03X-175798Y-1551882I-24030J61786D01*
G03X-169100Y-1552514I6698J35182D01*
G01X-34099Y-1552514D01*
G03X1715Y-1516700I0J35814D01*
G01X1715Y-1375700D01*
G03X-13791Y-1346200I-35814J0D01*
G03X1715Y-1316700I-20308J29500D01*
G01X1715Y-1175700D01*
G03X-34099Y-1139886I-35814J0D01*
G01X-169100Y-1139886D01*
G03X-204914Y-1175700I0J-35814D01*
G01X-204914Y-1223886D01*
G01X-293884Y-1223886D01*
G03X-263927Y-1170736I-36316J55486D01*
G01X-245095Y-1151905D01*
G03X-230886Y-1117600I-34305J34305D01*
G01X-230886Y-553495D01*
G01X-219605Y-542214D01*
G01X12617Y-542214D01*
G01X12617Y-564200D01*
G03X48431Y-600014I35814J0D01*
G01X183432Y-600014D01*
G03X219246Y-564200I0J35814D01*
G01X219246Y-534111D01*
G01X253436Y-534111D01*
G01X253436Y-563720D01*
G03X289250Y-599534I35814J0D01*
G01X424251Y-599534D01*
G03X460065Y-563720I0J35814D01*
G01X460065Y-534111D01*
G01X489644Y-534111D01*
G03X513391Y-539612I23748J48514D01*
G01X561689Y-539612D01*
G03X591382Y-530718I0J54014D01*
G03X612282Y-551618I33518J12618D01*
G03X603388Y-581311I45121J-29693D01*
G01X603388Y-629609D01*
G03X608889Y-653356I54014J0D01*
G01X608889Y-673566D01*
G01X568424Y-673566D01*
G03X532610Y-709380I0J-35814D01*
G01X532610Y-847081D01*
G03X537944Y-865886I35814J0D01*
G01X508000Y-865886D01*
G03X473695Y-880095I0J-48514D01*
G01X460995Y-892795D01*
G03X446786Y-927100I34305J-34305D01*
G01X446786Y-1059690D01*
G03X441159Y-1143193I48514J-45210D01*
G03X425130Y-1139406I-16029J-32027D01*
G01X290129Y-1139406D01*
G03X254315Y-1175220I0J-35814D01*
G01X254315Y-1316220D01*
G03X269821Y-1345720I35814J0D01*
G03X254315Y-1375219I20308J-29500D01*
G01X254315Y-1397686D01*
G01X230315Y-1397686D01*
G01X230315Y-1375700D01*
G03X214809Y-1346200I-35814J0D01*
G03X230315Y-1316700I-20308J29500D01*
G01X230315Y-1175700D01*
G03X194501Y-1139886I-35814J0D01*
G01X59500Y-1139886D01*
G03X23686Y-1175700I0J-35814D01*
G01X23686Y-1316700D01*
G03X39191Y-1346200I35814J0D01*
G03X23686Y-1375700I20308J-29500D01*
G01X23686Y-1516700D01*
G03X59500Y-1552514I35814J0D01*
G01X194501Y-1552514D01*
G03X230315Y-1516700I0J35814D01*
G01X230315Y-1494714D01*
G01X254315Y-1494714D01*
G01X254315Y-1516220D01*
G03X290129Y-1552034I35814J0D01*
G01X309116Y-1552034D01*
G01X309116Y-1704486D01*
G01X255043Y-1704486D01*
G03X162286Y-1765300I-26443J-60814D01*
G03X255043Y-1826114I66314J0D01*
G01X296816Y-1826114D01*
G01X296816Y-2046730D01*
G03X314628Y-2089732I60814J0D01*
G01X379629Y-2154733D01*
G03X422631Y-2172545I43002J43002D01*
G01X431010Y-2172545D01*
G01X431010Y-2180581D01*
G03X466824Y-2216395I35814J0D01*
G01X513037Y-2216395D01*
G01X513037Y-2314151D01*
G03X527246Y-2348456I48514J0D01*
G01X624586Y-2445795D01*
G01X624586Y-2544382D01*
G03X699579Y-2779357I61214J-109918D01*
G03X721614Y-2533691I-13779J125057D01*
G01X721614Y-2425700D01*
G03X707405Y-2391395I-48514J0D01*
G01X610065Y-2294056D01*
G01X610065Y-2200162D01*
G03X615892Y-2180581I-29987J19581D01*
G01X615892Y-2042880D01*
G03X580078Y-2007066I-35814J0D01*
G01X466824Y-2007066D01*
G03X431891Y-2034987I0J-35814D01*
G01X418444Y-2021540D01*
G01X418444Y-1766423D01*
G03X406144Y-1729753I-60814J0D01*
G01X406144Y-1552034D01*
G01X425130Y-1552034D01*
G03X459921Y-1524719I0J35814D01*
G01X489643Y-1524719D01*
G03X513391Y-1530220I23749J48513D01*
G01X561689Y-1530220D01*
G03X591382Y-1521326I0J54014D01*
G03X612282Y-1542226I33518J12618D01*
G03X603388Y-1571919I45121J-29693D01*
G01X603388Y-1605622D01*
G01X487996Y-1721015D01*
G03X473786Y-1755320I34305J-34305D01*
G01X473786Y-1762235D01*
G01X465673Y-1762235D01*
G03X429859Y-1798049I0J-35814D01*
G01X429859Y-1935751D01*
G03X465673Y-1971565I35814J0D01*
G01X578927Y-1971565D01*
G03X614741Y-1935751I0J35814D01*
G01X614741Y-1798049D01*
G03X583677Y-1762552I-35814J0D01*
G01X674915Y-1671314D01*
G03X689902Y-1663361I-17513J51097D01*
G03X738886Y-1671655I32499J43143D01*
G01X738886Y-1762235D01*
G01X665673Y-1762235D01*
G03X629859Y-1798049I0J-35814D01*
G01X629859Y-1935751D01*
G03X665673Y-1971565I35814J0D01*
G01X778927Y-1971565D01*
G03X802386Y-1962812I0J35814D01*
G01X802386Y-2014863D01*
G03X780077Y-2007066I-22309J-28017D01*
G01X666824Y-2007066D01*
G03X631010Y-2042880I0J-35814D01*
G01X631010Y-2180581D01*
G03X666824Y-2216395I35814J0D01*
G01X674937Y-2216395D01*
G01X674937Y-2247451D01*
G03X689146Y-2281755I48514J0D01*
G01X740395Y-2333005D01*
G03X774700Y-2347214I34305J34305D01*
G01X1621915Y-2347214D01*
G03X1721359Y-2613694I79885J-121983D01*
G03X1746381Y-2330366I-19559J144496D01*
G03X1736105Y-2315195I-44581J-19134D01*
G01X1685305Y-2264395D01*
G03X1651000Y-2250186I-34305J-34305D01*
G01X794795Y-2250186D01*
G01X771965Y-2227356D01*
G01X771965Y-2216395D01*
G01X780077Y-2216395D01*
G03X815891Y-2180581I0J35814D01*
G01X815891Y-2065586D01*
G01X816595Y-2066305D01*
G01X843926Y-2093635D01*
G03X875736Y-2107780I34305J34305D01*
G01X875736Y-2129831D01*
G03X911550Y-2165645I35814J0D01*
G01X1046551Y-2165645D01*
G03X1082365Y-2129831I0J35814D01*
G01X1082365Y-2107845D01*
G01X1229969Y-2107845D01*
G03X1264274Y-2093635I0J48514D01*
G01X1291605Y-2066305D01*
G03X1305814Y-2032000I-34305J34305D01*
G01X1305814Y-1531395D01*
G01X1319496Y-1517713D01*
G01X1564293Y-1517713D01*
G03X1847614Y-1469199I137507J48514D01*
G03X1564293Y-1420685I-145814J0D01*
G01X1299401Y-1420685D01*
G03X1265096Y-1434895I0J-48514D01*
G01X1242314Y-1457677D01*
G01X1242314Y-1394722D01*
G01X1324792Y-1394722D01*
G03X1359097Y-1380513I0J48514D01*
G01X1638873Y-1100737D01*
G03X1804906Y-866095I62927J131536D01*
G03X1570264Y-1032128I-103106J-103106D01*
G01X1304697Y-1297694D01*
G01X1112846Y-1297694D01*
G03X1104552Y-1248710I-51437J16485D01*
G03X1061409Y-1162197I-43143J32499D01*
G01X1013111Y-1162197D01*
G03X983418Y-1171090I0J-54014D01*
G03X962518Y-1150190I-33518J-12618D01*
G03X971412Y-1120498I-45121J29693D01*
G01X971412Y-1110943D01*
G01X1027019Y-1055336D01*
G03X1100322Y-960174I14381J64736D01*
G03X980292Y-964845I-58922J-30426D01*
G01X933232Y-1011905D01*
G03X911124Y-921465I-56932J34005D01*
G03X820374Y-942265I-34824J-56435D01*
G01X760000Y-881890D01*
G03X768424Y-882895I8424J34809D01*
G01X881677Y-882895D01*
G03X917491Y-847081I0J35814D01*
G01X917491Y-709380D01*
G03X904968Y-682174I-35814J0D01*
G03X965604Y-653974I12429J52565D01*
G01X1096340Y-653974D01*
G03X1130645Y-639764I0J48514D01*
G01X1169483Y-600926D01*
G03X1183693Y-566621I-34305J34305D01*
G01X1183693Y-469113D01*
G01X1555986Y-469113D01*
G03X1677711Y-613012I145814J-89D01*
G03X1839683Y-516634I24089J143810D01*
G03X1863803Y-503506I-10185J47433D01*
G01X1952005Y-415305D01*
G03X1966214Y-381000I-34305J34305D01*
G01X1966214Y165100D01*
G03X1952005Y199405I-48514J0D01*
G01X1804736Y346674D01*
G03X1770431Y360883I-34305J-34305D01*
G01X1056965Y360883D01*
G01X1056965Y382869D01*
G03X1021151Y418683I-35814J0D01*
G01X886150Y418683D01*
G03X861314Y408672I0J-35814D01*
G01X861314Y520700D01*
G03X847105Y555005I-48514J0D01*
G01X732805Y669305D01*
G03X698500Y683514I-34305J-34305D01*
G01X598542Y683514D01*
G03X609674Y779138I-39742J53086D01*
G03X513590Y785114I-50874J-42538D01*
G01X444500Y785114D01*
G03X410195Y770905I0J-48514D01*
G01X386305Y747014D01*
G01X316453Y747014D01*
G03X344841Y782049I-7427J35035D01*
G01X344841Y815086D01*
G01X462790Y815086D01*
G03X574314Y863600I45210J48514D01*
G03X462790Y912114I-66314J0D01*
G01X344841Y912114D01*
G01X344841Y919751D01*
G03X344690Y923036I-35814J0D01*
G01X450850Y923036D01*
G03X485155Y937245I0J48514D01*
G01X629695Y1081786D01*
G01X714413Y1081786D01*
G01X714413Y983840D01*
G03X750227Y948026I35814J0D01*
G01X778586Y948026D01*
G01X778586Y941515D01*
G01X756600Y941515D01*
G03X720786Y905701I0J-35814D01*
G01X720786Y770700D01*
G03X756600Y734886I35814J0D01*
G01X897600Y734886D01*
G03X927100Y750391I0J35814D01*
G03X956600Y734886I29500J20308D01*
G01X1097600Y734886D01*
G03X1133414Y770700I0J35814D01*
G01X1133414Y905701D01*
G03X1097600Y941515I-35814J0D01*
G01X956600Y941515D01*
G03X927100Y926009I0J-35814D01*
G03X897600Y941515I-29500J-20308D01*
G01X875614Y941515D01*
G01X875614Y948026D01*
G01X891227Y948026D01*
G03X920727Y963532I0J35814D01*
G03X950226Y948026I29500J20308D01*
G01X1091227Y948026D01*
G03X1127041Y983840I0J35814D01*
G01X1127041Y1118841D01*
G03X1091227Y1154655I-35814J0D01*
G01X950226Y1154655D01*
G03X920727Y1139149I0J-35814D01*
G03X891227Y1154655I-29500J-20308D01*
G01X786021Y1154655D01*
G01X776072Y1164605D01*
G03X741767Y1178814I-34305J-34305D01*
G01X658114Y1178814D01*
G01X658114Y1207042D01*
G03X688822Y1196086I30708J37558D01*
G01X1553610Y1196086D01*
G03X1631539Y937988I77929J-117284D01*
G03X1709467Y1196086I0J140814D01*
G01X1816100Y1196086D01*
G03X1850405Y1210295I0J48514D01*
G01X1926605Y1286495D01*
G03X1940814Y1320800I-34305J34305D01*
G01X1940814Y2006600D01*
G03X1926605Y2040905I-48514J0D01*
G01X1837705Y2129805D01*
G03X1803400Y2144014I-34305J-34305D01*
G01X1756341Y2144014D01*
G03X1491855Y2060990I-124802J-65214D01*
G03X1768711Y2046986I139683J17809D01*
G01X1783305Y2046986D01*
G01X1843786Y1986505D01*
G01X1843786Y1340895D01*
G01X1796005Y1293114D01*
G01X1247423Y1293114D01*
G01X1278905Y1324595D01*
G03X1293114Y1358900I-34305J34305D01*
G01X1293114Y1503905D01*
G01X1319496Y1530287D01*
G01X1499346Y1530287D01*
G03X1772352Y1578801I132193J48514D01*
G03X1499346Y1627315I-140814J0D01*
G01X1299401Y1627315D01*
G03X1265096Y1613105I0J-48514D01*
G01X1210295Y1558305D01*
G03X1196086Y1524000I34305J-34305D01*
G01X1196086Y1378995D01*
G01X1170731Y1353640D01*
G01X757697Y1353640D01*
G03X760777Y1432877I-35114J41043D01*
G01X726625Y1467029D01*
G03X720935Y1471974I-38194J-38194D01*
G03X720935Y1499826I-32996J13926D01*
G03X726625Y1504771I-32505J43139D01*
G01X760777Y1538923D01*
G03X751529Y1622720I-38194J38194D01*
G01X751726Y1622917D01*
G03X796191Y1735991I-2362J66208D01*
G03X683027Y1691436I-46891J-46891D01*
G01X680777Y1689186D01*
G03X638187Y1722526I-50116J-20147D01*
G03X621516Y1754524I-53487J-7526D01*
G03X658267Y1790967I-24616J61576D01*
G03X675612Y1786486I17345J31333D01*
G01X735612Y1786486D01*
G03X765556Y1802653I0J35814D01*
G03X795500Y1786486I29944J19647D01*
G01X855500Y1786486D01*
G03X885444Y1802653I0J35814D01*
G03X915388Y1786486I29944J19647D01*
G01X975388Y1786486D01*
G03X1011202Y1822300I0J35814D01*
G01X1011202Y1962300D01*
G03X993665Y1993099I-35814J0D01*
G03X979693Y2022617I-48277J-4787D01*
G01X948705Y2053605D01*
G03X914400Y2067814I-34305J-34305D01*
G01X613234Y2067814D01*
G03X578930Y2053605I0J-48514D01*
G01X429305Y1903979D01*
G03X408623Y1891077I17512J-51097D01*
G01X374471Y1856925D01*
G03X369526Y1851235I38194J-38194D01*
G03X341674Y1851235I-13926J-32996D01*
G03X336729Y1856925I-43139J-32505D01*
G01X302577Y1891077D01*
G03X210896Y1860409I-38194J-38194D01*
G03X164935Y1814448I7526J-53487D01*
G03X129331Y1793478I7526J-53487D01*
G01X123205Y1799605D01*
G03X88900Y1813814I-34305J-34305D01*
G01X-190500Y1813814D01*
G03X-224805Y1799605I0J-48514D01*
G01X-389905Y1634505D01*
G03X-404114Y1600200I34305J-34305D01*
G01X-404114Y1056923D01*
G01X-537195Y1190005D01*
G03X-571500Y1204214I-34305J-34305D01*
G01X-1132554Y1204214D01*
G01X-1157986Y1229646D01*
G01X-1157986Y1750659D01*
G01X-1137649Y1750659D01*
G03X-1101835Y1786473I0J35814D01*
G01X-1101835Y1899727D01*
G03X-1137649Y1935541I-35814J0D01*
G01X-1275351Y1935541D01*
G03X-1311165Y1899727I0J-35814D01*
G01X-1311165Y1786473D01*
G03X-1275351Y1750659I35814J0D01*
G01X-1255014Y1750659D01*
G01X-1255014Y1690148D01*
G01X-1366317Y1801450D01*
G01X-1366317Y1894133D01*
G03X-1402131Y1929947I-35814J0D01*
G01X-1539832Y1929947D01*
G03X-1575646Y1894133I0J-35814D01*
G01X-1575646Y1780879D01*
G03X-1539832Y1745065I35814J0D01*
G01X-1447150Y1745065D01*
G01X-1331214Y1629129D01*
G01X-1331214Y1568558D01*
G03X-1355997Y1578517I-24783J-25855D01*
G01X-1555996Y1578517D01*
G03X-1591810Y1542703I0J-35814D01*
G01X-1591810Y1499419D01*
G01X-1698954Y1499419D01*
G03X-1734149Y1528606I-35196J-6627D01*
G01X-2228251Y1528606D01*
G03X-2264065Y1492792I0J-35814D01*
G01X-2264065Y1384418D01*
G03X-2228251Y1348604I35814J0D01*
G01X-1734149Y1348604D01*
G03X-1698954Y1377791I0J35814D01*
G01X-1591810Y1377791D01*
G01X-1591810Y1342704D01*
G03X-1555996Y1306890I35814J0D01*
G01X-1504511Y1306890D01*
G01X-1504511Y1176597D01*
G03X-1490301Y1142292I48514J0D01*
G01X-1361652Y1013643D01*
G03X-1320770Y954752I66252J2357D01*
G03X-1250219Y967486I25370J61248D01*
G01X-667795Y967486D01*
G01X-594614Y894305D01*
G01X-594614Y-411705D01*
G01X-616995Y-434086D01*
G01X-1028700Y-434086D01*
G03X-1063005Y-448295I0J-48514D01*
G01X-1126505Y-511795D01*
G03X-1140714Y-546100I34305J-34305D01*
G01X-1140714Y-688086D01*
G01X-1765300Y-688086D01*
G03X-1799605Y-702295I0J-48514D01*
G01X-1895596Y-798286D01*
G01X-1895596Y-754398D01*
G03X-1931410Y-718584I-35814J0D01*
G01X-1945386Y-718584D01*
G01X-1945386Y-649641D01*
G01X-1925049Y-649641D01*
G03X-1889235Y-613827I0J35814D01*
G01X-1889235Y-500573D01*
G03X-1925049Y-464759I-35814J0D01*
G01X-2062751Y-464759D01*
G03X-2098565Y-500573I0J-35814D01*
G01X-2098565Y-613827D01*
G03X-2062751Y-649641I35814J0D01*
G01X-2042414Y-649641D01*
G01X-2042414Y-718584D01*
G01X-2056411Y-718584D01*
G03X-2092225Y-754398I0J-35814D01*
G01X-2092225Y-854398D01*
G03X-2056411Y-890212I35814J0D01*
G01X-1987521Y-890212D01*
G01X-2028215Y-930906D01*
G03X-2034474Y-938599I34305J-34305D01*
G01X-2056411Y-938599D01*
G03X-2092225Y-974413I0J-35814D01*
G01X-2092225Y-1074412D01*
G03X-2056411Y-1110226I35814J0D01*
G01X-1931410Y-1110226D01*
G03X-1902714Y-1095841I0J35814D01*
G01X-1902714Y-1122905D01*
G01X-1926936Y-1147127D01*
G01X-2134686Y-1147127D01*
G01X-2134686Y-442690D01*
G01X-2098565Y-406568D01*
G01X-2098565Y-413827D01*
G03X-2062751Y-449641I35814J0D01*
G01X-1925049Y-449641D01*
G03X-1889235Y-413827I0J35814D01*
G01X-1889235Y-367214D01*
G01X-1017600Y-367214D01*
G03X-974598Y-349402I0J60814D01*
G01X-972998Y-347802D01*
G03X-955186Y-304800I-43002J43002D01*
G01X-955186Y762210D01*
G01X-901910Y815486D01*
G01X-763043Y815486D01*
G03X-670286Y876300I26443J60814D01*
G03X-763043Y937114I-66314J0D01*
G01X-927100Y937114D01*
G03X-970102Y919302I0J-60814D01*
G01X-1059002Y830402D01*
G03X-1076814Y787400I43002J-43002D01*
G01X-1076814Y-245586D01*
G01X-1932507Y-245586D01*
G01X-1932142Y-207035D01*
G01X-1921020Y-207035D01*
G03X-1891520Y-191529I0J35814D01*
G03X-1862021Y-207035I29500J20308D01*
G01X-1721020Y-207035D01*
G03X-1685206Y-171221I0J35814D01*
G01X-1685206Y-36220D01*
G03X-1721020Y-406I-35814J0D01*
G01X-1862021Y-406D01*
G03X-1891520Y-15912I0J-35814D01*
G03X-1921020Y-406I-29500J-20308D01*
G01X-1930706Y-406D01*
G01X-1930706Y249857D01*
G03X-1927576Y264500I-32683J14644D01*
G01X-1927576Y383686D01*
G01X-1677220Y383686D01*
G03X-1643410Y359686I33810J11814D01*
G01X-1396411Y359686D01*
G03X-1360597Y395500I0J35814D01*
G01X-1360597Y493500D01*
G03X-1396411Y529314I-35814J0D01*
G01X-1643410Y529314D01*
G03X-1677220Y505314I0J-35814D01*
G01X-1927576Y505314D01*
G01X-1927576Y624500D01*
G03X-1963390Y660314I-35814J0D01*
G01X-2038375Y660314D01*
G01X-2038375Y689889D01*
G03X-2052585Y724194I-48514J0D01*
G01X-2107708Y779317D01*
G03X-2227151Y798332I-63992J-17317D01*
G03X-2162025Y696416I55451J-36332D01*
G01X-2135403Y669794D01*
G01X-2135403Y660314D01*
G01X-2210389Y660314D01*
G03X-2246203Y624500I0J-35814D01*
G01X-2246203Y264500D01*
G03X-2210389Y228686I35814J0D01*
G01X-2052334Y228686D01*
G01X-2052334Y-406D01*
G01X-2062020Y-406D01*
G01X-1851802Y640192D02*
G03X-1817497Y625983I34305J34305D01*
G01X-1679224Y625983D01*
G01X-1679224Y625497D01*
G03X-1643410Y589683I35814J0D01*
G01X-1396411Y589683D01*
G03X-1360597Y625497I0J35814D01*
G01X-1360597Y723497D01*
G03X-1396411Y759311I-35814J0D01*
G01X-1509897Y759311D01*
G01X-1509897Y824457D01*
G03X-1570711Y917214I-60814J26443D01*
G03X-1631525Y824457I0J-66314D01*
G01X-1631525Y759311D01*
G01X-1643410Y759311D01*
G03X-1679224Y723497I0J-35814D01*
G01X-1679224Y723011D01*
G01X-1797402Y723011D01*
G01X-1905686Y831295D01*
G01X-1905686Y887286D01*
G01X-1883700Y887286D01*
G03X-1854200Y902791I0J35814D01*
G03X-1824700Y887286I29500J20308D01*
G01X-1683700Y887286D01*
G03X-1647886Y923100I0J35814D01*
G01X-1647886Y1058101D01*
G03X-1683700Y1093915I-35814J0D01*
G01X-1824700Y1093915D01*
G03X-1854200Y1078409I0J-35814D01*
G03X-1883700Y1093915I-29500J-20308D01*
G01X-2024700Y1093915D01*
G03X-2060514Y1058101I0J-35814D01*
G01X-2060514Y988314D01*
G01X-2126519Y988314D01*
G03X-2237994Y939800I-45181J-48514D01*
G03X-2126519Y891286I66294J0D01*
G01X-2041148Y891286D01*
G03X-2024700Y887286I16448J31814D01*
G01X-2002714Y887286D01*
G01X-2002714Y811200D01*
G03X-1988504Y776895I48514J0D01*
G01X-1851802Y640192D01*
G01X-2237994Y1117600D02*
G03X-2105406Y1117600I66294J0D01*
G03X-2237994Y1117600I-66294J0D01*
G01X-1720489Y3149826D02*
G01X-1720489Y3209826D01*
G03X-1912117Y3209826I-95814J0D01*
G01X-1912117Y3149826D01*
G03X-1720489Y3149826I95814J0D01*
G01X-1293611Y3346786D02*
G03X-1307821Y3312481I34305J-34305D01*
G01X-1307821Y2853446D01*
G03X-1320800Y2855214I-12979J-46746D01*
G01X-1384300Y2855214D01*
G03X-1418605Y2841005I0J-48514D01*
G01X-1444005Y2815605D01*
G03X-1457693Y2788388I34305J-34305D01*
G01X-1474306Y2788388D01*
G03X-1484300Y2786965I0J-35814D01*
G03X-1494293Y2788388I-9994J-34391D01*
G01X-1512092Y2788388D01*
G03X-1500886Y2819400I-37308J31012D01*
G01X-1500886Y2837690D01*
G03X-1548761Y2949211I-48514J45210D01*
G03X-1598776Y2838633I-639J-66311D01*
G01X-1605417Y2831992D01*
G03X-1661042Y2881577I-67884J-20162D01*
G03X-1730241Y2853933I-12259J-69746D01*
G03X-1912117Y2811818I-86062J-42115D01*
G01X-1912117Y2711818D01*
G03X-1770103Y2627879I95814J0D01*
G01X-1770103Y2622574D01*
G03X-1734289Y2586760I35814J0D01*
G01X-1674289Y2586760D01*
G03X-1664297Y2588182I0J35814D01*
G03X-1654305Y2586760I9992J34392D01*
G01X-1607820Y2586760D01*
G01X-1607820Y2534270D01*
G01X-1643508Y2534270D01*
G03X-1679322Y2498456I0J-35814D01*
G01X-1679322Y2360755D01*
G03X-1643508Y2324941I35814J0D01*
G01X-1530255Y2324941D01*
G03X-1494441Y2360755I0J35814D01*
G01X-1494441Y2498456D01*
G03X-1510792Y2528520I-35814J0D01*
G01X-1510792Y2586760D01*
G01X-1507737Y2586760D01*
G03X-1493611Y2555302I48430J2846D01*
G01X-1482105Y2543795D01*
G03X-1447800Y2529586I34305J34305D01*
G01X-1407820Y2529586D01*
G01X-1407820Y2397870D01*
G03X-1393611Y2363566I48514J0D01*
G01X-1355755Y2325710D01*
G01X-1355755Y2304900D01*
G01X-1505286Y2155370D01*
G03X-1518675Y2129946I34305J-34305D01*
G01X-1539832Y2129946D01*
G03X-1575646Y2094132I0J-35814D01*
G01X-1575646Y1980879D01*
G03X-1539832Y1945065I35814J0D01*
G01X-1402131Y1945065D01*
G03X-1366317Y1980879I0J35814D01*
G01X-1366317Y2094132D01*
G03X-1394347Y2129090I-35814J0D01*
G01X-1287146Y2236291D01*
G01X-1255014Y2236291D01*
G01X-1255014Y2135541D01*
G01X-1275351Y2135541D01*
G03X-1311165Y2099727I0J-35814D01*
G01X-1311165Y1986473D01*
G03X-1275351Y1950659I35814J0D01*
G01X-1137649Y1950659D01*
G03X-1101835Y1986473I0J35814D01*
G01X-1101835Y2099727D01*
G03X-1137649Y2135541I-35814J0D01*
G01X-1157986Y2135541D01*
G01X-1157986Y2236291D01*
G01X-1088621Y2236291D01*
G03X-1052807Y2272105I0J35814D01*
G01X-1052807Y2358506D01*
G03X-1088621Y2394320I-35814J0D01*
G01X-1157986Y2394320D01*
G01X-1157986Y2444153D01*
G03X-1155700Y2451166I-32727J14547D01*
G03X-1120687Y2422886I35013J7534D01*
G01X-1040040Y2422886D01*
G03X-1004226Y2458700I0J35814D01*
G01X-1004226Y2545100D01*
G03X-1040040Y2580914I-35814J0D01*
G01X-1120687Y2580914D01*
G03X-1155700Y2552634I0J-35814D01*
G03X-1190713Y2580914I-35013J-7534D01*
G01X-1241442Y2580914D01*
G01X-1247287Y2586760D01*
G01X-1244307Y2586760D01*
G03X-1234300Y2588186I0J35814D01*
G03X-1224294Y2586760I10006J34388D01*
G01X-1194294Y2586760D01*
G03X-1184295Y2588184I0J35814D01*
G03X-1174295Y2586760I9999J34390D01*
G01X-1114295Y2586760D01*
G03X-1104303Y2588182I0J35814D01*
G03X-1094311Y2586760I9992J34392D01*
G01X-1034311Y2586760D01*
G03X-998497Y2622574I0J35814D01*
G01X-998497Y2627879D01*
G03X-856483Y2711818I46200J83940D01*
G01X-856483Y2811818D01*
G03X-1038359Y2853933I-95814J0D01*
G03X-1114854Y2879892I-56940J-42102D01*
G03X-1144983Y2938516I-66246J3008D01*
G03X-1210793Y2942195I-36117J-55616D01*
G01X-1210793Y3289367D01*
G01X-1005715Y3289367D01*
G03X-1048111Y3209826I53418J-79541D01*
G01X-1048111Y3149826D01*
G03X-856483Y3149826I95814J0D01*
G01X-856483Y3209826D01*
G03X-898879Y3289367I-95814J0D01*
G01X-797339Y3289367D01*
G03X-813646Y3259332I19507J-30035D01*
G01X-813646Y3146078D01*
G03X-777832Y3110264I35814J0D01*
G01X-640131Y3110264D01*
G03X-604317Y3146078I0J35814D01*
G01X-604317Y3259332D01*
G03X-640131Y3295146I-35814J0D01*
G01X-647767Y3295146D01*
G01X-647767Y3312481D01*
G03X-661977Y3346786I-48514J0D01*
G01X-687377Y3372186D01*
G03X-721681Y3386395I-34305J-34305D01*
G01X-1233907Y3386395D01*
G03X-1268211Y3372186I0J-48514D01*
G01X-1293611Y3346786D01*
G01X-1694440Y2498456D02*
G03X-1730254Y2534270I-35814J0D01*
G01X-1843508Y2534270D01*
G03X-1879322Y2498456I0J-35814D01*
G01X-1879322Y2360755D01*
G03X-1843508Y2324941I35814J0D01*
G01X-1730254Y2324941D01*
G03X-1694440Y2360755I0J35814D01*
G01X-1694440Y2498456D01*
G01X-1512500Y-3350213D02*
G03X-1476686Y-3314399I0J35814D01*
G01X-1476686Y-3124399D01*
G03X-1512500Y-3088585I-35814J0D01*
G01X-1662500Y-3088585D01*
G03X-1698314Y-3124399I0J-35814D01*
G01X-1698314Y-3314399D01*
G03X-1662500Y-3350213I35814J0D01*
G01X-1512500Y-3350213D01*
G01X-1679224Y165503D02*
G03X-1643410Y129689I35814J0D01*
G01X-1396411Y129689D01*
G03X-1360597Y165503I0J35814D01*
G01X-1360597Y263503D01*
G03X-1396411Y299317I-35814J0D01*
G01X-1643410Y299317D01*
G03X-1679224Y263503I0J-35814D01*
G01X-1679224Y165503D01*
G01X-1051414Y1578517D02*
G01X-1115992Y1578517D01*
G03X-1151806Y1542703I0J-35814D01*
G01X-1151806Y1342704D01*
G03X-1115992Y1306890I35814J0D01*
G01X-915993Y1306890D01*
G03X-880179Y1342704I0J35814D01*
G01X-880179Y1378278D01*
G01X-813013Y1378278D01*
G01X-813013Y1339092D01*
G03X-777199Y1303278I35814J0D01*
G01X-577200Y1303278D01*
G03X-541386Y1339092I0J35814D01*
G01X-541386Y1539091D01*
G03X-577200Y1574905I-35814J0D01*
G01X-777199Y1574905D01*
G03X-813013Y1539091I0J-35814D01*
G01X-813013Y1499906D01*
G01X-880179Y1499906D01*
G01X-880179Y1542703D01*
G03X-915993Y1578517I-35814J0D01*
G01X-929786Y1578517D01*
G01X-929786Y1853157D01*
G03X-990600Y1945914I-60814J26443D01*
G03X-1051414Y1853157I0J-66314D01*
G01X-1051414Y1578517D01*
G01X-879786Y-3225800D02*
G03X-1101414Y-3225800I-110814J0D01*
G03X-879786Y-3225800I110814J0D01*
G01X-657714Y2453041D02*
G01X-665751Y2453041D01*
G03X-701319Y2421414I0J-35814D01*
G01X-801700Y2421414D01*
G03X-844702Y2403602I0J-60814D01*
G01X-906602Y2341702D01*
G03X-924414Y2298700I43002J-43002D01*
G01X-924414Y1892300D01*
G03X-906602Y1849298I60814J0D01*
G01X-871247Y1813943D01*
G03X-828245Y1796131I43002J43002D01*
G01X-813013Y1796131D01*
G01X-813013Y1779096D01*
G03X-777199Y1743282I35814J0D01*
G01X-577200Y1743282D01*
G03X-541386Y1779096I0J35814D01*
G01X-541386Y1843786D01*
G01X-439114Y1843786D01*
G03X-327640Y1892300I45181J48514D01*
G03X-439114Y1940814I-66294J0D01*
G01X-541386Y1940814D01*
G01X-541386Y1979096D01*
G03X-577200Y2014910I-35814J0D01*
G01X-777199Y2014910D01*
G03X-802786Y2004155I0J-35814D01*
G01X-802786Y2273510D01*
G01X-776510Y2299786D01*
G01X-701319Y2299786D01*
G03X-665751Y2268159I35568J4187D01*
G01X-528049Y2268159D01*
G03X-492235Y2303973I0J35814D01*
G01X-492235Y2417227D01*
G03X-528049Y2453041I-35814J0D01*
G01X-536086Y2453041D01*
G01X-536086Y2616410D01*
G01X-482810Y2669686D01*
G01X-442632Y2669686D01*
G01X-442632Y2642437D01*
G03X-406818Y2606623I35814J0D01*
G01X-136818Y2606623D01*
G03X-101004Y2642437I0J35814D01*
G01X-101004Y2805937D01*
G03X-136818Y2841751I-35814J0D01*
G01X-303378Y2841751D01*
G01X-321461Y2859834D01*
G01X-321461Y2921083D01*
G01X-319775Y2921083D01*
G03X-283961Y2956897I0J35814D01*
G01X-283961Y3256896D01*
G03X-319775Y3292710I-35814J0D01*
G01X-444776Y3292710D01*
G03X-480590Y3256896I0J-35814D01*
G01X-480590Y2956897D01*
G03X-444776Y2921083I35814J0D01*
G01X-443089Y2921083D01*
G01X-443089Y2834644D01*
G03X-440664Y2817643I60814J0D01*
G03X-442632Y2805937I33847J-11707D01*
G01X-442632Y2791314D01*
G01X-508000Y2791314D01*
G03X-551002Y2773502I0J-60814D01*
G01X-639902Y2684602D01*
G03X-657714Y2641600I43002J-43002D01*
G01X-657714Y2453041D01*
G01X-625786Y-3225800D02*
G03X-847414Y-3225800I-110814J0D01*
G03X-625786Y-3225800I110814J0D01*
G01X-640131Y2910265D02*
G03X-604317Y2946079I0J35814D01*
G01X-604317Y3059332D01*
G03X-640131Y3095146I-35814J0D01*
G01X-777832Y3095146D01*
G03X-813646Y3059332I0J-35814D01*
G01X-813646Y2946079D01*
G03X-777832Y2910265I35814J0D01*
G01X-640131Y2910265D01*
G01X-93802Y2450516D02*
G03X-101004Y2441834I43002J-43002D01*
G01X-101004Y2502458D01*
G03X-136818Y2538272I-35814J0D01*
G01X-406818Y2538272D01*
G03X-442632Y2502458I0J-35814D01*
G01X-442632Y2338958D01*
G03X-406818Y2303144I35814J0D01*
G01X-145060Y2303144D01*
G01X-209939Y2238265D01*
G01X-270927Y2238265D01*
G03X-301308Y2221414I0J-35814D01*
G01X-492481Y2221414D01*
G03X-528049Y2253041I-35568J-4187D01*
G01X-665751Y2253041D01*
G03X-701565Y2217227I0J-35814D01*
G01X-701565Y2103973D01*
G03X-665751Y2068159I35814J0D01*
G01X-528049Y2068159D01*
G03X-492481Y2099786I0J35814D01*
G01X-306741Y2099786D01*
G01X-306741Y2064749D01*
G03X-270927Y2028935I35814J0D01*
G01X-157673Y2028935D01*
G03X-121859Y2064749I0J35814D01*
G01X-121859Y2154337D01*
G01X-106741Y2169455D01*
G01X-106741Y2064749D01*
G03X-70927Y2028935I35814J0D01*
G01X42327Y2028935D01*
G03X78141Y2064749I0J35814D01*
G01X78141Y2202451D01*
G03X42327Y2238265I-35814J0D01*
G01X-37932Y2238265D01*
G01X-7798Y2268398D01*
G03X10014Y2311400I-43002J43002D01*
G01X10014Y2382324D01*
G01X35680Y2407990D01*
G01X65691Y2407990D01*
G03X101505Y2443804I0J35814D01*
G01X101505Y2497004D01*
G03X94775Y2517902I-35814J0D01*
G03X101505Y2538800I-29085J20898D01*
G01X101505Y2592000D01*
G03X94775Y2612898I-35814J0D01*
G03X101505Y2633796I-29085J20898D01*
G01X101505Y2686996D01*
G03X73514Y2721945I-35814J0D01*
G01X73514Y2756110D01*
G01X186809Y2869405D01*
G03X198982Y2886833I-43002J43002D01*
G01X211308Y2886833D01*
G03X218586Y2887581I0J35814D01*
G01X218586Y2799676D01*
G01X198908Y2779998D01*
G03X181096Y2736996I43002J-43002D01*
G01X181096Y2722076D01*
G03X152495Y2686996I7214J-35080D01*
G01X152495Y2633796D01*
G03X159225Y2612898I35814J0D01*
G03X152495Y2592000I29085J-20898D01*
G01X152495Y2538800D01*
G03X159225Y2517902I35814J0D01*
G03X152495Y2497004I29085J-20898D01*
G01X152495Y2443804D01*
G03X188309Y2407990I35814J0D01*
G01X295510Y2407990D01*
G03X323781Y2421818I0J35814D01*
G01X339133Y2421805D01*
G03X374947Y2386016I35801J13D01*
G01X395284Y2386016D01*
G01X395284Y2352565D01*
G01X373573Y2352565D01*
G03X337759Y2316751I0J-35814D01*
G01X337759Y2179049D01*
G03X373573Y2143235I35814J0D01*
G01X486827Y2143235D01*
G03X522641Y2179049I0J35814D01*
G01X522641Y2316751D01*
G03X492312Y2352142I-35814J0D01*
G01X492312Y2386016D01*
G01X512648Y2386016D01*
G03X548462Y2421830I0J35814D01*
G01X548462Y2535084D01*
G03X512648Y2570898I-35814J0D01*
G01X422809Y2570898D01*
G01X437927Y2586016D01*
G01X512648Y2586016D01*
G03X548119Y2616886I0J35814D01*
G01X601156Y2616886D01*
G01X601156Y2614647D01*
G03X616662Y2585147I35814J0D01*
G03X601156Y2555648I20308J-29500D01*
G01X601156Y2414647D01*
G03X636970Y2378833I35814J0D01*
G01X771971Y2378833D01*
G03X807785Y2414647I0J35814D01*
G01X807785Y2555648D01*
G03X792279Y2585147I-35814J0D01*
G03X807785Y2614647I-20308J29500D01*
G01X807785Y2616886D01*
G01X874586Y2616886D01*
G01X874586Y2607600D01*
G03X890091Y2578100I35814J0D01*
G03X874586Y2548600I20308J-29500D01*
G01X874586Y2407600D01*
G03X910400Y2371786I35814J0D01*
G01X1045401Y2371786D01*
G03X1081215Y2407600I0J35814D01*
G01X1081215Y2548600D01*
G03X1065709Y2578100I-35814J0D01*
G03X1081215Y2607600I-20308J29500D01*
G01X1081215Y2748600D01*
G03X1045401Y2784414I-35814J0D01*
G01X910400Y2784414D01*
G03X874586Y2748600I0J-35814D01*
G01X874586Y2739314D01*
G01X807785Y2739314D01*
G01X807785Y2755647D01*
G03X771971Y2791461I-35814J0D01*
G01X691709Y2791461D01*
G01X691709Y2988389D01*
G01X730895Y2988389D01*
G03X766709Y3024203I0J35814D01*
G01X766709Y3224202D01*
G03X730895Y3260016I-35814J0D01*
G01X530896Y3260016D01*
G03X495082Y3224202I0J-35814D01*
G01X495082Y3160014D01*
G01X464281Y3160014D01*
G03X352806Y3111500I-45181J-48514D01*
G03X464281Y3062986I66294J0D01*
G01X495082Y3062986D01*
G01X495082Y3024203D01*
G03X530896Y2988389I35814J0D01*
G01X570081Y2988389D01*
G01X570081Y2758722D01*
G03X573262Y2739314I60814J0D01*
G01X548211Y2739314D01*
G03X512648Y2770897I-35563J-4230D01*
G01X374947Y2770897D01*
G03X339133Y2735083I0J-35814D01*
G01X339133Y2660362D01*
G01X331324Y2652553D01*
G01X331324Y2686996D01*
G03X310459Y2719541I-35814J0D01*
G01X322402Y2731484D01*
G03X340214Y2774486I-43002J43002D01*
G01X340214Y3149600D01*
G03X322402Y3192602I-60814J0D01*
G01X278855Y3236149D01*
G03X247122Y3252908I-43002J-43002D01*
G01X247122Y3263647D01*
G03X211308Y3299461I-35814J0D01*
G01X76307Y3299461D01*
G03X40493Y3263647I0J-35814D01*
G01X40493Y3253961D01*
G01X-58967Y3253961D01*
G01X-58967Y3256896D01*
G03X-94781Y3292710I-35814J0D01*
G01X-219782Y3292710D01*
G03X-255596Y3256896I0J-35814D01*
G01X-255596Y2956897D01*
G03X-219782Y2921083I35814J0D01*
G01X-94781Y2921083D01*
G03X-58967Y2956897I0J35814D01*
G01X-58967Y3119207D01*
G01X-45841Y3132333D01*
G01X40493Y3132333D01*
G01X40493Y3122647D01*
G03X55999Y3093147I35814J0D01*
G03X40493Y3063648I20308J-29500D01*
G01X40493Y2922647D01*
G03X47190Y2901794I35814J0D01*
G01X-30302Y2824302D01*
G03X-48114Y2781300I43002J-43002D01*
G01X-48114Y2722196D01*
G03X-77324Y2686996I6604J-35200D01*
G01X-77324Y2633796D01*
G03X-70595Y2612898I35814J0D01*
G03X-77324Y2592000I29085J-20898D01*
G01X-77324Y2538800D01*
G03X-70595Y2517902I35814J0D01*
G03X-77324Y2497004I29085J-20898D01*
G01X-77324Y2466994D01*
G01X-93802Y2450516D01*
G01X-371786Y-3225800D02*
G03X-593414Y-3225800I-110814J0D01*
G03X-371786Y-3225800I110814J0D01*
G01X-117786Y-3225800D02*
G03X-339414Y-3225800I-110814J0D01*
G03X-117786Y-3225800I110814J0D01*
G01X137759Y2179049D02*
G03X173573Y2143235I35814J0D01*
G01X286827Y2143235D01*
G03X322641Y2179049I0J35814D01*
G01X322641Y2316751D01*
G03X286827Y2352565I-35814J0D01*
G01X173573Y2352565D01*
G03X137759Y2316751I0J-35814D01*
G01X137759Y2179049D01*
G01X431800Y-2782486D02*
G03X431800Y-3034114I0J-125814D01*
G03X431800Y-2782486I0J125814D01*
G01X431800Y-3036486D02*
G03X431800Y-3288114I0J-125814D01*
G03X431800Y-3036486I0J125814D01*
G01X305986Y-2744300D02*
G03X341800Y-2780114I35814J0D01*
G01X521800Y-2780114D01*
G03X557614Y-2744300I0J35814D01*
G01X557614Y-2564300D01*
G03X521800Y-2528486I-35814J0D01*
G01X341800Y-2528486D01*
G03X305986Y-2564300I0J-35814D01*
G01X305986Y-2744300D01*
G01X685800Y-2782486D02*
G03X685800Y-3034114I0J-125814D01*
G03X685800Y-2782486I0J125814D01*
G01X685800Y-3036486D02*
G03X685800Y-3288114I0J-125814D01*
G03X685800Y-3036486I0J125814D01*
G01X1109998Y2148722D02*
G03X1056436Y2250673I-55898J35678D01*
G01X1029585Y2277524D01*
G03X1002027Y2291262I-34305J-34305D01*
G01X1002027Y2310720D01*
G03X966213Y2346534I-35814J0D01*
G01X825212Y2346534D01*
G03X795713Y2331028I0J-35814D01*
G03X766213Y2346534I-29500J-20308D01*
G01X625213Y2346534D01*
G03X589399Y2310720I0J-35814D01*
G01X589399Y2175719D01*
G03X625213Y2139905I35814J0D01*
G01X766213Y2139905D01*
G03X795713Y2155411I0J35814D01*
G03X825212Y2139905I29500J20308D01*
G01X966213Y2139905D01*
G03X994972Y2154376I0J35814D01*
G03X1109998Y2148722I59128J30024D01*
G01X1536907Y3063389D02*
G01X1577486Y3022810D01*
G01X1577486Y2708825D01*
G03X1624039Y2438185I54052J-130026D01*
G03X1699114Y2702338I7499J140614D01*
G01X1699114Y3048000D01*
G03X1681302Y3091002I-60814J0D01*
G01X1605099Y3167204D01*
G03X1562097Y3185016I-43002J-43002D01*
G01X1206713Y3185016D01*
G01X1206713Y3224202D01*
G03X1170899Y3260016I-35814J0D01*
G01X970900Y3260016D01*
G03X935086Y3224202I0J-35814D01*
G01X935086Y3024203D01*
G03X970900Y2988389I35814J0D01*
G01X1170899Y2988389D01*
G03X1206713Y3024203I0J35814D01*
G01X1206713Y3063389D01*
G01X1536907Y3063389D01*
G01X1701800Y-2115012D02*
G03X1701800Y-1823385I0J145814D01*
G03X1701800Y-2115012I0J-145814D01*
G01X2460414Y3200000D02*
G03X1939586Y3200000I-260414J0D01*
G03X2460414Y3200000I260414J0D01*
G01X2460414Y-3200000D02*
G03X1939586Y-3200000I-260414J0D01*
G03X2460414Y-3200000I260414J0D01*
G01X-1906841Y-1244155D02*
G03X-1872536Y-1229946I0J48514D01*
G01X-1819895Y-1177305D01*
G03X-1805686Y-1143000I-34305J34305D01*
G01X-1805686Y-1010695D01*
G01X-1788922Y-993932D01*
G03X-1793814Y-1011999I30922J-18068D01*
G01X-1793814Y-1147000D01*
G03X-1758000Y-1182814I35814J0D01*
G01X-1617000Y-1182814D01*
G03X-1587500Y-1167309I0J35814D01*
G03X-1558000Y-1182814I29500J20308D01*
G01X-1489295Y-1182814D01*
G01X-1365404Y-1306705D01*
G03X-1331100Y-1320914I34305J34305D01*
G01X-1276292Y-1320914D01*
G03X-1276291Y-1323886I50793J-1473D01*
G01X-1414498Y-1323886D01*
G01X-1414498Y-1314300D01*
G03X-1450312Y-1278486I-35814J0D01*
G01X-1510312Y-1278486D01*
G03X-1540256Y-1294653I0J-35814D01*
G03X-1570200Y-1278486I-29944J-19647D01*
G01X-1630200Y-1278486D01*
G03X-1660144Y-1294653I0J-35814D01*
G03X-1690088Y-1278486I-29944J-19647D01*
G01X-1750088Y-1278486D01*
G03X-1785902Y-1314300I0J-35814D01*
G01X-1785902Y-1454300D01*
G03X-1753675Y-1489934I35814J0D01*
G01X-1723405Y-1520205D01*
G03X-1689100Y-1534414I34305J34305D01*
G01X-1673158Y-1534414D01*
G03X-1660768Y-1607993I60258J-27686D01*
G03X-1587776Y-1623471I47868J45893D01*
G03X-1554137Y-1664370I63776J18171D01*
G03X-1501279Y-1667600I30137J59070D01*
G03X-1499678Y-1678686I66179J3900D01*
G01X-1618205Y-1678686D01*
G01X-1841008Y-1455883D01*
G03X-1875312Y-1441674I-34305J-34305D01*
G01X-1895575Y-1441674D01*
G01X-1895575Y-1440188D01*
G03X-1931389Y-1404374I-35814J0D01*
G01X-2056390Y-1404374D01*
G03X-2092204Y-1440188I0J-35814D01*
G01X-2092204Y-1540187D01*
G03X-2056390Y-1576001I35814J0D01*
G01X-1931389Y-1576001D01*
G03X-1895575Y-1540187I0J35814D01*
G01X-1895575Y-1538702D01*
G01X-1895306Y-1538702D01*
G01X-1672605Y-1761505D01*
G03X-1638300Y-1775714I34305J34305D01*
G01X-1270000Y-1775714D01*
G03X-1235695Y-1761505I0J48514D01*
G01X-1197404Y-1723213D01*
G01X-1126313Y-1723213D01*
G01X-1126313Y-1822399D01*
G03X-1074001Y-1873191I50814J0D01*
G01X-1074001Y-1918192D01*
G01X-1084495Y-1928685D01*
G01X-1189700Y-1928685D01*
G03X-1219200Y-1944191I0J-35814D01*
G03X-1248700Y-1928685I-29500J-20308D01*
G01X-1389700Y-1928685D01*
G03X-1425514Y-1964499I0J-35814D01*
G01X-1425514Y-2099500D01*
G03X-1389700Y-2135314I35814J0D01*
G01X-1248700Y-2135314D01*
G03X-1235143Y-2132650I0J35814D01*
G01X-1236802Y-2134308D01*
G03X-1254614Y-2177310I43002J-43002D01*
G01X-1254614Y-2590800D01*
G03X-1236802Y-2633802I60814J0D01*
G01X-1191114Y-2679490D01*
G01X-1191114Y-2946610D01*
G01X-1206290Y-2961786D01*
G01X-1879810Y-2961786D01*
G01X-1920386Y-2921210D01*
G01X-1920386Y-2910241D01*
G01X-1912349Y-2910241D01*
G03X-1876535Y-2874427I0J35814D01*
G01X-1876535Y-2761173D01*
G03X-1912349Y-2725359I-35814J0D01*
G01X-2050051Y-2725359D01*
G03X-2085619Y-2756986I0J-35814D01*
G01X-2122710Y-2756986D01*
G01X-2136286Y-2743410D01*
G01X-2136286Y-2332914D01*
G01X-2085865Y-2332914D01*
G01X-2085865Y-2341027D01*
G03X-2050051Y-2376841I35814J0D01*
G01X-1912349Y-2376841D01*
G03X-1876535Y-2341027I0J35814D01*
G01X-1876535Y-2227773D01*
G03X-1912349Y-2191959I-35814J0D01*
G01X-2050051Y-2191959D01*
G03X-2085865Y-2227773I0J-35814D01*
G01X-2085865Y-2235886D01*
G01X-2134686Y-2235886D01*
G01X-2134686Y-1244155D01*
G01X-1906841Y-1244155D01*
G01X-2042404Y-1991959D02*
G01X-2050051Y-1991959D01*
G03X-2085865Y-2027773I0J-35814D01*
G01X-2085865Y-2141027D01*
G03X-2050051Y-2176841I35814J0D01*
G01X-1912349Y-2176841D01*
G03X-1876535Y-2141027I0J35814D01*
G01X-1876535Y-2027773D01*
G03X-1912349Y-1991959I-35814J0D01*
G01X-1945376Y-1991959D01*
G01X-1945376Y-1796016D01*
G01X-1931389Y-1796016D01*
G03X-1907247Y-1786656I0J35814D01*
G03X-1796290Y-1826514I65747J8656D01*
G01X-1747295Y-1826514D01*
G01X-1636014Y-1937795D01*
G01X-1636014Y-2288587D01*
G01X-1662500Y-2288587D01*
G03X-1698314Y-2324401I0J-35814D01*
G01X-1698314Y-2481605D01*
G01X-1735195Y-2518486D01*
G01X-1930400Y-2518486D01*
G03X-1955293Y-2525359I0J-48514D01*
G01X-2050051Y-2525359D01*
G03X-2085865Y-2561173I0J-35814D01*
G01X-2085865Y-2674427D01*
G03X-2050051Y-2710241I35814J0D01*
G01X-1912349Y-2710241D01*
G03X-1876535Y-2674427I0J35814D01*
G01X-1876535Y-2615514D01*
G01X-1715099Y-2615514D01*
G03X-1680795Y-2601305I0J48514D01*
G01X-1636014Y-2556524D01*
G01X-1636014Y-2824990D01*
G03X-1587500Y-2936514I48514J-45210D01*
G03X-1538986Y-2824990I0J66314D01*
G01X-1538986Y-2550215D01*
G01X-1512500Y-2550215D01*
G03X-1476686Y-2514401I0J35814D01*
G01X-1476686Y-2324401D01*
G03X-1512500Y-2288587I-35814J0D01*
G01X-1538986Y-2288587D01*
G01X-1538986Y-1917700D01*
G03X-1553195Y-1883395I-48514J0D01*
G01X-1692895Y-1743695D01*
G03X-1727200Y-1729486I-34305J-34305D01*
G01X-1796290Y-1729486D01*
G03X-1895575Y-1739615I-45210J-48514D01*
G01X-1895575Y-1660202D01*
G03X-1931389Y-1624388I-35814J0D01*
G01X-2056390Y-1624388D01*
G03X-2092204Y-1660202I0J-35814D01*
G01X-2092204Y-1760202D01*
G03X-2056390Y-1796016I35814J0D01*
G01X-2042404Y-1796016D01*
G01X-2042404Y-1991959D01*
G01X-606486Y-715677D02*
G01X-606486Y-592899D01*
G03X-642300Y-557085I-35814J0D01*
G01X-783300Y-557085D01*
G03X-812800Y-572591I0J-35814D01*
G03X-842300Y-557085I-29500J-20308D01*
G01X-983300Y-557085D01*
G03X-1019114Y-592899I0J-35814D01*
G01X-1019114Y-699074D01*
G01X-1043686Y-674502D01*
G01X-1043686Y-566195D01*
G01X-1008605Y-531114D01*
G01X-596900Y-531114D01*
G03X-562595Y-516905I0J48514D01*
G01X-531114Y-485423D01*
G01X-531114Y-640305D01*
G01X-606486Y-715677D01*
G01X-654524Y-763714D02*
G01X-759792Y-868983D01*
G03X-774001Y-903287I34305J-34305D01*
G01X-774001Y-971609D01*
G03X-776973Y-971608I-1499J-50792D01*
G01X-776973Y-763714D01*
G01X-654524Y-763714D01*
G01X-425501Y-1723213D02*
G03X-410386Y-1720913I0J50814D01*
G01X-197432Y-1720913D01*
G03X-182702Y-1744802I57732J19114D01*
G01X-137900Y-1789604D01*
G01X-137014Y-1791743D01*
G01X-137014Y-2401416D01*
G03X-180086Y-2364170I-91586J-62384D01*
G01X-180086Y-2298700D01*
G03X-194295Y-2264395I-48514J0D01*
G01X-257795Y-2200895D01*
G03X-292100Y-2186686I-34305J-34305D01*
G01X-564105Y-2186686D01*
G01X-620170Y-2130621D01*
G03X-612000Y-2131314I8169J47821D01*
G01X-578581Y-2131314D01*
G03X-478540Y-2120020I45181J48514D01*
G03X-505018Y-2022889I-54860J37220D01*
G03X-476820Y-1928429I-28382J59911D01*
G03X-573729Y-1910361I-56580J-34549D01*
G01X-576974Y-1907117D01*
G01X-576974Y-1873192D01*
G03X-524687Y-1822399I1473J50793D01*
G01X-524687Y-1723213D01*
G01X-425501Y-1723213D01*
G01X-307086Y797277D02*
G01X-47005Y537195D01*
G03X-12700Y522986I34305J34305D01*
G01X640305Y522986D01*
G01X675386Y487905D01*
G01X675386Y172210D01*
G03X673367Y169942I48514J-45210D01*
G01X631205Y212105D01*
G03X596900Y226314I-34305J-34305D01*
G01X413510Y226314D01*
G03X301986Y177800I-45210J-48514D01*
G03X413510Y129286I66314J0D01*
G01X576805Y129286D01*
G01X578796Y127295D01*
G03X594564Y-2773I18104J-63795D01*
G01X628043Y-36253D01*
G03X603388Y-81591I29359J-45339D01*
G01X603388Y-129889D01*
G03X612282Y-159582I54014J0D01*
G03X591382Y-180482I12618J-33518D01*
G03X561689Y-171588I-29693J-45121D01*
G01X513391Y-171588D01*
G03X459830Y-218620I0J-54014D01*
G03X424251Y-186906I-35579J-4099D01*
G01X289250Y-186906D01*
G03X253436Y-222720I0J-35814D01*
G01X253436Y-363720D01*
G03X268942Y-393220I35814J0D01*
G03X253436Y-422719I20308J-29500D01*
G01X253436Y-437083D01*
G01X219246Y-437083D01*
G01X219246Y-423200D01*
G03X203740Y-393700I-35814J0D01*
G03X219246Y-364200I-20308J29500D01*
G01X219246Y-223200D01*
G03X183432Y-187386I-35814J0D01*
G01X48431Y-187386D01*
G03X12617Y-223200I0J-35814D01*
G01X12617Y-364200D01*
G03X28123Y-393700I35814J0D01*
G03X12617Y-423200I20308J-29500D01*
G01X12617Y-445186D01*
G01X-239700Y-445186D01*
G03X-274004Y-459395I0J-48514D01*
G01X-307086Y-492477D01*
G01X-307086Y797277D01*
G01X484809Y-1170379D02*
G03X460944Y-1203292I28582J-45832D01*
G01X460944Y-1175220D01*
G03X457123Y-1159122I-35814J0D01*
G03X484809Y-1170379I38177J54222D01*
G01X460065Y-234200D02*
G03X470248Y-258102I53326J8597D01*
G03X460065Y-282004I43143J-32499D01*
G01X460065Y-234200D01*
G01X460944Y-1229130D02*
G03X470248Y-1248710I52447J12919D01*
G03X460944Y-1268291I43143J-32499D01*
G01X460944Y-1229130D01*
G01X561689Y-1162197D02*
G01X528686Y-1162197D01*
G03X543814Y-1059690I-33386J57297D01*
G01X543814Y-962914D01*
G01X608501Y-962914D01*
G03X628238Y-1026736I64599J-14986D01*
G03X603388Y-1072200I29165J-45464D01*
G01X603388Y-1120498D01*
G03X612282Y-1150190I54014J0D01*
G03X591382Y-1171090I12618J-33518D01*
G03X561689Y-1162197I-29693J-45121D01*
G01X1021151Y6055D02*
G03X1056965Y41869I0J35814D01*
G01X1056965Y63855D01*
G01X1559783Y63855D01*
G03X1653286Y-106709I142017J-33058D01*
G01X1653286Y-170405D01*
G01X1581603Y-242087D01*
G01X1112846Y-242087D01*
G03X1061409Y-171588I-51437J16485D01*
G01X1013111Y-171588D01*
G03X983418Y-180482I0J-54014D01*
G03X962518Y-159582I-33518J-12618D01*
G03X971412Y-129889I-45121J29693D01*
G01X971412Y-124714D01*
G01X983490Y-124714D01*
G03X1095014Y-76200I45210J48514D01*
G03X983490Y-27686I-66314J0D01*
G01X958285Y-27686D01*
G03X951702Y-19493I-40888J-26111D01*
G01X926154Y6055D01*
G01X1021151Y6055D01*
G01X1013111Y-1530220D02*
G01X1061409Y-1530220D01*
G03X1069086Y-1529672I0J54014D01*
G01X1069086Y-1542005D01*
G01X1059405Y-1551686D01*
G01X980589Y-1551686D01*
G03X965720Y-1547785I-19592J-44382D01*
G03X962518Y-1542226I-48323J-24135D01*
G03X983418Y-1521326I-12618J33518D01*
G03X1013111Y-1530220I29693J45121D01*
G01X983418Y-530718D02*
G03X1013111Y-539612I29693J45121D01*
G01X1061409Y-539612D01*
G03X1086665Y-533343I0J54014D01*
G01X1086665Y-546526D01*
G01X1076245Y-556946D01*
G01X965604Y-556946D01*
G03X962518Y-551618I-48207J-24365D01*
G03X983418Y-530718I-12618J33518D01*
G54D11*
G01X625467Y2243220D02*
G01X599559Y2243220D01*
G01X695713Y2175973D02*
G01X695713Y2150065D01*
G01X695713Y2310466D02*
G01X695713Y2336374D01*
G01X42073Y2133600D02*
G01X67981Y2133600D01*
G01X-70673Y2133600D02*
G01X-96581Y2133600D01*
G01X-14300Y2065003D02*
G01X-14300Y2039095D01*
G01X-14300Y2202197D02*
G01X-14300Y2228105D01*
G01X-1088875Y2315305D02*
G01X-1062967Y2315305D01*
G01X-1128945Y2272359D02*
G01X-1128945Y2246451D01*
G01X-1128945Y2358252D02*
G01X-1128945Y2384160D01*
G01X-1064311Y2622828D02*
G01X-1064311Y2596920D01*
G01X173827Y2247900D02*
G01X147919Y2247900D01*
G01X286573Y2247900D02*
G01X312481Y2247900D01*
G01X230200Y2316497D02*
G01X230200Y2342405D01*
G01X230200Y2179303D02*
G01X230200Y2153395D01*
G01X-1040294Y2501900D02*
G01X-1014386Y2501900D01*
G01X-1080364Y2458954D02*
G01X-1080364Y2433046D01*
G01X-1080364Y2544846D02*
G01X-1080364Y2570754D01*
G01X-271818Y2339212D02*
G01X-271818Y2313304D01*
G01X-271818Y2502204D02*
G01X-271818Y2528112D01*
G01X-406564Y2420708D02*
G01X-432472Y2420708D01*
G01X65437Y2565400D02*
G01X91345Y2565400D01*
G01X-41256Y2565400D02*
G01X-67164Y2565400D01*
G01X-1704289Y2622828D02*
G01X-1704289Y2596920D01*
G01X-560755Y-1772399D02*
G01X-534847Y-1772399D01*
G01X-1090245Y-1772399D02*
G01X-1116153Y-1772399D01*
G01X704470Y2414901D02*
G01X704470Y2388993D01*
G01X637224Y2485147D02*
G01X611316Y2485147D01*
G01X771717Y2485147D02*
G01X797625Y2485147D01*
G01X-1730508Y2429605D02*
G01X-1704600Y2429605D01*
G01X-1843254Y2429605D02*
G01X-1869162Y2429605D01*
G01X-1786881Y2361009D02*
G01X-1786881Y2335101D01*
G01X-1786881Y2498202D02*
G01X-1786881Y2524110D01*
G01X-2222500Y2532446D02*
G01X-2222500Y2558354D01*
G01X-2289746Y2462200D02*
G01X-2315654Y2462200D01*
G01X-2155253Y2462200D02*
G01X-2129345Y2462200D01*
G01X-708981Y2946333D02*
G01X-708981Y2920425D01*
G01X-708981Y3059078D02*
G01X-708981Y3084986D01*
G01X-777578Y3002705D02*
G01X-803486Y3002705D01*
G01X-640385Y3002705D02*
G01X-614477Y3002705D01*
G01X-101600Y-1516446D02*
G01X-101600Y-1542354D01*
G01X-34353Y-1446200D02*
G01X-8445Y-1446200D01*
G01X1037260Y-1494152D02*
G01X1037260Y-1520060D01*
G01X-1600200Y-1314554D02*
G01X-1600200Y-1288646D01*
G01X127000Y-1175954D02*
G01X127000Y-1150046D01*
G01X194247Y-1246200D02*
G01X220155Y-1246200D01*
G01X59754Y-1246200D02*
G01X33846Y-1246200D01*
G01X357630Y-1175474D02*
G01X357630Y-1149566D01*
G01X424876Y-1245720D02*
G01X450784Y-1245720D01*
G01X290383Y-1245720D02*
G01X264475Y-1245720D01*
G01X-1389446Y-2032000D02*
G01X-1415354Y-2032000D01*
G01X-1319200Y-1964753D02*
G01X-1319200Y-1938845D01*
G01X-1319200Y-2099246D02*
G01X-1319200Y-2125154D01*
G01X-1587500Y-3314145D02*
G01X-1587500Y-3340053D01*
G01X-1587500Y-3124653D02*
G01X-1587500Y-3098745D01*
G01X-1662246Y-3219399D02*
G01X-1688154Y-3219399D01*
G01X-1512754Y-3219399D02*
G01X-1486846Y-3219399D01*
G01X-1643156Y214503D02*
G01X-1669064Y214503D01*
G01X-1396665Y214503D02*
G01X-1370757Y214503D01*
G01X-1519911Y263249D02*
G01X-1519911Y289157D01*
G01X-1519911Y165757D02*
G01X-1519911Y139849D01*
G01X-1683954Y990600D02*
G01X-1658046Y990600D01*
G01X-1754200Y923354D02*
G01X-1754200Y897446D01*
G01X-1754200Y1057847D02*
G01X-1754200Y1083755D01*
G01X718197Y1547351D02*
G01X736516Y1529031D01*
G01X735273Y1589807D02*
G01X753592Y1608127D01*
G01X-2201926Y1117600D02*
G01X-2227834Y1117600D01*
G01X-2141474Y1117600D02*
G01X-2115566Y1117600D01*
G01X-2171700Y1147826D02*
G01X-2171700Y1173734D01*
G01X-2171700Y1087374D02*
G01X-2171700Y1061466D01*
G01X1090973Y1051340D02*
G01X1116881Y1051340D01*
G01X1020726Y984094D02*
G01X1020726Y958186D01*
G01X1020726Y1118587D02*
G01X1020726Y1144495D01*
G01X639456Y-1096349D02*
G01X613548Y-1096349D01*
G01X-642554Y-660400D02*
G01X-616646Y-660400D01*
G01X-712800Y-727646D02*
G01X-712800Y-753554D01*
G01X-712800Y-593153D02*
G01X-712800Y-567245D01*
G01X1037260Y-503544D02*
G01X1037260Y-529452D01*
G01X537540Y-207656D02*
G01X537540Y-181748D01*
G01X-1721274Y-103721D02*
G01X-1695366Y-103721D01*
G01X-1791520Y-170967D02*
G01X-1791520Y-196875D01*
G01X-1791520Y-36474D02*
G01X-1791520Y-10566D01*
G01X356751Y-222974D02*
G01X356751Y-197066D01*
G01X289504Y-293220D02*
G01X263596Y-293220D01*
G01X597390Y1727690D02*
G01X615710Y1746010D01*
G01X825500Y1822554D02*
G01X825500Y1796646D01*
G01X977900Y2407854D02*
G01X977900Y2381946D01*
G01X910654Y2478100D02*
G01X884746Y2478100D01*
G01X1045147Y2478100D02*
G01X1071055Y2478100D01*
G01X251693Y1865573D02*
G01X233373Y1883892D01*
G01X294149Y1848497D02*
G01X312469Y1866816D01*
G01X1079355Y-225603D02*
G01X1105263Y-225603D01*
G01X1037260Y-207656D02*
G01X1037260Y-181748D01*
G01X115931Y-223454D02*
G01X115931Y-197546D01*
G01X183178Y-293700D02*
G01X209086Y-293700D01*
G01X48685Y-293700D02*
G01X22777Y-293700D01*
G01X1097346Y838200D02*
G01X1123254Y838200D01*
G01X1027100Y770954D02*
G01X1027100Y745046D01*
G01X1027100Y905447D02*
G01X1027100Y931355D01*
G01X639456Y-105740D02*
G01X613548Y-105740D01*
G01X537540Y-1198265D02*
G01X537540Y-1172357D01*
G01X1079355Y-1216211D02*
G01X1105263Y-1216211D01*
G01X1037260Y-1198265D02*
G01X1037260Y-1172357D01*
G01X-1757746Y-1079500D02*
G01X-1783654Y-1079500D01*
G01X-1687500Y-1146746D02*
G01X-1687500Y-1172654D01*
G01X-1756557Y3179826D02*
G01X-1730649Y3179826D01*
G01X-1876049Y3179826D02*
G01X-1901957Y3179826D01*
G01X-1816303Y3090080D02*
G01X-1816303Y3064172D01*
G01X-1816303Y3269572D02*
G01X-1816303Y3295480D01*
G01X-1876049Y2761818D02*
G01X-1901957Y2761818D01*
G01X-1816303Y2652072D02*
G01X-1816303Y2626164D01*
G01X-1816303Y2871564D02*
G01X-1816303Y2897472D01*
G01X-915854Y-3225800D02*
G01X-889946Y-3225800D01*
G01X-1065346Y-3225800D02*
G01X-1091254Y-3225800D01*
G01X-990600Y-3300546D02*
G01X-990600Y-3326454D01*
G01X-990600Y-3151054D02*
G01X-990600Y-3125146D01*
G01X-892551Y3179826D02*
G01X-866643Y3179826D01*
G01X-1012043Y3179826D02*
G01X-1037951Y3179826D01*
G01X-952297Y3090080D02*
G01X-952297Y3064172D01*
G01X-892551Y2761818D02*
G01X-866643Y2761818D01*
G01X-952297Y2652072D02*
G01X-952297Y2626164D01*
G01X-952297Y2871564D02*
G01X-952297Y2897472D01*
G01X-661854Y-3225800D02*
G01X-635946Y-3225800D01*
G01X-811346Y-3225800D02*
G01X-837254Y-3225800D01*
G01X-736600Y-3300546D02*
G01X-736600Y-3326454D01*
G01X-736600Y-3151054D02*
G01X-736600Y-3125146D01*
G01X-407854Y-3225800D02*
G01X-381946Y-3225800D01*
G01X-557346Y-3225800D02*
G01X-583254Y-3225800D01*
G01X-482600Y-3300546D02*
G01X-482600Y-3326454D01*
G01X-482600Y-3151054D02*
G01X-482600Y-3125146D01*
G01X-153854Y-3225800D02*
G01X-127946Y-3225800D01*
G01X-303346Y-3225800D02*
G01X-329254Y-3225800D01*
G01X-228600Y-3300546D02*
G01X-228600Y-3326454D01*
G01X-228600Y-3151054D02*
G01X-228600Y-3125146D01*
G01X685800Y-3072554D02*
G01X685800Y-3046646D01*
G01X685800Y-3252046D02*
G01X685800Y-3277954D01*
G01X775546Y-3162300D02*
G01X801454Y-3162300D01*
G01X596054Y-3162300D02*
G01X570146Y-3162300D01*
G01X1631539Y974056D02*
G01X1631539Y948148D01*
G01X1526793Y1078802D02*
G01X1500885Y1078802D01*
G01X1736284Y1078802D02*
G01X1762192Y1078802D01*
G01X1701800Y-2078944D02*
G01X1701800Y-2104852D01*
G01X1701800Y-1859453D02*
G01X1701800Y-1833545D01*
G01X1592054Y-1969198D02*
G01X1566146Y-1969198D01*
G01X1811546Y-1969198D02*
G01X1837454Y-1969198D01*
G04 Copper End*

G04 Pad Start*
G54D12*
G01X-2171700Y939800D03*
G01X-2171700Y1117600D03*
G01X-2171700Y762000D03*
G01X-1295400Y1016000D03*
G01X-393934Y1892300D03*
G01X419100Y3111500D03*
G01X-952500Y-2222500D03*
G01X-1333500Y-1663700D03*
G01X-1435100Y-1663700D03*
G01X-533400Y-2082800D03*
G01X-533400Y-1962977D03*
G01X-317500Y-1333500D03*
G01X-317500Y-1434236D03*
G01X-317500Y-1536700D03*
G01X-241300Y-1562100D03*
G01X-241300Y-1462100D03*
G01X-241300Y-1362100D03*
G01X-1333500Y-927100D03*
G54D13*
G01X657403Y-605460D03*
G01X722401Y-605460D03*
G01X787400Y-605460D03*
G01X852399Y-605460D03*
G01X917397Y-605460D03*
G54D14*
G01X1037260Y-485597D03*
G01X1037260Y-420599D03*
G01X1037260Y-355600D03*
G01X1037260Y-290601D03*
G01X1037260Y-225603D03*
G54D13*
G01X917397Y-105740D03*
G01X852399Y-105740D03*
G01X787400Y-105740D03*
G01X722401Y-105740D03*
G01X657403Y-105740D03*
G54D14*
G01X537540Y-225603D03*
G01X537540Y-290601D03*
G01X537540Y-355600D03*
G01X537540Y-420599D03*
G01X537540Y-485597D03*
G54D15*
G01X787400Y-355600D03*
G54D16*
G01X953651Y112369D03*
G01X953651Y312369D03*
G01X356751Y-493219D03*
G01X356751Y-293220D03*
G01X115931Y-493700D03*
G01X115931Y-293700D03*
G54D17*
G01X625051Y-778231D03*
G01X825051Y-778231D03*
G54D13*
G01X657403Y-1596068D03*
G01X722401Y-1596068D03*
G01X787400Y-1596068D03*
G01X852399Y-1596068D03*
G01X917397Y-1596068D03*
G54D14*
G01X1037260Y-1476206D03*
G01X1037260Y-1411207D03*
G01X1037260Y-1346208D03*
G01X1037260Y-1281210D03*
G01X1037260Y-1216211D03*
G54D13*
G01X917397Y-1096349D03*
G01X852399Y-1096349D03*
G01X787400Y-1096349D03*
G01X722401Y-1096349D03*
G01X657403Y-1096349D03*
G54D14*
G01X537540Y-1216211D03*
G01X537540Y-1281210D03*
G01X537540Y-1346208D03*
G01X537540Y-1411207D03*
G01X537540Y-1476206D03*
G54D15*
G01X787400Y-1346208D03*
G54D16*
G01X979051Y-2059331D03*
G01X979051Y-1859331D03*
G01X127000Y-1446200D03*
G01X127000Y-1246200D03*
G01X357630Y-1445719D03*
G01X357630Y-1245720D03*
G54D17*
G01X522300Y-1866900D03*
G01X722300Y-1866900D03*
G54D18*
G01X-1687500Y-1079500D03*
G01X-1487500Y-1079500D03*
G54D16*
G01X-101600Y-1446200D03*
G01X-101600Y-1246200D03*
G54D20*
G01X-1981200Y-2617800D03*
G01X-1981200Y-2817800D03*
G54D21*
G01X-1587500Y-3219399D03*
G01X-1587500Y-2419401D03*
G54D22*
G01X-1559306Y2687574D03*
G01X-1509293Y2687574D03*
G01X-1459306Y2687574D03*
G01X-1409294Y2687574D03*
G01X-1359306Y2687574D03*
G01X-1309294Y2687574D03*
G01X-1259307Y2687574D03*
G01X-1209294Y2687574D03*
G54D23*
G01X-1624305Y2687574D03*
G01X-1704289Y2687574D03*
G01X-1144295Y2687574D03*
G01X-1064311Y2687574D03*
G54D24*
G01X-1816303Y3179826D03*
G01X-952297Y3179826D03*
G54D25*
G01X-1816303Y2761818D03*
G01X-952297Y2761818D03*
G54D26*
G01X-1993890Y-1710202D03*
G01X-1993890Y-1490188D03*
G54D27*
G01X-1993910Y-804398D03*
G01X-1993910Y-1024412D03*
G54D28*
G01X685800Y-3162300D03*
G01X431800Y-3162300D03*
G01X685800Y-2908300D03*
G01X431800Y-2908300D03*
G01X685800Y-2654300D03*
G54D29*
G01X431800Y-2654300D03*
G54D30*
G01X5693Y1411759D03*
G01X51654Y1365798D03*
G01X97615Y1319837D03*
G01X143576Y1273876D03*
G01X189537Y1227915D03*
G01X235498Y1181954D03*
G01X281459Y1135993D03*
G54D31*
G01X429741Y1135993D03*
G01X475702Y1181954D03*
G01X521663Y1227915D03*
G01X567624Y1273876D03*
G01X613585Y1319837D03*
G01X659546Y1365798D03*
G01X705507Y1411759D03*
G54D30*
G01X705507Y1560041D03*
G01X659546Y1606002D03*
G01X613585Y1651963D03*
G01X567624Y1697924D03*
G01X521663Y1743885D03*
G01X475702Y1789846D03*
G01X429741Y1835807D03*
G54D31*
G01X281459Y1835807D03*
G01X235498Y1789846D03*
G01X189537Y1743885D03*
G01X143576Y1697924D03*
G01X97615Y1651963D03*
G01X51654Y1606002D03*
G01X5693Y1560041D03*
G54D32*
G01X355600Y1485900D03*
G54D18*
G01X820727Y1051340D03*
G01X1020726Y1051340D03*
G01X827100Y838200D03*
G01X1027100Y838200D03*
G54D33*
G01X-575500Y-1072401D03*
G01X-625488Y-1072401D03*
G01X-675500Y-1072401D03*
G01X-725487Y-1072401D03*
G01X-775500Y-1072401D03*
G01X-825487Y-1072401D03*
G01X-875500Y-1072401D03*
G01X-925487Y-1072401D03*
G01X-975500Y-1072401D03*
G01X-1025487Y-1072401D03*
G01X-1075499Y-1072401D03*
G54D34*
G01X-1175499Y-1172400D03*
G01X-1175499Y-1222388D03*
G01X-1175499Y-1272400D03*
G01X-1175499Y-1322387D03*
G01X-1175499Y-1372400D03*
G01X-1175499Y-1422387D03*
G01X-1175499Y-1472400D03*
G01X-1175499Y-1522387D03*
G01X-1175499Y-1572400D03*
G01X-1175499Y-1622387D03*
G01X-1175499Y-1672399D03*
G54D33*
G01X-1075499Y-1772399D03*
G01X-1025487Y-1772399D03*
G01X-975500Y-1772399D03*
G01X-925487Y-1772399D03*
G01X-875500Y-1772399D03*
G01X-825487Y-1772399D03*
G01X-775500Y-1772399D03*
G01X-725487Y-1772399D03*
G01X-675500Y-1772399D03*
G01X-625488Y-1772399D03*
G01X-575500Y-1772399D03*
G54D34*
G01X-475501Y-1672399D03*
G01X-475501Y-1622387D03*
G01X-475501Y-1572400D03*
G01X-475501Y-1522387D03*
G01X-475501Y-1472400D03*
G01X-475501Y-1422387D03*
G01X-475501Y-1372400D03*
G01X-475501Y-1322387D03*
G01X-475501Y-1272400D03*
G01X-475501Y-1222388D03*
G01X-475501Y-1172400D03*
G54D35*
G01X-825487Y-1422387D03*
G54D18*
G01X-912800Y-660400D03*
G01X-712800Y-660400D03*
G54D36*
G01X-1119200Y-2032000D03*
G01X-1319200Y-2032000D03*
G54D37*
G01X-228600Y-2463800D03*
G01X-482600Y-2463800D03*
G01X-736600Y-2463800D03*
G01X-990600Y-2463800D03*
G01X-990600Y-3225800D03*
G01X-736600Y-3225800D03*
G01X-482600Y-3225800D03*
G01X-228600Y-3225800D03*
G54D38*
G01X-1981200Y1438605D03*
G01X-1981200Y1964995D03*
G54D39*
G01X-1470981Y1837506D03*
G01X-1470981Y2037505D03*
G01X-1206500Y1843100D03*
G01X-1206500Y2043100D03*
G54D40*
G01X-2222500Y2462200D03*
G01X-2222500Y2262200D03*
G54D41*
G01X-1231036Y2501900D03*
G01X-1080364Y2501900D03*
G01X-1279618Y2315305D03*
G01X-1128945Y2315305D03*
G54D18*
G01X695713Y2243220D03*
G01X895712Y2243220D03*
G54D40*
G01X977900Y2678100D03*
G01X977900Y2478100D03*
G01X704470Y2685147D03*
G01X704470Y2485147D03*
G54D42*
G01X-271818Y2724187D03*
G01X-271818Y2420708D03*
G54D43*
G01X-677200Y1439092D03*
G01X-677200Y1879096D03*
G54D44*
G01X-1015992Y1442703D03*
G01X-1455997Y1442703D03*
G54D45*
G01X-382275Y3106896D03*
G01X-157282Y3106896D03*
G54D39*
G01X-1981200Y-2284400D03*
G01X-1981200Y-2084400D03*
G54D20*
G01X-1993900Y-357200D03*
G01X-1993900Y-557200D03*
G54D17*
G01X-1786881Y2429605D03*
G01X-1586882Y2429605D03*
G54D20*
G01X-708981Y3202705D03*
G01X-708981Y3002705D03*
G54D17*
G01X52400Y850900D03*
G01X252400Y850900D03*
G54D46*
G01X430200Y2247900D03*
G01X230200Y2247900D03*
G54D20*
G01X-596900Y2360600D03*
G01X-596900Y2160600D03*
G54D17*
G01X-214300Y2133600D03*
G01X-14300Y2133600D03*
G54D47*
G01X12090Y2660396D03*
G01X12090Y2565400D03*
G01X12090Y2470404D03*
G01X241910Y2470404D03*
G01X241910Y2565400D03*
G01X241910Y2660396D03*
G54D48*
G01X-1720088Y-1384300D03*
G01X-1600200Y-1384300D03*
G01X-1480312Y-1384300D03*
G54D49*
G01X945388Y1892300D03*
G01X825500Y1892300D03*
G01X705612Y1892300D03*
G54D50*
G01X1631539Y1078802D03*
G01X1631539Y1578801D03*
G01X1631539Y2078800D03*
G01X1631539Y2578799D03*
G54D51*
G01X630895Y3124203D03*
G01X1070900Y3124203D03*
G54D52*
G01X1701800Y-2469197D03*
G01X1701800Y-1969198D03*
G01X1701800Y-1469199D03*
G01X1701800Y-969200D03*
G01X1701800Y-469201D03*
G01X1701800Y30798D03*
G54D53*
G01X-2086889Y444500D03*
G54D54*
G01X-1519911Y674497D03*
G01X-1519911Y444500D03*
G01X-1519911Y214503D03*
G54D18*
G01X-1954200Y990600D03*
G01X-1754200Y990600D03*
G01X-1991520Y-103721D03*
G01X-1791520Y-103721D03*
G54D40*
G01X143807Y3193147D03*
G01X143807Y2993147D03*
G54D17*
G01X523451Y-2111731D03*
G01X723451Y-2111731D03*
G54D20*
G01X443798Y2678457D03*
G01X443798Y2478457D03*
G04 Pad End*

G04 Via Start*
G54D55*
G01X-1181100Y2882900D03*
G01X-1549400Y2882900D03*
G01X101600Y1193800D03*
G01X749300Y1689100D03*
G01X596900Y1816100D03*
G01X-990600Y1879600D03*
G01X673100Y-977900D03*
G01X596900Y63500D03*
G01X1041400Y-990600D03*
G01X1028700Y-76200D03*
G01X876300Y-977900D03*
G01X723900Y127000D03*
G01X-76200Y-1765300D03*
G01X228600Y-1765300D03*
G01X-1587500Y-2870200D03*
G01X558800Y736600D03*
G01X-330200Y-1168400D03*
G01X-469900Y-838200D03*
G01X-982299Y-804499D03*
G01X1054100Y2184400D03*
G01X-1570711Y850900D03*
G01X-1206500Y-1041400D03*
G01X-1320800Y-800100D03*
G01X-203200Y1574800D03*
G01X-1143000Y-838200D03*
G01X-279400Y1460500D03*
G01X-1612900Y-1562100D03*
G01X495300Y-1104900D03*
G01X-1524000Y-1605300D03*
G01X368300Y177800D03*
G01X-76200Y1308100D03*
G01X-1066800Y-2197100D03*
G01X-1841500Y-1778000D03*
G01X-1752600Y-863600D03*
G01X-736600Y876300D03*
G01X508000Y863600D03*
G01X-1765300Y2159000D03*
G01X127000Y2661282D03*
G01X127000Y2565400D03*
G01X127000Y2468305D03*
G01X76200Y2362200D03*
G01X190500Y2362200D03*
G54D12*
G01X837413Y-405613D03*
G01X837413Y-305613D03*
G01X737400Y-305600D03*
G01X737400Y-405600D03*
G01X837413Y-1396221D03*
G01X837413Y-1296221D03*
G01X737400Y-1296208D03*
G01X737400Y-1396208D03*
G01X440453Y1485900D03*
G01X270747Y1485900D03*
G01X355600Y1570753D03*
G01X355600Y1401047D03*
G04 Via End*

G04 Track Start*
G54D56*
G01X444155Y2678100D02*
G01X443798Y2678457D01*
G01X241910Y2565400D02*
G01X330741Y2565400D01*
G01X443798Y2678457D01*
G01X1219200Y2349500D02*
G01X2019300Y2349500D01*
G01X2082800Y2286000D01*
G01X2082800Y1193800D01*
G01X1943100Y1054100D01*
G01X1656240Y1054100D01*
G01X1631539Y1078802D01*
G54D57*
G01X977900Y2478100D02*
G01X711518Y2478100D01*
G01X704470Y2485147D01*
G01X977900Y2478100D02*
G01X1090600Y2478100D01*
G01X1219200Y2349500D01*
G54D56*
G01X698500Y2235200D02*
G01X698500Y2479177D01*
G01X704470Y2485147D01*
G54D11*
G01X430200Y2273300D02*
G01X443798Y2286898D01*
G01X443798Y2478457D01*
G01X241910Y2470404D02*
G01X435745Y2470404D01*
G01X443798Y2478457D01*
G54D57*
G01X143807Y2993147D02*
G01X143807Y2912407D01*
G01X12700Y2781300D01*
G01X12700Y2661006D01*
G01X12090Y2660396D01*
G01X143807Y3193147D02*
G01X235853Y3193147D01*
G01X279400Y3149600D01*
G01X279400Y2774486D01*
G01X241910Y2736996D01*
G01X241910Y2660396D01*
G01X143807Y3193147D02*
G01X-71031Y3193147D01*
G01X-157282Y3106896D01*
G01X-382275Y3106896D02*
G01X-382275Y2834644D01*
G01X12090Y2565400D02*
G01X-127126Y2565400D01*
G01X-271818Y2420708D01*
G01X12090Y2470404D02*
G01X-50800Y2407514D01*
G01X-50800Y2311400D01*
G01X-214300Y2147900D01*
G01X-214300Y2133600D01*
G01X-241300Y2160600D01*
G01X-596900Y2160600D01*
G01X-596900Y2641600D02*
G01X-508000Y2730500D01*
G01X-278131Y2730500D01*
G01X-271818Y2724187D01*
G01X-382275Y2834644D02*
G01X-278131Y2730500D01*
G01X630895Y3124203D02*
G01X630895Y2758722D01*
G01X704470Y2685147D01*
G01X1070900Y3124203D02*
G01X1562097Y3124203D01*
G01X1638300Y3048000D01*
G01X1638300Y2585560D01*
G01X1631539Y2578799D01*
G01X-596900Y2360600D02*
G01X-596900Y2641600D01*
G54D11*
G01X-1309294Y2687574D02*
G01X-1309294Y2580157D01*
G01X-1231036Y2501900D01*
G01X-1359306Y2397870D02*
G01X-1279618Y2318182D01*
G01X-1279618Y2315305D01*
G54D57*
G01X-1064311Y2687574D02*
G01X-1064311Y2517953D01*
G01X-1080364Y2501900D01*
G01X-1080364Y2363887D01*
G01X-1128945Y2315305D01*
G01X-1064311Y2687574D02*
G01X-1026541Y2687574D01*
G01X-952297Y2761818D01*
G01X-899069Y2761818D01*
G01X-952297Y3179826D02*
G01X-952297Y2761818D01*
G01X-1816303Y3179826D02*
G01X-1816303Y2761818D01*
G01X-1742059Y2687574D01*
G01X-1704289Y2687574D01*
G01X2019300Y2349500D02*
G01X2019300Y2781300D01*
G01X1968500Y2832100D01*
G01X1828800Y2832100D01*
G01X1752600Y2908300D01*
G01X1752600Y3225800D01*
G01X1638300Y3340100D01*
G54D11*
G01X-1309294Y2687574D02*
G01X-1309294Y2795194D01*
G01X-1320800Y2806700D01*
G01X-1384300Y2806700D01*
G01X-1409700Y2781300D01*
G01X-1409700Y2687980D01*
G01X-1409294Y2687574D01*
G01X-1144295Y2687574D02*
G01X-1144295Y2744495D01*
G01X-1193800Y2794000D01*
G01X-1193800Y2870200D01*
G01X-1181100Y2882900D01*
G01X-1624305Y2687574D02*
G01X-1624305Y2744495D01*
G01X-1549400Y2819400D02*
G01X-1549400Y2882900D01*
G01X-1624305Y2744495D02*
G01X-1549400Y2819400D01*
G01X-1459306Y2687574D02*
G01X-1459306Y2589606D01*
G01X-1447800Y2578100D01*
G01X-1359514Y2578100D01*
G01X-1359306Y2578308D01*
G01X-1359306Y2687574D02*
G01X-1359306Y2578308D01*
G01X-1359306Y2397870D01*
G01X-1559306Y2687574D02*
G01X-1559306Y2466594D01*
G01X659546Y1365798D02*
G01X720218Y1305126D01*
G01X1190826Y1305126D01*
G01X1244600Y1358900D02*
G01X1244600Y1524000D01*
G01X1299401Y1578801D01*
G01X1631539Y1578801D01*
G01X1190826Y1305126D02*
G01X1244600Y1358900D01*
G01X613585Y1319837D02*
G01X688822Y1244600D01*
G01X1816100Y1244600D02*
G01X1892300Y1320800D01*
G01X1892300Y2006600D01*
G01X1803400Y2095500D01*
G01X1648239Y2095500D01*
G01X1631539Y2078800D01*
G01X688822Y1244600D02*
G01X1816100Y1244600D01*
G01X705507Y1560041D02*
G01X631366Y1485900D01*
G01X440453Y1485900D01*
G01X355600Y1485900D01*
G01X567624Y1697924D02*
G01X355600Y1485900D01*
G01X281459Y1835807D02*
G01X355600Y1761666D01*
G01X355600Y1570753D01*
G01X355600Y1485900D01*
G01X475702Y1789846D02*
G01X578156Y1892300D01*
G01X705612Y1892300D01*
G01X429741Y1835807D02*
G01X613234Y2019300D01*
G01X914400Y2019300D01*
G01X945388Y1988312D01*
G01X945388Y1892300D01*
G01X164137Y1202515D02*
G01X189537Y1227915D01*
G01X521663Y1227915D02*
G01X553376Y1196202D01*
G01X553376Y1160281D01*
G01X409095Y1016000D01*
G01X292100Y1016000D01*
G01X164137Y1143963D01*
G01X164137Y1202515D01*
G01X567624Y1273876D02*
G01X609600Y1231900D01*
G01X609600Y1130300D01*
G01X450850Y971550D01*
G01X38100Y1270000D02*
G01X87937Y1319837D01*
G01X97615Y1319837D01*
G01X450850Y971550D02*
G01X273050Y971550D01*
G01X820727Y1051340D02*
G01X741767Y1130300D01*
G01X609600Y1130300D01*
G01X827100Y838200D02*
G01X827100Y1044967D01*
G01X820727Y1051340D01*
G01X1020726Y1051340D02*
G01X1027100Y1044967D01*
G01X1027100Y838200D01*
G01X1631539Y1078802D02*
G01X1604077Y1051340D01*
G01X1020726Y1051340D01*
G01X705507Y1560041D02*
G01X1001241Y1560041D01*
G01X1219200Y1778000D02*
G01X1219200Y2349500D01*
G01X1001241Y1560041D02*
G01X1219200Y1778000D01*
G01X252400Y850900D02*
G01X252400Y950900D01*
G01X273050Y971550D01*
G01X51654Y1365798D02*
G01X-12700Y1301444D01*
G01X-12700Y916000D01*
G01X52400Y850900D01*
G01X825500Y1892300D02*
G01X825500Y1790700D01*
G01X635000Y1765300D02*
G01X567624Y1697924D01*
G01X825500Y1790700D02*
G01X800100Y1765300D01*
G01X635000Y1765300D01*
G01X273050Y971550D02*
G01X209550Y971550D01*
G01X38100Y1143000D01*
G01X38100Y1270000D01*
G01X143576Y1273876D02*
G01X101600Y1231900D01*
G01X101600Y1193800D01*
G01X749300Y1689100D02*
G01X666202Y1606002D01*
G01X659546Y1606002D01*
G54D57*
G01X521663Y1743885D02*
G01X593878Y1816100D01*
G01X596900Y1816100D01*
G54D11*
G01X917397Y-1596068D02*
G01X917397Y-1660703D01*
G01X850900Y-1727200D01*
G01X850900Y-2032000D01*
G01X878231Y-2059331D02*
G01X979051Y-2059331D01*
G01X850900Y-2032000D02*
G01X878231Y-2059331D01*
G01X1037260Y-1476206D02*
G01X917397Y-1476206D01*
G01X837413Y-1396221D01*
G01X787400Y-1346208D01*
G01X1037260Y-1411207D02*
G01X1106407Y-1411207D01*
G01X1117600Y-1422400D01*
G01X1117600Y-1562100D01*
G01X1079500Y-1600200D01*
G01X965129Y-1600200D01*
G01X960998Y-1596068D01*
G01X917397Y-1596068D01*
G01X979051Y-1859331D02*
G01X979051Y-1856331D01*
G01X1193800Y-1641582D01*
G01X1193800Y-1371600D01*
G01X1168408Y-1346208D01*
G01X1037260Y-1346208D01*
G01X1037260Y-1281210D02*
G01X1037260Y-1346208D01*
G01X1701800Y-969200D02*
G01X1324792Y-1346208D01*
G01X1168408Y-1346208D01*
G01X1701800Y-1469199D02*
G01X1299401Y-1469199D01*
G01X1257300Y-1511300D01*
G01X1257300Y-2032000D01*
G01X1229969Y-2059331D01*
G01X979051Y-2059331D01*
G01X787400Y-1596068D02*
G01X852399Y-1596068D01*
G01X787400Y-1596068D02*
G01X787400Y-1801800D01*
G01X722300Y-1866900D01*
G01X522300Y-1866900D02*
G01X522300Y-1755320D01*
G01X657403Y-1620217D01*
G01X657403Y-1596068D01*
G01X722401Y-1596068D02*
G01X657403Y-1596068D01*
G01X1037260Y-1216211D02*
G01X917397Y-1216211D01*
G01X837400Y-1296208D01*
G01X787400Y-1346208D01*
G01X657403Y-1096349D02*
G01X657403Y-1216211D01*
G01X737400Y-1296208D02*
G01X787400Y-1346208D01*
G01X657403Y-1216211D02*
G01X537540Y-1216211D01*
G01X537540Y-1411207D02*
G01X537540Y-1476206D01*
G01X156989Y-1216211D02*
G01X127000Y-1246200D01*
G01X355134Y-1446200D02*
G01X127000Y-1446200D01*
G01X537540Y-1476205D02*
G01X385140Y-1476206D01*
G54D57*
G01X1943100Y1054100D02*
G01X2082800Y914400D01*
G01X2082800Y-1879600D02*
G01X1981200Y-1981200D01*
G01X1713802Y-1981200D01*
G01X1701800Y-1969198D01*
G01X2082800Y914400D02*
G01X2082800Y-1879600D01*
G54D11*
G01X1653197Y-420599D02*
G01X1701800Y-469201D01*
G01X1037260Y-290601D02*
G01X1601699Y-290601D01*
G01X1701800Y-190500D01*
G01X1701800Y30798D01*
G01X1037260Y-290601D02*
G01X1037260Y-355600D01*
G01X1037260Y-485597D02*
G01X917397Y-485597D01*
G01X837413Y-405613D01*
G01X787400Y-355600D01*
G01X917397Y-605460D02*
G01X1096340Y-605460D01*
G01X1135179Y-566621D02*
G01X1135179Y-420599D01*
G01X1037260Y-420599D02*
G01X1135179Y-420599D01*
G01X1653197Y-420599D01*
G01X1096340Y-605460D02*
G01X1135179Y-566621D01*
G01X953651Y112369D02*
G01X1620228Y112369D01*
G01X1701800Y30798D01*
G01X953651Y312369D02*
G01X1770431Y312369D01*
G01X1917700Y165100D01*
G01X1917700Y-381000D01*
G01X1829499Y-469201D02*
G01X1701800Y-469201D01*
G01X1917700Y-381000D02*
G01X1829499Y-469201D01*
G01X1037260Y-225603D02*
G01X917397Y-225603D01*
G01X837400Y-305600D01*
G01X787400Y-355600D01*
G01X537540Y-225603D02*
G01X657403Y-225603D01*
G01X737400Y-305600D02*
G01X787400Y-355600D01*
G01X657403Y-225603D02*
G01X657403Y-105740D01*
G01X852399Y-605460D02*
G01X852399Y-750883D01*
G01X825051Y-778231D01*
G01X787400Y-605460D02*
G01X852399Y-605460D01*
G01X657403Y-605460D02*
G01X657403Y-745879D01*
G01X625051Y-778231D01*
G01X722401Y-605460D02*
G01X657403Y-605460D01*
G01X184029Y-225603D02*
G01X115931Y-293700D01*
G01X124034Y-485597D02*
G01X115931Y-493700D01*
G01X537540Y-420599D02*
G01X537540Y-485597D01*
G01X722401Y-1096349D02*
G01X722401Y-1027201D01*
G01X673100Y-977900D01*
G01X1028700Y-76200D02*
G01X946937Y-76200D01*
G01X917397Y-105740D01*
G01X852399Y-1096349D02*
G01X852399Y-1001801D01*
G01X876300Y-977900D01*
G01X357630Y-1448695D02*
G01X357630Y-1445719D01*
G01X385140Y-1476206D02*
G01X357630Y-1448695D01*
G01X355134Y-1446200D01*
G54D57*
G01X523451Y-2111731D02*
G01X422631Y-2111731D01*
G01X357630Y-2046730D01*
G54D11*
G01X723451Y-2111731D02*
G01X723451Y-2247451D01*
G01X774700Y-2298700D01*
G01X1651000Y-2298700D01*
G01X1701800Y-2349500D01*
G01X1701800Y-2469197D01*
G54D57*
G01X2082800Y-2832100D02*
G01X2032000Y-2882900D01*
G01X1651000Y-2882900D01*
G01X-63500Y-3390900D02*
G01X-228600Y-3225800D01*
G01X2082800Y-1879600D02*
G01X2082800Y-2832100D01*
G01X1651000Y-2882900D02*
G01X1143000Y-3390900D01*
G01X-228600Y-3225800D02*
G01X-482600Y-3225800D01*
G01X-736600Y-3225800D01*
G01X1143000Y-3390900D02*
G01X679483Y-3390900D01*
G54D11*
G01X-1715099Y-2567000D02*
G01X-1587500Y-2439401D01*
G54D57*
G01X-2147900Y-2817800D02*
G01X-1981200Y-2817800D01*
G01X-2197100Y-2768600D02*
G01X-2147900Y-2817800D01*
G54D11*
G01X-1981200Y-2284400D02*
G01X-2195500Y-2284400D01*
G54D57*
G01X-2195500Y-2284400D02*
G01X-2197100Y-2286000D01*
G01X-2197100Y-2768600D01*
G54D11*
G01X-1993890Y-1710202D02*
G01X-1993890Y-2071710D01*
G01X-1981200Y-2084400D01*
G54D57*
G01X-2195500Y-417500D02*
G01X-2120900Y-342900D01*
G01X-2008200Y-342900D01*
G01X-1993900Y-357200D01*
G54D11*
G01X-1993900Y-557200D02*
G01X-1993900Y-804388D01*
G01X-875500Y-1772399D02*
G01X-875500Y-2348700D01*
G01X-990600Y-2463800D01*
G01X-825487Y-1772399D02*
G01X-825487Y-2374913D01*
G01X-736600Y-2463800D01*
G01X-775500Y-1772399D02*
G01X-775500Y-2170900D01*
G01X-482600Y-2463800D01*
G01X-725487Y-1772399D02*
G01X-725487Y-2093912D01*
G01X-584200Y-2235200D01*
G01X-292100Y-2235200D01*
G01X-228600Y-2298700D01*
G01X-228600Y-2463800D01*
G01X-1025487Y-1772399D02*
G01X-1025487Y-1938287D01*
G01X-1119200Y-2032000D01*
G01X-1075499Y-1772399D02*
G01X-1075499Y-1672399D01*
G01X-825487Y-1422387D01*
G01X-1319200Y-2032000D02*
G01X-1319200Y-1873519D01*
G01X-1079980Y-1767919D02*
G01X-1075499Y-1772399D01*
G01X-475501Y-1622387D02*
G01X-625488Y-1622387D01*
G01X-825487Y-1422387D01*
G01X-475501Y-1222388D02*
G01X-625488Y-1222388D01*
G01X-775500Y-1372400D02*
G01X-775500Y-1072401D01*
G01X-625488Y-1222388D02*
G01X-775500Y-1372400D01*
G01X-1175499Y-1322387D02*
G01X-925487Y-1322387D01*
G01X-825487Y-1422387D01*
G01X-475501Y-1272400D02*
G01X-127800Y-1272400D01*
G01X-101600Y-1246200D01*
G01X-101600Y-1446200D02*
G01X-73000Y-1446200D01*
G01X127000Y-1246200D01*
G54D57*
G01X117857Y-3390900D02*
G01X117857Y-1730757D01*
G01X0Y-1612900D01*
G01X-113139Y-1612900D01*
G01X679483Y-3390900D02*
G01X117857Y-3390900D01*
G01X-63500Y-3390900D01*
G54D11*
G01X-101600Y-1600200D02*
G01X-101600Y-1446200D01*
G01X-575500Y-1772399D02*
G01X-575500Y-1672374D01*
G01X-625488Y-1622387D01*
G54D57*
G01X-165100Y-2654300D02*
G01X-1130300Y-2654300D01*
G01X-76200Y-2565400D02*
G01X-165100Y-2654300D01*
G01X-76200Y-1765300D02*
G01X-76200Y-2565400D01*
G01X-139700Y-1701800D02*
G01X-76200Y-1765300D01*
G54D11*
G01X-475501Y-1672399D02*
G01X-169100Y-1672399D01*
G01X-139700Y-1701800D01*
G54D57*
G01X228600Y-1765300D02*
G01X356507Y-1765300D01*
G01X357630Y-1766423D01*
G01X357630Y-2046730D02*
G01X357630Y-1766423D01*
G54D11*
G01X357630Y-1766423D02*
G01X357630Y-1448695D01*
G01X-1175499Y-1372400D02*
G01X-1468412Y-1372400D01*
G01X-1480312Y-1384300D01*
G01X-1175499Y-1322387D02*
G01X-1344612Y-1322387D01*
G01X-1384300Y-1282700D01*
G01X-1587500Y-1282700D01*
G01X-1605461Y-1300661D01*
G01X-1605461Y-1379039D01*
G01X-1600200Y-1384300D01*
G01X-1175499Y-1272400D02*
G01X-1331100Y-1272400D01*
G01X-1487500Y-1116000D02*
G01X-1487500Y-1079500D01*
G01X-1331100Y-1272400D02*
G01X-1487500Y-1116000D01*
G01X-1687500Y-1079500D02*
G01X-1605461Y-1161539D01*
G01X-1605461Y-1300661D01*
G54D57*
G01X-1981200Y-2946400D02*
G01X-1981200Y-2817800D01*
G54D11*
G01X-1587500Y-2439401D02*
G01X-1587500Y-2870200D01*
G01X-1487500Y-1079500D02*
G01X-1487500Y-989000D01*
G01X-1536700Y-939800D01*
G01X-1854200Y-1143000D02*
G01X-1906841Y-1195641D01*
G01X-2195500Y-1195641D01*
G54D57*
G01X-2195500Y-2284400D02*
G01X-2195500Y-1195641D01*
G01X-2195500Y-417500D01*
G54D11*
G01X-825487Y-1072401D02*
G01X-825487Y-747712D01*
G01X-912800Y-660400D01*
G01X-775500Y-1072401D02*
G01X-775500Y-816000D01*
G01X-712800Y-753300D01*
G01X-712800Y-660400D01*
G01X723900Y127000D02*
G01X723900Y508000D01*
G01X660400Y571500D01*
G01X-12700Y571500D01*
G01X812800Y520700D02*
G01X698500Y635000D01*
G01X35078Y1714500D02*
G01X97615Y1651963D01*
G01X-6044Y1663700D02*
G01X51654Y1606002D01*
G01X-63500Y1574800D02*
G01X-9066Y1574800D01*
G01X5693Y1560041D01*
G01X698500Y635000D02*
G01X0Y635000D01*
G01X406400Y698500D02*
G01X12700Y698500D01*
G01X-239700Y-493700D02*
G01X115931Y-493700D01*
G01X156276Y1697924D02*
G01X88900Y1765300D01*
G01X-279400Y-533400D02*
G01X-239700Y-493700D01*
G01X-625488Y-1072401D02*
G01X-625488Y-982001D01*
G01X895712Y2243220D02*
G01X995280Y2243220D01*
G01X1054100Y2184400D01*
G54D57*
G01X-736600Y-3225800D02*
G01X-990600Y-3225800D01*
G01X-1587500Y-3219399D02*
G01X-997001Y-3219399D01*
G01X-990600Y-3225800D01*
G01X-1519911Y444500D02*
G01X-2086889Y444500D01*
G01X-1991520Y349131D01*
G01X-1978820Y-342120D02*
G01X-1993900Y-357200D01*
G01X-1791520Y-103721D02*
G01X-1791520Y138880D01*
G01X-1727200Y203200D01*
G01X-1531214Y203200D01*
G01X-1519911Y214503D01*
G54D11*
G01X-1954200Y990600D02*
G01X-1954200Y811200D01*
G01X-1817497Y674497D01*
G01X-1519911Y674497D01*
G01X-1981410Y-1024412D02*
G01X-1993910Y-1024412D01*
G01X-1206500Y-1041400D02*
G01X-1146900Y-1041400D01*
G01X-1115899Y-1072401D01*
G01X-1075499Y-1072401D01*
G01X88900Y1765300D02*
G01X-190500Y1765300D01*
G01X-165100Y1714500D02*
G01X35078Y1714500D01*
G01X-1025487Y-1072401D02*
G01X-1025487Y-1006513D01*
G01X508000Y-914400D02*
G01X723900Y-914400D01*
G01X787400Y-977900D01*
G01X787400Y-1096349D01*
G01X596900Y63500D02*
G01X722401Y-62001D01*
G01X722401Y-105740D01*
G01X787400Y-105740D02*
G01X787400Y-50346D01*
G01X660400Y76654D02*
G01X660400Y114300D01*
G01X787400Y-50346D02*
G01X660400Y76654D01*
G01X723900Y127000D02*
G01X723900Y76200D01*
G01X852399Y-52299D01*
G01X852399Y-105740D01*
G01X917397Y-105740D02*
G01X917397Y-53797D01*
G01X812800Y50800D01*
G01X812800Y520700D01*
G01X558800Y736600D02*
G01X444500Y736600D01*
G01X406400Y698500D01*
G01X0Y635000D02*
G01X-203200Y838200D01*
G01X-279400Y1460500D02*
G01X-279400Y1600200D01*
G01X-165100Y1714500D01*
G01X-12700Y571500D02*
G01X-279400Y838200D01*
G01X-279400Y1460500D01*
G01X-203200Y838200D02*
G01X-203200Y1574800D01*
G01X-114300Y1663700D01*
G01X-6044Y1663700D01*
G01X12700Y698500D02*
G01X-139700Y850900D01*
G01X-139700Y1498600D01*
G01X-63500Y1574800D01*
G01X5693Y1411759D02*
G01X-76200Y1329866D01*
G01X-76200Y1308100D01*
G01X508000Y863600D02*
G01X265100Y863600D01*
G01X252400Y850900D01*
G54D56*
G01X230200Y2144700D02*
G01X330200Y2044700D01*
G01X508000Y2044700D01*
G01X698500Y2235200D01*
G54D57*
G01X-14300Y2133600D02*
G01X61900Y2057400D01*
G01X142900Y2057400D01*
G01X230200Y2144700D01*
G54D11*
G01X-190500Y1765300D02*
G01X-355600Y1600200D01*
G01X-355600Y-865200D01*
G01X-562800Y-1072401D01*
G01X-596900Y1092200D02*
G01X-482600Y977900D01*
G01X-482600Y-660400D01*
G54D57*
G01X-596900Y2360600D02*
G01X-801700Y2360600D01*
G01X-863600Y2298700D01*
G01X-863600Y1892300D01*
G01X-828245Y1856945D01*
G01X-699351Y1856945D01*
G01X-677200Y1879096D01*
G01X-990600Y1879600D02*
G01X-990600Y1443485D01*
G01X-986206Y1439092D01*
G01X-677200Y1439092D01*
G54D11*
G01X-1596295Y2429605D02*
G01X-1586882Y2429605D01*
G01X-1559306Y2466594D02*
G01X-1596295Y2429605D01*
G01X-1206500Y1843100D02*
G01X-1206500Y1209551D01*
G01X-1470981Y1837506D02*
G01X-1282700Y1649225D01*
G01X-1282700Y1117600D01*
G01X-1257300Y1092200D01*
G01X-596900Y1092200D01*
G01X-1206500Y1209551D02*
G01X-1152649Y1155700D01*
G01X-571500Y1155700D01*
G01X-419100Y1003300D01*
G54D57*
G01X-2133600Y1964995D02*
G01X-2133600Y2173300D01*
G01X-2222500Y2262200D01*
G01X-1765300Y2159000D02*
G01X-1959305Y1964995D01*
G01X-2133600Y1964995D01*
G01X-1981200Y1438605D02*
G01X-1460095Y1438605D01*
G01X-1455997Y1442703D01*
G54D11*
G01X-1455997Y1442703D02*
G01X-1455997Y1176597D01*
G01X-1295400Y1016000D01*
G01X-647700Y1016000D01*
G01X-546100Y914400D01*
G01X-546100Y-431800D01*
G01X-596900Y-482600D01*
G01X-1028700Y-482600D01*
G01X-1092200Y-546100D01*
G54D57*
G01X-1398397Y214503D02*
G01X-1519911Y214503D01*
G01X-1754200Y990600D02*
G01X-1460500Y990600D01*
G01X-1346200Y266700D02*
G01X-1398397Y214503D01*
G01X-1346200Y876300D02*
G01X-1346200Y266700D01*
G01X-1460500Y990600D02*
G01X-1346200Y876300D01*
G01X-1193800Y-2590800D02*
G01X-1130300Y-2654300D01*
G01X-1130300Y-2971800D01*
G01X-1181100Y-3022600D01*
G01X-1905000Y-3022600D01*
G01X-1981200Y-2946400D01*
G54D11*
G01X-1981200Y-2617800D02*
G01X-1930400Y-2567000D01*
G01X-1715099Y-2567000D01*
G01X-1993890Y-1490188D02*
G01X-1875312Y-1490188D01*
G01X-1536700Y-939800D02*
G01X-1803400Y-939800D01*
G01X-1854200Y-990600D01*
G01X-1854200Y-1143000D01*
G54D57*
G01X-1991520Y-55301D02*
G01X-1993900Y-306400D01*
G01X-1993900Y-357200D02*
G01X-1993900Y-306400D01*
G01X-899069Y2761818D02*
G01X-708981Y2951905D01*
G01X-708981Y3002705D01*
G01X1638300Y3340100D02*
G01X-482600Y3340100D01*
G01X-533400Y3289300D01*
G01X-533400Y3086100D01*
G01X-616795Y3002705D01*
G01X-708981Y3002705D01*
G54D11*
G01X-696281Y3240805D02*
G01X-696281Y3312481D01*
G01X-721681Y3337881D01*
G01X-658180Y3202706D02*
G01X-696281Y3240805D01*
G01X-721681Y3337881D02*
G01X-1233907Y3337881D01*
G01X-1259307Y3312481D01*
G01X-1259307Y2687574D01*
G54D57*
G01X-1704289Y2687574D02*
G01X-1704289Y2512197D01*
G01X-1786881Y2429605D01*
G01X-2222500Y2462200D02*
G01X-1819476Y2462200D01*
G01X-1786881Y2429605D01*
G54D11*
G01X-1470981Y2037505D02*
G01X-1470981Y2121065D01*
G01X-1279618Y2312429D01*
G01X-1279618Y2315305D01*
G01X-1231036Y2501900D02*
G01X-1206500Y2477364D01*
G01X-1206500Y2043100D01*
G54D57*
G01X-1754200Y990600D02*
G01X-1754200Y1157300D01*
G01X-1828800Y1231900D01*
G01X-2286000Y1231900D02*
G01X-2362200Y1308100D01*
G01X-2362200Y2400300D01*
G01X-2300300Y2462200D01*
G01X-2222500Y2462200D01*
G01X-1991520Y349131D02*
G01X-1991520Y-55301D01*
G01X-1991520Y-103721D01*
G54D11*
G01X537540Y-485597D02*
G01X124034Y-485597D01*
G01X-2005000Y939800D02*
G01X-1954200Y990600D01*
G54D57*
G01X-1828800Y1231900D02*
G01X-2194900Y1231900D01*
G01X-2286000Y1231900D01*
G54D11*
G01X537540Y-1216211D02*
G01X156989Y-1216211D01*
G01X537540Y-225603D02*
G01X184029Y-225603D01*
G01X-393934Y1892300D02*
G01X-663995Y1892300D01*
G01X-677200Y1879096D01*
G01X419100Y3111500D02*
G01X618193Y3111500D01*
G01X630895Y3124203D01*
G54D56*
G01X977900Y2678100D02*
G01X444155Y2678100D01*
G54D57*
G01X-1119200Y-2032000D02*
G01X-1119200Y-2102711D01*
G01X-1193800Y-2177310D01*
G01X-1193800Y-2590800D01*
G54D11*
G01X-925487Y-1772399D02*
G01X-925487Y-2195487D01*
G01X-952500Y-2222500D01*
G01X-1066800Y-2197100D02*
G01X-975500Y-2105800D01*
G01X-975500Y-1772399D01*
G01X-1875312Y-1490188D02*
G01X-1638300Y-1727200D01*
G01X-1175499Y-1622387D02*
G01X-1279487Y-1622387D01*
G01X-1320800Y-1663700D01*
G01X-1175499Y-1572400D02*
G01X-1331100Y-1572400D01*
G01X-1422400Y-1663700D01*
G01X-675500Y-1772399D02*
G01X-675500Y-2019300D01*
G01X-612000Y-2082800D01*
G01X-533400Y-2082800D01*
G01X-625488Y-1927212D02*
G01X-584200Y-1968500D01*
G01X-538923Y-1968500D01*
G01X-533400Y-1962977D01*
G01X-625488Y-1772399D02*
G01X-625488Y-1927212D01*
G01X-475501Y-1322387D02*
G01X-328612Y-1322387D01*
G01X-317500Y-1333500D01*
G01X-475501Y-1422387D02*
G01X-329349Y-1422387D01*
G01X-317500Y-1434236D01*
G01X-475501Y-1522387D02*
G01X-331813Y-1522387D01*
G01X-317500Y-1536700D01*
G01X-475501Y-1472400D02*
G01X-369100Y-1472400D01*
G01X-355600Y-1485900D01*
G01X-265100Y-1485900D01*
G01X-241300Y-1462100D01*
G01X-475501Y-1372400D02*
G01X-367500Y-1372400D01*
G01X-355600Y-1384300D01*
G01X-263500Y-1384300D01*
G01X-241300Y-1362100D01*
G01X-1317612Y-1222388D02*
G01X-1175499Y-1222388D01*
G01X-1319200Y-1873519D02*
G01X-1213599Y-1767919D01*
G01X-1079980Y-1767919D01*
G01X-1638300Y-1727200D02*
G01X-1270000Y-1727200D01*
G01X-1215199Y-1672399D01*
G01X-1175499Y-1672399D01*
G01X-1587500Y-2419401D02*
G01X-1587500Y-1917700D01*
G01X-1727200Y-1778000D01*
G01X-1841500Y-1778000D01*
G54D57*
G01X12090Y2565400D02*
G01X101600Y2565400D01*
G01X127000Y2540000D01*
G01X127000Y2389200D02*
G01X242900Y2273300D01*
G54D56*
G01X242900Y2273300D02*
G01X242900Y2157400D01*
G01X230200Y2144700D01*
G54D57*
G01X127000Y2540000D02*
G01X127000Y2468305D01*
G01X127000Y2389200D01*
G54D11*
G01X-975500Y-1072401D02*
G01X-975500Y-993000D01*
G01X-130899Y-1629499D02*
G01X-101600Y-1600200D01*
G01X-475501Y-1622387D02*
G01X-396913Y-1622387D01*
G01X-389801Y-1629499D01*
G01X-130899Y-1629499D01*
G01X-273100Y-1593900D02*
G01X-241300Y-1562100D01*
G01X-475501Y-1572400D02*
G01X-383400Y-1572400D01*
G01X-361900Y-1593900D01*
G01X-273100Y-1593900D01*
G01X-1587500Y-1536700D02*
G01X-1612900Y-1562100D01*
G01X-1689100Y-1485900D02*
G01X-1720088Y-1454912D01*
G01X-1720088Y-1384300D01*
G01X-1175499Y-1472400D02*
G01X-1358100Y-1472400D01*
G01X-1422400Y-1536700D01*
G01X-1587500Y-1536700D01*
G01X-1435100Y-1485900D02*
G01X-1689100Y-1485900D01*
G01X-1175499Y-1522387D02*
G01X-1344587Y-1522387D01*
G01X-1427500Y-1605300D01*
G01X-1524000Y-1605300D01*
G01X-1384300Y-1155700D02*
G01X-1317612Y-1222388D01*
G01X-1752600Y-863600D02*
G01X-1524000Y-863600D01*
G01X-1384300Y-1003300D01*
G01X-1384300Y-1155700D01*
G01X-1025487Y-1006513D02*
G01X-1122700Y-909300D01*
G01X-1175499Y-1159700D02*
G01X-1219949Y-1115250D01*
G01X-1297749Y-1115250D01*
G01X-1327150Y-1085850D01*
G01X-1327150Y-933450D01*
G01X-1175499Y-1172400D02*
G01X-1175499Y-1159700D01*
G01X-1327150Y-933450D02*
G01X-1330325Y-933450D01*
G01X-1333500Y-930275D01*
G01X-1333500Y-927100D01*
G01X660400Y114300D02*
G01X596900Y177800D01*
G01X368300Y177800D01*
G01X917397Y-1096349D02*
G01X1023146Y-990600D01*
G01X1041400Y-990600D01*
G01X-925487Y-1072401D02*
G01X-925487Y-943901D01*
G01X-1132788Y-736600D02*
G01X-1765300Y-736600D01*
G01X-1993910Y-965210D01*
G01X-1993910Y-1024412D01*
G01X-925487Y-943901D02*
G01X-960088Y-909300D01*
G01X-989390Y-909300D01*
G01X-1023600Y-875090D01*
G01X-1023600Y-845788D01*
G01X-1132788Y-736600D01*
G01X-975500Y-993000D02*
G01X-1130300Y-838200D01*
G01X-1143000Y-838200D01*
G54D57*
G01X-1519911Y674497D02*
G01X-1570711Y725297D01*
G01X-1570711Y850900D01*
G54D11*
G01X-1122700Y-909300D02*
G01X-1211600Y-909300D01*
G01X-1320800Y-800100D01*
G01X495300Y-1104900D02*
G01X495300Y-927100D01*
G01X508000Y-914400D01*
G01X-475501Y-1172400D02*
G01X-334200Y-1172400D01*
G01X-330200Y-1168400D01*
G01X-279400Y-1117600D01*
G01X-279400Y-533400D01*
G01X-982299Y-804499D02*
G01X-875500Y-911298D01*
G01X-875500Y-1072401D01*
G01X-1092200Y-546100D02*
G01X-1092200Y-694598D01*
G01X-982299Y-804499D01*
G01X-625488Y-982001D02*
G01X-481687Y-838200D01*
G01X-469900Y-838200D01*
G01X-419100Y1003300D02*
G01X-419100Y-685800D01*
G01X-675500Y-942200D01*
G01X-675500Y-1072401D01*
G01X-482600Y-660400D02*
G01X-725487Y-903287D01*
G01X-725487Y-1072401D01*
G01X-1175499Y-1422387D02*
G01X-1371588Y-1422388D01*
G01X-1435100Y-1485900D01*
G54D57*
G01X-1993900Y-306400D02*
G01X-1017600Y-306400D01*
G01X-1016000Y-304800D01*
G01X-1016000Y787400D01*
G01X-927100Y876300D01*
G01X-736600Y876300D01*
G54D11*
G01X-2159000Y762000D02*
G01X-2086889Y689889D01*
G01X-2086889Y444500D01*
G01X-2171700Y762000D02*
G01X-2159000Y762000D01*
G01X-2171700Y939800D02*
G01X-2005000Y939800D01*
G01X-2171700Y1117600D02*
G01X-2194900Y1140800D01*
G01X-2194900Y1231900D01*
G01X561551Y-2149831D02*
G01X561551Y-2314151D01*
G01X673100Y-2425700D01*
G01X673100Y-2616200D01*
G01X523451Y-2111731D02*
G01X561551Y-2149831D01*
G01X673100Y-2616200D02*
G01X635000Y-2654300D01*
G54D57*
G01X673100Y-3200400D02*
G01X673100Y-3346417D01*
G01X679483Y-3352800D01*
G01X635000Y-3162300D02*
G01X673100Y-3200400D01*
G01X679483Y-3352800D02*
G01X679483Y-3390900D01*
G04 Track End*

M02*

