G04 Layer: TopSilkscreenLayer*
G04 EasyEDA Pro v2.2.35.2, 2025-02-12 23:49:44*
G04 Gerber Generator version 0.3*
G04 Scale: 100 percent, Rotated: No, Reflected: No*
G04 Dimensions in millimeters*
G04 Leading zeros omitted, absolute positions, 4 integers and 5 decimals*
%FSLAX45Y45*%
%MOMM*%
%ADD10C,0.1*%
%ADD11C,0.1524*%
%ADD12C,0.07*%
%ADD13C,0.15*%
%ADD14C,0.3*%
%ADD15C,0.2*%
%ADD16C,0.2512*%
%ADD17C,0.254*%
%ADD18C,0.2032*%
%ADD19C,0.15199*%
%ADD20C,0.15999*%
%ADD21C,0.24*%
G75*


G04 Text Start*
G54D10*
G01X2307336Y1988312D02*
G01X2298700Y1983994D01*
G01X2289810Y1975104D01*
G01X2285492Y1966468D01*
G01X2285492Y1948942D01*
G01X2289810Y1940306D01*
G01X2298700Y1931416D01*
G01X2307336Y1927098D01*
G01X2320544Y1922780D01*
G01X2342388Y1922780D01*
G01X2355596Y1927098D01*
G01X2364232Y1931416D01*
G01X2373122Y1940306D01*
G01X2377440Y1948942D01*
G01X2377440Y1966468D01*
G01X2373122Y1975104D01*
G01X2364232Y1983994D01*
G01X2355596Y1988312D01*
G01X2285492Y2054352D02*
G01X2377440Y2019300D01*
G01X2285492Y2054352D02*
G01X2377440Y2089404D01*
G01X2346706Y2032508D02*
G01X2346706Y2076196D01*
G01X2285492Y2120392D02*
G01X2377440Y2120392D01*
G01X2285492Y2120392D02*
G01X2377440Y2181606D01*
G01X2285492Y2181606D02*
G01X2377440Y2181606D01*
G01X2285492Y2212594D02*
G01X2377440Y2212594D01*
G01X2377440Y2212594D02*
G01X2377440Y2265172D01*
G01X2307336Y1467612D02*
G01X2298700Y1463294D01*
G01X2289810Y1454404D01*
G01X2285492Y1445768D01*
G01X2285492Y1428242D01*
G01X2289810Y1419606D01*
G01X2298700Y1410716D01*
G01X2307336Y1406398D01*
G01X2320544Y1402080D01*
G01X2342388Y1402080D01*
G01X2355596Y1406398D01*
G01X2364232Y1410716D01*
G01X2373122Y1419606D01*
G01X2377440Y1428242D01*
G01X2377440Y1445768D01*
G01X2373122Y1454404D01*
G01X2364232Y1463294D01*
G01X2355596Y1467612D01*
G01X2285492Y1533652D02*
G01X2377440Y1498600D01*
G01X2285492Y1533652D02*
G01X2377440Y1568704D01*
G01X2346706Y1511808D02*
G01X2346706Y1555496D01*
G01X2285492Y1599692D02*
G01X2377440Y1599692D01*
G01X2285492Y1599692D02*
G01X2377440Y1660906D01*
G01X2285492Y1660906D02*
G01X2377440Y1660906D01*
G01X2285492Y1691894D02*
G01X2377440Y1691894D01*
G01X2285492Y1753108D02*
G01X2377440Y1753108D01*
G01X2329180Y1691894D02*
G01X2329180Y1753108D01*
G01X2307336Y972312D02*
G01X2298700Y967994D01*
G01X2289810Y959104D01*
G01X2285492Y950468D01*
G01X2285492Y932942D01*
G01X2289810Y924306D01*
G01X2298700Y915416D01*
G01X2307336Y911098D01*
G01X2320544Y906780D01*
G01X2342388Y906780D01*
G01X2355596Y911098D01*
G01X2364232Y915416D01*
G01X2373122Y924306D01*
G01X2377440Y932942D01*
G01X2377440Y950468D01*
G01X2373122Y959104D01*
G01X2364232Y967994D01*
G01X2355596Y972312D01*
G01X2342388Y972312D01*
G01X2342388Y950468D02*
G01X2342388Y972312D01*
G01X2285492Y1003300D02*
G01X2377440Y1003300D01*
G01X2285492Y1003300D02*
G01X2377440Y1064514D01*
G01X2285492Y1064514D02*
G01X2377440Y1064514D01*
G01X2285492Y1095502D02*
G01X2377440Y1095502D01*
G01X2285492Y1095502D02*
G01X2285492Y1126236D01*
G01X2289810Y1139190D01*
G01X2298700Y1148080D01*
G01X2307336Y1152398D01*
G01X2320544Y1156716D01*
G01X2342388Y1156716D01*
G01X2355596Y1152398D01*
G01X2364232Y1148080D01*
G01X2373122Y1139190D01*
G01X2377440Y1126236D01*
G01X2377440Y1095502D01*
G01X2298700Y2457450D02*
G01X2377440Y2457450D01*
G01X2338070Y2418080D02*
G01X2338070Y2496820D01*
G01X2307336Y2532126D02*
G01X2303018Y2532126D01*
G01X2294128Y2536444D01*
G01X2289810Y2541016D01*
G01X2285492Y2549652D01*
G01X2285492Y2567178D01*
G01X2289810Y2576068D01*
G01X2294128Y2580386D01*
G01X2303018Y2584704D01*
G01X2311654Y2584704D01*
G01X2320544Y2580386D01*
G01X2333752Y2571496D01*
G01X2377440Y2527808D01*
G01X2377440Y2589022D01*
G01X2285492Y2663698D02*
G01X2346706Y2620010D01*
G01X2346706Y2685542D01*
G01X2285492Y2663698D02*
G01X2377440Y2663698D01*
G01X2285492Y2716530D02*
G01X2377440Y2751582D01*
G01X2285492Y2786634D02*
G01X2377440Y2751582D01*
G01X2285492Y-353528D02*
G01X2377440Y-353528D01*
G01X2285492Y-292314D02*
G01X2377440Y-292314D01*
G01X2329180Y-353528D02*
G01X2329180Y-292314D01*
G01X2285492Y-235164D02*
G01X2289810Y-243800D01*
G01X2298700Y-252690D01*
G01X2307336Y-257008D01*
G01X2320544Y-261326D01*
G01X2342388Y-261326D01*
G01X2355596Y-257008D01*
G01X2364232Y-252690D01*
G01X2373122Y-243800D01*
G01X2377440Y-235164D01*
G01X2377440Y-217638D01*
G01X2373122Y-208748D01*
G01X2364232Y-200112D01*
G01X2355596Y-195794D01*
G01X2342388Y-191222D01*
G01X2320544Y-191222D01*
G01X2307336Y-195794D01*
G01X2298700Y-200112D01*
G01X2289810Y-208748D01*
G01X2285492Y-217638D01*
G01X2285492Y-235164D01*
G01X2285492Y-129500D02*
G01X2377440Y-129500D01*
G01X2285492Y-160234D02*
G01X2285492Y-99020D01*
G01X2307336Y-1329396D02*
G01X2298700Y-1333714D01*
G01X2289810Y-1342604D01*
G01X2285492Y-1351240D01*
G01X2285492Y-1368766D01*
G01X2289810Y-1377402D01*
G01X2298700Y-1386292D01*
G01X2307336Y-1390610D01*
G01X2320544Y-1394928D01*
G01X2342388Y-1394928D01*
G01X2355596Y-1390610D01*
G01X2364232Y-1386292D01*
G01X2373122Y-1377402D01*
G01X2377440Y-1368766D01*
G01X2377440Y-1351240D01*
G01X2373122Y-1342604D01*
G01X2364232Y-1333714D01*
G01X2355596Y-1329396D01*
G01X2285492Y-1272246D02*
G01X2289810Y-1280882D01*
G01X2298700Y-1289772D01*
G01X2307336Y-1294090D01*
G01X2320544Y-1298408D01*
G01X2342388Y-1298408D01*
G01X2355596Y-1294090D01*
G01X2364232Y-1289772D01*
G01X2373122Y-1280882D01*
G01X2377440Y-1272246D01*
G01X2377440Y-1254720D01*
G01X2373122Y-1245830D01*
G01X2364232Y-1237194D01*
G01X2355596Y-1232876D01*
G01X2342388Y-1228304D01*
G01X2320544Y-1228304D01*
G01X2307336Y-1232876D01*
G01X2298700Y-1237194D01*
G01X2289810Y-1245830D01*
G01X2285492Y-1254720D01*
G01X2285492Y-1272246D01*
G01X2285492Y-1197316D02*
G01X2377440Y-1197316D01*
G01X2377440Y-1197316D02*
G01X2377440Y-1144738D01*
G01X2285492Y-1113750D02*
G01X2377440Y-1113750D01*
G01X2285492Y-1113750D02*
G01X2285492Y-1083016D01*
G01X2289810Y-1070062D01*
G01X2298700Y-1061172D01*
G01X2307336Y-1056854D01*
G01X2320544Y-1052536D01*
G01X2342388Y-1052536D01*
G01X2355596Y-1056854D01*
G01X2364232Y-1061172D01*
G01X2373122Y-1070062D01*
G01X2377440Y-1083016D01*
G01X2377440Y-1113750D01*
G01X2307336Y-2053296D02*
G01X2298700Y-2057614D01*
G01X2289810Y-2066504D01*
G01X2285492Y-2075140D01*
G01X2285492Y-2092666D01*
G01X2289810Y-2101302D01*
G01X2298700Y-2110192D01*
G01X2307336Y-2114510D01*
G01X2320544Y-2118828D01*
G01X2342388Y-2118828D01*
G01X2355596Y-2114510D01*
G01X2364232Y-2110192D01*
G01X2373122Y-2101302D01*
G01X2377440Y-2092666D01*
G01X2377440Y-2075140D01*
G01X2373122Y-2066504D01*
G01X2364232Y-2057614D01*
G01X2355596Y-2053296D01*
G01X2342388Y-2053296D01*
G01X2342388Y-2075140D02*
G01X2342388Y-2053296D01*
G01X2285492Y-2022308D02*
G01X2377440Y-2022308D01*
G01X2285492Y-2022308D02*
G01X2377440Y-1961094D01*
G01X2285492Y-1961094D02*
G01X2377440Y-1961094D01*
G01X2285492Y-1930106D02*
G01X2377440Y-1930106D01*
G01X2285492Y-1930106D02*
G01X2285492Y-1899372D01*
G01X2289810Y-1886418D01*
G01X2298700Y-1877528D01*
G01X2307336Y-1873210D01*
G01X2320544Y-1868892D01*
G01X2342388Y-1868892D01*
G01X2355596Y-1873210D01*
G01X2364232Y-1877528D01*
G01X2373122Y-1886418D01*
G01X2377440Y-1899372D01*
G01X2377440Y-1930106D01*
G01X2285492Y-2700020D02*
G01X2377440Y-2700020D01*
G01X2285492Y-2700020D02*
G01X2285492Y-2643124D01*
G01X2329180Y-2700020D02*
G01X2329180Y-2665222D01*
G01X2285492Y-2612136D02*
G01X2377440Y-2612136D01*
G01X2377440Y-2612136D02*
G01X2377440Y-2559558D01*
G01X2285492Y-2502408D02*
G01X2289810Y-2511044D01*
G01X2298700Y-2519934D01*
G01X2307336Y-2524252D01*
G01X2320544Y-2528570D01*
G01X2342388Y-2528570D01*
G01X2355596Y-2524252D01*
G01X2364232Y-2519934D01*
G01X2373122Y-2511044D01*
G01X2377440Y-2502408D01*
G01X2377440Y-2484882D01*
G01X2373122Y-2475992D01*
G01X2364232Y-2467356D01*
G01X2355596Y-2463038D01*
G01X2342388Y-2458466D01*
G01X2320544Y-2458466D01*
G01X2307336Y-2463038D01*
G01X2298700Y-2467356D01*
G01X2289810Y-2475992D01*
G01X2285492Y-2484882D01*
G01X2285492Y-2502408D01*
G01X2285492Y-2427478D02*
G01X2377440Y-2405634D01*
G01X2285492Y-2383790D02*
G01X2377440Y-2405634D01*
G01X2285492Y-2383790D02*
G01X2377440Y-2361946D01*
G01X2285492Y-2339848D02*
G01X2377440Y-2361946D01*
G01X862838Y-2616454D02*
G01X900684Y-2616454D01*
G01X879856Y-2644140D01*
G01X890270Y-2644140D01*
G01X897128Y-2647442D01*
G01X900684Y-2650998D01*
G01X903986Y-2661158D01*
G01X903986Y-2668016D01*
G01X900684Y-2678430D01*
G01X893826Y-2685288D01*
G01X883412Y-2688844D01*
G01X872998Y-2688844D01*
G01X862838Y-2685288D01*
G01X859282Y-2681986D01*
G01X855980Y-2674874D01*
G01X930402Y-2616454D02*
G01X958088Y-2688844D01*
G01X985520Y-2616454D02*
G01X958088Y-2688844D01*
G01X1018794Y-2616454D02*
G01X1056640Y-2616454D01*
G01X1036066Y-2644140D01*
G01X1046480Y-2644140D01*
G01X1053338Y-2647442D01*
G01X1056640Y-2650998D01*
G01X1060196Y-2661158D01*
G01X1060196Y-2668016D01*
G01X1056640Y-2678430D01*
G01X1049782Y-2685288D01*
G01X1039622Y-2688844D01*
G01X1029208Y-2688844D01*
G01X1018794Y-2685288D01*
G01X1015492Y-2681986D01*
G01X1011936Y-2674874D01*
G01X855980Y-2883154D02*
G01X855980Y-2955544D01*
G01X855980Y-2883154D02*
G01X883412Y-2955544D01*
G01X910844Y-2883154D02*
G01X883412Y-2955544D01*
G01X910844Y-2883154D02*
G01X910844Y-2955544D01*
G01X958088Y-2883154D02*
G01X950976Y-2886710D01*
G01X944118Y-2893568D01*
G01X940816Y-2900426D01*
G01X937260Y-2910840D01*
G01X937260Y-2927858D01*
G01X940816Y-2938272D01*
G01X944118Y-2945130D01*
G01X950976Y-2951988D01*
G01X958088Y-2955544D01*
G01X971804Y-2955544D01*
G01X978662Y-2951988D01*
G01X985520Y-2945130D01*
G01X988822Y-2938272D01*
G01X992378Y-2927858D01*
G01X992378Y-2910840D01*
G01X988822Y-2900426D01*
G01X985520Y-2893568D01*
G01X978662Y-2886710D01*
G01X971804Y-2883154D01*
G01X958088Y-2883154D01*
G01X1067054Y-2893568D02*
G01X1060196Y-2886710D01*
G01X1049782Y-2883154D01*
G01X1036066Y-2883154D01*
G01X1025652Y-2886710D01*
G01X1018794Y-2893568D01*
G01X1018794Y-2900426D01*
G01X1022350Y-2907284D01*
G01X1025652Y-2910840D01*
G01X1032510Y-2914142D01*
G01X1053338Y-2921000D01*
G01X1060196Y-2924556D01*
G01X1063498Y-2927858D01*
G01X1067054Y-2934716D01*
G01X1067054Y-2945130D01*
G01X1060196Y-2951988D01*
G01X1049782Y-2955544D01*
G01X1036066Y-2955544D01*
G01X1025652Y-2951988D01*
G01X1018794Y-2945130D01*
G01X1093470Y-2883154D02*
G01X1093470Y-2955544D01*
G01X920242Y-3154426D02*
G01X916686Y-3147568D01*
G01X909828Y-3140710D01*
G01X902970Y-3137154D01*
G01X889254Y-3137154D01*
G01X882396Y-3140710D01*
G01X875538Y-3147568D01*
G01X871982Y-3154426D01*
G01X868680Y-3164840D01*
G01X868680Y-3181858D01*
G01X871982Y-3192272D01*
G01X875538Y-3199130D01*
G01X882396Y-3205988D01*
G01X889254Y-3209544D01*
G01X902970Y-3209544D01*
G01X909828Y-3205988D01*
G01X916686Y-3199130D01*
G01X920242Y-3192272D01*
G01X920242Y-3181858D01*
G01X902970Y-3181858D02*
G01X920242Y-3181858D01*
G01X946658Y-3137154D02*
G01X946658Y-3209544D01*
G01X946658Y-3137154D02*
G01X994918Y-3209544D01*
G01X994918Y-3137154D02*
G01X994918Y-3209544D01*
G01X1021334Y-3137154D02*
G01X1021334Y-3209544D01*
G01X1021334Y-3137154D02*
G01X1045464Y-3137154D01*
G01X1055878Y-3140710D01*
G01X1062736Y-3147568D01*
G01X1066038Y-3154426D01*
G01X1069594Y-3164840D01*
G01X1069594Y-3181858D01*
G01X1066038Y-3192272D01*
G01X1062736Y-3199130D01*
G01X1055878Y-3205988D01*
G01X1045464Y-3209544D01*
G01X1021334Y-3209544D01*
G01X30480Y-2629154D02*
G01X30480Y-2701544D01*
G01X30480Y-2629154D02*
G01X57912Y-2701544D01*
G01X85344Y-2629154D02*
G01X57912Y-2701544D01*
G01X85344Y-2629154D02*
G01X85344Y-2701544D01*
G01X111760Y-2629154D02*
G01X111760Y-2701544D01*
G01X186436Y-2639568D02*
G01X179578Y-2632710D01*
G01X169164Y-2629154D01*
G01X155448Y-2629154D01*
G01X145288Y-2632710D01*
G01X138430Y-2639568D01*
G01X138430Y-2646426D01*
G01X141732Y-2653284D01*
G01X145288Y-2656840D01*
G01X152146Y-2660142D01*
G01X172720Y-2667000D01*
G01X179578Y-2670556D01*
G01X183134Y-2673858D01*
G01X186436Y-2680716D01*
G01X186436Y-2691130D01*
G01X179578Y-2697988D01*
G01X169164Y-2701544D01*
G01X155448Y-2701544D01*
G01X145288Y-2697988D01*
G01X138430Y-2691130D01*
G01X233680Y-2629154D02*
G01X226568Y-2632710D01*
G01X219710Y-2639568D01*
G01X216408Y-2646426D01*
G01X212852Y-2656840D01*
G01X212852Y-2673858D01*
G01X216408Y-2684272D01*
G01X219710Y-2691130D01*
G01X226568Y-2697988D01*
G01X233680Y-2701544D01*
G01X247396Y-2701544D01*
G01X254254Y-2697988D01*
G01X261112Y-2691130D01*
G01X264414Y-2684272D01*
G01X267970Y-2673858D01*
G01X267970Y-2656840D01*
G01X264414Y-2646426D01*
G01X261112Y-2639568D01*
G01X254254Y-2632710D01*
G01X247396Y-2629154D01*
G01X233680Y-2629154D01*
G01X116586Y-2893568D02*
G01X109728Y-2886710D01*
G01X99314Y-2883154D01*
G01X85598Y-2883154D01*
G01X75438Y-2886710D01*
G01X68580Y-2893568D01*
G01X68580Y-2900426D01*
G01X71882Y-2907284D01*
G01X75438Y-2910840D01*
G01X82296Y-2914142D01*
G01X102870Y-2921000D01*
G01X109728Y-2924556D01*
G01X113284Y-2927858D01*
G01X116586Y-2934716D01*
G01X116586Y-2945130D01*
G01X109728Y-2951988D01*
G01X99314Y-2955544D01*
G01X85598Y-2955544D01*
G01X75438Y-2951988D01*
G01X68580Y-2945130D01*
G01X194564Y-2900426D02*
G01X191262Y-2893568D01*
G01X184404Y-2886710D01*
G01X177546Y-2883154D01*
G01X163830Y-2883154D01*
G01X156718Y-2886710D01*
G01X149860Y-2893568D01*
G01X146558Y-2900426D01*
G01X143002Y-2910840D01*
G01X143002Y-2927858D01*
G01X146558Y-2938272D01*
G01X149860Y-2945130D01*
G01X156718Y-2951988D01*
G01X163830Y-2955544D01*
G01X177546Y-2955544D01*
G01X184404Y-2951988D01*
G01X191262Y-2945130D01*
G01X194564Y-2938272D01*
G01X220980Y-2883154D02*
G01X220980Y-2955544D01*
G01X269240Y-2883154D02*
G01X220980Y-2931414D01*
G01X238252Y-2914142D02*
G01X269240Y-2955544D01*
G01X68580Y-3137154D02*
G01X68580Y-3209544D01*
G01X68580Y-3137154D02*
G01X99314Y-3137154D01*
G01X109728Y-3140710D01*
G01X113284Y-3144012D01*
G01X116586Y-3151124D01*
G01X116586Y-3157982D01*
G01X113284Y-3164840D01*
G01X109728Y-3168142D01*
G01X99314Y-3171698D01*
G01X68580Y-3171698D01*
G01X92456Y-3171698D02*
G01X116586Y-3209544D01*
G01X191262Y-3147568D02*
G01X184404Y-3140710D01*
G01X173990Y-3137154D01*
G01X160274Y-3137154D01*
G01X149860Y-3140710D01*
G01X143002Y-3147568D01*
G01X143002Y-3154426D01*
G01X146558Y-3161284D01*
G01X149860Y-3164840D01*
G01X156718Y-3168142D01*
G01X177546Y-3175000D01*
G01X184404Y-3178556D01*
G01X187706Y-3181858D01*
G01X191262Y-3188716D01*
G01X191262Y-3199130D01*
G01X184404Y-3205988D01*
G01X173990Y-3209544D01*
G01X160274Y-3209544D01*
G01X149860Y-3205988D01*
G01X143002Y-3199130D01*
G01X241808Y-3137154D02*
G01X241808Y-3209544D01*
G01X217678Y-3137154D02*
G01X265938Y-3137154D01*
G01X-1372108Y-3017520D02*
G01X-1280160Y-3017520D01*
G01X-1372108Y-3017520D02*
G01X-1372108Y-2978150D01*
G01X-1367790Y-2965196D01*
G01X-1363472Y-2960624D01*
G01X-1354582Y-2956306D01*
G01X-1345946Y-2956306D01*
G01X-1337056Y-2960624D01*
G01X-1332738Y-2965196D01*
G01X-1328420Y-2978150D01*
G01X-1328420Y-3017520D01*
G01X-1328420Y-2987040D02*
G01X-1280160Y-2956306D01*
G01X-1372108Y-2925318D02*
G01X-1280160Y-2925318D01*
G01X-1372108Y-2925318D02*
G01X-1372108Y-2868422D01*
G01X-1328420Y-2925318D02*
G01X-1328420Y-2890266D01*
G01X-1280160Y-2925318D02*
G01X-1280160Y-2868422D01*
G01X-1358900Y-2776220D02*
G01X-1367790Y-2784856D01*
G01X-1372108Y-2798064D01*
G01X-1372108Y-2815590D01*
G01X-1367790Y-2828798D01*
G01X-1358900Y-2837434D01*
G01X-1350264Y-2837434D01*
G01X-1341374Y-2833116D01*
G01X-1337056Y-2828798D01*
G01X-1332738Y-2819908D01*
G01X-1323848Y-2793746D01*
G01X-1319530Y-2784856D01*
G01X-1315212Y-2780538D01*
G01X-1306576Y-2776220D01*
G01X-1293368Y-2776220D01*
G01X-1284478Y-2784856D01*
G01X-1280160Y-2798064D01*
G01X-1280160Y-2815590D01*
G01X-1284478Y-2828798D01*
G01X-1293368Y-2837434D01*
G01X-1372108Y-2745232D02*
G01X-1280160Y-2745232D01*
G01X-1372108Y-2745232D02*
G01X-1372108Y-2688336D01*
G01X-1328420Y-2745232D02*
G01X-1328420Y-2710180D01*
G01X-1280160Y-2745232D02*
G01X-1280160Y-2688336D01*
G01X-1372108Y-2626614D02*
G01X-1280160Y-2626614D01*
G01X-1372108Y-2657348D02*
G01X-1372108Y-2596134D01*
G54D11*
G01X-2384298Y1132840D02*
G01X-2387346Y1139190D01*
G01X-2393696Y1145286D01*
G01X-2399792Y1148334D01*
G01X-2412238Y1148334D01*
G01X-2418334Y1145286D01*
G01X-2424684Y1139190D01*
G01X-2427732Y1132840D01*
G01X-2430780Y1123696D01*
G01X-2430780Y1108202D01*
G01X-2427732Y1098804D01*
G01X-2424684Y1092708D01*
G01X-2418334Y1086358D01*
G01X-2412238Y1083310D01*
G01X-2399792Y1083310D01*
G01X-2393696Y1086358D01*
G01X-2387346Y1092708D01*
G01X-2384298Y1098804D01*
G01X-2384298Y1108202D01*
G01X-2399792Y1108202D02*
G01X-2384298Y1108202D01*
G01X-2354072Y1148334D02*
G01X-2354072Y1083310D01*
G01X-2354072Y1148334D02*
G01X-2310892Y1083310D01*
G01X-2310892Y1148334D02*
G01X-2310892Y1083310D01*
G01X-2280666Y1148334D02*
G01X-2280666Y1083310D01*
G01X-2280666Y1148334D02*
G01X-2259076Y1148334D01*
G01X-2249932Y1145286D01*
G01X-2243582Y1139190D01*
G01X-2240534Y1132840D01*
G01X-2237486Y1123696D01*
G01X-2237486Y1108202D01*
G01X-2240534Y1098804D01*
G01X-2243582Y1092708D01*
G01X-2249932Y1086358D01*
G01X-2259076Y1083310D01*
G01X-2280666Y1083310D01*
G01X-2330196Y970534D02*
G01X-2361184Y970534D01*
G01X-2364232Y942848D01*
G01X-2361184Y945896D01*
G01X-2351786Y948944D01*
G01X-2342388Y948944D01*
G01X-2333244Y945896D01*
G01X-2327148Y939546D01*
G01X-2323846Y930402D01*
G01X-2323846Y924052D01*
G01X-2327148Y914908D01*
G01X-2333244Y908558D01*
G01X-2342388Y905510D01*
G01X-2351786Y905510D01*
G01X-2361184Y908558D01*
G01X-2364232Y911860D01*
G01X-2367280Y917956D01*
G01X-2293620Y970534D02*
G01X-2268982Y905510D01*
G01X-2244090Y970534D02*
G01X-2268982Y905510D01*
G01X-2424684Y805434D02*
G01X-2390648Y805434D01*
G01X-2409190Y780796D01*
G01X-2399792Y780796D01*
G01X-2393696Y777748D01*
G01X-2390648Y774446D01*
G01X-2387346Y765302D01*
G01X-2387346Y758952D01*
G01X-2390648Y749808D01*
G01X-2396744Y743458D01*
G01X-2405888Y740410D01*
G01X-2415286Y740410D01*
G01X-2424684Y743458D01*
G01X-2427732Y746760D01*
G01X-2430780Y752856D01*
G01X-2357120Y805434D02*
G01X-2332482Y740410D01*
G01X-2307590Y805434D02*
G01X-2332482Y740410D01*
G01X-2271268Y805434D02*
G01X-2237232Y805434D01*
G01X-2255774Y780796D01*
G01X-2246630Y780796D01*
G01X-2240280Y777748D01*
G01X-2237232Y774446D01*
G01X-2234184Y765302D01*
G01X-2234184Y758952D01*
G01X-2237232Y749808D01*
G01X-2243328Y743458D01*
G01X-2252726Y740410D01*
G01X-2262124Y740410D01*
G01X-2271268Y743458D01*
G01X-2274316Y746760D01*
G01X-2277364Y752856D01*
G01X-1567180Y1148334D02*
G01X-1542288Y1083310D01*
G01X-1517650Y1148334D02*
G01X-1542288Y1083310D01*
G01X-1487424Y1126744D02*
G01X-1487424Y1095756D01*
G01X-1484376Y1086358D01*
G01X-1478280Y1083310D01*
G01X-1468882Y1083310D01*
G01X-1462786Y1086358D01*
G01X-1453388Y1095756D01*
G01X-1453388Y1126744D02*
G01X-1453388Y1083310D01*
G01X-1389126Y1117346D02*
G01X-1392428Y1123696D01*
G01X-1401572Y1126744D01*
G01X-1410970Y1126744D01*
G01X-1420114Y1123696D01*
G01X-1423162Y1117346D01*
G01X-1420114Y1111250D01*
G01X-1414018Y1108202D01*
G01X-1398524Y1105154D01*
G01X-1392428Y1101852D01*
G01X-1389126Y1095756D01*
G01X-1389126Y1092708D01*
G01X-1392428Y1086358D01*
G01X-1401572Y1083310D01*
G01X-1410970Y1083310D01*
G01X-1420114Y1086358D01*
G01X-1423162Y1092708D01*
G01X-1358900Y1148334D02*
G01X-1358900Y1083310D01*
G01X-1358900Y1117346D02*
G01X-1352804Y1123696D01*
G01X-1346708Y1126744D01*
G01X-1337310Y1126744D01*
G01X-1331214Y1123696D01*
G01X-1324864Y1117346D01*
G01X-1321816Y1108202D01*
G01X-1321816Y1101852D01*
G01X-1324864Y1092708D01*
G01X-1331214Y1086358D01*
G01X-1337310Y1083310D01*
G01X-1346708Y1083310D01*
G01X-1352804Y1086358D01*
G01X-1358900Y1092708D01*
G01X-490982Y1840484D02*
G01X-466090Y1775460D01*
G01X-441452Y1840484D02*
G01X-466090Y1775460D01*
G01X-411226Y1800352D02*
G01X-374142Y1800352D01*
G01X-374142Y1806448D01*
G01X-377190Y1812798D01*
G01X-380492Y1815846D01*
G01X-386588Y1818894D01*
G01X-395986Y1818894D01*
G01X-402082Y1815846D01*
G01X-408178Y1809496D01*
G01X-411226Y1800352D01*
G01X-411226Y1794002D01*
G01X-408178Y1784858D01*
G01X-402082Y1778508D01*
G01X-395986Y1775460D01*
G01X-386588Y1775460D01*
G01X-380492Y1778508D01*
G01X-374142Y1784858D01*
G01X-343916Y1818894D02*
G01X-309880Y1775460D01*
G01X-309880Y1818894D02*
G01X-343916Y1775460D01*
G01X-270510Y1840484D02*
G01X-270510Y1787906D01*
G01X-267462Y1778508D01*
G01X-261112Y1775460D01*
G01X-255016Y1775460D01*
G01X-279654Y1818894D02*
G01X-258064Y1818894D01*
G01X302768Y3241040D02*
G01X302768Y3244088D01*
G01X305816Y3250438D01*
G01X309118Y3253486D01*
G01X315214Y3256534D01*
G01X327660Y3256534D01*
G01X333756Y3253486D01*
G01X336804Y3250438D01*
G01X339852Y3244088D01*
G01X339852Y3237992D01*
G01X336804Y3231896D01*
G01X330708Y3222498D01*
G01X299720Y3191510D01*
G01X343154Y3191510D01*
G01X404114Y3256534D02*
G01X373380Y3213354D01*
G01X419608Y3213354D01*
G01X404114Y3256534D02*
G01X404114Y3191510D01*
G01X449834Y3256534D02*
G01X474472Y3191510D01*
G01X499364Y3256534D02*
G01X474472Y3191510D01*
G01X-970280Y-2090166D02*
G01X-970280Y-2155190D01*
G01X-970280Y-2090166D02*
G01X-942340Y-2090166D01*
G01X-933196Y-2093214D01*
G01X-930148Y-2096262D01*
G01X-926846Y-2102612D01*
G01X-926846Y-2111756D01*
G01X-930148Y-2117852D01*
G01X-933196Y-2121154D01*
G01X-942340Y-2124202D01*
G01X-970280Y-2124202D01*
G01X-896620Y-2090166D02*
G01X-896620Y-2155190D01*
G01X-896620Y-2090166D02*
G01X-875030Y-2090166D01*
G01X-865886Y-2093214D01*
G01X-859536Y-2099310D01*
G01X-856488Y-2105660D01*
G01X-853440Y-2114804D01*
G01X-853440Y-2130298D01*
G01X-856488Y-2139696D01*
G01X-859536Y-2145792D01*
G01X-865886Y-2152142D01*
G01X-875030Y-2155190D01*
G01X-896620Y-2155190D01*
G01X-786130Y-2099310D02*
G01X-789178Y-2093214D01*
G01X-798576Y-2090166D01*
G01X-804672Y-2090166D01*
G01X-814070Y-2093214D01*
G01X-820166Y-2102612D01*
G01X-823214Y-2117852D01*
G01X-823214Y-2133346D01*
G01X-820166Y-2145792D01*
G01X-814070Y-2152142D01*
G01X-804672Y-2155190D01*
G01X-801624Y-2155190D01*
G01X-792480Y-2152142D01*
G01X-786130Y-2145792D01*
G01X-783082Y-2136648D01*
G01X-783082Y-2133346D01*
G01X-786130Y-2124202D01*
G01X-792480Y-2117852D01*
G01X-801624Y-2114804D01*
G01X-804672Y-2114804D01*
G01X-814070Y-2117852D01*
G01X-820166Y-2124202D01*
G01X-823214Y-2133346D01*
G54D12*
G01X-1495044Y-1706626D02*
G01X-1495044Y-1748028D01*
G01X-1495044Y-1706626D02*
G01X-1477264Y-1706626D01*
G01X-1471422Y-1708658D01*
G01X-1469390Y-1710690D01*
G01X-1467612Y-1714500D01*
G01X-1467612Y-1718564D01*
G01X-1469390Y-1722374D01*
G01X-1471422Y-1724406D01*
G01X-1477264Y-1726438D01*
G01X-1495044Y-1726438D01*
G01X-1481328Y-1726438D02*
G01X-1467612Y-1748028D01*
G01X-1451102Y-1706626D02*
G01X-1423670Y-1748028D01*
G01X-1423670Y-1706626D02*
G01X-1451102Y-1748028D01*
G01X-1367028Y-1706626D02*
G01X-1367028Y-1748028D01*
G01X-1380744Y-1706626D02*
G01X-1353312Y-1706626D01*
G01X-1336802Y-1706626D02*
G01X-1309370Y-1748028D01*
G01X-1309370Y-1706626D02*
G01X-1336802Y-1748028D01*
G01X-480159Y-2059126D02*
G01X-480159Y-2100528D01*
G01X-480159Y-2059126D02*
G01X-462379Y-2059126D01*
G01X-456537Y-2061158D01*
G01X-454505Y-2063190D01*
G01X-452727Y-2067000D01*
G01X-452727Y-2072842D01*
G01X-454505Y-2076906D01*
G01X-456537Y-2078938D01*
G01X-462379Y-2080716D01*
G01X-480159Y-2080716D01*
G01X-406753Y-2069032D02*
G01X-408785Y-2064968D01*
G01X-412595Y-2061158D01*
G01X-416659Y-2059126D01*
G01X-424533Y-2059126D01*
G01X-428343Y-2061158D01*
G01X-432407Y-2064968D01*
G01X-434185Y-2069032D01*
G01X-436217Y-2074874D01*
G01X-436217Y-2084780D01*
G01X-434185Y-2090622D01*
G01X-432407Y-2094686D01*
G01X-428343Y-2098496D01*
G01X-424533Y-2100528D01*
G01X-416659Y-2100528D01*
G01X-412595Y-2098496D01*
G01X-408785Y-2094686D01*
G01X-406753Y-2090622D01*
G01X-366621Y-2064968D02*
G01X-368653Y-2061158D01*
G01X-374495Y-2059126D01*
G01X-378559Y-2059126D01*
G01X-384401Y-2061158D01*
G01X-388211Y-2067000D01*
G01X-390243Y-2076906D01*
G01X-390243Y-2086812D01*
G01X-388211Y-2094686D01*
G01X-384401Y-2098496D01*
G01X-378559Y-2100528D01*
G01X-376527Y-2100528D01*
G01X-370685Y-2098496D01*
G01X-366621Y-2094686D01*
G01X-364589Y-2088590D01*
G01X-364589Y-2086812D01*
G01X-366621Y-2080716D01*
G01X-370685Y-2076906D01*
G01X-376527Y-2074874D01*
G01X-378559Y-2074874D01*
G01X-384401Y-2076906D01*
G01X-388211Y-2080716D01*
G01X-390243Y-2086812D01*
G01X-476857Y-1944826D02*
G01X-476857Y-1986228D01*
G01X-476857Y-1944826D02*
G01X-459077Y-1944826D01*
G01X-453235Y-1946858D01*
G01X-451203Y-1948890D01*
G01X-449425Y-1952700D01*
G01X-449425Y-1958542D01*
G01X-451203Y-1962606D01*
G01X-453235Y-1964638D01*
G01X-459077Y-1966416D01*
G01X-476857Y-1966416D01*
G01X-403451Y-1954732D02*
G01X-405483Y-1950668D01*
G01X-409293Y-1946858D01*
G01X-413357Y-1944826D01*
G01X-421231Y-1944826D01*
G01X-425041Y-1946858D01*
G01X-429105Y-1950668D01*
G01X-430883Y-1954732D01*
G01X-432915Y-1960574D01*
G01X-432915Y-1970480D01*
G01X-430883Y-1976322D01*
G01X-429105Y-1980386D01*
G01X-425041Y-1984196D01*
G01X-421231Y-1986228D01*
G01X-413357Y-1986228D01*
G01X-409293Y-1984196D01*
G01X-405483Y-1980386D01*
G01X-403451Y-1976322D01*
G01X-359509Y-1944826D02*
G01X-379067Y-1986228D01*
G01X-386941Y-1944826D02*
G01X-359509Y-1944826D01*
G54D13*
G01X10434Y-93980D02*
G01X105684Y-93980D01*
G01X10434Y-93980D02*
G01X10434Y-62484D01*
G01X15006Y-48768D01*
G01X23896Y-39624D01*
G01X33040Y-35306D01*
G01X46756Y-30734D01*
G01X69362Y-30734D01*
G01X82824Y-35306D01*
G01X91968Y-39624D01*
G01X101112Y-48768D01*
G01X105684Y-62484D01*
G01X105684Y-93980D01*
G01X69362Y6096D02*
G01X69362Y60452D01*
G01X60218Y60452D01*
G01X51328Y55880D01*
G01X46756Y51308D01*
G01X42184Y42164D01*
G01X42184Y28702D01*
G01X46756Y19558D01*
G01X55646Y10668D01*
G01X69362Y6096D01*
G01X78506Y6096D01*
G01X91968Y10668D01*
G01X101112Y19558D01*
G01X105684Y28702D01*
G01X105684Y42164D01*
G01X101112Y51308D01*
G01X91968Y60452D01*
G01X55646Y147066D02*
G01X46756Y142494D01*
G01X42184Y129032D01*
G01X42184Y115316D01*
G01X46756Y101854D01*
G01X55646Y97282D01*
G01X64790Y101854D01*
G01X69362Y110744D01*
G01X73934Y133350D01*
G01X78506Y142494D01*
G01X87396Y147066D01*
G01X91968Y147066D01*
G01X101112Y142494D01*
G01X105684Y129032D01*
G01X105684Y115316D01*
G01X101112Y101854D01*
G01X91968Y97282D01*
G01X10434Y183896D02*
G01X15006Y188468D01*
G01X10434Y192786D01*
G01X5862Y188468D01*
G01X10434Y183896D01*
G01X42184Y188468D02*
G01X105684Y188468D01*
G01X42184Y283972D02*
G01X114574Y283972D01*
G01X128290Y279400D01*
G01X132862Y274828D01*
G01X137180Y265684D01*
G01X137180Y252222D01*
G01X132862Y243078D01*
G01X55646Y283972D02*
G01X46756Y274828D01*
G01X42184Y265684D01*
G01X42184Y252222D01*
G01X46756Y243078D01*
G01X55646Y234188D01*
G01X69362Y229616D01*
G01X78506Y229616D01*
G01X91968Y234188D01*
G01X101112Y243078D01*
G01X105684Y252222D01*
G01X105684Y265684D01*
G01X101112Y274828D01*
G01X91968Y283972D01*
G01X42184Y320802D02*
G01X105684Y320802D01*
G01X60218Y320802D02*
G01X46756Y334264D01*
G01X42184Y343408D01*
G01X42184Y356870D01*
G01X46756Y366014D01*
G01X60218Y370586D01*
G01X105684Y370586D01*
G01X69362Y407416D02*
G01X69362Y461772D01*
G01X60218Y461772D01*
G01X51328Y457200D01*
G01X46756Y452628D01*
G01X42184Y443484D01*
G01X42184Y430022D01*
G01X46756Y420878D01*
G01X55646Y411988D01*
G01X69362Y407416D01*
G01X78506Y407416D01*
G01X91968Y411988D01*
G01X101112Y420878D01*
G01X105684Y430022D01*
G01X105684Y443484D01*
G01X101112Y452628D01*
G01X91968Y461772D01*
G01X10434Y552958D02*
G01X105684Y552958D01*
G01X55646Y552958D02*
G01X46756Y543814D01*
G01X42184Y534670D01*
G01X42184Y521208D01*
G01X46756Y512064D01*
G01X55646Y503174D01*
G01X69362Y498602D01*
G01X78506Y498602D01*
G01X91968Y503174D01*
G01X101112Y512064D01*
G01X105684Y521208D01*
G01X105684Y534670D01*
G01X101112Y543814D01*
G01X91968Y552958D01*
G01X170454Y-93980D02*
G01X265704Y-93980D01*
G01X215666Y-93980D02*
G01X206776Y-85090D01*
G01X202204Y-75946D01*
G01X202204Y-62484D01*
G01X206776Y-53340D01*
G01X215666Y-44196D01*
G01X229382Y-39624D01*
G01X238272Y-39624D01*
G01X251988Y-44196D01*
G01X261132Y-53340D01*
G01X265704Y-62484D01*
G01X265704Y-75946D01*
G01X261132Y-85090D01*
G01X251988Y-93980D01*
G01X202204Y1778D02*
G01X265704Y28956D01*
G01X202204Y56134D02*
G01X265704Y28956D01*
G01X283738Y19812D01*
G01X292882Y10668D01*
G01X297200Y1778D01*
G01X297200Y-2794D01*
G01X170454Y194310D02*
G01X265704Y194310D01*
G01X170454Y194310D02*
G01X265704Y257810D01*
G01X170454Y257810D02*
G01X265704Y257810D01*
G01X170454Y321818D02*
G01X175026Y312674D01*
G01X183916Y303530D01*
G01X193060Y299212D01*
G01X206776Y294640D01*
G01X229382Y294640D01*
G01X242844Y299212D01*
G01X251988Y303530D01*
G01X261132Y312674D01*
G01X265704Y321818D01*
G01X265704Y339852D01*
G01X261132Y348996D01*
G01X251988Y357886D01*
G01X242844Y362458D01*
G01X229382Y367030D01*
G01X206776Y367030D01*
G01X193060Y362458D01*
G01X183916Y357886D01*
G01X175026Y348996D01*
G01X170454Y339852D01*
G01X170454Y321818D01*
G01X183916Y467106D02*
G01X175026Y458216D01*
G01X170454Y444500D01*
G01X170454Y426466D01*
G01X175026Y412750D01*
G01X183916Y403860D01*
G01X193060Y403860D01*
G01X202204Y408432D01*
G01X206776Y412750D01*
G01X211094Y421894D01*
G01X220238Y449072D01*
G01X224810Y458216D01*
G01X229382Y462788D01*
G01X238272Y467106D01*
G01X251988Y467106D01*
G01X261132Y458216D01*
G01X265704Y444500D01*
G01X265704Y426466D01*
G01X261132Y412750D01*
G01X251988Y403860D01*
G01X170454Y526542D02*
G01X175026Y512826D01*
G01X183916Y508508D01*
G01X193060Y508508D01*
G01X202204Y512826D01*
G01X206776Y521970D01*
G01X211094Y540004D01*
G01X215666Y553720D01*
G01X224810Y562864D01*
G01X233954Y567182D01*
G01X247416Y567182D01*
G01X256560Y562864D01*
G01X261132Y558292D01*
G01X265704Y544576D01*
G01X265704Y526542D01*
G01X261132Y512826D01*
G01X256560Y508508D01*
G01X247416Y503936D01*
G01X233954Y503936D01*
G01X224810Y508508D01*
G01X215666Y517398D01*
G01X211094Y531114D01*
G01X206776Y549148D01*
G01X202204Y558292D01*
G01X193060Y562864D01*
G01X183916Y562864D01*
G01X175026Y558292D01*
G01X170454Y544576D01*
G01X170454Y526542D01*
G01X183916Y658368D02*
G01X175026Y653796D01*
G01X170454Y640080D01*
G01X170454Y631190D01*
G01X175026Y617474D01*
G01X188488Y608584D01*
G01X211094Y604012D01*
G01X233954Y604012D01*
G01X251988Y608584D01*
G01X261132Y617474D01*
G01X265704Y631190D01*
G01X265704Y635762D01*
G01X261132Y649224D01*
G01X251988Y658368D01*
G01X238272Y662940D01*
G01X233954Y662940D01*
G01X220238Y658368D01*
G01X211094Y649224D01*
G01X206776Y635762D01*
G01X206776Y631190D01*
G01X211094Y617474D01*
G01X220238Y608584D01*
G01X233954Y604012D01*
G54D14*
G01X-1252806Y-459232D02*
G01X-1075768Y-459232D01*
G01X-1252806Y-518414D02*
G01X-1252806Y-400304D01*
G01X-1252806Y-329692D02*
G01X-1075768Y-329692D01*
G01X-1160096Y-329692D02*
G01X-1185242Y-304546D01*
G01X-1193878Y-287528D01*
G01X-1193878Y-262382D01*
G01X-1185242Y-245364D01*
G01X-1160096Y-236982D01*
G01X-1075768Y-236982D01*
G01X-1143078Y-166370D02*
G01X-1143078Y-65278D01*
G01X-1160096Y-65278D01*
G01X-1176860Y-73660D01*
G01X-1185242Y-82042D01*
G01X-1193878Y-99060D01*
G01X-1193878Y-124206D01*
G01X-1185242Y-141224D01*
G01X-1168478Y-157988D01*
G01X-1143078Y-166370D01*
G01X-1126314Y-166370D01*
G01X-1100914Y-157988D01*
G01X-1084150Y-141224D01*
G01X-1075768Y-124206D01*
G01X-1075768Y-99060D01*
G01X-1084150Y-82042D01*
G01X-1100914Y-65278D01*
G01X-1193878Y5334D02*
G01X-1075768Y5334D01*
G01X-1143078Y5334D02*
G01X-1168478Y13716D01*
G01X-1185242Y30480D01*
G01X-1193878Y47498D01*
G01X-1193878Y72644D01*
G01X-1193878Y143256D02*
G01X-1075768Y143256D01*
G01X-1160096Y143256D02*
G01X-1185242Y168402D01*
G01X-1193878Y185420D01*
G01X-1193878Y210566D01*
G01X-1185242Y227584D01*
G01X-1160096Y235966D01*
G01X-1075768Y235966D01*
G01X-1160096Y235966D02*
G01X-1185242Y261366D01*
G01X-1193878Y278130D01*
G01X-1193878Y303530D01*
G01X-1185242Y320294D01*
G01X-1160096Y328676D01*
G01X-1075768Y328676D01*
G01X-1193878Y500380D02*
G01X-1075768Y500380D01*
G01X-1168478Y500380D02*
G01X-1185242Y483616D01*
G01X-1193878Y466598D01*
G01X-1193878Y441452D01*
G01X-1185242Y424434D01*
G01X-1168478Y407670D01*
G01X-1143078Y399288D01*
G01X-1126314Y399288D01*
G01X-1100914Y407670D01*
G01X-1084150Y424434D01*
G01X-1075768Y441452D01*
G01X-1075768Y466598D01*
G01X-1084150Y483616D01*
G01X-1100914Y500380D01*
G01X-1252806Y570992D02*
G01X-1075768Y570992D01*
G01X-1252806Y641604D02*
G01X-1075768Y641604D01*
G01X-1252806Y641604D02*
G01X-1252806Y751078D01*
G01X-1168478Y641604D02*
G01X-1168478Y708914D01*
G01X-1252806Y821690D02*
G01X-1075768Y821690D01*
G01X-1193878Y934466D02*
G01X-1185242Y917448D01*
G01X-1168478Y900684D01*
G01X-1143078Y892302D01*
G01X-1126314Y892302D01*
G01X-1100914Y900684D01*
G01X-1084150Y917448D01*
G01X-1075768Y934466D01*
G01X-1075768Y959612D01*
G01X-1084150Y976630D01*
G01X-1100914Y993394D01*
G01X-1126314Y1001776D01*
G01X-1143078Y1001776D01*
G01X-1168478Y993394D01*
G01X-1185242Y976630D01*
G01X-1193878Y959612D01*
G01X-1193878Y934466D01*
G01X-1193878Y1072388D02*
G01X-1075768Y1105916D01*
G01X-1193878Y1139698D02*
G01X-1075768Y1105916D01*
G01X-1193878Y1139698D02*
G01X-1075768Y1173480D01*
G01X-1193878Y1207262D02*
G01X-1075768Y1173480D01*
G01X-952832Y48514D02*
G01X-775540Y48514D01*
G01X-952832Y48514D02*
G01X-775540Y116078D01*
G01X-952832Y183642D02*
G01X-775540Y116078D01*
G01X-952832Y183642D02*
G01X-775540Y183642D01*
G01X-843104Y254254D02*
G01X-843104Y355346D01*
G01X-860122Y355346D01*
G01X-876886Y346964D01*
G01X-885268Y338582D01*
G01X-893904Y321564D01*
G01X-893904Y296418D01*
G01X-885268Y279400D01*
G01X-868504Y262636D01*
G01X-843104Y254254D01*
G01X-826340Y254254D01*
G01X-800940Y262636D01*
G01X-784176Y279400D01*
G01X-775540Y296418D01*
G01X-775540Y321564D01*
G01X-784176Y338582D01*
G01X-800940Y355346D01*
G01X-952832Y451104D02*
G01X-809322Y451104D01*
G01X-784176Y459486D01*
G01X-775540Y476504D01*
G01X-775540Y493268D01*
G01X-893904Y425958D02*
G01X-893904Y484886D01*
G01X-843104Y563880D02*
G01X-843104Y664972D01*
G01X-860122Y664972D01*
G01X-876886Y656590D01*
G01X-885268Y648208D01*
G01X-893904Y631190D01*
G01X-893904Y606044D01*
G01X-885268Y589026D01*
G01X-868504Y572262D01*
G01X-843104Y563880D01*
G01X-826340Y563880D01*
G01X-800940Y572262D01*
G01X-784176Y589026D01*
G01X-775540Y606044D01*
G01X-775540Y631190D01*
G01X-784176Y648208D01*
G01X-800940Y664972D01*
G01X-893904Y735584D02*
G01X-775540Y735584D01*
G01X-843104Y735584D02*
G01X-868504Y743966D01*
G01X-885268Y760730D01*
G01X-893904Y777748D01*
G01X-893904Y802894D01*
G01X-352884Y-459232D02*
G01X-175592Y-459232D01*
G01X-352884Y-518414D02*
G01X-352884Y-400304D01*
G01X-352884Y-329692D02*
G01X-175592Y-329692D01*
G01X-352884Y-329692D02*
G01X-352884Y-220218D01*
G01X-268556Y-329692D02*
G01X-268556Y-262382D01*
G01X-352884Y-149606D02*
G01X-175592Y-149606D01*
G01X-352884Y-149606D02*
G01X-175592Y-82296D01*
G01X-352884Y-14732D02*
G01X-175592Y-82296D01*
G01X-352884Y-14732D02*
G01X-175592Y-14732D01*
G01X-251538Y55880D02*
G01X-251538Y207518D01*
G01X-319102Y278130D02*
G01X-327484Y294894D01*
G01X-352884Y320294D01*
G01X-175592Y320294D01*
G01X-352884Y441452D02*
G01X-344502Y416052D01*
G01X-319102Y399288D01*
G01X-276938Y390906D01*
G01X-251538Y390906D01*
G01X-209374Y399288D01*
G01X-183974Y416052D01*
G01X-175592Y441452D01*
G01X-175592Y458216D01*
G01X-183974Y483616D01*
G01X-209374Y500380D01*
G01X-251538Y509016D01*
G01X-276938Y509016D01*
G01X-319102Y500380D01*
G01X-344502Y483616D01*
G01X-352884Y458216D01*
G01X-352884Y441452D01*
G01X-352884Y630174D02*
G01X-344502Y604774D01*
G01X-319102Y588010D01*
G01X-276938Y579628D01*
G01X-251538Y579628D01*
G01X-209374Y588010D01*
G01X-183974Y604774D01*
G01X-175592Y630174D01*
G01X-175592Y646938D01*
G01X-183974Y672338D01*
G01X-209374Y689102D01*
G01X-251538Y697738D01*
G01X-276938Y697738D01*
G01X-319102Y689102D01*
G01X-344502Y672338D01*
G01X-352884Y646938D01*
G01X-352884Y630174D01*
G01X-251538Y768350D02*
G01X-251538Y919988D01*
G01X-293702Y990600D02*
G01X-175592Y1041146D01*
G01X-293702Y1091692D02*
G01X-175592Y1041146D01*
G01X-319102Y1162304D02*
G01X-327484Y1179068D01*
G01X-352884Y1204468D01*
G01X-175592Y1204468D01*
G54D11*
G01X464820Y-7366D02*
G01X464820Y-53848D01*
G01X467868Y-62992D01*
G01X474218Y-69342D01*
G01X483362Y-72390D01*
G01X489712Y-72390D01*
G01X498856Y-69342D01*
G01X504952Y-62992D01*
G01X508254Y-53848D01*
G01X508254Y-7366D01*
G01X538480Y-19812D02*
G01X544576Y-16510D01*
G01X553720Y-7366D01*
G01X553720Y-72390D01*
G01X943102Y497840D02*
G01X940054Y504190D01*
G01X933704Y510286D01*
G01X927608Y513334D01*
G01X915162Y513334D01*
G01X909066Y510286D01*
G01X902716Y504190D01*
G01X899668Y497840D01*
G01X896620Y488696D01*
G01X896620Y473202D01*
G01X899668Y463804D01*
G01X902716Y457708D01*
G01X909066Y451358D01*
G01X915162Y448310D01*
G01X927608Y448310D01*
G01X933704Y451358D01*
G01X940054Y457708D01*
G01X943102Y463804D01*
G01X973328Y500888D02*
G01X979424Y504190D01*
G01X988568Y513334D01*
G01X988568Y448310D01*
G01X346202Y-657860D02*
G01X343154Y-651510D01*
G01X336804Y-645414D01*
G01X330708Y-642366D01*
G01X318262Y-642366D01*
G01X312166Y-645414D01*
G01X305816Y-651510D01*
G01X302768Y-657860D01*
G01X299720Y-667004D01*
G01X299720Y-682498D01*
G01X302768Y-691896D01*
G01X305816Y-697992D01*
G01X312166Y-704342D01*
G01X318262Y-707390D01*
G01X330708Y-707390D01*
G01X336804Y-704342D01*
G01X343154Y-697992D01*
G01X346202Y-691896D01*
G01X379476Y-657860D02*
G01X379476Y-654812D01*
G01X382524Y-648462D01*
G01X385572Y-645414D01*
G01X391668Y-642366D01*
G01X404114Y-642366D01*
G01X410464Y-645414D01*
G01X413512Y-648462D01*
G01X416560Y-654812D01*
G01X416560Y-660908D01*
G01X413512Y-667004D01*
G01X407162Y-676402D01*
G01X376428Y-707390D01*
G01X419608Y-707390D01*
G01X117602Y-657860D02*
G01X114554Y-651510D01*
G01X108204Y-645414D01*
G01X102108Y-642366D01*
G01X89662Y-642366D01*
G01X83566Y-645414D01*
G01X77216Y-651510D01*
G01X74168Y-657860D01*
G01X71120Y-667004D01*
G01X71120Y-682498D01*
G01X74168Y-691896D01*
G01X77216Y-697992D01*
G01X83566Y-704342D01*
G01X89662Y-707390D01*
G01X102108Y-707390D01*
G01X108204Y-704342D01*
G01X114554Y-697992D01*
G01X117602Y-691896D01*
G01X153924Y-642366D02*
G01X187960Y-642366D01*
G01X169418Y-667004D01*
G01X178562Y-667004D01*
G01X184912Y-670052D01*
G01X187960Y-673354D01*
G01X191008Y-682498D01*
G01X191008Y-688848D01*
G01X187960Y-697992D01*
G01X181864Y-704342D01*
G01X172466Y-707390D01*
G01X163068Y-707390D01*
G01X153924Y-704342D01*
G01X150876Y-701040D01*
G01X147828Y-694944D01*
G01X960120Y-756666D02*
G01X960120Y-821690D01*
G01X960120Y-756666D02*
G01X988060Y-756666D01*
G01X997204Y-759714D01*
G01X1000252Y-762762D01*
G01X1003554Y-769112D01*
G01X1003554Y-775208D01*
G01X1000252Y-781304D01*
G01X997204Y-784352D01*
G01X988060Y-787654D01*
G01X960120Y-787654D01*
G01X981710Y-787654D02*
G01X1003554Y-821690D01*
G01X1033780Y-769112D02*
G01X1039876Y-765810D01*
G01X1049020Y-756666D01*
G01X1049020Y-821690D01*
G01X490220Y-985266D02*
G01X490220Y-1031748D01*
G01X493268Y-1040892D01*
G01X499618Y-1047242D01*
G01X508762Y-1050290D01*
G01X515112Y-1050290D01*
G01X524256Y-1047242D01*
G01X530352Y-1040892D01*
G01X533654Y-1031748D01*
G01X533654Y-985266D01*
G01X566928Y-1000760D02*
G01X566928Y-997712D01*
G01X569976Y-991362D01*
G01X573024Y-988314D01*
G01X579120Y-985266D01*
G01X591566Y-985266D01*
G01X597916Y-988314D01*
G01X600964Y-991362D01*
G01X604012Y-997712D01*
G01X604012Y-1003808D01*
G01X600964Y-1009904D01*
G01X594614Y-1019302D01*
G01X563880Y-1050290D01*
G01X607060Y-1050290D01*
G01X968502Y-2207260D02*
G01X965454Y-2200910D01*
G01X959104Y-2194814D01*
G01X953008Y-2191766D01*
G01X940562Y-2191766D01*
G01X934466Y-2194814D01*
G01X928116Y-2200910D01*
G01X925068Y-2207260D01*
G01X922020Y-2216404D01*
G01X922020Y-2231898D01*
G01X925068Y-2241296D01*
G01X928116Y-2247392D01*
G01X934466Y-2253742D01*
G01X940562Y-2256790D01*
G01X953008Y-2256790D01*
G01X959104Y-2253742D01*
G01X965454Y-2247392D01*
G01X968502Y-2241296D01*
G01X1029462Y-2191766D02*
G01X998728Y-2234946D01*
G01X1044956Y-2234946D01*
G01X1029462Y-2191766D02*
G01X1029462Y-2256790D01*
G01X109474Y-1051560D02*
G01X106426Y-1045210D01*
G01X100076Y-1039114D01*
G01X93980Y-1036066D01*
G01X81534Y-1036066D01*
G01X75438Y-1039114D01*
G01X69088Y-1045210D01*
G01X66040Y-1051560D01*
G01X62992Y-1060704D01*
G01X62992Y-1076198D01*
G01X66040Y-1085596D01*
G01X69088Y-1091692D01*
G01X75438Y-1098042D01*
G01X81534Y-1101090D01*
G01X93980Y-1101090D01*
G01X100076Y-1098042D01*
G01X106426Y-1091692D01*
G01X109474Y-1085596D01*
G01X176784Y-1036066D02*
G01X145796Y-1036066D01*
G01X142748Y-1063752D01*
G01X145796Y-1060704D01*
G01X154940Y-1057656D01*
G01X164338Y-1057656D01*
G01X173736Y-1060704D01*
G01X179832Y-1067054D01*
G01X182880Y-1076198D01*
G01X182880Y-1082548D01*
G01X179832Y-1091692D01*
G01X173736Y-1098042D01*
G01X164338Y-1101090D01*
G01X154940Y-1101090D01*
G01X145796Y-1098042D01*
G01X142748Y-1094740D01*
G01X139700Y-1088644D01*
G01X346202Y-1584960D02*
G01X343154Y-1578610D01*
G01X336804Y-1572514D01*
G01X330708Y-1569466D01*
G01X318262Y-1569466D01*
G01X312166Y-1572514D01*
G01X305816Y-1578610D01*
G01X302768Y-1584960D01*
G01X299720Y-1594104D01*
G01X299720Y-1609598D01*
G01X302768Y-1618996D01*
G01X305816Y-1625092D01*
G01X312166Y-1631442D01*
G01X318262Y-1634490D01*
G01X330708Y-1634490D01*
G01X336804Y-1631442D01*
G01X343154Y-1625092D01*
G01X346202Y-1618996D01*
G01X413512Y-1578610D02*
G01X410464Y-1572514D01*
G01X401066Y-1569466D01*
G01X394970Y-1569466D01*
G01X385572Y-1572514D01*
G01X379476Y-1581912D01*
G01X376428Y-1597152D01*
G01X376428Y-1612646D01*
G01X379476Y-1625092D01*
G01X385572Y-1631442D01*
G01X394970Y-1634490D01*
G01X398018Y-1634490D01*
G01X407162Y-1631442D01*
G01X413512Y-1625092D01*
G01X416560Y-1615948D01*
G01X416560Y-1612646D01*
G01X413512Y-1603502D01*
G01X407162Y-1597152D01*
G01X398018Y-1594104D01*
G01X394970Y-1594104D01*
G01X385572Y-1597152D01*
G01X379476Y-1603502D01*
G01X376428Y-1612646D01*
G01X274320Y-1836166D02*
G01X274320Y-1901190D01*
G01X274320Y-1836166D02*
G01X302260Y-1836166D01*
G01X311404Y-1839214D01*
G01X314452Y-1842262D01*
G01X317754Y-1848612D01*
G01X317754Y-1854708D01*
G01X314452Y-1860804D01*
G01X311404Y-1863852D01*
G01X302260Y-1867154D01*
G01X274320Y-1867154D01*
G01X295910Y-1867154D02*
G01X317754Y-1901190D01*
G01X351028Y-1851660D02*
G01X351028Y-1848612D01*
G01X354076Y-1842262D01*
G01X357124Y-1839214D01*
G01X363220Y-1836166D01*
G01X375666Y-1836166D01*
G01X382016Y-1839214D01*
G01X385064Y-1842262D01*
G01X388112Y-1848612D01*
G01X388112Y-1854708D01*
G01X385064Y-1860804D01*
G01X378714Y-1870202D01*
G01X347980Y-1901190D01*
G01X391160Y-1901190D01*
G01X-1596898Y-861060D02*
G01X-1599946Y-854710D01*
G01X-1606296Y-848614D01*
G01X-1612392Y-845566D01*
G01X-1624838Y-845566D01*
G01X-1630934Y-848614D01*
G01X-1637284Y-854710D01*
G01X-1640332Y-861060D01*
G01X-1643380Y-870204D01*
G01X-1643380Y-885698D01*
G01X-1640332Y-895096D01*
G01X-1637284Y-901192D01*
G01X-1630934Y-907542D01*
G01X-1624838Y-910590D01*
G01X-1612392Y-910590D01*
G01X-1606296Y-907542D01*
G01X-1599946Y-901192D01*
G01X-1596898Y-895096D01*
G01X-1523492Y-845566D02*
G01X-1554480Y-910590D01*
G01X-1566672Y-845566D02*
G01X-1523492Y-845566D01*
G01X-123698Y-1051560D02*
G01X-126746Y-1045210D01*
G01X-133096Y-1039114D01*
G01X-139192Y-1036066D01*
G01X-151638Y-1036066D01*
G01X-157734Y-1039114D01*
G01X-164084Y-1045210D01*
G01X-167132Y-1051560D01*
G01X-170180Y-1060704D01*
G01X-170180Y-1076198D01*
G01X-167132Y-1085596D01*
G01X-164084Y-1091692D01*
G01X-157734Y-1098042D01*
G01X-151638Y-1101090D01*
G01X-139192Y-1101090D01*
G01X-133096Y-1098042D01*
G01X-126746Y-1091692D01*
G01X-123698Y-1085596D01*
G01X-78232Y-1036066D02*
G01X-87376Y-1039114D01*
G01X-90424Y-1045210D01*
G01X-90424Y-1051560D01*
G01X-87376Y-1057656D01*
G01X-81280Y-1060704D01*
G01X-68834Y-1063752D01*
G01X-59436Y-1067054D01*
G01X-53340Y-1073150D01*
G01X-50292Y-1079246D01*
G01X-50292Y-1088644D01*
G01X-53340Y-1094740D01*
G01X-56388Y-1098042D01*
G01X-65786Y-1101090D01*
G01X-78232Y-1101090D01*
G01X-87376Y-1098042D01*
G01X-90424Y-1094740D01*
G01X-93472Y-1088644D01*
G01X-93472Y-1079246D01*
G01X-90424Y-1073150D01*
G01X-84328Y-1067054D01*
G01X-74930Y-1063752D01*
G01X-62738Y-1060704D01*
G01X-56388Y-1057656D01*
G01X-53340Y-1051560D01*
G01X-53340Y-1045210D01*
G01X-56388Y-1039114D01*
G01X-65786Y-1036066D01*
G01X-78232Y-1036066D01*
G01X-2189734Y-2760980D02*
G01X-2124710Y-2760980D01*
G01X-2189734Y-2760980D02*
G01X-2189734Y-2733040D01*
G01X-2186686Y-2723896D01*
G01X-2183638Y-2720848D01*
G01X-2177288Y-2717546D01*
G01X-2171192Y-2717546D01*
G01X-2165096Y-2720848D01*
G01X-2162048Y-2723896D01*
G01X-2158746Y-2733040D01*
G01X-2158746Y-2760980D01*
G01X-2158746Y-2739390D02*
G01X-2124710Y-2717546D01*
G01X-2189734Y-2656586D02*
G01X-2146554Y-2687320D01*
G01X-2146554Y-2641092D01*
G01X-2189734Y-2656586D02*
G01X-2124710Y-2656586D01*
G01X-1875790Y-3174746D02*
G01X-1881886Y-3181096D01*
G01X-1884934Y-3190240D01*
G01X-1884934Y-3202686D01*
G01X-1881886Y-3212084D01*
G01X-1875790Y-3218180D01*
G01X-1869440Y-3218180D01*
G01X-1863344Y-3215132D01*
G01X-1860296Y-3212084D01*
G01X-1857248Y-3205734D01*
G01X-1850898Y-3187192D01*
G01X-1847850Y-3181096D01*
G01X-1844802Y-3178048D01*
G01X-1838452Y-3174746D01*
G01X-1829308Y-3174746D01*
G01X-1822958Y-3181096D01*
G01X-1819910Y-3190240D01*
G01X-1819910Y-3202686D01*
G01X-1822958Y-3212084D01*
G01X-1829308Y-3218180D01*
G01X-1884934Y-3144520D02*
G01X-1819910Y-3129280D01*
G01X-1884934Y-3113786D02*
G01X-1819910Y-3129280D01*
G01X-1884934Y-3113786D02*
G01X-1819910Y-3098292D01*
G01X-1884934Y-3082798D02*
G01X-1819910Y-3098292D01*
G01X-1872488Y-3052572D02*
G01X-1875790Y-3046476D01*
G01X-1884934Y-3037332D01*
G01X-1819910Y-3037332D01*
G01X-1961134Y2928620D02*
G01X-1896110Y2928620D01*
G01X-1961134Y2928620D02*
G01X-1961134Y2956560D01*
G01X-1958086Y2965704D01*
G01X-1955038Y2968752D01*
G01X-1948688Y2972054D01*
G01X-1939544Y2972054D01*
G01X-1933448Y2968752D01*
G01X-1930146Y2965704D01*
G01X-1927098Y2956560D01*
G01X-1927098Y2928620D01*
G01X-1961134Y3033014D02*
G01X-1917954Y3002280D01*
G01X-1917954Y3048508D01*
G01X-1961134Y3033014D02*
G01X-1896110Y3033014D01*
G01X-2215134Y-1643380D02*
G01X-2150110Y-1643380D01*
G01X-2150110Y-1643380D02*
G01X-2150110Y-1606296D01*
G01X-2202688Y-1576070D02*
G01X-2205990Y-1569974D01*
G01X-2215134Y-1560830D01*
G01X-2150110Y-1560830D01*
G01X-2202434Y-919480D02*
G01X-2137410Y-919480D01*
G01X-2137410Y-919480D02*
G01X-2137410Y-882396D01*
G01X-2186940Y-849122D02*
G01X-2189988Y-849122D01*
G01X-2196338Y-846074D01*
G01X-2199386Y-843026D01*
G01X-2202434Y-836930D01*
G01X-2202434Y-824484D01*
G01X-2199386Y-818134D01*
G01X-2196338Y-815086D01*
G01X-2189988Y-812038D01*
G01X-2183892Y-812038D01*
G01X-2177796Y-815086D01*
G01X-2168398Y-821436D01*
G01X-2137410Y-852170D01*
G01X-2137410Y-808990D01*
G01X502920Y-3360166D02*
G01X502920Y-3425190D01*
G01X502920Y-3360166D02*
G01X530860Y-3360166D01*
G01X540004Y-3363214D01*
G01X543052Y-3366262D01*
G01X546354Y-3372612D01*
G01X546354Y-3381756D01*
G01X543052Y-3387852D01*
G01X540004Y-3391154D01*
G01X530860Y-3394202D01*
G01X502920Y-3394202D01*
G01X582676Y-3360166D02*
G01X616712Y-3360166D01*
G01X598170Y-3384804D01*
G01X607314Y-3384804D01*
G01X613664Y-3387852D01*
G01X616712Y-3391154D01*
G01X619760Y-3400298D01*
G01X619760Y-3406648D01*
G01X616712Y-3415792D01*
G01X610616Y-3422142D01*
G01X601218Y-3425190D01*
G01X591820Y-3425190D01*
G01X582676Y-3422142D01*
G01X579628Y-3418840D01*
G01X576580Y-3412744D01*
G01X-150145Y1621422D02*
G01X-117278Y1588554D01*
G01X-108657Y1584243D01*
G01X-99676Y1584243D01*
G01X-91055Y1588554D01*
G01X-86565Y1593044D01*
G01X-82255Y1601665D01*
G01X-82434Y1610466D01*
G01X-86565Y1619266D01*
G01X-119433Y1652134D01*
G01X-93749Y1677818D02*
G01X-69682Y1701885D01*
G01X-65372Y1671352D01*
G01X-58906Y1677818D01*
G01X-52261Y1680153D01*
G01X-47770Y1679973D01*
G01X-39149Y1675662D01*
G01X-34659Y1671172D01*
G01X-30349Y1662551D01*
G01X-30169Y1653751D01*
G01X-34659Y1644950D01*
G01X-41305Y1638305D01*
G01X-49926Y1633994D01*
G01X-54416Y1634174D01*
G01X-60882Y1636329D01*
G01X930402Y1234440D02*
G01X927354Y1240790D01*
G01X921004Y1246886D01*
G01X914908Y1249934D01*
G01X902462Y1249934D01*
G01X896366Y1246886D01*
G01X890016Y1240790D01*
G01X886968Y1234440D01*
G01X883920Y1225296D01*
G01X883920Y1209802D01*
G01X886968Y1200404D01*
G01X890016Y1194308D01*
G01X896366Y1187958D01*
G01X902462Y1184910D01*
G01X914908Y1184910D01*
G01X921004Y1187958D01*
G01X927354Y1194308D01*
G01X930402Y1200404D01*
G01X1000760Y1228344D02*
G01X997712Y1218946D01*
G01X991362Y1212850D01*
G01X982218Y1209802D01*
G01X979170Y1209802D01*
G01X969772Y1212850D01*
G01X963676Y1218946D01*
G01X960628Y1228344D01*
G01X960628Y1231392D01*
G01X963676Y1240790D01*
G01X969772Y1246886D01*
G01X979170Y1249934D01*
G01X982218Y1249934D01*
G01X991362Y1246886D01*
G01X997712Y1240790D01*
G01X1000760Y1228344D01*
G01X1000760Y1212850D01*
G01X997712Y1197356D01*
G01X991362Y1187958D01*
G01X982218Y1184910D01*
G01X975868Y1184910D01*
G01X966724Y1187958D01*
G01X963676Y1194308D01*
G01X879602Y688340D02*
G01X876554Y694690D01*
G01X870204Y700786D01*
G01X864108Y703834D01*
G01X851662Y703834D01*
G01X845566Y700786D01*
G01X839216Y694690D01*
G01X836168Y688340D01*
G01X833120Y679196D01*
G01X833120Y663702D01*
G01X836168Y654304D01*
G01X839216Y648208D01*
G01X845566Y641858D01*
G01X851662Y638810D01*
G01X864108Y638810D01*
G01X870204Y641858D01*
G01X876554Y648208D01*
G01X879602Y654304D01*
G01X909828Y691388D02*
G01X915924Y694690D01*
G01X925068Y703834D01*
G01X925068Y638810D01*
G01X973836Y703834D02*
G01X964438Y700786D01*
G01X958342Y691388D01*
G01X955294Y676148D01*
G01X955294Y666750D01*
G01X958342Y651256D01*
G01X964438Y641858D01*
G01X973836Y638810D01*
G01X979932Y638810D01*
G01X989330Y641858D01*
G01X995426Y651256D01*
G01X998474Y666750D01*
G01X998474Y676148D01*
G01X995426Y691388D01*
G01X989330Y700786D01*
G01X979932Y703834D01*
G01X973836Y703834D01*
G01X-843280Y-858266D02*
G01X-843280Y-904748D01*
G01X-840232Y-913892D01*
G01X-833882Y-920242D01*
G01X-824738Y-923290D01*
G01X-818388Y-923290D01*
G01X-809244Y-920242D01*
G01X-803148Y-913892D01*
G01X-799846Y-904748D01*
G01X-799846Y-858266D01*
G01X-738886Y-858266D02*
G01X-769620Y-901446D01*
G01X-723392Y-901446D01*
G01X-738886Y-858266D02*
G01X-738886Y-923290D01*
G01X-517398Y-619760D02*
G01X-520446Y-613410D01*
G01X-526796Y-607314D01*
G01X-532892Y-604266D01*
G01X-545338Y-604266D01*
G01X-551434Y-607314D01*
G01X-557784Y-613410D01*
G01X-560832Y-619760D01*
G01X-563880Y-628904D01*
G01X-563880Y-644398D01*
G01X-560832Y-653796D01*
G01X-557784Y-659892D01*
G01X-551434Y-666242D01*
G01X-545338Y-669290D01*
G01X-532892Y-669290D01*
G01X-526796Y-666242D01*
G01X-520446Y-659892D01*
G01X-517398Y-653796D01*
G01X-487172Y-616712D02*
G01X-481076Y-613410D01*
G01X-471932Y-604266D01*
G01X-471932Y-669290D01*
G01X-435610Y-604266D02*
G01X-401574Y-604266D01*
G01X-420116Y-628904D01*
G01X-410972Y-628904D01*
G01X-404622Y-631952D01*
G01X-401574Y-635254D01*
G01X-398526Y-644398D01*
G01X-398526Y-650748D01*
G01X-401574Y-659892D01*
G01X-407670Y-666242D01*
G01X-417068Y-669290D01*
G01X-426466Y-669290D01*
G01X-435610Y-666242D01*
G01X-438658Y-662940D01*
G01X-441706Y-656844D01*
G01X-1292098Y-2169160D02*
G01X-1295146Y-2162810D01*
G01X-1301496Y-2156714D01*
G01X-1307592Y-2153666D01*
G01X-1320038Y-2153666D01*
G01X-1326134Y-2156714D01*
G01X-1332484Y-2162810D01*
G01X-1335532Y-2169160D01*
G01X-1338580Y-2178304D01*
G01X-1338580Y-2193798D01*
G01X-1335532Y-2203196D01*
G01X-1332484Y-2209292D01*
G01X-1326134Y-2215642D01*
G01X-1320038Y-2218690D01*
G01X-1307592Y-2218690D01*
G01X-1301496Y-2215642D01*
G01X-1295146Y-2209292D01*
G01X-1292098Y-2203196D01*
G01X-1261872Y-2166112D02*
G01X-1255776Y-2162810D01*
G01X-1246632Y-2153666D01*
G01X-1246632Y-2218690D01*
G01X-1185672Y-2153666D02*
G01X-1216406Y-2196846D01*
G01X-1170178Y-2196846D01*
G01X-1185672Y-2153666D02*
G01X-1185672Y-2218690D01*
G54D15*
G01X-1002259Y-2633523D02*
G01X-977113Y-2598471D01*
G01X-1014705Y-2598471D01*
G01X-1002259Y-2633523D02*
G01X-1002259Y-2580945D01*
G01X-728193Y-2633523D02*
G01X-755625Y-2633523D01*
G01X-740639Y-2613457D01*
G01X-748259Y-2613457D01*
G01X-753085Y-2610917D01*
G01X-755625Y-2608631D01*
G01X-758165Y-2601011D01*
G01X-758165Y-2595931D01*
G01X-755625Y-2588565D01*
G01X-750799Y-2583485D01*
G01X-743179Y-2580945D01*
G01X-735813Y-2580945D01*
G01X-728193Y-2583485D01*
G01X-725653Y-2586025D01*
G01X-723113Y-2591105D01*
G01X-471653Y-2621051D02*
G01X-471653Y-2623591D01*
G01X-474193Y-2628417D01*
G01X-476733Y-2630957D01*
G01X-481813Y-2633497D01*
G01X-491719Y-2633497D01*
G01X-496799Y-2630957D01*
G01X-499085Y-2628417D01*
G01X-501625Y-2623591D01*
G01X-501625Y-2618511D01*
G01X-499085Y-2613431D01*
G01X-494259Y-2606065D01*
G01X-469113Y-2580919D01*
G01X-504165Y-2580919D01*
G01X-215113Y-2623617D02*
G01X-220193Y-2625903D01*
G01X-227813Y-2633523D01*
G01X-227813Y-2580945D01*
G01X-287909Y-3130601D02*
G01X-283083Y-3128061D01*
G01X-278003Y-3122981D01*
G01X-275463Y-3118155D01*
G01X-272923Y-3110535D01*
G01X-272923Y-3098089D01*
G01X-275463Y-3090469D01*
G01X-278003Y-3085643D01*
G01X-283083Y-3080563D01*
G01X-287909Y-3078023D01*
G01X-298069Y-3078023D01*
G01X-302895Y-3080563D01*
G01X-307975Y-3085643D01*
G01X-310515Y-3090469D01*
G01X-313055Y-3098089D01*
G01X-313055Y-3110535D01*
G01X-310515Y-3118155D01*
G01X-307975Y-3122981D01*
G01X-302895Y-3128061D01*
G01X-298069Y-3130601D01*
G01X-287909Y-3130601D01*
G01X-345059Y-3130601D02*
G01X-345059Y-3078023D01*
G01X-345059Y-3130601D02*
G01X-380111Y-3078023D01*
G01X-380111Y-3130601D02*
G01X-380111Y-3078023D01*
G54D11*
G01X-507746Y-2226310D02*
G01X-514096Y-2220214D01*
G01X-523240Y-2217166D01*
G01X-535686Y-2217166D01*
G01X-545084Y-2220214D01*
G01X-551180Y-2226310D01*
G01X-551180Y-2232660D01*
G01X-548132Y-2238756D01*
G01X-545084Y-2241804D01*
G01X-538734Y-2244852D01*
G01X-520192Y-2251202D01*
G01X-514096Y-2254250D01*
G01X-511048Y-2257298D01*
G01X-507746Y-2263648D01*
G01X-507746Y-2272792D01*
G01X-514096Y-2279142D01*
G01X-523240Y-2282190D01*
G01X-535686Y-2282190D01*
G01X-545084Y-2279142D01*
G01X-551180Y-2272792D01*
G01X-477520Y-2217166D02*
G01X-462280Y-2282190D01*
G01X-446786Y-2217166D02*
G01X-462280Y-2282190D01*
G01X-446786Y-2217166D02*
G01X-431292Y-2282190D01*
G01X-415798Y-2217166D02*
G01X-431292Y-2282190D01*
G01X-382524Y-2232660D02*
G01X-382524Y-2229612D01*
G01X-379476Y-2223262D01*
G01X-376428Y-2220214D01*
G01X-370332Y-2217166D01*
G01X-357886Y-2217166D01*
G01X-351536Y-2220214D01*
G01X-348488Y-2223262D01*
G01X-345440Y-2229612D01*
G01X-345440Y-2235708D01*
G01X-348488Y-2241804D01*
G01X-354838Y-2251202D01*
G01X-385572Y-2282190D01*
G01X-342392Y-2282190D01*
G01X-1986280Y2164334D02*
G01X-1986280Y2099310D01*
G01X-1986280Y2164334D02*
G01X-1946148Y2164334D01*
G01X-1986280Y2133346D02*
G01X-1961388Y2133346D01*
G01X-1915922Y2151888D02*
G01X-1909826Y2155190D01*
G01X-1900682Y2164334D01*
G01X-1900682Y2099310D01*
G01X-1656334Y1811020D02*
G01X-1591310Y1811020D01*
G01X-1656334Y1811020D02*
G01X-1656334Y1838960D01*
G01X-1653286Y1848104D01*
G01X-1650238Y1851152D01*
G01X-1643888Y1854454D01*
G01X-1637792Y1854454D01*
G01X-1631696Y1851152D01*
G01X-1628648Y1848104D01*
G01X-1625346Y1838960D01*
G01X-1625346Y1811020D01*
G01X-1625346Y1832610D02*
G01X-1591310Y1854454D01*
G01X-1643888Y1884680D02*
G01X-1647190Y1890776D01*
G01X-1656334Y1899920D01*
G01X-1591310Y1899920D01*
G01X-1656334Y1948688D02*
G01X-1653286Y1939290D01*
G01X-1643888Y1933194D01*
G01X-1628648Y1930146D01*
G01X-1619250Y1930146D01*
G01X-1603756Y1933194D01*
G01X-1594358Y1939290D01*
G01X-1591310Y1948688D01*
G01X-1591310Y1954784D01*
G01X-1594358Y1964182D01*
G01X-1603756Y1970278D01*
G01X-1619250Y1973326D01*
G01X-1628648Y1973326D01*
G01X-1643888Y1970278D01*
G01X-1653286Y1964182D01*
G01X-1656334Y1954784D01*
G01X-1656334Y1948688D01*
G01X-1072134Y1976120D02*
G01X-1007110Y1976120D01*
G01X-1072134Y1976120D02*
G01X-1072134Y2004060D01*
G01X-1069086Y2013204D01*
G01X-1066038Y2016252D01*
G01X-1059688Y2019554D01*
G01X-1053592Y2019554D01*
G01X-1047496Y2016252D01*
G01X-1044448Y2013204D01*
G01X-1041146Y2004060D01*
G01X-1041146Y1976120D01*
G01X-1041146Y1997710D02*
G01X-1007110Y2019554D01*
G01X-1059688Y2049780D02*
G01X-1062990Y2055876D01*
G01X-1072134Y2065020D01*
G01X-1007110Y2065020D01*
G01X-1059688Y2095246D02*
G01X-1062990Y2101342D01*
G01X-1072134Y2110486D01*
G01X-1007110Y2110486D01*
G01X-2231898Y2669540D02*
G01X-2234946Y2675890D01*
G01X-2241296Y2681986D01*
G01X-2247392Y2685034D01*
G01X-2259838Y2685034D01*
G01X-2265934Y2681986D01*
G01X-2272284Y2675890D01*
G01X-2275332Y2669540D01*
G01X-2278380Y2660396D01*
G01X-2278380Y2644902D01*
G01X-2275332Y2635504D01*
G01X-2272284Y2629408D01*
G01X-2265934Y2623058D01*
G01X-2259838Y2620010D01*
G01X-2247392Y2620010D01*
G01X-2241296Y2623058D01*
G01X-2234946Y2629408D01*
G01X-2231898Y2635504D01*
G01X-2201672Y2672588D02*
G01X-2195576Y2675890D01*
G01X-2186432Y2685034D01*
G01X-2186432Y2620010D01*
G01X-2156206Y2672588D02*
G01X-2150110Y2675890D01*
G01X-2140966Y2685034D01*
G01X-2140966Y2620010D01*
G01X-970280Y2532634D02*
G01X-970280Y2467610D01*
G01X-970280Y2532634D02*
G01X-942340Y2532634D01*
G01X-933196Y2529586D01*
G01X-930148Y2526538D01*
G01X-926846Y2520188D01*
G01X-926846Y2514092D01*
G01X-930148Y2507996D01*
G01X-933196Y2504948D01*
G01X-942340Y2501646D01*
G01X-970280Y2501646D01*
G01X-948690Y2501646D02*
G01X-926846Y2467610D01*
G01X-896620Y2520188D02*
G01X-890524Y2523490D01*
G01X-881380Y2532634D01*
G01X-881380Y2467610D01*
G01X-848106Y2517140D02*
G01X-848106Y2520188D01*
G01X-845058Y2526538D01*
G01X-842010Y2529586D01*
G01X-835914Y2532634D01*
G01X-823468Y2532634D01*
G01X-817118Y2529586D01*
G01X-814070Y2526538D01*
G01X-811022Y2520188D01*
G01X-811022Y2514092D01*
G01X-814070Y2507996D01*
G01X-820420Y2498598D01*
G01X-851154Y2467610D01*
G01X-807974Y2467610D01*
G01X-1033780Y2354834D02*
G01X-1033780Y2289810D01*
G01X-1033780Y2354834D02*
G01X-1005840Y2354834D01*
G01X-996696Y2351786D01*
G01X-993648Y2348738D01*
G01X-990346Y2342388D01*
G01X-990346Y2336292D01*
G01X-993648Y2330196D01*
G01X-996696Y2327148D01*
G01X-1005840Y2323846D01*
G01X-1033780Y2323846D01*
G01X-1012190Y2323846D02*
G01X-990346Y2289810D01*
G01X-960120Y2342388D02*
G01X-954024Y2345690D01*
G01X-944880Y2354834D01*
G01X-944880Y2289810D01*
G01X-908558Y2354834D02*
G01X-874522Y2354834D01*
G01X-893064Y2330196D01*
G01X-883920Y2330196D01*
G01X-877570Y2327148D01*
G01X-874522Y2323846D01*
G01X-871474Y2314702D01*
G01X-871474Y2308352D01*
G01X-874522Y2299208D01*
G01X-880618Y2292858D01*
G01X-890016Y2289810D01*
G01X-899414Y2289810D01*
G01X-908558Y2292858D01*
G01X-911606Y2296160D01*
G01X-914654Y2302256D01*
G01X752602Y2098040D02*
G01X749554Y2104390D01*
G01X743204Y2110486D01*
G01X737108Y2113534D01*
G01X724662Y2113534D01*
G01X718566Y2110486D01*
G01X712216Y2104390D01*
G01X709168Y2098040D01*
G01X706120Y2088896D01*
G01X706120Y2073402D01*
G01X709168Y2064004D01*
G01X712216Y2057908D01*
G01X718566Y2051558D01*
G01X724662Y2048510D01*
G01X737108Y2048510D01*
G01X743204Y2051558D01*
G01X749554Y2057908D01*
G01X752602Y2064004D01*
G01X782828Y2101088D02*
G01X788924Y2104390D01*
G01X798068Y2113534D01*
G01X798068Y2048510D01*
G01X831342Y2098040D02*
G01X831342Y2101088D01*
G01X834390Y2107438D01*
G01X837438Y2110486D01*
G01X843534Y2113534D01*
G01X855980Y2113534D01*
G01X862330Y2110486D01*
G01X865378Y2107438D01*
G01X868426Y2101088D01*
G01X868426Y2094992D01*
G01X865378Y2088896D01*
G01X859028Y2079498D01*
G01X828294Y2048510D01*
G01X871474Y2048510D01*
G01X943102Y2872740D02*
G01X940054Y2879090D01*
G01X933704Y2885186D01*
G01X927608Y2888234D01*
G01X915162Y2888234D01*
G01X909066Y2885186D01*
G01X902716Y2879090D01*
G01X899668Y2872740D01*
G01X896620Y2863596D01*
G01X896620Y2848102D01*
G01X899668Y2838704D01*
G01X902716Y2832608D01*
G01X909066Y2826258D01*
G01X915162Y2823210D01*
G01X927608Y2823210D01*
G01X933704Y2826258D01*
G01X940054Y2832608D01*
G01X943102Y2838704D01*
G01X973328Y2875788D02*
G01X979424Y2879090D01*
G01X988568Y2888234D01*
G01X988568Y2823210D01*
G01X1055878Y2888234D02*
G01X1024890Y2888234D01*
G01X1021842Y2860548D01*
G01X1024890Y2863596D01*
G01X1034034Y2866644D01*
G01X1043432Y2866644D01*
G01X1052830Y2863596D01*
G01X1058926Y2857246D01*
G01X1061974Y2848102D01*
G01X1061974Y2841752D01*
G01X1058926Y2832608D01*
G01X1052830Y2826258D01*
G01X1043432Y2823210D01*
G01X1034034Y2823210D01*
G01X1024890Y2826258D01*
G01X1021842Y2829560D01*
G01X1018794Y2835656D01*
G01X651002Y2872740D02*
G01X647954Y2879090D01*
G01X641604Y2885186D01*
G01X635508Y2888234D01*
G01X623062Y2888234D01*
G01X616966Y2885186D01*
G01X610616Y2879090D01*
G01X607568Y2872740D01*
G01X604520Y2863596D01*
G01X604520Y2848102D01*
G01X607568Y2838704D01*
G01X610616Y2832608D01*
G01X616966Y2826258D01*
G01X623062Y2823210D01*
G01X635508Y2823210D01*
G01X641604Y2826258D01*
G01X647954Y2832608D01*
G01X651002Y2838704D01*
G01X681228Y2875788D02*
G01X687324Y2879090D01*
G01X696468Y2888234D01*
G01X696468Y2823210D01*
G01X763778Y2879090D02*
G01X760730Y2885186D01*
G01X751332Y2888234D01*
G01X745236Y2888234D01*
G01X735838Y2885186D01*
G01X729742Y2875788D01*
G01X726694Y2860548D01*
G01X726694Y2845054D01*
G01X729742Y2832608D01*
G01X735838Y2826258D01*
G01X745236Y2823210D01*
G01X748284Y2823210D01*
G01X757428Y2826258D01*
G01X763778Y2832608D01*
G01X766826Y2841752D01*
G01X766826Y2845054D01*
G01X763778Y2854198D01*
G01X757428Y2860548D01*
G01X748284Y2863596D01*
G01X745236Y2863596D01*
G01X735838Y2860548D01*
G01X729742Y2854198D01*
G01X726694Y2845054D01*
G01X-523240Y2683002D02*
G01X-529590Y2679954D01*
G01X-535686Y2673604D01*
G01X-538734Y2667508D01*
G01X-538734Y2655062D01*
G01X-535686Y2648966D01*
G01X-529590Y2642616D01*
G01X-523240Y2639568D01*
G01X-514096Y2636520D01*
G01X-498602Y2636520D01*
G01X-489204Y2639568D01*
G01X-483108Y2642616D01*
G01X-476758Y2648966D01*
G01X-473710Y2655062D01*
G01X-473710Y2667508D01*
G01X-476758Y2673604D01*
G01X-483108Y2679954D01*
G01X-489204Y2683002D01*
G01X-526288Y2713228D02*
G01X-529590Y2719324D01*
G01X-538734Y2728468D01*
G01X-473710Y2728468D01*
G01X-538734Y2773934D02*
G01X-535686Y2764790D01*
G01X-529590Y2761742D01*
G01X-523240Y2761742D01*
G01X-517144Y2764790D01*
G01X-514096Y2770886D01*
G01X-511048Y2783332D01*
G01X-507746Y2792730D01*
G01X-501650Y2798826D01*
G01X-495554Y2801874D01*
G01X-486156Y2801874D01*
G01X-480060Y2798826D01*
G01X-476758Y2795778D01*
G01X-473710Y2786380D01*
G01X-473710Y2773934D01*
G01X-476758Y2764790D01*
G01X-480060Y2761742D01*
G01X-486156Y2758694D01*
G01X-495554Y2758694D01*
G01X-501650Y2761742D01*
G01X-507746Y2767838D01*
G01X-511048Y2777236D01*
G01X-514096Y2789428D01*
G01X-517144Y2795778D01*
G01X-523240Y2798826D01*
G01X-529590Y2798826D01*
G01X-535686Y2795778D01*
G01X-538734Y2786380D01*
G01X-538734Y2773934D01*
G01X-919734Y1645920D02*
G01X-854710Y1645920D01*
G01X-919734Y1645920D02*
G01X-919734Y1667510D01*
G01X-916686Y1676908D01*
G01X-910590Y1683004D01*
G01X-904240Y1686052D01*
G01X-895096Y1689354D01*
G01X-879602Y1689354D01*
G01X-870204Y1686052D01*
G01X-864108Y1683004D01*
G01X-857758Y1676908D01*
G01X-854710Y1667510D01*
G01X-854710Y1645920D01*
G01X-907288Y1719580D02*
G01X-910590Y1725676D01*
G01X-919734Y1734820D01*
G01X-854710Y1734820D01*
G01X-1275080Y1694434D02*
G01X-1275080Y1629410D01*
G01X-1275080Y1694434D02*
G01X-1253490Y1694434D01*
G01X-1244092Y1691386D01*
G01X-1237996Y1685290D01*
G01X-1234948Y1678940D01*
G01X-1231646Y1669796D01*
G01X-1231646Y1654302D01*
G01X-1234948Y1644904D01*
G01X-1237996Y1638808D01*
G01X-1244092Y1632458D01*
G01X-1253490Y1629410D01*
G01X-1275080Y1629410D01*
G01X-1198372Y1678940D02*
G01X-1198372Y1681988D01*
G01X-1195324Y1688338D01*
G01X-1192276Y1691386D01*
G01X-1186180Y1694434D01*
G01X-1173734Y1694434D01*
G01X-1167384Y1691386D01*
G01X-1164336Y1688338D01*
G01X-1161288Y1681988D01*
G01X-1161288Y1675892D01*
G01X-1164336Y1669796D01*
G01X-1170686Y1660398D01*
G01X-1201420Y1629410D01*
G01X-1158240Y1629410D01*
G01X-322580Y3396234D02*
G01X-322580Y3331210D01*
G01X-279146Y3396234D02*
G01X-279146Y3331210D01*
G01X-322580Y3365246D02*
G01X-279146Y3365246D01*
G01X-248920Y3383788D02*
G01X-242824Y3387090D01*
G01X-233680Y3396234D01*
G01X-233680Y3331210D01*
G01X-2177034Y-2252980D02*
G01X-2112010Y-2252980D01*
G01X-2177034Y-2252980D02*
G01X-2177034Y-2225040D01*
G01X-2173986Y-2215896D01*
G01X-2170938Y-2212848D01*
G01X-2164588Y-2209546D01*
G01X-2158492Y-2209546D01*
G01X-2152396Y-2212848D01*
G01X-2149348Y-2215896D01*
G01X-2146046Y-2225040D01*
G01X-2146046Y-2252980D01*
G01X-2146046Y-2231390D02*
G01X-2112010Y-2209546D01*
G01X-2177034Y-2142236D02*
G01X-2177034Y-2173224D01*
G01X-2149348Y-2176272D01*
G01X-2152396Y-2173224D01*
G01X-2155444Y-2164080D01*
G01X-2155444Y-2154682D01*
G01X-2152396Y-2145284D01*
G01X-2146046Y-2139188D01*
G01X-2136902Y-2136140D01*
G01X-2130552Y-2136140D01*
G01X-2121408Y-2139188D01*
G01X-2115058Y-2145284D01*
G01X-2112010Y-2154682D01*
G01X-2112010Y-2164080D01*
G01X-2115058Y-2173224D01*
G01X-2118360Y-2176272D01*
G01X-2124456Y-2179320D01*
G01X-2202434Y-551180D02*
G01X-2137410Y-551180D01*
G01X-2202434Y-551180D02*
G01X-2202434Y-523240D01*
G01X-2199386Y-514096D01*
G01X-2196338Y-511048D01*
G01X-2189988Y-507746D01*
G01X-2183892Y-507746D01*
G01X-2177796Y-511048D01*
G01X-2174748Y-514096D01*
G01X-2171446Y-523240D01*
G01X-2171446Y-551180D01*
G01X-2171446Y-529590D02*
G01X-2137410Y-507746D01*
G01X-2193290Y-440436D02*
G01X-2199386Y-443484D01*
G01X-2202434Y-452882D01*
G01X-2202434Y-458978D01*
G01X-2199386Y-468376D01*
G01X-2189988Y-474472D01*
G01X-2174748Y-477520D01*
G01X-2159254Y-477520D01*
G01X-2146808Y-474472D01*
G01X-2140458Y-468376D01*
G01X-2137410Y-458978D01*
G01X-2137410Y-455930D01*
G01X-2140458Y-446786D01*
G01X-2146808Y-440436D01*
G01X-2155952Y-437388D01*
G01X-2159254Y-437388D01*
G01X-2168398Y-440436D01*
G01X-2174748Y-446786D01*
G01X-2177796Y-455930D01*
G01X-2177796Y-458978D01*
G01X-2174748Y-468376D01*
G01X-2168398Y-474472D01*
G01X-2159254Y-477520D01*
G01X-2011680Y2456434D02*
G01X-2011680Y2391410D01*
G01X-2011680Y2456434D02*
G01X-1983740Y2456434D01*
G01X-1974596Y2453386D01*
G01X-1971548Y2450338D01*
G01X-1968246Y2443988D01*
G01X-1968246Y2437892D01*
G01X-1971548Y2431796D01*
G01X-1974596Y2428748D01*
G01X-1983740Y2425446D01*
G01X-2011680Y2425446D01*
G01X-1990090Y2425446D02*
G01X-1968246Y2391410D01*
G01X-1894840Y2456434D02*
G01X-1925828Y2391410D01*
G01X-1938020Y2456434D02*
G01X-1894840Y2456434D01*
G01X-754380Y3383534D02*
G01X-754380Y3318510D01*
G01X-754380Y3383534D02*
G01X-726440Y3383534D01*
G01X-717296Y3380486D01*
G01X-714248Y3377438D01*
G01X-710946Y3371088D01*
G01X-710946Y3364992D01*
G01X-714248Y3358896D01*
G01X-717296Y3355848D01*
G01X-726440Y3352546D01*
G01X-754380Y3352546D01*
G01X-732790Y3352546D02*
G01X-710946Y3318510D01*
G01X-665480Y3383534D02*
G01X-674624Y3380486D01*
G01X-677672Y3374390D01*
G01X-677672Y3368040D01*
G01X-674624Y3361944D01*
G01X-668528Y3358896D01*
G01X-656082Y3355848D01*
G01X-646684Y3352546D01*
G01X-640588Y3346450D01*
G01X-637540Y3340354D01*
G01X-637540Y3330956D01*
G01X-640588Y3324860D01*
G01X-643636Y3321558D01*
G01X-653034Y3318510D01*
G01X-665480Y3318510D01*
G01X-674624Y3321558D01*
G01X-677672Y3324860D01*
G01X-680720Y3330956D01*
G01X-680720Y3340354D01*
G01X-677672Y3346450D01*
G01X-671576Y3352546D01*
G01X-662178Y3355848D01*
G01X-649986Y3358896D01*
G01X-643636Y3361944D01*
G01X-640588Y3368040D01*
G01X-640588Y3374390D01*
G01X-643636Y3380486D01*
G01X-653034Y3383534D01*
G01X-665480Y3383534D01*
G01X71120Y1059434D02*
G01X71120Y994410D01*
G01X71120Y1059434D02*
G01X99060Y1059434D01*
G01X108204Y1056386D01*
G01X111252Y1053338D01*
G01X114554Y1046988D01*
G01X114554Y1040892D01*
G01X111252Y1034796D01*
G01X108204Y1031748D01*
G01X99060Y1028446D01*
G01X71120Y1028446D01*
G01X92710Y1028446D02*
G01X114554Y994410D01*
G01X184912Y1037844D02*
G01X181864Y1028446D01*
G01X175514Y1022350D01*
G01X166370Y1019302D01*
G01X163322Y1019302D01*
G01X153924Y1022350D01*
G01X147828Y1028446D01*
G01X144780Y1037844D01*
G01X144780Y1040892D01*
G01X147828Y1050290D01*
G01X153924Y1056386D01*
G01X163322Y1059434D01*
G01X166370Y1059434D01*
G01X175514Y1056386D01*
G01X181864Y1050290D01*
G01X184912Y1037844D01*
G01X184912Y1022350D01*
G01X181864Y1006856D01*
G01X175514Y997458D01*
G01X166370Y994410D01*
G01X160020Y994410D01*
G01X150876Y997458D01*
G01X147828Y1003808D01*
G01X248920Y2126234D02*
G01X248920Y2061210D01*
G01X248920Y2126234D02*
G01X276860Y2126234D01*
G01X286004Y2123186D01*
G01X289052Y2120138D01*
G01X292354Y2113788D01*
G01X292354Y2107692D01*
G01X289052Y2101596D01*
G01X286004Y2098548D01*
G01X276860Y2095246D01*
G01X248920Y2095246D01*
G01X270510Y2095246D02*
G01X292354Y2061210D01*
G01X322580Y2113788D02*
G01X328676Y2117090D01*
G01X337820Y2126234D01*
G01X337820Y2061210D01*
G01X405130Y2126234D02*
G01X374142Y2126234D01*
G01X371094Y2098548D01*
G01X374142Y2101596D01*
G01X383286Y2104644D01*
G01X392684Y2104644D01*
G01X402082Y2101596D01*
G01X408178Y2095246D01*
G01X411226Y2086102D01*
G01X411226Y2079752D01*
G01X408178Y2070608D01*
G01X402082Y2064258D01*
G01X392684Y2061210D01*
G01X383286Y2061210D01*
G01X374142Y2064258D01*
G01X371094Y2067560D01*
G01X368046Y2073656D01*
G01X-678180Y2532634D02*
G01X-678180Y2467610D01*
G01X-678180Y2532634D02*
G01X-650240Y2532634D01*
G01X-641096Y2529586D01*
G01X-638048Y2526538D01*
G01X-634746Y2520188D01*
G01X-634746Y2514092D01*
G01X-638048Y2507996D01*
G01X-641096Y2504948D01*
G01X-650240Y2501646D01*
G01X-678180Y2501646D01*
G01X-656590Y2501646D02*
G01X-634746Y2467610D01*
G01X-604520Y2520188D02*
G01X-598424Y2523490D01*
G01X-589280Y2532634D01*
G01X-589280Y2467610D01*
G01X-521970Y2523490D02*
G01X-525018Y2529586D01*
G01X-534416Y2532634D01*
G01X-540512Y2532634D01*
G01X-549910Y2529586D01*
G01X-556006Y2520188D01*
G01X-559054Y2504948D01*
G01X-559054Y2489454D01*
G01X-556006Y2477008D01*
G01X-549910Y2470658D01*
G01X-540512Y2467610D01*
G01X-537464Y2467610D01*
G01X-528320Y2470658D01*
G01X-521970Y2477008D01*
G01X-518922Y2486152D01*
G01X-518922Y2489454D01*
G01X-521970Y2498598D01*
G01X-528320Y2504948D01*
G01X-537464Y2507996D01*
G01X-540512Y2507996D01*
G01X-549910Y2504948D01*
G01X-556006Y2498598D01*
G01X-559054Y2489454D01*
G01X-182880Y1999234D02*
G01X-182880Y1934210D01*
G01X-182880Y1999234D02*
G01X-154940Y1999234D01*
G01X-145796Y1996186D01*
G01X-142748Y1993138D01*
G01X-139446Y1986788D01*
G01X-139446Y1980692D01*
G01X-142748Y1974596D01*
G01X-145796Y1971548D01*
G01X-154940Y1968246D01*
G01X-182880Y1968246D01*
G01X-161290Y1968246D02*
G01X-139446Y1934210D01*
G01X-109220Y1986788D02*
G01X-103124Y1990090D01*
G01X-93980Y1999234D01*
G01X-93980Y1934210D01*
G01X-20574Y1999234D02*
G01X-51562Y1934210D01*
G01X-63754Y1999234D02*
G01X-20574Y1999234D01*
G01X58420Y2837434D02*
G01X58420Y2790952D01*
G01X61468Y2781808D01*
G01X67818Y2775458D01*
G01X76962Y2772410D01*
G01X83312Y2772410D01*
G01X92456Y2775458D01*
G01X98552Y2781808D01*
G01X101854Y2790952D01*
G01X101854Y2837434D01*
G01X169164Y2837434D02*
G01X138176Y2837434D01*
G01X135128Y2809748D01*
G01X138176Y2812796D01*
G01X147320Y2815844D01*
G01X156718Y2815844D01*
G01X166116Y2812796D01*
G01X172212Y2806446D01*
G01X175260Y2797302D01*
G01X175260Y2790952D01*
G01X172212Y2781808D01*
G01X166116Y2775458D01*
G01X156718Y2772410D01*
G01X147320Y2772410D01*
G01X138176Y2775458D01*
G01X135128Y2778760D01*
G01X132080Y2784856D01*
G01X-1630680Y-1226566D02*
G01X-1587246Y-1291590D01*
G01X-1587246Y-1226566D02*
G01X-1630680Y-1291590D01*
G01X-1557020Y-1239012D02*
G01X-1550924Y-1235710D01*
G01X-1541780Y-1226566D01*
G01X-1541780Y-1291590D01*
G01X833120Y1783334D02*
G01X876554Y1718310D01*
G01X876554Y1783334D02*
G01X833120Y1718310D01*
G01X909828Y1767840D02*
G01X909828Y1770888D01*
G01X912876Y1777238D01*
G01X915924Y1780286D01*
G01X922020Y1783334D01*
G01X934466Y1783334D01*
G01X940816Y1780286D01*
G01X943864Y1777238D01*
G01X946912Y1770888D01*
G01X946912Y1764792D01*
G01X943864Y1758696D01*
G01X937514Y1749298D01*
G01X906780Y1718310D01*
G01X949960Y1718310D01*
G01X1620520Y2964434D02*
G01X1620520Y2899410D01*
G01X1620520Y2964434D02*
G01X1648460Y2964434D01*
G01X1657604Y2961386D01*
G01X1660652Y2958338D01*
G01X1663954Y2951988D01*
G01X1663954Y2942844D01*
G01X1660652Y2936748D01*
G01X1657604Y2933446D01*
G01X1648460Y2930398D01*
G01X1620520Y2930398D01*
G01X1697228Y2948940D02*
G01X1697228Y2951988D01*
G01X1700276Y2958338D01*
G01X1703324Y2961386D01*
G01X1709420Y2964434D01*
G01X1721866Y2964434D01*
G01X1728216Y2961386D01*
G01X1731264Y2958338D01*
G01X1734312Y2951988D01*
G01X1734312Y2945892D01*
G01X1731264Y2939796D01*
G01X1724914Y2930398D01*
G01X1694180Y2899410D01*
G01X1737360Y2899410D01*
G01X779777Y3388628D02*
G01X779777Y3323604D01*
G01X779777Y3388628D02*
G01X801367Y3388628D01*
G01X810765Y3385580D01*
G01X816861Y3379484D01*
G01X819909Y3373134D01*
G01X823211Y3363990D01*
G01X823211Y3348496D01*
G01X819909Y3339098D01*
G01X816861Y3333002D01*
G01X810765Y3326652D01*
G01X801367Y3323604D01*
G01X779777Y3323604D01*
G01X859533Y3388628D02*
G01X893569Y3388628D01*
G01X875027Y3363990D01*
G01X884171Y3363990D01*
G01X890521Y3360942D01*
G01X893569Y3357640D01*
G01X896617Y3348496D01*
G01X896617Y3342146D01*
G01X893569Y3333002D01*
G01X887473Y3326652D01*
G01X878075Y3323604D01*
G01X868677Y3323604D01*
G01X859533Y3326652D01*
G01X856485Y3329954D01*
G01X853437Y3336050D01*
G01X1620520Y411734D02*
G01X1620520Y346710D01*
G01X1620520Y411734D02*
G01X1648460Y411734D01*
G01X1657604Y408686D01*
G01X1660652Y405638D01*
G01X1663954Y399288D01*
G01X1663954Y390144D01*
G01X1660652Y384048D01*
G01X1657604Y380746D01*
G01X1648460Y377698D01*
G01X1620520Y377698D01*
G01X1694180Y399288D02*
G01X1700276Y402590D01*
G01X1709420Y411734D01*
G01X1709420Y346710D01*
G01X-2062734Y655320D02*
G01X-2016252Y655320D01*
G01X-2007108Y658368D01*
G01X-2000758Y664718D01*
G01X-1997710Y673862D01*
G01X-1997710Y680212D01*
G01X-2000758Y689356D01*
G01X-2007108Y695452D01*
G01X-2016252Y698754D01*
G01X-2062734Y698754D01*
G01X-2053590Y766064D02*
G01X-2059686Y763016D01*
G01X-2062734Y753618D01*
G01X-2062734Y747522D01*
G01X-2059686Y738124D01*
G01X-2050288Y732028D01*
G01X-2035048Y728980D01*
G01X-2019554Y728980D01*
G01X-2007108Y732028D01*
G01X-2000758Y738124D01*
G01X-1997710Y747522D01*
G01X-1997710Y750570D01*
G01X-2000758Y759714D01*
G01X-2007108Y766064D01*
G01X-2016252Y769112D01*
G01X-2019554Y769112D01*
G01X-2028698Y766064D01*
G01X-2035048Y759714D01*
G01X-2038096Y750570D01*
G01X-2038096Y747522D01*
G01X-2035048Y738124D01*
G01X-2028698Y732028D01*
G01X-2019554Y728980D01*
G01X-1888998Y1170940D02*
G01X-1892046Y1177290D01*
G01X-1898396Y1183386D01*
G01X-1904492Y1186434D01*
G01X-1916938Y1186434D01*
G01X-1923034Y1183386D01*
G01X-1929384Y1177290D01*
G01X-1932432Y1170940D01*
G01X-1935480Y1161796D01*
G01X-1935480Y1146302D01*
G01X-1932432Y1136904D01*
G01X-1929384Y1130808D01*
G01X-1923034Y1124458D01*
G01X-1916938Y1121410D01*
G01X-1904492Y1121410D01*
G01X-1898396Y1124458D01*
G01X-1892046Y1130808D01*
G01X-1888998Y1136904D01*
G01X-1858772Y1173988D02*
G01X-1852676Y1177290D01*
G01X-1843532Y1186434D01*
G01X-1843532Y1121410D01*
G01X-1773174Y1164844D02*
G01X-1776222Y1155446D01*
G01X-1782572Y1149350D01*
G01X-1791716Y1146302D01*
G01X-1794764Y1146302D01*
G01X-1804162Y1149350D01*
G01X-1810258Y1155446D01*
G01X-1813306Y1164844D01*
G01X-1813306Y1167892D01*
G01X-1810258Y1177290D01*
G01X-1804162Y1183386D01*
G01X-1794764Y1186434D01*
G01X-1791716Y1186434D01*
G01X-1782572Y1183386D01*
G01X-1776222Y1177290D01*
G01X-1773174Y1164844D01*
G01X-1773174Y1149350D01*
G01X-1776222Y1133856D01*
G01X-1782572Y1124458D01*
G01X-1791716Y1121410D01*
G01X-1798066Y1121410D01*
G01X-1807210Y1124458D01*
G01X-1810258Y1130808D01*
G01X-2174240Y-149098D02*
G01X-2180590Y-152146D01*
G01X-2186686Y-158496D01*
G01X-2189734Y-164592D01*
G01X-2189734Y-177038D01*
G01X-2186686Y-183134D01*
G01X-2180590Y-189484D01*
G01X-2174240Y-192532D01*
G01X-2165096Y-195580D01*
G01X-2149602Y-195580D01*
G01X-2140204Y-192532D01*
G01X-2134108Y-189484D01*
G01X-2127758Y-183134D01*
G01X-2124710Y-177038D01*
G01X-2124710Y-164592D01*
G01X-2127758Y-158496D01*
G01X-2134108Y-152146D01*
G01X-2140204Y-149098D01*
G01X-2174240Y-115824D02*
G01X-2177288Y-115824D01*
G01X-2183638Y-112776D01*
G01X-2186686Y-109728D01*
G01X-2189734Y-103632D01*
G01X-2189734Y-91186D01*
G01X-2186686Y-84836D01*
G01X-2183638Y-81788D01*
G01X-2177288Y-78740D01*
G01X-2171192Y-78740D01*
G01X-2165096Y-81788D01*
G01X-2155698Y-88138D01*
G01X-2124710Y-118872D01*
G01X-2124710Y-75692D01*
G01X-2189734Y-26924D02*
G01X-2186686Y-36322D01*
G01X-2177288Y-42418D01*
G01X-2162048Y-45466D01*
G01X-2152650Y-45466D01*
G01X-2137156Y-42418D01*
G01X-2127758Y-36322D01*
G01X-2124710Y-26924D01*
G01X-2124710Y-20828D01*
G01X-2127758Y-11430D01*
G01X-2137156Y-5334D01*
G01X-2152650Y-2286D01*
G01X-2162048Y-2286D01*
G01X-2177288Y-5334D01*
G01X-2186686Y-11430D01*
G01X-2189734Y-20828D01*
G01X-2189734Y-26924D01*
G01X104902Y3380740D02*
G01X101854Y3387090D01*
G01X95504Y3393186D01*
G01X89408Y3396234D01*
G01X76962Y3396234D01*
G01X70866Y3393186D01*
G01X64516Y3387090D01*
G01X61468Y3380740D01*
G01X58420Y3371596D01*
G01X58420Y3356102D01*
G01X61468Y3346704D01*
G01X64516Y3340608D01*
G01X70866Y3334258D01*
G01X76962Y3331210D01*
G01X89408Y3331210D01*
G01X95504Y3334258D01*
G01X101854Y3340608D01*
G01X104902Y3346704D01*
G01X135128Y3383788D02*
G01X141224Y3387090D01*
G01X150368Y3396234D01*
G01X150368Y3331210D01*
G01X223774Y3396234D02*
G01X192786Y3331210D01*
G01X180594Y3396234D02*
G01X223774Y3396234D01*
G01X274320Y-2090166D02*
G01X274320Y-2155190D01*
G01X274320Y-2090166D02*
G01X302260Y-2090166D01*
G01X311404Y-2093214D01*
G01X314452Y-2096262D01*
G01X317754Y-2102612D01*
G01X317754Y-2108708D01*
G01X314452Y-2114804D01*
G01X311404Y-2117852D01*
G01X302260Y-2121154D01*
G01X274320Y-2121154D01*
G01X295910Y-2121154D02*
G01X317754Y-2155190D01*
G01X354076Y-2090166D02*
G01X388112Y-2090166D01*
G01X369570Y-2114804D01*
G01X378714Y-2114804D01*
G01X385064Y-2117852D01*
G01X388112Y-2121154D01*
G01X391160Y-2130298D01*
G01X391160Y-2136648D01*
G01X388112Y-2145792D01*
G01X382016Y-2152142D01*
G01X372618Y-2155190D01*
G01X363220Y-2155190D01*
G01X354076Y-2152142D01*
G01X351028Y-2148840D01*
G01X347980Y-2142744D01*
G01X363220Y2888234D02*
G01X363220Y2823210D01*
G01X363220Y2888234D02*
G01X391160Y2888234D01*
G01X400304Y2885186D01*
G01X403352Y2882138D01*
G01X406654Y2875788D01*
G01X406654Y2869692D01*
G01X403352Y2863596D01*
G01X400304Y2860548D01*
G01X391160Y2857246D01*
G01X363220Y2857246D01*
G01X384810Y2857246D02*
G01X406654Y2823210D01*
G01X436880Y2875788D02*
G01X442976Y2879090D01*
G01X452120Y2888234D01*
G01X452120Y2823210D01*
G01X513080Y2888234D02*
G01X482346Y2845054D01*
G01X528574Y2845054D01*
G01X513080Y2888234D02*
G01X513080Y2823210D01*
G04 Text End*

G04 PolygonModel Start*
G54D17*
G01X2247900Y50800D02*
G01X2336800Y50800D01*
G01X2336800Y-50800D01*
G01X2336800Y-393700D02*
G01X2336800Y-469900D01*
G01X2235200Y-469900D01*
G01X2324100Y-1422400D02*
G01X2324100Y-1479550D01*
G01X2222500Y-1479550D01*
G01X2235200Y-958850D02*
G01X2324100Y-958850D01*
G01X2324100Y-1024216D01*
G54D11*
G01X529781Y-188351D02*
G01X529781Y-97980D01*
G01X529781Y-97980D02*
G01X620151Y-97980D01*
G01X1045020Y-188351D02*
G01X1045020Y-97980D01*
G01X1045020Y-97980D02*
G01X954649Y-97980D01*
G01X529781Y-522849D02*
G01X529781Y-613219D01*
G01X529781Y-613219D02*
G01X620151Y-613219D01*
G01X1045020Y-522849D02*
G01X1045020Y-613219D01*
G01X1045020Y-613219D02*
G01X954649Y-613219D01*
G01X1044011Y31249D02*
G01X1044011Y172250D01*
G01X863290Y172250D02*
G01X863290Y31249D01*
G01X878530Y16009D02*
G01X1028771Y16009D01*
G01X1044011Y393489D02*
G01X1044011Y252488D01*
G01X863290Y252488D02*
G01X863290Y393489D01*
G01X878530Y408729D02*
G01X1028771Y408729D01*
G01X863290Y31249D02*
G03X878530Y16009I15240J0D01*
G01X1028771Y16009D02*
G03X1044011Y31249I0J15240D01*
G01X863290Y393489D02*
G02X878530Y408729I15240J0D01*
G01X1028771Y408729D02*
G02X1044011Y393489I0J-15240D01*
G01X447111Y-574339D02*
G01X447111Y-433339D01*
G01X266390Y-433339D02*
G01X266390Y-574339D01*
G01X281630Y-589579D02*
G01X431871Y-589579D01*
G01X447111Y-212100D02*
G01X447111Y-353100D01*
G01X266390Y-353100D02*
G01X266390Y-212100D01*
G01X281630Y-196860D02*
G01X431871Y-196860D01*
G01X266390Y-574339D02*
G03X281630Y-589579I15240J0D01*
G01X431871Y-589579D02*
G03X447111Y-574339I0J15240D01*
G01X266390Y-212100D02*
G02X281630Y-196860I15240J0D01*
G01X431871Y-196860D02*
G02X447111Y-212100I0J-15240D01*
G01X206292Y-574820D02*
G01X206292Y-433819D01*
G01X25571Y-433819D02*
G01X25571Y-574820D01*
G01X40811Y-590060D02*
G01X191052Y-590060D01*
G01X206292Y-212580D02*
G01X206292Y-353581D01*
G01X25571Y-353581D02*
G01X25571Y-212580D01*
G01X40811Y-197340D02*
G01X191052Y-197340D01*
G01X25571Y-574820D02*
G03X40811Y-590060I15240J0D01*
G01X191052Y-590060D02*
G03X206292Y-574820I0J15240D01*
G01X25571Y-212580D02*
G02X40811Y-197340I15240J0D01*
G01X191052Y-197340D02*
G02X206292Y-212580I0J-15240D01*
G01X677431Y-686522D02*
G01X548937Y-686522D01*
G01X548937Y-686522D02*
G01X548937Y-869940D01*
G01X548937Y-869940D02*
G01X677431Y-869940D01*
G01X772671Y-686522D02*
G01X901164Y-686522D01*
G01X901164Y-686522D02*
G01X901164Y-869940D01*
G01X901164Y-869940D02*
G01X772671Y-869940D01*
G01X529781Y-1178960D02*
G01X529781Y-1088589D01*
G01X529781Y-1088589D02*
G01X620151Y-1088589D01*
G01X1045020Y-1178960D02*
G01X1045020Y-1088589D01*
G01X1045020Y-1088589D02*
G01X954649Y-1088589D01*
G01X529781Y-1513457D02*
G01X529781Y-1603828D01*
G01X529781Y-1603828D02*
G01X620151Y-1603828D01*
G01X1045020Y-1513457D02*
G01X1045020Y-1603828D01*
G01X1045020Y-1603828D02*
G01X954649Y-1603828D01*
G01X1069411Y-2140451D02*
G01X1069411Y-1999450D01*
G01X888690Y-1999450D02*
G01X888690Y-2140451D01*
G01X903930Y-2155691D02*
G01X1054171Y-2155691D01*
G01X1069411Y-1778211D02*
G01X1069411Y-1919212D01*
G01X888690Y-1919212D02*
G01X888690Y-1778211D01*
G01X903930Y-1762971D02*
G01X1054171Y-1762971D01*
G01X888690Y-2140451D02*
G03X903930Y-2155691I15240J0D01*
G01X1054171Y-2155691D02*
G03X1069411Y-2140451I0J15240D01*
G01X888690Y-1778211D02*
G02X903930Y-1762971I15240J0D01*
G01X1054171Y-1762971D02*
G02X1069411Y-1778211I0J-15240D01*
G01X217361Y-1527320D02*
G01X217361Y-1386319D01*
G01X36640Y-1386319D02*
G01X36640Y-1527320D01*
G01X51880Y-1542560D02*
G01X202121Y-1542560D01*
G01X217361Y-1165080D02*
G01X217361Y-1306081D01*
G01X36640Y-1306081D02*
G01X36640Y-1165080D01*
G01X51880Y-1149840D02*
G01X202121Y-1149840D01*
G01X36640Y-1527320D02*
G03X51880Y-1542560I15240J0D01*
G01X202121Y-1542560D02*
G03X217361Y-1527320I0J15240D01*
G01X36640Y-1165080D02*
G02X51880Y-1149840I15240J0D01*
G01X202121Y-1149840D02*
G02X217361Y-1165080I0J-15240D01*
G01X447990Y-1526839D02*
G01X447990Y-1385839D01*
G01X267269Y-1385839D02*
G01X267269Y-1526839D01*
G01X282509Y-1542079D02*
G01X432750Y-1542079D01*
G01X447990Y-1164600D02*
G01X447990Y-1305600D01*
G01X267269Y-1305600D02*
G01X267269Y-1164600D01*
G01X282509Y-1149360D02*
G01X432750Y-1149360D01*
G01X267269Y-1526839D02*
G03X282509Y-1542079I15240J0D01*
G01X432750Y-1542079D02*
G03X447990Y-1526839I0J15240D01*
G01X267269Y-1164600D02*
G02X282509Y-1149360I15240J0D01*
G01X432750Y-1149360D02*
G02X447990Y-1164600I0J-15240D01*
G01X574680Y-1775191D02*
G01X446187Y-1775191D01*
G01X446187Y-1775191D02*
G01X446187Y-1958609D01*
G01X446187Y-1958609D02*
G01X574680Y-1958609D01*
G01X669920Y-1775191D02*
G01X798413Y-1775191D01*
G01X798413Y-1775191D02*
G01X798413Y-1958609D01*
G01X798413Y-1958609D02*
G01X669920Y-1958609D01*
G01X-1768620Y-1169860D02*
G01X-1627619Y-1169860D01*
G01X-1627619Y-989139D02*
G01X-1768620Y-989139D01*
G01X-1783860Y-1004379D02*
G01X-1783860Y-1154620D01*
G01X-1406380Y-1169860D02*
G01X-1547381Y-1169860D01*
G01X-1547381Y-989139D02*
G01X-1406380Y-989139D01*
G01X-1391140Y-1004379D02*
G01X-1391140Y-1154620D01*
G01X-1768620Y-989139D02*
G03X-1783860Y-1004379I0J-15240D01*
G01X-1783860Y-1154620D02*
G03X-1768620Y-1169860I15240J0D01*
G01X-1406380Y-989139D02*
G02X-1391140Y-1004379I0J-15240D01*
G01X-1391140Y-1154620D02*
G02X-1406380Y-1169860I-15240J0D01*
G01X-11239Y-1527320D02*
G01X-11239Y-1386319D01*
G01X-191960Y-1386319D02*
G01X-191960Y-1527320D01*
G01X-176720Y-1542560D02*
G01X-26479Y-1542560D01*
G01X-11239Y-1165080D02*
G01X-11239Y-1306081D01*
G01X-191960Y-1306081D02*
G01X-191960Y-1165080D01*
G01X-176720Y-1149840D02*
G01X-26479Y-1149840D01*
G01X-191960Y-1527320D02*
G03X-176720Y-1542560I15240J0D01*
G01X-26479Y-1542560D02*
G03X-11239Y-1527320I0J15240D01*
G01X-191960Y-1165080D02*
G02X-176720Y-1149840I15240J0D01*
G01X-26479Y-1149840D02*
G02X-11239Y-1165080I0J-15240D01*
G01X-1889491Y-2670180D02*
G01X-1889491Y-2541687D01*
G01X-1889491Y-2541687D02*
G01X-2072909Y-2541687D01*
G01X-2072909Y-2541687D02*
G01X-2072909Y-2670180D01*
G01X-1889491Y-2765420D02*
G01X-1889491Y-2893913D01*
G01X-1889491Y-2893913D02*
G01X-2072909Y-2893913D01*
G01X-2072909Y-2893913D02*
G01X-2072909Y-2765420D01*
G54D17*
G01X-1420721Y-2533117D02*
G01X-1420721Y-3133115D01*
G01X-1661922Y-2934716D02*
G01X-1661922Y-2731516D01*
G01X-1661922Y-2731516D02*
G01X-1509522Y-2731516D01*
G01X-1509522Y-2731516D02*
G01X-1509522Y-2934716D01*
G01X-1509522Y-2934716D02*
G01X-1661922Y-2934716D01*
G01X-1750723Y-3133115D02*
G01X-1750723Y-2533117D01*
G01X-1750723Y-3133115D02*
G01X-1685613Y-3133115D01*
G01X-1489387Y-3133115D02*
G01X-1420721Y-3133115D01*
G01X-1420721Y-2533117D02*
G01X-1493957Y-2533117D01*
G01X-1681041Y-2533117D02*
G01X-1750723Y-2533117D01*
G01X-976772Y2632578D02*
G01X-1008301Y2632578D01*
G01X-922302Y2634323D02*
G01X-922302Y2632578D01*
G01X-922302Y2632578D02*
G01X-927821Y2632578D01*
G01X-922302Y3072331D02*
G01X-922302Y2889314D01*
G01X-1826298Y3292335D02*
G01X-1826298Y3468576D01*
G01X-1826298Y3468576D02*
G01X-922302Y3468576D01*
G01X-922302Y3468576D02*
G01X-922302Y3287321D01*
G01X-1826298Y2894327D02*
G01X-1826298Y3067317D01*
G01X-1758300Y2642578D02*
G01X-1770535Y2642578D01*
G01X-1898899Y-1650192D02*
G01X-1897901Y-1798201D01*
G01X-2087900Y-1664200D02*
G01X-2087900Y-1798201D01*
G01X-1897901Y-1798201D02*
G01X-2087903Y-1798201D01*
G01X-2088901Y-1425189D02*
G01X-2088896Y-1425189D01*
G01X-2088896Y-1425189D02*
G01X-2053902Y-1390195D01*
G01X-1898899Y-1425189D02*
G01X-1898904Y-1425189D01*
G01X-1898904Y-1425189D02*
G01X-1933898Y-1390195D01*
G01X-1898899Y-1550192D02*
G01X-1898899Y-1425189D01*
G01X-2088901Y-1550192D02*
G01X-2088901Y-1425189D01*
G01X-1933898Y-1390195D02*
G01X-2053902Y-1390195D01*
G01X-1943900Y-1630200D02*
G01X-2043900Y-1630200D01*
G01X-1994405Y-1630200D02*
G01X-1994405Y-1580200D01*
G01X-2088901Y-864408D02*
G01X-2089899Y-716399D01*
G01X-1899900Y-850400D02*
G01X-1899900Y-716399D01*
G01X-2089899Y-716399D02*
G01X-1899897Y-716399D01*
G01X-1898899Y-1089411D02*
G01X-1898904Y-1089411D01*
G01X-1898904Y-1089411D02*
G01X-1933898Y-1124405D01*
G01X-2088901Y-1089411D02*
G01X-2088896Y-1089411D01*
G01X-2088896Y-1089411D02*
G01X-2053902Y-1124405D01*
G01X-2088901Y-964408D02*
G01X-2088901Y-1089411D01*
G01X-1898899Y-964408D02*
G01X-1898899Y-1089411D01*
G01X-2053902Y-1124405D02*
G01X-1933898Y-1124405D01*
G01X-2043900Y-884400D02*
G01X-1943900Y-884400D01*
G01X-1993395Y-884400D02*
G01X-1993395Y-934400D01*
G54D18*
G01X304800Y-3289300D02*
G01X812800Y-3289300D01*
G01X812800Y-3289300D02*
G01X812800Y-2527300D01*
G01X812800Y-2527300D02*
G01X304800Y-2527300D01*
G01X304800Y-2527300D02*
G01X304800Y-3289300D01*
G01X304800Y-3289300D02*
G01X304800Y-2802458D01*
G01X559041Y-2527300D02*
G01X559041Y-2781300D01*
G01X559041Y-2781300D02*
G01X304800Y-2781300D01*
G54D11*
G01X302306Y1867645D02*
G01X355600Y1920940D01*
G01X355600Y1920940D02*
G01X408894Y1867645D01*
G01X737345Y1432606D02*
G01X790640Y1485900D01*
G01X790640Y1485900D02*
G01X737345Y1539194D01*
G01X-26145Y1539194D02*
G01X-79440Y1485900D01*
G01X-79440Y1485900D02*
G01X-26145Y1432606D01*
G01X408894Y1104155D02*
G01X355600Y1050860D01*
G01X355600Y1050860D02*
G01X302306Y1104155D01*
G01X739607Y960980D02*
G01X880607Y960980D01*
G01X880607Y1141701D02*
G01X739607Y1141701D01*
G01X724367Y1126461D02*
G01X724367Y976220D01*
G01X1101846Y960980D02*
G01X960846Y960980D01*
G01X960846Y1141701D02*
G01X1101846Y1141701D01*
G01X1117086Y1126461D02*
G01X1117086Y976220D01*
G01X739607Y1141701D02*
G03X724367Y1126461I0J-15240D01*
G01X724367Y976220D02*
G03X739607Y960980I15240J0D01*
G01X1101846Y1141701D02*
G02X1117086Y1126461I0J-15240D01*
G01X1117086Y976220D02*
G02X1101846Y960980I-15240J0D01*
G01X745980Y747840D02*
G01X886981Y747840D01*
G01X886981Y928561D02*
G01X745980Y928561D01*
G01X730740Y913321D02*
G01X730740Y763080D01*
G01X1108220Y747840D02*
G01X967219Y747840D01*
G01X967219Y928561D02*
G01X1108220Y928561D01*
G01X1123460Y913321D02*
G01X1123460Y763080D01*
G01X745980Y928561D02*
G03X730740Y913321I0J-15240D01*
G01X730740Y763080D02*
G03X745980Y747840I15240J0D01*
G01X1108220Y928561D02*
G02X1123460Y913321I0J-15240D01*
G01X1123460Y763080D02*
G02X1108220Y747840I-15240J0D01*
G54D17*
G01X-1275486Y-972388D02*
G01X-1275486Y-1872391D01*
G01X-375483Y-972388D02*
G01X-1275486Y-972388D01*
G01X-1275486Y-1872391D02*
G01X-375483Y-1872391D01*
G01X-375483Y-1872391D02*
G01X-375483Y-972388D01*
G01X-475485Y-997392D02*
G01X-400487Y-1072391D01*
G54D11*
G01X-993920Y-750760D02*
G01X-852919Y-750760D01*
G01X-852919Y-570039D02*
G01X-993920Y-570039D01*
G01X-1009160Y-585279D02*
G01X-1009160Y-735520D01*
G01X-631680Y-750760D02*
G01X-772681Y-750760D01*
G01X-772681Y-570039D02*
G01X-631680Y-570039D01*
G01X-616440Y-585279D02*
G01X-616440Y-735520D01*
G01X-993920Y-570039D02*
G03X-1009160Y-585279I0J-15240D01*
G01X-1009160Y-735520D02*
G03X-993920Y-750760I15240J0D01*
G01X-631680Y-570039D02*
G02X-616440Y-585279I0J-15240D01*
G01X-616440Y-735520D02*
G02X-631680Y-750760I-15240J0D01*
G01X-1038080Y-1941639D02*
G01X-1179081Y-1941639D01*
G01X-1179081Y-2122360D02*
G01X-1038080Y-2122360D01*
G01X-1022840Y-2107120D02*
G01X-1022840Y-1956879D01*
G01X-1400320Y-1941639D02*
G01X-1259319Y-1941639D01*
G01X-1259319Y-2122360D02*
G01X-1400320Y-2122360D01*
G01X-1415560Y-2107120D02*
G01X-1415560Y-1956879D01*
G01X-1038080Y-2122360D02*
G03X-1022840Y-2107120I0J15240D01*
G01X-1022840Y-1956879D02*
G03X-1038080Y-1941639I-15240J0D01*
G01X-1400320Y-2122360D02*
G02X-1415560Y-2107120I0J15240D01*
G01X-1415560Y-1956879D02*
G02X-1400320Y-1941639I15240J0D01*
G54D17*
G01X-28702Y-3339846D02*
G01X-28702Y-2349754D01*
G01X-28702Y-2349754D02*
G01X-1193800Y-2349754D01*
G01X-1193800Y-2349754D02*
G01X-1193800Y-3339846D01*
G01X-1193800Y-3339846D02*
G01X-28702Y-3339846D01*
G01X-940615Y-2875826D02*
G01X-1040615Y-2875826D01*
G01X-940615Y-3025800D02*
G01X-940615Y-2675801D01*
G01X-940615Y-2675801D02*
G01X-1040615Y-2675801D01*
G01X-1040615Y-2675801D02*
G01X-1040615Y-3025800D01*
G01X-1040615Y-3025800D02*
G01X-945617Y-3025800D01*
G01X-686605Y-2875826D02*
G01X-786602Y-2875826D01*
G01X-686605Y-3025800D02*
G01X-686605Y-2675801D01*
G01X-686605Y-2675801D02*
G01X-786602Y-2675801D01*
G01X-786602Y-2675801D02*
G01X-786602Y-3025800D01*
G01X-786602Y-3025800D02*
G01X-691604Y-3025800D01*
G01X-432610Y-2875821D02*
G01X-532610Y-2875821D01*
G01X-432610Y-3025788D02*
G01X-432610Y-2675796D01*
G01X-432610Y-2675796D02*
G01X-532610Y-2675796D01*
G01X-532610Y-2675796D02*
G01X-532610Y-3025788D01*
G01X-532610Y-3025788D02*
G01X-437612Y-3025788D01*
G01X-178600Y-3025800D02*
G01X-178600Y-2675801D01*
G01X-178600Y-2675801D02*
G01X-278600Y-2675801D01*
G01X-278600Y-2675801D02*
G01X-278600Y-3025800D01*
G01X-278600Y-3025800D02*
G01X-183601Y-3025800D01*
G01X-178600Y-2875826D02*
G01X-278600Y-2875826D01*
G54D19*
G01X-2235200Y2044700D02*
G01X-1727200Y2044700D01*
G54D11*
G01X-2247900Y2019300D02*
G01X-2247900Y1917700D01*
G01X-1714500Y1917700D02*
G01X-1714500Y2019300D01*
G54D19*
G01X-1727200Y1358900D02*
G01X-2235200Y1358900D01*
G54D11*
G01X-1714500Y1384300D02*
G01X-1714500Y1485900D01*
G01X-2247900Y1485900D02*
G01X-2247900Y1384300D01*
G54D17*
G01X-1803400Y1691927D02*
G02X-1981200Y1691927I-88900J34786D01*
G01X-2159000Y1691927D02*
G02X-1981200Y1691927I88900J-34786D01*
G54D11*
G01X-1562691Y1889886D02*
G01X-1562691Y1761392D01*
G01X-1562691Y1761392D02*
G01X-1379272Y1761392D01*
G01X-1379272Y1761392D02*
G01X-1379272Y1889886D01*
G01X-1562691Y1985126D02*
G01X-1562691Y2113619D01*
G01X-1562691Y2113619D02*
G01X-1379272Y2113619D01*
G01X-1379272Y2113619D02*
G01X-1379272Y1985126D01*
G01X-1298209Y1895480D02*
G01X-1298209Y1766987D01*
G01X-1298209Y1766987D02*
G01X-1114791Y1766987D01*
G01X-1114791Y1766987D02*
G01X-1114791Y1895480D01*
G01X-1298209Y1990720D02*
G01X-1298209Y2119213D01*
G01X-1298209Y2119213D02*
G01X-1114791Y2119213D01*
G01X-1114791Y2119213D02*
G01X-1114791Y1990720D01*
G01X-2312860Y2543320D02*
G01X-2312860Y2402319D01*
G01X-2132139Y2402319D02*
G01X-2132139Y2543320D01*
G01X-2147379Y2558560D02*
G01X-2297620Y2558560D01*
G01X-2312860Y2181080D02*
G01X-2312860Y2322081D01*
G01X-2132139Y2322081D02*
G01X-2132139Y2181080D01*
G01X-2147379Y2165840D02*
G01X-2297620Y2165840D01*
G01X-2132139Y2543320D02*
G03X-2147379Y2558560I-15240J0D01*
G01X-2297620Y2558560D02*
G03X-2312860Y2543320I0J-15240D01*
G01X-2132139Y2181080D02*
G02X-2147379Y2165840I-15240J0D01*
G01X-2297620Y2165840D02*
G02X-2312860Y2181080I0J15240D01*
G01X-1198321Y2567960D02*
G01X-1294209Y2567960D01*
G01X-1294209Y2567960D02*
G01X-1294209Y2435840D01*
G01X-1294209Y2435840D02*
G01X-1198321Y2435840D01*
G01X-1113079Y2567960D02*
G01X-1017191Y2567960D01*
G01X-1017191Y2567960D02*
G01X-1017191Y2435840D01*
G01X-1017191Y2435840D02*
G01X-1113079Y2435840D01*
G01X-1246903Y2381366D02*
G01X-1342790Y2381366D01*
G01X-1342790Y2381366D02*
G01X-1342790Y2249245D01*
G01X-1342790Y2249245D02*
G01X-1246903Y2249245D01*
G01X-1161660Y2381366D02*
G01X-1065773Y2381366D01*
G01X-1065773Y2381366D02*
G01X-1065773Y2249245D01*
G01X-1065773Y2249245D02*
G01X-1161660Y2249245D01*
G01X614593Y2152859D02*
G01X755593Y2152859D01*
G01X755593Y2333580D02*
G01X614593Y2333580D01*
G01X599353Y2318340D02*
G01X599353Y2168099D01*
G01X976832Y2152859D02*
G01X835832Y2152859D01*
G01X835832Y2333580D02*
G01X976832Y2333580D01*
G01X992072Y2318340D02*
G01X992072Y2168099D01*
G01X614593Y2333580D02*
G03X599353Y2318340I0J-15240D01*
G01X599353Y2168099D02*
G03X614593Y2152859I15240J0D01*
G01X976832Y2333580D02*
G02X992072Y2318340I0J-15240D01*
G01X992072Y2168099D02*
G02X976832Y2152859I-15240J0D01*
G01X887540Y2759220D02*
G01X887540Y2618219D01*
G01X1068261Y2618219D02*
G01X1068261Y2759220D01*
G01X1053021Y2774460D02*
G01X902780Y2774460D01*
G01X887540Y2396980D02*
G01X887540Y2537981D01*
G01X1068261Y2537981D02*
G01X1068261Y2396980D01*
G01X1053021Y2381740D02*
G01X902780Y2381740D01*
G01X1068261Y2759220D02*
G03X1053021Y2774460I-15240J0D01*
G01X902780Y2774460D02*
G03X887540Y2759220I0J-15240D01*
G01X1068261Y2396980D02*
G02X1053021Y2381740I-15240J0D01*
G01X902780Y2381740D02*
G02X887540Y2396980I0J15240D01*
G01X614110Y2766267D02*
G01X614110Y2625267D01*
G01X794831Y2625267D02*
G01X794831Y2766267D01*
G01X779591Y2781507D02*
G01X629350Y2781507D01*
G01X614110Y2404027D02*
G01X614110Y2545028D01*
G01X794831Y2545028D02*
G01X794831Y2404027D01*
G01X779591Y2388787D02*
G01X629350Y2388787D01*
G01X794831Y2766267D02*
G03X779591Y2781507I-15240J0D01*
G01X629350Y2781507D02*
G03X614110Y2766267I0J-15240D01*
G01X794831Y2404027D02*
G02X779591Y2388787I-15240J0D01*
G01X629350Y2388787D02*
G02X614110Y2404027I0J15240D01*
G01X-129197Y2828807D02*
G01X-414439Y2828807D01*
G01X-429679Y2813567D02*
G01X-429679Y2650067D01*
G01X-113957Y2650067D02*
G01X-113957Y2813567D01*
G01X-429679Y2331328D02*
G01X-429679Y2494827D01*
G01X-113957Y2494827D02*
G01X-113957Y2331328D01*
G01X-129197Y2316088D02*
G01X-414439Y2316088D01*
G01X-113957Y2813567D02*
G03X-129197Y2828807I-15240J0D01*
G01X-414439Y2828807D02*
G03X-429679Y2813567I0J-15240D01*
G01X-113957Y2331328D02*
G02X-129197Y2316088I-15240J0D01*
G01X-414439Y2316088D02*
G02X-429679Y2331328I0J15240D01*
G01X-819818Y1570704D02*
G01X-534576Y1570704D01*
G01X-819818Y1399478D02*
G01X-819818Y1918715D01*
G01X-559636Y1918425D02*
G01X-535714Y1919093D01*
G01X-819818Y1918715D02*
G01X-795896Y1919383D01*
G01X-534576Y1399478D02*
G01X-534576Y1918715D01*
G36*
G01X-567601Y1407918D02*
G01X-526941Y1407786D01*
G01X-527393Y1361832D01*
G01X-567601Y1362198D01*
G01X-567601Y1407918D01*
G37*
G36*
G01X-827438Y1407095D02*
G01X-786778Y1406963D01*
G01X-787230Y1361009D01*
G01X-827438Y1361375D01*
G01X-827438Y1407095D01*
G37*
G01X-1147605Y1300085D02*
G01X-1147605Y1585327D01*
G01X-976379Y1300085D02*
G01X-1495615Y1300085D01*
G01X-1495326Y1560267D02*
G01X-1495994Y1584189D01*
G01X-1495615Y1300085D02*
G01X-1496284Y1324007D01*
G01X-976379Y1585327D02*
G01X-1495615Y1585327D01*
G36*
G01X-984819Y1552302D02*
G01X-984687Y1592962D01*
G01X-938733Y1592510D01*
G01X-939099Y1552302D01*
G01X-984819Y1552302D01*
G37*
G36*
G01X-983996Y1292465D02*
G01X-983864Y1333125D01*
G01X-937910Y1332673D01*
G01X-938276Y1292465D01*
G01X-983996Y1292465D01*
G37*
G54D15*
G01X-444772Y3276896D02*
G01X-94772Y3276896D01*
G01X-444772Y2936897D02*
G01X-94772Y2936897D01*
G54D11*
G01X-2072909Y-2232020D02*
G01X-2072909Y-2360513D01*
G01X-2072909Y-2360513D02*
G01X-1889491Y-2360513D01*
G01X-1889491Y-2360513D02*
G01X-1889491Y-2232020D01*
G01X-2072909Y-2136780D02*
G01X-2072909Y-2008287D01*
G01X-2072909Y-2008287D02*
G01X-1889491Y-2008287D01*
G01X-1889491Y-2008287D02*
G01X-1889491Y-2136780D01*
G01X-1902191Y-409580D02*
G01X-1902191Y-281087D01*
G01X-1902191Y-281087D02*
G01X-2085609Y-281087D01*
G01X-2085609Y-281087D02*
G01X-2085609Y-409580D01*
G01X-1902191Y-504820D02*
G01X-1902191Y-633313D01*
G01X-1902191Y-633313D02*
G01X-2085609Y-633313D01*
G01X-2085609Y-633313D02*
G01X-2085609Y-504820D01*
G01X-1734501Y2521314D02*
G01X-1862995Y2521314D01*
G01X-1862995Y2521314D02*
G01X-1862995Y2337896D01*
G01X-1862995Y2337896D02*
G01X-1734501Y2337896D01*
G01X-1639261Y2521314D02*
G01X-1510768Y2521314D01*
G01X-1510768Y2521314D02*
G01X-1510768Y2337896D01*
G01X-1510768Y2337896D02*
G01X-1639261Y2337896D01*
G01X-617272Y3150325D02*
G01X-617272Y3278819D01*
G01X-617272Y3278819D02*
G01X-800691Y3278819D01*
G01X-800691Y3278819D02*
G01X-800691Y3150325D01*
G01X-617272Y3055085D02*
G01X-617272Y2926592D01*
G01X-617272Y2926592D02*
G01X-800691Y2926592D01*
G01X-800691Y2926592D02*
G01X-800691Y3055085D01*
G01X104780Y942609D02*
G01X-23713Y942609D01*
G01X-23713Y942609D02*
G01X-23713Y759191D01*
G01X-23713Y759191D02*
G01X104780Y759191D01*
G01X200020Y942609D02*
G01X328513Y942609D01*
G01X328513Y942609D02*
G01X328513Y759191D01*
G01X328513Y759191D02*
G01X200020Y759191D01*
G01X377820Y2156191D02*
G01X506313Y2156191D01*
G01X506313Y2156191D02*
G01X506313Y2339609D01*
G01X506313Y2339609D02*
G01X377820Y2339609D01*
G01X282580Y2156191D02*
G01X154087Y2156191D01*
G01X154087Y2156191D02*
G01X154087Y2339609D01*
G01X154087Y2339609D02*
G01X282580Y2339609D01*
G01X-505191Y2308220D02*
G01X-505191Y2436713D01*
G01X-505191Y2436713D02*
G01X-688609Y2436713D01*
G01X-688609Y2436713D02*
G01X-688609Y2308220D01*
G01X-505191Y2212980D02*
G01X-505191Y2084487D01*
G01X-505191Y2084487D02*
G01X-688609Y2084487D01*
G01X-688609Y2084487D02*
G01X-688609Y2212980D01*
G01X-161920Y2225309D02*
G01X-290413Y2225309D01*
G01X-290413Y2225309D02*
G01X-290413Y2041891D01*
G01X-290413Y2041891D02*
G01X-161920Y2041891D01*
G01X-66680Y2225309D02*
G01X61813Y2225309D01*
G01X61813Y2225309D02*
G01X61813Y2041891D01*
G01X61813Y2041891D02*
G01X-66680Y2041891D01*
G01X38080Y2411481D02*
G01X215920Y2411481D01*
G01X38080Y2719319D02*
G01X215920Y2719319D01*
G54D17*
G01X-1772422Y-1319771D02*
G01X-1772422Y-1449768D01*
G01X-1428448Y-1447886D02*
G01X-1428448Y-1317889D01*
G01X-1671980Y-1319301D02*
G01X-1648308Y-1319301D01*
G01X-1552092Y-1319301D02*
G01X-1528420Y-1319301D01*
G01X-1671980Y-1449299D02*
G01X-1648308Y-1449299D01*
G01X-1552092Y-1449299D02*
G01X-1528420Y-1449299D01*
G01X997722Y1827771D02*
G01X997722Y1957769D01*
G01X653748Y1955886D02*
G01X653748Y1825889D01*
G01X897280Y1827301D02*
G01X873608Y1827301D01*
G01X777392Y1827301D02*
G01X753720Y1827301D01*
G01X897280Y1957299D02*
G01X873608Y1957299D01*
G01X777392Y1957299D02*
G01X753720Y1957299D01*
G01X1328349Y2515055D02*
G01X1328349Y2642304D01*
G01X1328349Y2642304D02*
G01X1161545Y2642304D01*
G01X1328349Y2515055D02*
G01X1161545Y2515055D01*
G01X1874177Y2669037D02*
G01X2181543Y2669037D01*
G01X1872844Y2489906D02*
G01X2181543Y2489906D01*
G01X1872844Y2489906D02*
G01X1834744Y2528006D01*
G01X1834744Y2528006D02*
G01X1834744Y2629606D01*
G01X1834744Y2629606D02*
G01X1874177Y2669037D01*
G01X1328349Y2015056D02*
G01X1328349Y2142305D01*
G01X1328349Y2142305D02*
G01X1161545Y2142305D01*
G01X1328349Y2015056D02*
G01X1161545Y2015056D01*
G01X1874177Y2169038D02*
G01X2181543Y2169038D01*
G01X1872844Y1989907D02*
G01X2181543Y1989907D01*
G01X1872844Y1989907D02*
G01X1834744Y2028007D01*
G01X1834744Y2028007D02*
G01X1834744Y2129607D01*
G01X1834744Y2129607D02*
G01X1874177Y2169038D01*
G01X1328349Y1515057D02*
G01X1328349Y1642306D01*
G01X1328349Y1642306D02*
G01X1161545Y1642306D01*
G01X1328349Y1515057D02*
G01X1161545Y1515057D01*
G01X1874177Y1669039D02*
G01X2181543Y1669039D01*
G01X1872844Y1489908D02*
G01X2181543Y1489908D01*
G01X1872844Y1489908D02*
G01X1834744Y1528008D01*
G01X1834744Y1528008D02*
G01X1834744Y1629608D01*
G01X1834744Y1629608D02*
G01X1874177Y1669039D01*
G01X1328349Y1015058D02*
G01X1328349Y1142307D01*
G01X1328349Y1142307D02*
G01X1161545Y1142307D01*
G01X1328349Y1015058D02*
G01X1161545Y1015058D01*
G01X1874177Y1169040D02*
G01X2181543Y1169040D01*
G01X1872844Y989909D02*
G01X2181543Y989909D01*
G01X1872844Y989909D02*
G01X1834744Y1028009D01*
G01X1834744Y1028009D02*
G01X1834744Y1129609D01*
G01X1834744Y1129609D02*
G01X1874177Y1169040D01*
G01X1956575Y817865D02*
G01X1956575Y757860D01*
G01X1956575Y757860D02*
G01X2022079Y757860D01*
G01X2022079Y757860D02*
G01X2022079Y817865D01*
G01X1276038Y762808D02*
G01X1341544Y762808D01*
G01X1341544Y762808D02*
G01X1341544Y822803D01*
G01X1276038Y822803D02*
G01X1276038Y762808D01*
G01X1161545Y828802D02*
G01X1161545Y2828798D01*
G01X1161545Y2828798D02*
G01X2181543Y2828798D01*
G01X2181543Y2828798D02*
G01X2181543Y828802D01*
G01X2181543Y828802D02*
G01X1171545Y828802D01*
G36*
G01X2126044Y1040702D02*
G01X2126044Y1116902D01*
G01X2062544Y1078802D01*
G01X2126044Y1040702D01*
G37*
G36*
G01X2126044Y1066102D02*
G01X2164144Y1066102D01*
G01X2164144Y1091502D01*
G01X2126044Y1091502D01*
G01X2126044Y1066102D01*
G37*
G36*
G01X2126044Y1540701D02*
G01X2126044Y1616901D01*
G01X2062544Y1578801D01*
G01X2126044Y1540701D01*
G37*
G36*
G01X2126044Y1566101D02*
G01X2164144Y1566101D01*
G01X2164144Y1591501D01*
G01X2126044Y1591501D01*
G01X2126044Y1566101D01*
G37*
G36*
G01X2126044Y2040700D02*
G01X2126044Y2116900D01*
G01X2062544Y2078800D01*
G01X2126044Y2040700D01*
G37*
G36*
G01X2126044Y2066100D02*
G01X2164144Y2066100D01*
G01X2164144Y2091500D01*
G01X2126044Y2091500D01*
G01X2126044Y2066100D01*
G37*
G36*
G01X2126044Y2540699D02*
G01X2126044Y2616899D01*
G01X2062544Y2578799D01*
G01X2126044Y2540699D01*
G37*
G36*
G01X2126044Y2566099D02*
G01X2164144Y2566099D01*
G01X2164144Y2591499D01*
G01X2126044Y2591499D01*
G01X2126044Y2566099D01*
G37*
G54D11*
G01X762508Y3266821D02*
G01X762508Y2981579D01*
G01X591282Y3266821D02*
G01X1110518Y3266821D01*
G01X1110229Y3006639D02*
G01X1110897Y2982717D01*
G01X1110518Y3266821D02*
G01X1111187Y3242899D01*
G01X591282Y2981579D02*
G01X1110518Y2981579D01*
G36*
G01X599722Y3014604D02*
G01X599590Y2973944D01*
G01X553636Y2974396D01*
G01X554002Y3014604D01*
G01X599722Y3014604D01*
G37*
G36*
G01X598899Y3274441D02*
G01X598767Y3233781D01*
G01X552813Y3234233D01*
G01X553179Y3274441D01*
G01X598899Y3274441D01*
G37*
G54D17*
G01X1387798Y-2731201D02*
G01X1387798Y270805D01*
G01X2129000Y-78085D02*
G01X1862300Y-78085D01*
G01X1862300Y-78085D02*
G01X1862300Y36977D01*
G01X1862300Y36977D02*
G01X1862300Y188615D01*
G01X1862300Y188615D02*
G01X2129000Y188615D01*
G01X2129000Y-586085D02*
G01X1862300Y-586085D01*
G01X1862300Y-586085D02*
G01X1862300Y-471023D01*
G01X1862300Y-471023D02*
G01X1862300Y-319385D01*
G01X1862300Y-319385D02*
G01X2129000Y-319385D01*
G01X2129000Y-1094085D02*
G01X1862300Y-1094085D01*
G01X1862300Y-1094085D02*
G01X1862300Y-979023D01*
G01X1862300Y-979023D02*
G01X1862300Y-827385D01*
G01X1862300Y-827385D02*
G01X2129000Y-827385D01*
G01X2129000Y-1602085D02*
G01X1862300Y-1602085D01*
G01X1862300Y-1602085D02*
G01X1862300Y-1487023D01*
G01X1862300Y-1487023D02*
G01X1862300Y-1335385D01*
G01X1862300Y-1335385D02*
G01X2129000Y-1335385D01*
G01X2129000Y-2110085D02*
G01X1862300Y-2110085D01*
G01X1862300Y-2110085D02*
G01X1862300Y-1995023D01*
G01X1862300Y-1995023D02*
G01X1862300Y-1843385D01*
G01X1862300Y-1843385D02*
G01X2129000Y-1843385D01*
G01X2129000Y-2618085D02*
G01X1862300Y-2618085D01*
G01X1862300Y-2618085D02*
G01X1862300Y-2503023D01*
G01X1862300Y-2503023D02*
G01X1862300Y-2351385D01*
G01X1862300Y-2351385D02*
G01X2129000Y-2351385D01*
G01X2181797Y279400D02*
G01X1151801Y279400D01*
G01X2181797Y-2731201D02*
G01X2181797Y279400D01*
G01X1151801Y-2731201D02*
G01X1151801Y279400D01*
G01X1151801Y-2731201D02*
G01X2181797Y-2731201D01*
G01X1222568Y-2794000D02*
G01X1222568Y-2733998D01*
G01X1341476Y-2794000D02*
G01X1222568Y-2794000D01*
G01X1341476Y-2733998D02*
G01X1341476Y-2794000D01*
G01X2098998Y-2794000D02*
G01X1984568Y-2794000D01*
G01X1984568Y-2794000D02*
G01X1984568Y-2733998D01*
G01X2098998Y-2733998D02*
G01X2098998Y-2794000D01*
G01X1151801Y-2609167D02*
G01X1286198Y-2609167D01*
G01X1286198Y-2609167D02*
G01X1286198Y-2362200D01*
G01X1286198Y-2362200D02*
G01X1151801Y-2362200D01*
G01X1217092Y-2609167D02*
G01X1217092Y-2362200D01*
G01X1151801Y-2101200D02*
G01X1286198Y-2101200D01*
G01X1286198Y-2101200D02*
G01X1286198Y-1854230D01*
G01X1286198Y-1854230D02*
G01X1151801Y-1854230D01*
G01X1217092Y-2101200D02*
G01X1217092Y-1854230D01*
G01X1151801Y-2101200D02*
G01X1286198Y-2101200D01*
G01X1286198Y-1854230D02*
G01X1151801Y-1854230D01*
G01X1151801Y-1591203D02*
G01X1286198Y-1591203D01*
G01X1286198Y-1591203D02*
G01X1286198Y-1344234D01*
G01X1286198Y-1344234D02*
G01X1151801Y-1344234D01*
G01X1217092Y-1591196D02*
G01X1217092Y-1344234D01*
G01X1151801Y-1591196D02*
G01X1286198Y-1591196D01*
G01X1286198Y-1344234D02*
G01X1151801Y-1344234D01*
G01X1286198Y169738D02*
G01X1151801Y169738D01*
G01X1151801Y-77224D02*
G01X1286198Y-77224D01*
G01X1217092Y-77224D02*
G01X1217092Y169738D01*
G01X1151801Y-77236D02*
G01X1286198Y-77236D01*
G01X1286198Y-77236D02*
G01X1286198Y169738D01*
G01X1286198Y169738D02*
G01X1151801Y169738D01*
G01X1286198Y-340258D02*
G01X1151801Y-340258D01*
G01X1151801Y-587233D02*
G01X1286198Y-587233D01*
G01X1217092Y-587233D02*
G01X1217092Y-340258D01*
G01X1151801Y-587233D02*
G01X1286198Y-587233D01*
G01X1286198Y-587233D02*
G01X1286198Y-340258D01*
G01X1286198Y-340258D02*
G01X1151801Y-340258D01*
G01X1217092Y-1095195D02*
G01X1217092Y-848233D01*
G01X1151801Y-1095195D02*
G01X1286198Y-1095195D01*
G01X1286198Y-1095195D02*
G01X1286198Y-848233D01*
G01X1286198Y-848233D02*
G01X1151801Y-848233D01*
G36*
G01X1963900Y38100D02*
G01X1963900Y63500D01*
G01X2116300Y63500D01*
G01X2116300Y38100D01*
G01X1963900Y38100D01*
G37*
G36*
G01X1900400Y50800D02*
G01X1963900Y0D01*
G01X1963900Y101600D01*
G01X1900400Y50800D01*
G37*
G36*
G01X1963900Y-469900D02*
G01X1963900Y-444500D01*
G01X2116300Y-444500D01*
G01X2116300Y-469900D01*
G01X1963900Y-469900D01*
G37*
G36*
G01X1900400Y-457200D02*
G01X1963900Y-508000D01*
G01X1963900Y-406400D01*
G01X1900400Y-457200D01*
G37*
G36*
G01X1963900Y-977900D02*
G01X1963900Y-952500D01*
G01X2116300Y-952500D01*
G01X2116300Y-977900D01*
G01X1963900Y-977900D01*
G37*
G36*
G01X1900400Y-965200D02*
G01X1963900Y-1016000D01*
G01X1963900Y-914400D01*
G01X1900400Y-965200D01*
G37*
G36*
G01X1963900Y-1485900D02*
G01X1963900Y-1460500D01*
G01X2116300Y-1460500D01*
G01X2116300Y-1485900D01*
G01X1963900Y-1485900D01*
G37*
G36*
G01X1900400Y-1473200D02*
G01X1963900Y-1524000D01*
G01X1963900Y-1422400D01*
G01X1900400Y-1473200D01*
G37*
G36*
G01X1963900Y-1993900D02*
G01X1963900Y-1968500D01*
G01X2116300Y-1968500D01*
G01X2116300Y-1993900D01*
G01X1963900Y-1993900D01*
G37*
G36*
G01X1900400Y-1981200D02*
G01X1963900Y-2032000D01*
G01X1963900Y-1930400D01*
G01X1900400Y-1981200D01*
G37*
G36*
G01X1900400Y-2489200D02*
G01X1963900Y-2540000D01*
G01X1963900Y-2438400D01*
G01X1900400Y-2489200D01*
G37*
G36*
G01X1963900Y-2501900D02*
G01X1963900Y-2476500D01*
G01X2116300Y-2476500D01*
G01X2116300Y-2501900D01*
G01X1963900Y-2501900D01*
G37*
G54D11*
G01X-1940540Y111882D02*
G01X-1940540Y777118D01*
G01X-1940540Y777118D02*
G01X-1666260Y777118D01*
G01X-1666260Y777118D02*
G01X-1666260Y111882D01*
G01X-1666260Y111882D02*
G01X-1940540Y111882D01*
G01X-2035320Y900240D02*
G01X-1894319Y900240D01*
G01X-1894319Y1080961D02*
G01X-2035320Y1080961D01*
G01X-2050560Y1065721D02*
G01X-2050560Y915480D01*
G01X-1673080Y900240D02*
G01X-1814081Y900240D01*
G01X-1814081Y1080961D02*
G01X-1673080Y1080961D01*
G01X-1657840Y1065721D02*
G01X-1657840Y915480D01*
G01X-2035320Y1080961D02*
G03X-2050560Y1065721I0J-15240D01*
G01X-2050560Y915480D02*
G03X-2035320Y900240I15240J0D01*
G01X-1673080Y1080961D02*
G02X-1657840Y1065721I0J-15240D01*
G01X-1657840Y915480D02*
G02X-1673080Y900240I-15240J0D01*
G01X-2072640Y-194081D02*
G01X-1931640Y-194081D01*
G01X-1931640Y-13360D02*
G01X-2072640Y-13360D01*
G01X-2087880Y-28600D02*
G01X-2087880Y-178841D01*
G01X-1710400Y-194081D02*
G01X-1851401Y-194081D01*
G01X-1851401Y-13360D02*
G01X-1710400Y-13360D01*
G01X-1695160Y-28600D02*
G01X-1695160Y-178841D01*
G01X-2072640Y-13360D02*
G03X-2087880Y-28600I0J-15240D01*
G01X-2087880Y-178841D02*
G03X-2072640Y-194081I15240J0D01*
G01X-1710400Y-13360D02*
G02X-1695160Y-28600I0J-15240D01*
G01X-1695160Y-178841D02*
G02X-1710400Y-194081I-15240J0D01*
G01X53447Y3274267D02*
G01X53447Y3133267D01*
G01X234168Y3133267D02*
G01X234168Y3274267D01*
G01X218928Y3289507D02*
G01X68687Y3289507D01*
G01X53447Y2912027D02*
G01X53447Y3053028D01*
G01X234168Y3053028D02*
G01X234168Y2912027D01*
G01X218928Y2896787D02*
G01X68687Y2896787D01*
G01X234168Y3274267D02*
G03X218928Y3289507I-15240J0D01*
G01X68687Y3289507D02*
G03X53447Y3274267I0J-15240D01*
G01X234168Y2912027D02*
G02X218928Y2896787I-15240J0D01*
G01X68687Y2896787D02*
G02X53447Y2912027I0J15240D01*
G01X575831Y-2020022D02*
G01X447337Y-2020022D01*
G01X447337Y-2020022D02*
G01X447337Y-2203440D01*
G01X447337Y-2203440D02*
G01X575831Y-2203440D01*
G01X671071Y-2020022D02*
G01X799564Y-2020022D01*
G01X799564Y-2020022D02*
G01X799564Y-2203440D01*
G01X799564Y-2203440D02*
G01X671071Y-2203440D01*
G01X535507Y2626077D02*
G01X535507Y2754570D01*
G01X535507Y2754570D02*
G01X352088Y2754570D01*
G01X352088Y2754570D02*
G01X352088Y2626077D01*
G01X535507Y2530837D02*
G01X535507Y2402343D01*
G01X535507Y2402343D02*
G01X352088Y2402343D01*
G01X352088Y2402343D02*
G01X352088Y2530837D01*

G04 Rect Start*
G54D17*
G01X-1054100Y2993390D02*
G01X-1054100Y2942590D01*
G01X-1206500Y2942590D01*
G01X-1206500Y2993390D01*
G01X-1054100Y2993390D01*
G01X-1511300Y2993390D02*
G01X-1511300Y2942590D01*
G01X-1663700Y2942590D01*
G01X-1663700Y2993390D01*
G01X-1511300Y2993390D01*
G04 Rect End*

G04 Circle Start*
G54D13*
G01X649910Y-677799D02*
G03X664896Y-677799I7493J0D01*
G03X649910Y-677799I-7493J0D01*
G01X649910Y-1668407D02*
G03X664896Y-1668407I7493J0D01*
G03X649910Y-1668407I-7493J0D01*
G54D20*
G01X-53477Y1360590D02*
G03X-37475Y1360590I8001J0D01*
G03X-53477Y1360590I-8001J0D01*
G54D17*
G01X-437985Y-934885D02*
G03X-412991Y-934885I12497J0D01*
G03X-437985Y-934885I-12497J0D01*
G54D14*
G01X-18161Y2732227D02*
G03X11862Y2732227I15011J0D01*
G03X-18161Y2732227I-15011J0D01*
G54D21*
G01X-1828099Y-1384300D02*
G03X-1804101Y-1384300I11999J0D01*
G03X-1828099Y-1384300I-11999J0D01*
G01X1029401Y1892300D02*
G03X1053399Y1892300I11999J0D01*
G03X1029401Y1892300I-11999J0D01*
G04 Circle End*

M02*

