G04 Layer: TopLayer*
G04 EasyEDA Pro v2.2.40.8, 2025-08-17 12:16:25*
G04 Gerber Generator version 0.3*
G04 Scale: 100 percent, Rotated: No, Reflected: No*
G04 Dimensions in millimeters*
G04 Leading zeros omitted, absolute positions, 4 integers and 5 decimals*
G04 Generated by one-click*
%FSLAX45Y45*%
%MOMM*%
%AMOval*1,1,$1,$2,$3*1,1,$1,$4,$5*20,1,$1,$2,$3,$4,$5,0*%
%AMRect*21,1,$1,$2,0,0,$3*%
%ADD10C,0.6096*%
%ADD11O,0.36401X0.84699*%
%ADD12O,0.84699X0.36401*%
%ADD13R,3.25001X3.25001*%
%ADD14R,1.35001X1.41*%
%ADD15R,1.13254X1.37701*%
%ADD16R,1.41X1.35001*%
%ADD17R,1.5X1.9*%
%ADD18R,0.3X1.3*%
%ADD19R,0.6088X1.3*%
%ADD20R,0.6X1.3*%
%ADD21O,1.2X1.8*%
%ADD22O,1.2X2.2*%
%ADD23R,1.25001X1.0*%
%ADD24C,1.8*%
%ADD25R,1.8X1.8*%
%ADD26Oval,0.36401X-0.17076X-0.17076X0.17076X0.17076*%
%ADD27Oval,0.36401X0.17076X-0.17076X-0.17076X0.17076*%
%ADD28Rect,4.69999X4.69999X135.0*%
%ADD29O,0.3X1.3*%
%ADD30O,1.3X0.3*%
%ADD31R,5.19999X5.19999*%
%ADD32C,1.5*%
%ADD33R,4.94101X1.08374*%
%ADD34R,1.37701X1.13254*%
%ADD35R,0.80648X0.86401*%
%ADD36R,2.69999X1.635*%
%ADD37R,2.0X2.0*%
%ADD38R,1.25001X2.99999*%
%ADD39R,1.07201X0.532*%
%ADD40R,0.6X1.4*%
%ADD41C,2.1*%
%ADD42C,2.2*%
%ADD43R,2.47X3.59999*%
%ADD44R,2.47X0.98001*%
%ADD45C,0.61*%
%ADD46C,0.508*%
%ADD47C,0.5*%
%ADD48C,0.254*%
G75*


G04 Pad Start*
G54D10*
G01X-2171700Y939800D03*
G01X-2171700Y1117600D03*
G01X-2171700Y762000D03*
G01X-1460500Y1168400D03*
G01X-393934Y1892300D03*
G01X419100Y3111500D03*
G01X-1333500Y-1663700D03*
G01X-533400Y-2082800D03*
G01X-533400Y-1962977D03*
G01X-317500Y-1333500D03*
G01X-317500Y-1434236D03*
G01X-317500Y-1536700D03*
G01X-241300Y-1562100D03*
G01X-241300Y-1462100D03*
G01X-241300Y-1362100D03*
G01X-1333500Y-927100D03*
G01X406400Y-901700D03*
G01X368300Y317500D03*
G01X723900Y281091D03*
G01X812800Y520700D03*
G01X482600Y63500D03*
G01X-50800Y1854200D03*
G01X-76200Y1193800D03*
G01X533400Y1041400D03*
G01X863600Y1689100D03*
G54D11*
G01X657403Y-605460D03*
G01X722401Y-605460D03*
G01X787400Y-605460D03*
G01X852399Y-605460D03*
G01X917397Y-605460D03*
G54D12*
G01X1037260Y-485597D03*
G01X1037260Y-420599D03*
G01X1037260Y-355600D03*
G01X1037260Y-290601D03*
G01X1037260Y-225603D03*
G54D11*
G01X917397Y-105740D03*
G01X852399Y-105740D03*
G01X787400Y-105740D03*
G01X722401Y-105740D03*
G01X657403Y-105740D03*
G54D12*
G01X537540Y-225603D03*
G01X537540Y-290601D03*
G01X537540Y-355600D03*
G01X537540Y-420599D03*
G01X537540Y-485597D03*
G54D13*
G01X787400Y-355600D03*
G54D14*
G01X953651Y112369D03*
G01X953651Y312369D03*
G01X356751Y-493219D03*
G01X356751Y-293220D03*
G01X115931Y-493700D03*
G01X115931Y-293700D03*
G54D15*
G01X625051Y-778231D03*
G01X825051Y-778231D03*
G54D11*
G01X657403Y-1596068D03*
G01X722401Y-1596068D03*
G01X787400Y-1596068D03*
G01X852399Y-1596068D03*
G01X917397Y-1596068D03*
G54D12*
G01X1037260Y-1476206D03*
G01X1037260Y-1411207D03*
G01X1037260Y-1346208D03*
G01X1037260Y-1281210D03*
G01X1037260Y-1216211D03*
G54D11*
G01X917397Y-1096349D03*
G01X852399Y-1096349D03*
G01X787400Y-1096349D03*
G01X722401Y-1096349D03*
G01X657403Y-1096349D03*
G54D12*
G01X537540Y-1216211D03*
G01X537540Y-1281210D03*
G01X537540Y-1346208D03*
G01X537540Y-1411207D03*
G01X537540Y-1476206D03*
G54D13*
G01X787400Y-1346208D03*
G54D14*
G01X979051Y-2059331D03*
G01X979051Y-1859331D03*
G01X127000Y-1446200D03*
G01X127000Y-1246200D03*
G01X357630Y-1445719D03*
G01X357630Y-1245720D03*
G54D15*
G01X522300Y-1866900D03*
G01X722300Y-1866900D03*
G54D16*
G01X-1687500Y-1079500D03*
G01X-1487500Y-1079500D03*
G54D14*
G01X-101600Y-1446200D03*
G01X-101600Y-1246200D03*
G54D15*
G01X-2033600Y-2603500D03*
G01X-2233600Y-2603500D03*
G54D17*
G01X-1689100Y-3219399D03*
G01X-1689100Y-2419401D03*
G54D18*
G01X-1559306Y2687574D03*
G01X-1509293Y2687574D03*
G01X-1459306Y2687574D03*
G01X-1409294Y2687574D03*
G01X-1359306Y2687574D03*
G01X-1309294Y2687574D03*
G01X-1259307Y2687574D03*
G01X-1209294Y2687574D03*
G54D20*
G01X-1624305Y2687574D03*
G01X-1704289Y2687574D03*
G01X-1144295Y2687574D03*
G01X-1064311Y2687574D03*
G54D21*
G01X-1816303Y3179826D03*
G01X-952297Y3179826D03*
G54D22*
G01X-1816303Y2761818D03*
G01X-952297Y2761818D03*
G54D23*
G01X-2031990Y-1710202D03*
G01X-2031990Y-1490188D03*
G01X-2032010Y-817098D03*
G01X-2032010Y-1037112D03*
G54D24*
G01X685800Y-3162300D03*
G01X431800Y-3162300D03*
G01X685800Y-2908300D03*
G01X431800Y-2908300D03*
G01X685800Y-2654300D03*
G54D25*
G01X431800Y-2654300D03*
G54D26*
G01X5693Y1411759D03*
G01X51654Y1365798D03*
G01X97615Y1319837D03*
G01X143576Y1273876D03*
G01X189537Y1227915D03*
G01X235498Y1181954D03*
G01X281459Y1135993D03*
G54D27*
G01X429741Y1135993D03*
G01X475702Y1181954D03*
G01X521663Y1227915D03*
G01X567624Y1273876D03*
G01X613585Y1319837D03*
G01X659546Y1365798D03*
G01X705507Y1411759D03*
G54D26*
G01X705507Y1560041D03*
G01X659546Y1606002D03*
G01X613585Y1651963D03*
G01X567624Y1697924D03*
G01X521663Y1743885D03*
G01X475702Y1789846D03*
G01X429741Y1835807D03*
G54D27*
G01X281459Y1835807D03*
G01X235498Y1789846D03*
G01X189537Y1743885D03*
G01X143576Y1697924D03*
G01X97615Y1651963D03*
G01X51654Y1606002D03*
G01X5693Y1560041D03*
G54D28*
G01X355600Y1485900D03*
G54D16*
G01X820727Y1051340D03*
G01X1020726Y1051340D03*
G01X827100Y838200D03*
G01X1027100Y838200D03*
G54D29*
G01X-575500Y-1072401D03*
G01X-625488Y-1072401D03*
G01X-675500Y-1072401D03*
G01X-725487Y-1072401D03*
G01X-775500Y-1072401D03*
G01X-825487Y-1072401D03*
G01X-875500Y-1072401D03*
G01X-925487Y-1072401D03*
G01X-975500Y-1072401D03*
G01X-1025487Y-1072401D03*
G01X-1075499Y-1072401D03*
G54D30*
G01X-1175499Y-1172400D03*
G01X-1175499Y-1222388D03*
G01X-1175499Y-1272400D03*
G01X-1175499Y-1322387D03*
G01X-1175499Y-1372400D03*
G01X-1175499Y-1422387D03*
G01X-1175499Y-1472400D03*
G01X-1175499Y-1522387D03*
G01X-1175499Y-1572400D03*
G01X-1175499Y-1622387D03*
G01X-1175499Y-1672399D03*
G54D29*
G01X-1075499Y-1772399D03*
G01X-1025487Y-1772399D03*
G01X-975500Y-1772399D03*
G01X-925487Y-1772399D03*
G01X-875500Y-1772399D03*
G01X-825487Y-1772399D03*
G01X-775500Y-1772399D03*
G01X-725487Y-1772399D03*
G01X-675500Y-1772399D03*
G01X-625488Y-1772399D03*
G01X-575500Y-1772399D03*
G54D30*
G01X-475501Y-1672399D03*
G01X-475501Y-1622387D03*
G01X-475501Y-1572400D03*
G01X-475501Y-1522387D03*
G01X-475501Y-1472400D03*
G01X-475501Y-1422387D03*
G01X-475501Y-1372400D03*
G01X-475501Y-1322387D03*
G01X-475501Y-1272400D03*
G01X-475501Y-1222388D03*
G01X-475501Y-1172400D03*
G54D31*
G01X-825487Y-1422387D03*
G54D16*
G01X-912800Y-660400D03*
G01X-712800Y-660400D03*
G01X-1106500Y-2032000D03*
G01X-1306500Y-2032000D03*
G54D32*
G01X-228600Y-2463800D03*
G01X-482600Y-2463800D03*
G01X-736600Y-2463800D03*
G01X-990600Y-2463800D03*
G01X-990600Y-3225800D03*
G01X-736600Y-3225800D03*
G01X-482600Y-3225800D03*
G01X-228600Y-3225800D03*
G54D33*
G01X-1981200Y1438605D03*
G01X-1981200Y1964995D03*
G54D34*
G01X-1470981Y1837506D03*
G01X-1470981Y2037505D03*
G01X-1206500Y1843100D03*
G01X-1206500Y2043100D03*
G54D14*
G01X-2222500Y2462200D03*
G01X-2222500Y2262200D03*
G54D35*
G01X-1231036Y2501900D03*
G01X-1080364Y2501900D03*
G01X-1279618Y2315305D03*
G01X-1128945Y2315305D03*
G54D16*
G01X695713Y2243220D03*
G01X895712Y2243220D03*
G54D14*
G01X977900Y2678100D03*
G01X977900Y2478100D03*
G01X704470Y2685147D03*
G01X704470Y2485147D03*
G54D36*
G01X-271818Y2724187D03*
G01X-271818Y2420708D03*
G54D37*
G01X-677200Y1439092D03*
G01X-677200Y1879096D03*
G01X-1015992Y1442703D03*
G01X-1455997Y1442703D03*
G54D38*
G01X-382275Y3106896D03*
G01X-157282Y3106896D03*
G54D34*
G01X-2032000Y-2284400D03*
G01X-2032000Y-2084400D03*
G01X-2032000Y-357200D03*
G01X-2032000Y-557200D03*
G54D15*
G01X-1786881Y2429605D03*
G01X-1586882Y2429605D03*
G54D34*
G01X-708981Y3202705D03*
G01X-708981Y3002705D03*
G54D15*
G01X52400Y850900D03*
G01X252400Y850900D03*
G01X430200Y2247900D03*
G01X230200Y2247900D03*
G54D34*
G01X-596900Y2360600D03*
G01X-596900Y2160600D03*
G54D15*
G01X-214300Y2133600D03*
G01X-14300Y2133600D03*
G54D39*
G01X12090Y2660396D03*
G01X12090Y2565400D03*
G01X12090Y2470404D03*
G01X241910Y2470404D03*
G01X241910Y2565400D03*
G01X241910Y2660396D03*
G54D40*
G01X-1720088Y-1384300D03*
G01X-1600200Y-1384300D03*
G01X-1480312Y-1384300D03*
G01X945388Y1892300D03*
G01X825500Y1892300D03*
G01X705612Y1892300D03*
G54D41*
G01X1631539Y1078802D03*
G01X1631539Y1578801D03*
G01X1631539Y2078800D03*
G01X1631539Y2578799D03*
G54D37*
G01X630895Y3124203D03*
G01X1070900Y3124203D03*
G54D42*
G01X1701800Y-2469197D03*
G01X1701800Y-1969198D03*
G01X1701800Y-1469199D03*
G01X1701800Y-969200D03*
G01X1701800Y-469201D03*
G01X1701800Y30798D03*
G54D43*
G01X-2086889Y444500D03*
G54D44*
G01X-1519911Y674497D03*
G01X-1519911Y444500D03*
G01X-1519911Y214503D03*
G54D16*
G01X-1954200Y990600D03*
G01X-1754200Y990600D03*
G01X-1991520Y-103721D03*
G01X-1791520Y-103721D03*
G54D14*
G01X143807Y3193147D03*
G01X143807Y2993147D03*
G54D15*
G01X523451Y-2111731D03*
G01X723451Y-2111731D03*
G54D34*
G01X443798Y2678457D03*
G01X443798Y2478457D03*
G01X-1537701Y-1865729D03*
G01X-1537701Y-2065728D03*
G01X-1752600Y-1868500D03*
G01X-1752600Y-2068500D03*
G01X-1346200Y-2363800D03*
G01X-1346200Y-2563800D03*
G04 Pad End*

G04 Via Start*
G54D45*
G01X-1181100Y2882900D03*
G01X-1549400Y2882900D03*
G01X101600Y1130300D03*
G01X749300Y1689100D03*
G01X596900Y1816100D03*
G01X-990600Y1879600D03*
G01X673100Y-977900D03*
G01X596900Y63500D03*
G01X1041400Y-990600D03*
G01X1028700Y-76200D03*
G01X876300Y-977900D03*
G01X723900Y127000D03*
G01X-76200Y-1765300D03*
G01X355600Y-1765300D03*
G01X558800Y736600D03*
G01X-330200Y-1168400D03*
G01X-469900Y-838200D03*
G01X-982299Y-804499D03*
G01X1054100Y2184400D03*
G01X-1570711Y850900D03*
G01X-1206500Y-1041400D03*
G01X-1320800Y-800100D03*
G01X-203200Y1574800D03*
G01X-1143000Y-838200D03*
G01X-279400Y1460500D03*
G01X-1676400Y-1574800D03*
G01X495300Y-1104900D03*
G01X-1524000Y-1605300D03*
G01X304800Y254000D03*
G01X-76200Y1308100D03*
G01X-1066800Y-2197100D03*
G01X-1879600Y-2425700D03*
G01X-1752600Y-863600D03*
G01X-736600Y876300D03*
G01X508000Y863600D03*
G01X-1765300Y2159000D03*
G01X330200Y-2298700D03*
G01X-1435100Y-1714500D03*
G54D10*
G01X837413Y-405613D03*
G01X837413Y-305613D03*
G01X737400Y-305600D03*
G01X737400Y-405600D03*
G01X837413Y-1396221D03*
G01X837413Y-1296221D03*
G01X737400Y-1296208D03*
G01X737400Y-1396208D03*
G01X440453Y1485900D03*
G01X270747Y1485900D03*
G01X355600Y1570753D03*
G01X355600Y1401047D03*
G04 Via End*

G04 Track Start*
G54D46*
G01X444155Y2678100D02*
G01X443798Y2678457D01*
G01X241910Y2565400D02*
G01X330741Y2565400D01*
G01X443798Y2678457D01*
G01X1219200Y2349500D02*
G01X2019300Y2349500D01*
G01X2082800Y2286000D01*
G01X2082800Y1193800D01*
G01X1943100Y1054100D01*
G01X1656240Y1054100D01*
G01X1631539Y1078802D01*
G54D47*
G01X977900Y2478100D02*
G01X711518Y2478100D01*
G01X704470Y2485147D01*
G01X977900Y2478100D02*
G01X1090600Y2478100D01*
G01X1219200Y2349500D01*
G54D46*
G01X698500Y2235200D02*
G01X698500Y2479177D01*
G01X704470Y2485147D01*
G54D48*
G01X430200Y2273300D02*
G01X443798Y2286898D01*
G01X443798Y2478457D01*
G01X241910Y2470404D02*
G01X435745Y2470404D01*
G01X443798Y2478457D01*
G54D47*
G01X143807Y2993147D02*
G01X143807Y2912407D01*
G01X12700Y2781300D01*
G01X12700Y2661006D01*
G01X12090Y2660396D01*
G01X143807Y3193147D02*
G01X235853Y3193147D01*
G01X279400Y3149600D01*
G01X279400Y2774486D01*
G01X241910Y2736996D01*
G01X241910Y2660396D01*
G01X143807Y3193147D02*
G01X-71031Y3193147D01*
G01X-157282Y3106896D01*
G01X-382275Y3106896D02*
G01X-382275Y2834644D01*
G01X12090Y2565400D02*
G01X-127126Y2565400D01*
G01X-271818Y2420708D01*
G01X12090Y2470404D02*
G01X-50800Y2407514D01*
G01X-50800Y2311400D01*
G01X-214300Y2147900D01*
G01X-214300Y2133600D01*
G01X-241300Y2160600D01*
G01X-596900Y2160600D01*
G01X-596900Y2641600D02*
G01X-508000Y2730500D01*
G01X-278131Y2730500D01*
G01X-271818Y2724187D01*
G01X-382275Y2834644D02*
G01X-278131Y2730500D01*
G01X630895Y3124203D02*
G01X630895Y2758722D01*
G01X704470Y2685147D01*
G01X1070900Y3124203D02*
G01X1562097Y3124203D01*
G01X1638300Y3048000D01*
G01X1638300Y2585560D01*
G01X1631539Y2578799D01*
G01X-596900Y2360600D02*
G01X-596900Y2641600D01*
G54D48*
G01X-1309294Y2687574D02*
G01X-1309294Y2580157D01*
G01X-1231036Y2501900D01*
G01X-1359306Y2397870D02*
G01X-1279618Y2318182D01*
G01X-1279618Y2315305D01*
G54D47*
G01X-1064311Y2687574D02*
G01X-1064311Y2517953D01*
G01X-1080364Y2501900D01*
G01X-1080364Y2363887D01*
G01X-1128945Y2315305D01*
G01X-1064311Y2687574D02*
G01X-1026541Y2687574D01*
G01X-952297Y2761818D01*
G01X-899069Y2761818D01*
G01X-952297Y3179826D02*
G01X-952297Y2761818D01*
G01X-1816303Y3179826D02*
G01X-1816303Y2761818D01*
G01X-1742059Y2687574D01*
G01X-1704289Y2687574D01*
G01X2019300Y2349500D02*
G01X2019300Y2781300D01*
G01X1968500Y2832100D01*
G01X1828800Y2832100D01*
G01X1752600Y2908300D01*
G01X1752600Y3225800D01*
G01X1638300Y3340100D01*
G54D48*
G01X-1309294Y2687574D02*
G01X-1309294Y2795194D01*
G01X-1320800Y2806700D01*
G01X-1384300Y2806700D01*
G01X-1409700Y2781300D01*
G01X-1409700Y2687980D01*
G01X-1409294Y2687574D01*
G01X-1144295Y2687574D02*
G01X-1144295Y2744495D01*
G01X-1193800Y2794000D01*
G01X-1193800Y2870200D01*
G01X-1181100Y2882900D01*
G01X-1624305Y2687574D02*
G01X-1624305Y2744495D01*
G01X-1549400Y2819400D02*
G01X-1549400Y2882900D01*
G01X-1624305Y2744495D02*
G01X-1549400Y2819400D01*
G01X-1459306Y2687574D02*
G01X-1459306Y2589606D01*
G01X-1447800Y2578100D01*
G01X-1359514Y2578100D01*
G01X-1359306Y2578308D01*
G01X-1359306Y2687574D02*
G01X-1359306Y2578308D01*
G01X-1359306Y2397870D01*
G01X-1559306Y2687574D02*
G01X-1559306Y2466594D01*
G01X659546Y1365798D02*
G01X720218Y1305126D01*
G01X1190826Y1305126D01*
G01X1244600Y1358900D02*
G01X1244600Y1524000D01*
G01X1299401Y1578801D01*
G01X1631539Y1578801D01*
G01X1190826Y1305126D02*
G01X1244600Y1358900D01*
G01X613585Y1319837D02*
G01X688822Y1244600D01*
G01X1816100Y1244600D02*
G01X1892300Y1320800D01*
G01X1892300Y2006600D01*
G01X1803400Y2095500D01*
G01X1648239Y2095500D01*
G01X1631539Y2078800D01*
G01X688822Y1244600D02*
G01X1816100Y1244600D01*
G01X705507Y1560041D02*
G01X631366Y1485900D01*
G01X440453Y1485900D01*
G01X355600Y1485900D01*
G01X567624Y1697924D02*
G01X355600Y1485900D01*
G01X281459Y1835807D02*
G01X355600Y1761666D01*
G01X355600Y1570753D01*
G01X355600Y1485900D01*
G01X475702Y1789846D02*
G01X578156Y1892300D01*
G01X705612Y1892300D01*
G01X429741Y1835807D02*
G01X613234Y2019300D01*
G01X914400Y2019300D01*
G01X945388Y1988312D01*
G01X945388Y1892300D01*
G01X567624Y1273876D02*
G01X609600Y1231900D01*
G01X609600Y1130300D01*
G01X38100Y1270000D02*
G01X87937Y1319837D01*
G01X97615Y1319837D01*
G01X820727Y1051340D02*
G01X741767Y1130300D01*
G01X609600Y1130300D01*
G01X827100Y838200D02*
G01X827100Y1044967D01*
G01X820727Y1051340D01*
G01X1020726Y1051340D02*
G01X1027100Y1044967D01*
G01X1027100Y838200D01*
G01X1631539Y1078802D02*
G01X1604077Y1051340D01*
G01X1020726Y1051340D01*
G01X1001241Y1560041D02*
G01X705507Y1560041D01*
G01X1219200Y2349500D02*
G01X1219200Y1778000D01*
G01X1001241Y1560041D01*
G01X252400Y850900D02*
G01X252400Y950900D01*
G01X273050Y971550D01*
G01X51654Y1365798D02*
G01X-12700Y1301444D01*
G01X-12700Y916000D01*
G01X52400Y850900D01*
G01X825500Y1892300D02*
G01X825500Y1790700D01*
G01X635000Y1765300D02*
G01X567624Y1697924D01*
G01X825500Y1790700D02*
G01X800100Y1765300D01*
G01X635000Y1765300D01*
G01X749300Y1689100D02*
G01X666202Y1606002D01*
G01X659546Y1606002D01*
G54D47*
G01X521663Y1743885D02*
G01X593878Y1816100D01*
G01X596900Y1816100D01*
G54D48*
G01X917397Y-1596068D02*
G01X917397Y-1660703D01*
G01X850900Y-1727200D01*
G01X850900Y-2032000D01*
G01X878231Y-2059331D02*
G01X979051Y-2059331D01*
G01X850900Y-2032000D02*
G01X878231Y-2059331D01*
G01X1037260Y-1476206D02*
G01X917397Y-1476206D01*
G01X837413Y-1396221D01*
G01X787400Y-1346208D01*
G01X1037260Y-1411207D02*
G01X1106407Y-1411207D01*
G01X1117600Y-1422400D01*
G01X1117600Y-1562100D01*
G01X1079500Y-1600200D01*
G01X965129Y-1600200D01*
G01X960998Y-1596068D01*
G01X917397Y-1596068D01*
G01X979051Y-1859331D02*
G01X979051Y-1856331D01*
G01X1193800Y-1641582D01*
G01X1193800Y-1371600D01*
G01X1168408Y-1346208D01*
G01X1037260Y-1346208D01*
G01X1037260Y-1281210D02*
G01X1037260Y-1346208D01*
G01X1701800Y-969200D02*
G01X1324792Y-1346208D01*
G01X1168408Y-1346208D01*
G01X1701800Y-1469199D02*
G01X1299401Y-1469199D01*
G01X1257300Y-1511300D01*
G01X1257300Y-2032000D01*
G01X1229969Y-2059331D01*
G01X979051Y-2059331D01*
G01X787400Y-1596068D02*
G01X852399Y-1596068D01*
G01X787400Y-1596068D02*
G01X787400Y-1801800D01*
G01X722300Y-1866900D01*
G01X522300Y-1866900D02*
G01X522300Y-1755320D01*
G01X657403Y-1620217D01*
G01X657403Y-1596068D01*
G01X722401Y-1596068D02*
G01X657403Y-1596068D01*
G01X1037260Y-1216211D02*
G01X917397Y-1216211D01*
G01X837400Y-1296208D01*
G01X787400Y-1346208D01*
G01X657403Y-1096349D02*
G01X657403Y-1216211D01*
G01X737400Y-1296208D02*
G01X787400Y-1346208D01*
G01X657403Y-1216211D02*
G01X537540Y-1216211D01*
G01X537540Y-1411207D02*
G01X537540Y-1476206D01*
G01X156989Y-1216211D02*
G01X127000Y-1246200D01*
G01X355134Y-1446200D02*
G01X127000Y-1446200D01*
G01X537540Y-1476205D02*
G01X385140Y-1476206D01*
G54D47*
G01X1943100Y1054100D02*
G01X2082800Y914400D01*
G01X1713802Y-1981200D02*
G01X1701800Y-1969198D01*
G54D48*
G01X1653197Y-420599D02*
G01X1701800Y-469201D01*
G01X1037260Y-290601D02*
G01X1601699Y-290601D01*
G01X1701800Y-190500D01*
G01X1701800Y30798D01*
G01X1037260Y-290601D02*
G01X1037260Y-355600D01*
G01X1037260Y-485597D02*
G01X917397Y-485597D01*
G01X837413Y-405613D01*
G01X787400Y-355600D01*
G01X917397Y-605460D02*
G01X1096340Y-605460D01*
G01X1135179Y-566621D02*
G01X1135179Y-420599D01*
G01X1037260Y-420599D02*
G01X1135179Y-420599D01*
G01X1653197Y-420599D01*
G01X1096340Y-605460D02*
G01X1135179Y-566621D01*
G01X953651Y112369D02*
G01X1620228Y112369D01*
G01X1701800Y30798D01*
G01X953651Y312369D02*
G01X1770431Y312369D01*
G01X1917700Y165100D01*
G01X1917700Y-381000D01*
G01X1829499Y-469201D02*
G01X1701800Y-469201D01*
G01X1917700Y-381000D02*
G01X1829499Y-469201D01*
G01X1037260Y-225603D02*
G01X917397Y-225603D01*
G01X837400Y-305600D01*
G01X787400Y-355600D01*
G01X537540Y-225603D02*
G01X657403Y-225603D01*
G01X737400Y-305600D02*
G01X787400Y-355600D01*
G01X657403Y-225603D02*
G01X657403Y-105740D01*
G01X852399Y-605460D02*
G01X852399Y-750883D01*
G01X825051Y-778231D01*
G01X787400Y-605460D02*
G01X852399Y-605460D01*
G01X657403Y-605460D02*
G01X657403Y-745879D01*
G01X625051Y-778231D01*
G01X722401Y-605460D02*
G01X657403Y-605460D01*
G01X184029Y-225603D02*
G01X115931Y-293700D01*
G01X124034Y-485597D02*
G01X115931Y-493700D01*
G01X537540Y-420599D02*
G01X537540Y-485597D01*
G01X722401Y-1096349D02*
G01X722401Y-1027201D01*
G01X673100Y-977900D01*
G01X1028700Y-76200D02*
G01X946937Y-76200D01*
G01X917397Y-105740D01*
G01X852399Y-1096349D02*
G01X852399Y-1001801D01*
G01X876300Y-977900D01*
G01X357630Y-1448695D02*
G01X357630Y-1445719D01*
G01X385140Y-1476206D02*
G01X357630Y-1448695D01*
G01X355134Y-1446200D01*
G01X723451Y-2111731D02*
G01X723451Y-2247451D01*
G01X774700Y-2298700D01*
G01X1651000Y-2298700D01*
G01X1701800Y-2349500D01*
G01X1701800Y-2469197D01*
G54D47*
G01X-63500Y-3390900D02*
G01X-228600Y-3225800D01*
G01X-482600Y-3225800D01*
G01X-736600Y-3225800D01*
G01X-2195500Y-2284400D02*
G01X-2197100Y-2286000D01*
G01X-2195500Y-417500D02*
G01X-2120900Y-342900D01*
G01X-2008200Y-342900D01*
G01X-1993900Y-357200D01*
G54D48*
G01X-875500Y-1772399D02*
G01X-875500Y-2348700D01*
G01X-990600Y-2463800D01*
G01X-825487Y-1772399D02*
G01X-825487Y-2374913D01*
G01X-736600Y-2463800D01*
G01X-775500Y-1772399D02*
G01X-775500Y-2170900D01*
G01X-482600Y-2463800D01*
G01X-725487Y-1772399D02*
G01X-725487Y-2093912D01*
G01X-584200Y-2235200D01*
G01X-292100Y-2235200D01*
G01X-228600Y-2298700D01*
G01X-228600Y-2463800D01*
G01X-1075499Y-1772399D02*
G01X-1075499Y-1672399D01*
G01X-825487Y-1422387D01*
G01X-1319200Y-2032000D02*
G01X-1319200Y-1873519D01*
G01X-1079980Y-1767919D02*
G01X-1075499Y-1772399D01*
G01X-475501Y-1622387D02*
G01X-625488Y-1622387D01*
G01X-825487Y-1422387D01*
G01X-475501Y-1222388D02*
G01X-625488Y-1222388D01*
G01X-775500Y-1372400D02*
G01X-775500Y-1072401D01*
G01X-625488Y-1222388D02*
G01X-775500Y-1372400D01*
G01X-1175499Y-1322387D02*
G01X-925487Y-1322387D01*
G01X-825487Y-1422387D01*
G01X-475501Y-1272400D02*
G01X-127800Y-1272400D01*
G01X-101600Y-1246200D01*
G01X-101600Y-1446200D02*
G01X-73000Y-1446200D01*
G01X127000Y-1246200D01*
G54D47*
G01X117857Y-3390900D02*
G01X117857Y-1730757D01*
G01X0Y-1612900D01*
G01X-113139Y-1612900D01*
G01X679483Y-3390900D02*
G01X117857Y-3390900D01*
G01X-63500Y-3390900D01*
G54D48*
G01X-101600Y-1600200D02*
G01X-101600Y-1446200D01*
G01X-575500Y-1772399D02*
G01X-575500Y-1672374D01*
G01X-625488Y-1622387D01*
G54D47*
G01X-1130300Y-2654300D02*
G01X-165100Y-2654300D01*
G01X-76200Y-2565400D01*
G01X-76200Y-1765300D01*
G01X-139700Y-1701800D02*
G01X-76200Y-1765300D01*
G54D48*
G01X-475501Y-1672399D02*
G01X-169100Y-1672399D01*
G01X-139700Y-1701800D01*
G01X357630Y-1766423D02*
G01X357630Y-1448695D01*
G01X-1175499Y-1372400D02*
G01X-1468412Y-1372400D01*
G01X-1480312Y-1384300D01*
G01X-1175499Y-1322387D02*
G01X-1344612Y-1322387D01*
G01X-1384300Y-1282700D01*
G01X-1587500Y-1282700D01*
G01X-1605461Y-1300661D01*
G01X-1605461Y-1379039D01*
G01X-1600200Y-1384300D01*
G01X-1175499Y-1272400D02*
G01X-1331100Y-1272400D01*
G01X-1487500Y-1116000D02*
G01X-1487500Y-1079500D01*
G01X-1331100Y-1272400D02*
G01X-1487500Y-1116000D01*
G01X-1687500Y-1079500D02*
G01X-1605461Y-1161539D01*
G01X-1605461Y-1300661D01*
G01X-1487500Y-1079500D02*
G01X-1487500Y-989000D01*
G01X-1536700Y-939800D01*
G01X-1854200Y-1143000D02*
G01X-1906841Y-1195641D01*
G01X-2195500Y-1195641D01*
G54D47*
G01X-2195500Y-2284400D02*
G01X-2195500Y-1195641D01*
G01X-2195500Y-417500D01*
G54D48*
G01X-825487Y-1072401D02*
G01X-825487Y-747712D01*
G01X-912800Y-660400D01*
G01X-775500Y-1072401D02*
G01X-775500Y-816000D01*
G01X-712800Y-753300D01*
G01X-712800Y-660400D01*
G01X723900Y508000D02*
G01X660400Y571500D01*
G01X-12700Y571500D01*
G01X812800Y520700D02*
G01X698500Y635000D01*
G01X35078Y1714500D02*
G01X97615Y1651963D01*
G01X-6044Y1663700D02*
G01X51654Y1606002D01*
G01X-63500Y1574800D02*
G01X-9066Y1574800D01*
G01X5693Y1560041D01*
G01X698500Y635000D02*
G01X0Y635000D01*
G01X406400Y698500D02*
G01X12700Y698500D01*
G01X-239700Y-493700D02*
G01X115931Y-493700D01*
G01X156276Y1697924D02*
G01X88900Y1765300D01*
G01X-279400Y-533400D02*
G01X-239700Y-493700D01*
G01X-625488Y-1072401D02*
G01X-625488Y-982001D01*
G01X895712Y2243220D02*
G01X995280Y2243220D01*
G01X1054100Y2184400D01*
G54D47*
G01X-736600Y-3225800D02*
G01X-990600Y-3225800D01*
G01X-1519911Y444500D02*
G01X-2086889Y444500D01*
G01X-1991520Y349131D01*
G01X-1978820Y-342120D02*
G01X-1993900Y-357200D01*
G01X-1791520Y-103721D02*
G01X-1791520Y138880D01*
G01X-1727200Y203200D01*
G01X-1531214Y203200D01*
G01X-1519911Y214503D01*
G54D48*
G01X-1954200Y990600D02*
G01X-1954200Y811200D01*
G01X-1817497Y674497D01*
G01X-1519911Y674497D01*
G01X-1206500Y-1041400D02*
G01X-1146900Y-1041400D01*
G01X-1115899Y-1072401D01*
G01X-1075499Y-1072401D01*
G01X-165100Y1714500D02*
G01X35078Y1714500D01*
G01X-1025487Y-1072401D02*
G01X-1025487Y-1006513D01*
G01X508000Y-914400D02*
G01X723900Y-914400D01*
G01X787400Y-977900D01*
G01X787400Y-1096349D01*
G01X596900Y63500D02*
G01X722401Y-62001D01*
G01X722401Y-105740D01*
G01X787400Y-105740D02*
G01X787400Y-50346D01*
G01X660400Y76654D02*
G01X660400Y114300D01*
G01X787400Y-50346D02*
G01X660400Y76654D01*
G01X723900Y127000D02*
G01X723900Y76200D01*
G01X852399Y-52299D01*
G01X852399Y-105740D01*
G01X917397Y-105740D02*
G01X917397Y-53797D01*
G01X812800Y50800D01*
G01X812800Y520700D01*
G01X558800Y736600D02*
G01X444500Y736600D01*
G01X406400Y698500D01*
G01X0Y635000D02*
G01X-203200Y838200D01*
G01X-279400Y1460500D02*
G01X-279400Y1600200D01*
G01X-165100Y1714500D01*
G01X-12700Y571500D02*
G01X-279400Y838200D01*
G01X-279400Y1460500D01*
G01X-203200Y838200D02*
G01X-203200Y1574800D01*
G01X-114300Y1663700D01*
G01X-6044Y1663700D01*
G01X12700Y698500D02*
G01X-139700Y850900D01*
G01X-139700Y1498600D01*
G01X-63500Y1574800D01*
G01X5693Y1411759D02*
G01X-76200Y1329866D01*
G01X-76200Y1308100D01*
G01X508000Y863600D02*
G01X265100Y863600D01*
G01X252400Y850900D01*
G54D46*
G01X230200Y2144700D02*
G01X330200Y2044700D01*
G01X508000Y2044700D01*
G01X698500Y2235200D01*
G54D47*
G01X-14300Y2133600D02*
G01X61900Y2057400D01*
G01X142900Y2057400D01*
G01X230200Y2144700D01*
G54D48*
G01X-190500Y1765300D02*
G01X-355600Y1600200D01*
G01X-355600Y-865200D01*
G01X-562800Y-1072401D01*
G01X-596900Y1092200D02*
G01X-482600Y977900D01*
G01X-482600Y-660400D01*
G54D47*
G01X-596900Y2360600D02*
G01X-801700Y2360600D01*
G01X-863600Y2298700D01*
G01X-863600Y1892300D01*
G01X-828245Y1856945D01*
G01X-699351Y1856945D01*
G01X-677200Y1879096D01*
G01X-990600Y1879600D02*
G01X-990600Y1443485D01*
G01X-986206Y1439092D01*
G01X-677200Y1439092D01*
G54D48*
G01X-1596295Y2429605D02*
G01X-1586882Y2429605D01*
G01X-1559306Y2466594D02*
G01X-1596295Y2429605D01*
G01X-1206500Y1843100D02*
G01X-1206500Y1209551D01*
G01X-1470981Y1837506D02*
G01X-1282700Y1649225D01*
G01X-1282700Y1117600D01*
G01X-1257300Y1092200D01*
G01X-596900Y1092200D01*
G01X-1206500Y1209551D02*
G01X-1152649Y1155700D01*
G01X-571500Y1155700D01*
G01X-419100Y1003300D01*
G54D47*
G01X-2133600Y1964995D02*
G01X-2133600Y2173300D01*
G01X-2222500Y2262200D01*
G01X-1765300Y2159000D02*
G01X-1959305Y1964995D01*
G01X-2133600Y1964995D01*
G01X-1981200Y1438605D02*
G01X-1460095Y1438605D01*
G01X-1455997Y1442703D01*
G54D48*
G01X-1455997Y1442703D02*
G01X-1455997Y1176597D01*
G01X-1295400Y1016000D01*
G01X-647700Y1016000D01*
G01X-546100Y914400D01*
G01X-546100Y-431800D01*
G01X-596900Y-482600D01*
G01X-1028700Y-482600D01*
G01X-1092200Y-546100D01*
G54D47*
G01X-1398397Y214503D02*
G01X-1519911Y214503D01*
G01X-1754200Y990600D02*
G01X-1460500Y990600D01*
G01X-1346200Y266700D02*
G01X-1398397Y214503D01*
G01X-1346200Y876300D02*
G01X-1346200Y266700D01*
G01X-1460500Y990600D02*
G01X-1346200Y876300D01*
G01X-1130300Y-2971800D02*
G01X-1130300Y-2654300D01*
G01X-1181100Y-3022600D02*
G01X-1130300Y-2971800D01*
G54D48*
G01X-1536700Y-939800D02*
G01X-1803400Y-939800D01*
G01X-1854200Y-990600D01*
G01X-1854200Y-1143000D01*
G54D47*
G01X-1991520Y-55301D02*
G01X-1993900Y-306400D01*
G01X-1993900Y-357200D02*
G01X-1993900Y-306400D01*
G01X-899069Y2761818D02*
G01X-708981Y2951905D01*
G01X-708981Y3002705D01*
G01X1638300Y3340100D02*
G01X-482600Y3340100D01*
G01X-533400Y3289300D01*
G01X-533400Y3086100D01*
G01X-616795Y3002705D01*
G01X-708981Y3002705D01*
G54D48*
G01X-696281Y3240805D02*
G01X-696281Y3312481D01*
G01X-721681Y3337881D01*
G01X-658180Y3202706D02*
G01X-696281Y3240805D01*
G01X-721681Y3337881D02*
G01X-1233907Y3337881D01*
G01X-1259307Y3312481D01*
G01X-1259307Y2687574D01*
G54D47*
G01X-1704289Y2687574D02*
G01X-1704289Y2512197D01*
G01X-1786881Y2429605D01*
G01X-2222500Y2462200D02*
G01X-1819476Y2462200D01*
G01X-1786881Y2429605D01*
G54D48*
G01X-1470981Y2037505D02*
G01X-1470981Y2121065D01*
G01X-1279618Y2312429D01*
G01X-1279618Y2315305D01*
G01X-1231036Y2501900D02*
G01X-1206500Y2477364D01*
G01X-1206500Y2043100D01*
G54D47*
G01X-1754200Y990600D02*
G01X-1754200Y1157300D01*
G01X-1828800Y1231900D01*
G01X-2286000Y1231900D02*
G01X-2362200Y1308100D01*
G01X-2362200Y2400300D01*
G01X-2300300Y2462200D01*
G01X-2222500Y2462200D01*
G01X-1991520Y349131D02*
G01X-1991520Y-55301D01*
G01X-1991520Y-103721D01*
G54D48*
G01X-2005000Y939800D02*
G01X-1954200Y990600D01*
G54D47*
G01X-1828800Y1231900D02*
G01X-2194900Y1231900D01*
G01X-2286000Y1231900D01*
G54D48*
G01X-393934Y1892300D02*
G01X-663995Y1892300D01*
G01X-677200Y1879096D01*
G01X419100Y3111500D02*
G01X618193Y3111500D01*
G01X630895Y3124203D01*
G54D46*
G01X977900Y2678100D02*
G01X444155Y2678100D01*
G54D48*
G01X-1066800Y-2197100D02*
G01X-975500Y-2105800D01*
G01X-975500Y-1772399D01*
G01X-1175499Y-1622387D02*
G01X-1279487Y-1622387D01*
G01X-1320800Y-1663700D01*
G01X-675500Y-1772399D02*
G01X-675500Y-2019300D01*
G01X-612000Y-2082800D01*
G01X-533400Y-2082800D01*
G01X-625488Y-1927212D02*
G01X-584200Y-1968500D01*
G01X-538923Y-1968500D01*
G01X-533400Y-1962977D01*
G01X-625488Y-1772399D02*
G01X-625488Y-1927212D01*
G01X-475501Y-1322387D02*
G01X-328612Y-1322387D01*
G01X-317500Y-1333500D01*
G01X-475501Y-1422387D02*
G01X-329349Y-1422387D01*
G01X-317500Y-1434236D01*
G01X-475501Y-1522387D02*
G01X-331813Y-1522387D01*
G01X-317500Y-1536700D01*
G01X-475501Y-1472400D02*
G01X-369100Y-1472400D01*
G01X-355600Y-1485900D01*
G01X-265100Y-1485900D01*
G01X-241300Y-1462100D01*
G01X-475501Y-1372400D02*
G01X-367500Y-1372400D01*
G01X-355600Y-1384300D01*
G01X-263500Y-1384300D01*
G01X-241300Y-1362100D01*
G01X-1317612Y-1222388D02*
G01X-1175499Y-1222388D01*
G01X-1319200Y-1873519D02*
G01X-1213599Y-1767919D01*
G01X-1079980Y-1767919D01*
G54D47*
G01X12090Y2565400D02*
G01X101600Y2565400D01*
G01X127000Y2540000D01*
G54D46*
G01X242900Y2273300D02*
G01X242900Y2157400D01*
G01X230200Y2144700D01*
G54D48*
G01X-975500Y-1072401D02*
G01X-975500Y-993000D01*
G01X-475501Y-1622387D02*
G01X-396913Y-1622387D01*
G01X-389801Y-1629499D01*
G01X-130899Y-1629499D01*
G01X-273100Y-1593900D02*
G01X-241300Y-1562100D01*
G01X-475501Y-1572400D02*
G01X-383400Y-1572400D01*
G01X-361900Y-1593900D01*
G01X-273100Y-1593900D01*
G01X-1689100Y-1485900D02*
G01X-1720088Y-1454912D01*
G01X-1720088Y-1384300D01*
G01X-1175499Y-1472400D02*
G01X-1358100Y-1472400D01*
G01X-1422400Y-1536700D01*
G01X-1435100Y-1485900D02*
G01X-1689100Y-1485900D01*
G01X-1175499Y-1522387D02*
G01X-1344587Y-1522387D01*
G01X-1427500Y-1605300D01*
G01X-1524000Y-1605300D01*
G01X-1384300Y-1155700D02*
G01X-1317612Y-1222388D01*
G01X-1752600Y-863600D02*
G01X-1524000Y-863600D01*
G01X-1384300Y-1003300D01*
G01X-1384300Y-1155700D01*
G01X-1025487Y-1006513D02*
G01X-1122700Y-909300D01*
G01X-1175499Y-1159700D02*
G01X-1219949Y-1115250D01*
G01X-1297749Y-1115250D01*
G01X-1327150Y-1085850D01*
G01X-1327150Y-933450D01*
G01X-1175499Y-1172400D02*
G01X-1175499Y-1159700D01*
G01X-1327150Y-933450D02*
G01X-1330325Y-933450D01*
G01X-1333500Y-930275D01*
G01X-1333500Y-927100D01*
G01X917397Y-1096349D02*
G01X1023146Y-990600D01*
G01X1041400Y-990600D01*
G01X-925487Y-1072401D02*
G01X-925487Y-943901D01*
G01X-960088Y-909300D01*
G01X-989390Y-909300D01*
G01X-1023600Y-875090D01*
G01X-1023600Y-845788D01*
G01X-1132788Y-736600D01*
G01X-975500Y-993000D02*
G01X-1130300Y-838200D01*
G01X-1143000Y-838200D01*
G54D47*
G01X-1519911Y674497D02*
G01X-1570711Y725297D01*
G01X-1570711Y850900D01*
G54D48*
G01X-1122700Y-909300D02*
G01X-1211600Y-909300D01*
G01X-1320800Y-800100D01*
G01X495300Y-1104900D02*
G01X495300Y-927100D01*
G01X508000Y-914400D01*
G01X-475501Y-1172400D02*
G01X-334200Y-1172400D01*
G01X-330200Y-1168400D01*
G01X-279400Y-1117600D01*
G01X-279400Y-533400D01*
G01X-982299Y-804499D02*
G01X-875500Y-911298D01*
G01X-875500Y-1072401D01*
G01X-1092200Y-546100D02*
G01X-1092200Y-694598D01*
G01X-982299Y-804499D01*
G01X-625488Y-982001D02*
G01X-481687Y-838200D01*
G01X-469900Y-838200D01*
G01X-419100Y1003300D02*
G01X-419100Y-685800D01*
G01X-675500Y-942200D01*
G01X-675500Y-1072401D01*
G01X-482600Y-660400D02*
G01X-725487Y-903287D01*
G01X-725487Y-1072401D01*
G01X-1175499Y-1422387D02*
G01X-1371588Y-1422388D01*
G01X-1435100Y-1485900D01*
G54D47*
G01X-1993900Y-306400D02*
G01X-1017600Y-306400D01*
G01X-1016000Y-304800D01*
G01X-1016000Y787400D01*
G01X-927100Y876300D01*
G01X-736600Y876300D01*
G54D48*
G01X-2159000Y762000D02*
G01X-2086889Y689889D01*
G01X-2086889Y444500D01*
G01X-2171700Y762000D02*
G01X-2159000Y762000D01*
G01X-2171700Y939800D02*
G01X-2005000Y939800D01*
G01X-2171700Y1117600D02*
G01X-2194900Y1140800D01*
G01X-2194900Y1231900D01*
G54D47*
G01X635000Y-3162300D02*
G01X673100Y-3200400D01*
G54D48*
G01X-1993890Y-1710202D02*
G01X-2032000Y-1748312D01*
G01X-2032000Y-2084400D01*
G01X-1981200Y-2084400D01*
G01X-1993900Y-557200D02*
G01X-2031618Y-594918D01*
G01X-2031618Y-766669D01*
G01X-1993900Y-804388D01*
G01X-1132788Y-736600D02*
G01X-1729518Y-736600D01*
G01X-1981410Y-988492D01*
G01X-1981410Y-1024412D01*
G54D47*
G01X-1943100Y-3022600D02*
G01X-1181100Y-3022600D01*
G01X-2197100Y-2768600D02*
G01X-1943100Y-3022600D01*
G54D48*
G01X-1346200Y-2363800D02*
G01X-1157300Y-2363800D01*
G01X-1066800Y-2273300D01*
G01X-1066800Y-2197100D01*
G54D47*
G01X-1346200Y-2563800D02*
G01X-1474800Y-2563800D01*
G01X-1524000Y-2514600D01*
G01X-1524000Y-2186056D01*
G01X-1537701Y-2172355D01*
G01X-1537701Y-2065728D01*
G01X-1749828Y-2065728D01*
G01X-1752600Y-2068500D01*
G01X-1968500Y-2284400D02*
G01X-1752600Y-2068500D01*
G54D48*
G01X-2032000Y-2284400D02*
G01X-2195500Y-2284400D01*
G54D47*
G01X-2032000Y-2284400D02*
G01X-1968500Y-2284400D01*
G01X-2033600Y-2603500D02*
G01X-1873199Y-2603500D01*
G01X-1689100Y-2419401D01*
G01X-1873301Y-2419401D01*
G01X-1879600Y-2425700D01*
G54D48*
G01X-1025487Y-1772399D02*
G01X-1025487Y-1950987D01*
G01X-1106500Y-2032000D01*
G54D47*
G01X-1106500Y-2032000D02*
G01X-1106500Y-2084400D01*
G01X-1231900Y-2209800D01*
G01X-1500256Y-2209800D01*
G01X-1524000Y-2186056D01*
G54D48*
G01X-1524000Y-1605300D02*
G01X-1524000Y-1852028D01*
G01X-1537701Y-1865729D01*
G01X-1175499Y-1672399D02*
G01X-1225499Y-1672399D01*
G01X-1356500Y-1803400D01*
G01X-1358900Y-1803400D01*
G01X-1376861Y-1821361D01*
G01X-1376861Y-1897561D01*
G01X-1447800Y-1968500D01*
G01X-1866900Y-1968500D01*
G01X-1905000Y-1930400D01*
G01X-1905000Y-1524000D01*
G01X-1943100Y-1485900D01*
G01X-2027702Y-1485900D01*
G01X-2031990Y-1490188D01*
G01X330200Y-2298700D02*
G01X774700Y-2298700D01*
G54D47*
G01X355600Y-1765300D02*
G01X356507Y-1765300D01*
G01X357630Y-1766423D01*
G01X357630Y-2046730D02*
G01X357630Y-1766423D01*
G01X685800Y-2654300D02*
G01X685800Y-2476500D01*
G01X647700Y-2438400D01*
G01X254000Y-2438400D01*
G01X215900Y-2400300D01*
G01X215900Y-2159000D01*
G01X266700Y-2108200D01*
G01X460386Y-2108200D02*
G01X463917Y-2111731D01*
G01X266700Y-2108200D02*
G01X419100Y-2108200D01*
G01X460386Y-2108200D01*
G01X419100Y-2108200D02*
G01X357630Y-2046730D01*
G01X523451Y-2111731D02*
G01X463917Y-2111731D01*
G01X-2197100Y-2286000D02*
G01X-2197100Y-2768600D01*
G54D48*
G01X537540Y-485597D02*
G01X124034Y-485597D01*
G01X508000Y-914400D02*
G01X419100Y-914400D01*
G01X406400Y-901700D01*
G01X723900Y127000D02*
G01X723900Y281091D01*
G01X723900Y508000D01*
G01X482600Y63500D02*
G01X596900Y63500D01*
G01X-76200Y1308100D02*
G01X-76200Y1193800D01*
G01X-50800Y1854200D02*
G01X-50800Y1785274D01*
G01X-30826Y1765300D01*
G01X88900Y1765300D02*
G01X-30826Y1765300D01*
G01X-190500Y1765300D01*
G01X609600Y1130300D02*
G01X609600Y1016000D01*
G01X565150Y971550D01*
G01X273050Y971550D01*
G01X143576Y1273876D02*
G01X101600Y1231900D01*
G01X101600Y1130300D01*
G01X863600Y1689100D02*
G01X749300Y1689100D01*
G01X273050Y971550D02*
G01X69850Y971550D01*
G01X38100Y1003300D01*
G01X38100Y1270000D01*
G01X532785Y1042015D02*
G01X533400Y1041400D01*
G01X521315Y1042015D02*
G01X532785Y1042015D01*
G01X521315Y1042015D02*
G01X538878Y1059578D01*
G01X189537Y1227915D02*
G01X160344Y1198722D01*
G01X160344Y1084256D01*
G01X202585Y1042015D01*
G01X521315Y1042015D01*
G01X538878Y1210700D02*
G01X521663Y1227915D01*
G01X538878Y1210700D02*
G01X538878Y1059578D01*
G01X660400Y114300D02*
G01X520700Y254000D01*
G01X368300Y264855D02*
G01X357445Y254000D01*
G01X520700Y254000D02*
G01X357445Y254000D01*
G01X304800Y254000D02*
G01X357445Y254000D01*
G01X368300Y317500D02*
G01X368300Y264855D01*
G54D47*
G01X1524000Y-3390900D02*
G01X679483Y-3390900D01*
G01X2082800Y-2832100D02*
G01X1524000Y-3390900D01*
G01X673100Y-3200400D02*
G01X673100Y-3384517D01*
G01X679483Y-3390900D01*
G01X127000Y2389200D02*
G01X242900Y2273300D01*
G54D48*
G01X-130899Y-1629499D02*
G01X-101600Y-1600200D01*
G01X537540Y-1216211D02*
G01X156989Y-1216211D01*
G01X537540Y-225603D02*
G01X184029Y-225603D01*
G54D47*
G01X-1689100Y-3219399D02*
G01X-1682699Y-3225800D01*
G01X-990600Y-3225800D01*
G01X2082800Y-1981200D02*
G01X1713802Y-1981200D01*
G01X2082800Y-1981200D02*
G01X2082800Y-2832100D01*
G01X2082800Y914400D02*
G01X2082800Y-1981200D01*
G54D48*
G01X-1676400Y-1574800D02*
G01X-1752600Y-1651000D01*
G01X-1752600Y-1868500D01*
G01X-1422400Y-1536700D02*
G01X-1638300Y-1536700D01*
G01X-1676400Y-1574800D01*
G01X-1175499Y-1572400D02*
G01X-1331100Y-1572400D01*
G01X-1435100Y-1676400D01*
G01X-1435100Y-1714500D01*
G54D47*
G01X127000Y2540000D02*
G01X127000Y2389200D01*
G04 Track End*

M02*

