G04 Layer: BottomLayer*
G04 EasyEDA Pro v2.2.40.8, 2025-08-17 12:16:25*
G04 Gerber Generator version 0.3*
G04 Scale: 100 percent, Rotated: No, Reflected: No*
G04 Dimensions in millimeters*
G04 Leading zeros omitted, absolute positions, 4 integers and 5 decimals*
G04 Generated by one-click*
%FSLAX45Y45*%
%MOMM*%
%ADD10O,1.2X1.8*%
%ADD11O,1.2X2.2*%
%ADD12C,1.8*%
%ADD13R,1.8X1.8*%
%ADD14C,1.5*%
%ADD15C,2.1*%
%ADD16C,2.2*%
%ADD17C,0.61*%
%ADD18C,0.6096*%
%ADD19C,0.2587*%
%ADD20C,0.254*%
%ADD21C,0.5*%
G75*


G04 Pad Start*
G54D10*
G01X-1816303Y3179826D03*
G01X-952297Y3179826D03*
G54D11*
G01X-1816303Y2761818D03*
G01X-952297Y2761818D03*
G54D12*
G01X685800Y-3162300D03*
G01X431800Y-3162300D03*
G01X685800Y-2908300D03*
G01X431800Y-2908300D03*
G01X685800Y-2654300D03*
G54D13*
G01X431800Y-2654300D03*
G54D14*
G01X-228600Y-2463800D03*
G01X-482600Y-2463800D03*
G01X-736600Y-2463800D03*
G01X-990600Y-2463800D03*
G01X-990600Y-3225800D03*
G01X-736600Y-3225800D03*
G01X-482600Y-3225800D03*
G01X-228600Y-3225800D03*
G54D15*
G01X1631539Y1078802D03*
G01X1631539Y1578801D03*
G01X1631539Y2078800D03*
G01X1631539Y2578799D03*
G54D16*
G01X1701800Y-2469197D03*
G01X1701800Y-1969198D03*
G01X1701800Y-1469199D03*
G01X1701800Y-969200D03*
G01X1701800Y-469201D03*
G01X1701800Y30798D03*
G04 Pad End*

G04 Via Start*
G54D17*
G01X-1181100Y2882900D03*
G01X-1549400Y2882900D03*
G01X101600Y1130300D03*
G01X749300Y1689100D03*
G01X596900Y1816100D03*
G01X-990600Y1879600D03*
G01X673100Y-977900D03*
G01X596900Y63500D03*
G01X1041400Y-990600D03*
G01X1028700Y-76200D03*
G01X876300Y-977900D03*
G01X723900Y127000D03*
G01X-76200Y-1765300D03*
G01X355600Y-1765300D03*
G01X558800Y736600D03*
G01X-330200Y-1168400D03*
G01X-469900Y-838200D03*
G01X-982299Y-804499D03*
G01X1054100Y2184400D03*
G01X-1570711Y850900D03*
G01X-1206500Y-1041400D03*
G01X-1320800Y-800100D03*
G01X-203200Y1574800D03*
G01X-1143000Y-838200D03*
G01X-279400Y1460500D03*
G01X-1676400Y-1574800D03*
G01X495300Y-1104900D03*
G01X-1524000Y-1605300D03*
G01X304800Y254000D03*
G01X-76200Y1308100D03*
G01X-1066800Y-2197100D03*
G01X-1879600Y-2425700D03*
G01X-1752600Y-863600D03*
G01X-736600Y876300D03*
G01X508000Y863600D03*
G01X-1765300Y2159000D03*
G01X330200Y-2298700D03*
G01X-1435100Y-1714500D03*
G54D18*
G01X837413Y-405613D03*
G01X837413Y-305613D03*
G01X737400Y-305600D03*
G01X737400Y-405600D03*
G01X837413Y-1396221D03*
G01X837413Y-1296221D03*
G01X737400Y-1296208D03*
G01X737400Y-1396208D03*
G01X440453Y1485900D03*
G01X270747Y1485900D03*
G01X355600Y1570753D03*
G01X355600Y1401047D03*
G04 Via End*

G04 Track Start*
G54D20*
G01X-1181100Y2882900D02*
G01X-1549400Y2882900D01*
G01X749300Y1320800D02*
G01X749300Y1689100D01*
G54D21*
G01X596900Y1816100D02*
G01X419100Y1993900D01*
G01X-876300Y1993900D02*
G01X-990600Y1879600D01*
G01X419100Y1993900D02*
G01X-876300Y1993900D01*
G54D20*
G01X799313Y-405613D02*
G01X789659Y-415266D01*
G01X789659Y-1286568D01*
G01X799313Y-1296221D01*
G01X837413Y-405613D02*
G01X799313Y-405613D01*
G01X799313Y-1296221D02*
G01X837413Y-1296221D01*
G01X876300Y-977900D02*
G01X901700Y-952500D01*
G01X673100Y-977900D02*
G01X673100Y-2044700D01*
G01X889000Y-2908300D02*
G01X635000Y-2908300D01*
G01X25400Y-3162300D02*
G01X381000Y-3162300D01*
G01X12700Y-3175000D02*
G01X25400Y-3162300D01*
G01X-12700Y-3175000D02*
G01X12700Y-3175000D01*
G01X-114300Y-3073400D02*
G01X-12700Y-3175000D01*
G01X901700Y-952500D02*
G01X901700Y-50800D01*
G01X723900Y127000D01*
G54D21*
G01X-76200Y-1765300D02*
G01X-254000Y-1765300D01*
G01X-292100Y-1727200D01*
G54D20*
G01X1054100Y2184400D02*
G01X863600Y1993900D01*
G01X419100Y1993900D01*
G54D21*
G01X-952297Y2908097D02*
G01X-952297Y2761818D01*
G01X-1816303Y2761818D02*
G01X-1816303Y2857297D01*
G01X-1016000Y2971800D02*
G01X-952297Y2908097D01*
G01X-1816303Y2857297D02*
G01X-1701800Y2971800D01*
G01X-1016000Y2971800D01*
G54D20*
G01X673100Y-977900D02*
G01X-1143000Y-977900D01*
G01X-1206500Y-1041400D01*
G01X673100Y-977900D02*
G01X673100Y-12700D01*
G01X596900Y63500D01*
G01X596900Y698500D01*
G01X558800Y736600D01*
G01X-1104900Y1574800D02*
G01X-203200Y1574800D01*
G54D21*
G01X-990600Y1879600D02*
G01X-1016000Y1905000D01*
G01X-1460500Y1905000D01*
G01X-1570711Y1794789D01*
G01X-1549400Y2882900D02*
G01X-1549400Y2374900D01*
G01X-1765300Y2159000D01*
G54D20*
G01X-101600Y1333500D02*
G01X-101600Y1689100D01*
G01X-177800Y1765300D01*
G01X-1270000Y1765300D01*
G01X-1447800Y1587500D01*
G01X-1739900Y-2070100D02*
G01X-1701800Y-2108200D01*
G01X-1155700Y-2108200D01*
G01X-76200Y1308100D02*
G01X-101600Y1333500D01*
G01X-1155700Y-2108200D02*
G01X-1066800Y-2197100D01*
G01X1041400Y-990600D02*
G01X1041400Y-2755900D01*
G01X889000Y-2908300D01*
G01X1041400Y-990600D02*
G01X1028700Y-977900D01*
G01X1028700Y-76200D01*
G01X-1143000Y-838200D02*
G01X-1143000Y1371600D01*
G01X-1054100Y1460500D01*
G01X-279400Y1460500D01*
G54D21*
G01X-1570711Y1794789D02*
G01X-1570711Y850900D01*
G54D20*
G01X-1320800Y-800100D02*
G01X-1320800Y1358900D01*
G01X-1104900Y1574800D01*
G54D21*
G01X-292100Y-1727200D02*
G01X-292100Y-1206500D01*
G01X-330200Y-1168400D01*
G54D20*
G01X-469900Y-838200D02*
G01X-503601Y-804499D01*
G01X-982299Y-804499D01*
G54D21*
G01X-736600Y876300D02*
G01X-723900Y863600D01*
G01X508000Y863600D01*
G54D20*
G01X914400Y-1016000D02*
G01X914400Y-1206500D01*
G01X965200Y-1257300D01*
G01X965200Y-2260600D01*
G01X889000Y-2336800D01*
G01X647700Y-2336800D01*
G01X546100Y-2438400D01*
G01X546100Y-2844800D02*
G01X528139Y-2862761D01*
G01X477339Y-2862761D01*
G01X431800Y-2908300D01*
G01X876300Y-977900D02*
G01X914400Y-1016000D01*
G01X431800Y-2908300D02*
G01X381000Y-2908300D01*
G01X546100Y-2438400D02*
G01X546100Y-2549144D01*
G01X549700Y-2552744D01*
G01X549700Y-2755856D01*
G01X546100Y-2759456D01*
G01X546100Y-2844800D01*
G01X673100Y-2044700D02*
G01X431800Y-2286000D01*
G01X431800Y-2654300D01*
G01X381000Y-2654300D01*
G01X-1879600Y-2425700D02*
G01X-1879600Y-990600D01*
G01X-1752600Y-863600D01*
G01X-1879600Y-2425700D02*
G01X-1879600Y-2997200D01*
G01X-1803400Y-3073400D01*
G01X-114300Y-3073400D01*
G54D21*
G01X-76200Y-1765300D02*
G01X355600Y-1765300D01*
G54D20*
G01X101600Y1130300D02*
G01X558800Y1130300D01*
G01X749300Y1320800D01*
G01X-1676400Y-1574800D02*
G01X-1587500Y-1663700D01*
G01X304800Y-863600D02*
G01X304800Y254000D01*
G01X241300Y-927100D02*
G01X304800Y-863600D01*
G01X-1587500Y-1663700D02*
G01X-1485900Y-1663700D01*
G01X-1422400Y-1600200D01*
G01X-1422400Y-1244600D01*
G01X-1282700Y-1104900D01*
G01X495300Y-1104900D01*
G01X-1447800Y1587500D02*
G01X-1447800Y-787400D01*
G01X-1739900Y-1079500D01*
G01X-1739900Y-2070100D01*
G01X-1524000Y-1605300D02*
G01X-1524000Y-1066800D01*
G01X-1384300Y-927100D01*
G01X241300Y-927100D01*
G01X-1435100Y-1714500D02*
G01X-1257300Y-1892300D01*
G01X203200Y-1892300D01*
G01X330200Y-2019300D01*
G01X330200Y-2298700D01*
G04 Track End*

M02*

