G04 Layer: DrillDrawingLayer*
G04 EasyEDA Pro v2.2.40.8, 2025-08-17 12:16:25*
G04 Gerber Generator version 0.3*
G04 Scale: 100 percent, Rotated: No, Reflected: No*
G04 Dimensions in millimeters*
G04 Leading zeros omitted, absolute positions, 4 integers and 5 decimals*
G04 Generated by one-click*
%FSLAX45Y45*%
%MOMM*%
%AMIconRect*4,1,4,0.2,-0.2,-0.2,-0.2,-0.2,0.2,0.2,0.2,0.2,-0.2,0*4,0,4,0.166667,-0.166667,0.166667,0.166667,-0.166667,0.166667,-0.166667,-0.166667,0.166667,-0.166667,0*%
%AMIconTriangle*4,1,3,-0.242567,0.171767,0.242567,0.171767,0,-0.2706,-0.242567,0.171767,0*4,0,3,-0.189767,0.1386,0,-0.1953,0.190167,0.1386,-0.189767,0.1386,0*%
%AMIconStar6*4,1,12,0.0862,0.1492,0.213233,0.123367,0.172367,0,0.213233,-0.1229,0.0862,-0.148733,0,-0.245767,-0.085767,-0.148733,-0.213267,-0.1229,-0.171933,0,-0.213267,0.1229,-0.085767,0.1492,0,0.245767,0.0862,0.1492,0*4,0,12,-0.000333,0.195333,-0.064333,0.122667,-0.169667,0.097667,-0.138333,-0.005333,-0.169667,-0.098,-0.064333,-0.122667,-0.000333,-0.195667,0.064333,-0.122667,0.169667,-0.098,0.138667,0.005,0.169667,0.098,0.064333,0.122333,-0.000333,0.195333,0*%
%AMIconStar4*4,1,8,-0.222667,0.222667,0,0.144667,0.222667,0.222667,0.144667,0,0.222667,-0.222667,0,-0.144667,-0.217433,-0.222667,-0.144667,0,-0.222667,0.222667,0*4,0,8,0.166667,-0.166667,0.108,0,0.166667,0.166667,0,0.108,-0.166667,0.166667,-0.108,0,-0.166667,-0.166667,0,-0.108,0.166667,-0.166667,0*%
%AMIconPlus*4,1,12,0.124,-0.2,-0.124,-0.2,-0.124,-0.124,-0.2,-0.124,-0.2,0.124,-0.124,0.124,-0.124,0.2,0.124,0.2,0.124,0.124,0.2,0.124,0.2,-0.124,0.124,-0.124,0.124,-0.2,0*4,0,12,0.090667,-0.166667,0.090667,-0.090667,0.166667,-0.090667,0.166667,0.090667,0.090667,0.090667,0.090667,0.166667,-0.090667,0.166667,-0.090667,0.090667,-0.166667,0.090667,-0.166667,-0.090667,-0.090667,-0.090667,-0.090667,-0.166667,0.090667,-0.166667,0*%
%AMIconX*4,1,16,0.2,-0.2,0.054533,-0.2,0,-0.145467,-0.054533,-0.2,-0.2,-0.2,-0.2,-0.054533,-0.145467,0,-0.2,0.054533,-0.2,0.2,-0.054533,0.2,0,0.145467,0.054533,0.2,0.2,0.2,0.2,0.054533,0.145467,0,0.2,-0.054533,0.2,-0.2,0*4,0,16,0.1668,-0.1664,0.1668,-0.068467,0.097933,0.000067,0.1668,0.068467,0.1668,0.1665,0.068467,0.1665,0,0.097933,-0.068467,0.1665,-0.1668,0.1665,-0.1668,0.068467,-0.097933,0.000067,-0.1668,-0.068467,-0.1668,-0.1664,-0.068467,-0.1664,0,-0.097933,0.068467,-0.1664,0.1668,-0.1664,0*%
%AMIconDiamond*4,1,4,0,-0.26,-0.26,0,0,0.26,0.26,0,0,-0.26,0*4,0,4,0,-0.203433,0.203433,0,0,0.2036,-0.203433,0,0,-0.203433,0*%
%ADD10IconRect*%
%ADD11C,0.44X0.373333*%
%ADD12IconTriangle*%
%ADD13IconStar6*%
%ADD14IconStar4*%
%ADD15IconPlus*%
%ADD16IconX*%
%ADD17IconDiamond*%
G75*


G04 Drill Drawing Start*
G54D10*
G01X-1816303Y3179826D03*
G01X-952297Y3179826D03*
G54D11*
G01X-1816303Y2761818D03*
G01X-952297Y2761818D03*
G54D12*
G01X-1673301Y2811831D03*
G01X-1095299Y2811831D03*
G54D13*
G01X-2200000Y-3200000D03*
G01X-2200000Y3200000D03*
G01X2200000Y-3200000D03*
G01X2200000Y3200000D03*
G54D14*
G01X431800Y-3162300D03*
G01X431800Y-2908300D03*
G01X431800Y-2654300D03*
G01X685800Y-3162300D03*
G01X685800Y-2908300D03*
G01X685800Y-2654300D03*
G54D15*
G01X-990597Y-3225797D03*
G01X-990597Y-2463800D03*
G01X-736600Y-3225797D03*
G01X-736600Y-2463800D03*
G01X-482600Y-3225797D03*
G01X-482600Y-2463800D03*
G01X-228600Y-3225797D03*
G01X-228600Y-2463800D03*
G54D16*
G01X1631544Y1078802D03*
G01X1631544Y1578801D03*
G01X1631544Y2078800D03*
G01X1631544Y2578799D03*
G01X1701800Y-2469197D03*
G01X1701800Y-1969198D03*
G01X1701800Y-1469199D03*
G01X1701800Y-969200D03*
G01X1701800Y-469201D03*
G01X1701800Y30798D03*
G54D17*
G01X-1879600Y-2425700D03*
G01X-1765300Y2159000D03*
G01X-1752600Y-863600D03*
G01X-1676400Y-1574800D03*
G01X-1570711Y850900D03*
G01X-1549400Y2882900D03*
G01X-1524000Y-1605300D03*
G01X-1435100Y-1714500D03*
G01X-1320800Y-800100D03*
G01X-1206500Y-1041400D03*
G01X-1181100Y2882900D03*
G01X-1143000Y-838200D03*
G01X-1066800Y-2197100D03*
G01X-990600Y1879600D03*
G01X-982299Y-804499D03*
G01X-736600Y876300D03*
G01X-469900Y-838200D03*
G01X-330200Y-1168400D03*
G01X-279400Y1460500D03*
G01X-203200Y1574800D03*
G01X-76200Y-1765300D03*
G01X-76200Y1308100D03*
G01X101600Y1130300D03*
G01X270747Y1485900D03*
G01X304800Y254000D03*
G01X330200Y-2298700D03*
G01X355600Y1401047D03*
G01X355600Y-1765300D03*
G01X355600Y1570753D03*
G01X440453Y1485900D03*
G01X495300Y-1104900D03*
G01X508000Y863600D03*
G01X558800Y736600D03*
G01X596900Y63500D03*
G01X596900Y1816100D03*
G01X673100Y-977900D03*
G01X723900Y127000D03*
G01X737400Y-1396208D03*
G01X737400Y-1296208D03*
G01X737400Y-405600D03*
G01X737400Y-305600D03*
G01X749300Y1689100D03*
G01X837413Y-1396221D03*
G01X837413Y-1296221D03*
G01X837413Y-405613D03*
G01X837413Y-305613D03*
G01X876300Y-977900D03*
G01X1028700Y-76200D03*
G01X1041400Y-990600D03*
G01X1054100Y2184400D03*
G04 Drill Drawing End*

M02*

