G04 Layer: BottomLayer*
G04 EasyEDA Pro v2.2.35.2, 2025-02-12 23:49:44*
G04 Gerber Generator version 0.3*
G04 Scale: 100 percent, Rotated: No, Reflected: No*
G04 Dimensions in millimeters*
G04 Leading zeros omitted, absolute positions, 4 integers and 5 decimals*
%FSLAX45Y45*%
%MOMM*%
%ADD10C,0.2032*%
%ADD11C,0.254*%
%ADD12O,1.2X1.8*%
%ADD13O,1.2X2.2*%
%ADD14C,1.8*%
%ADD15R,1.8X1.8*%
%ADD16C,1.5022*%
%ADD17C,1.5*%
%ADD18C,2.1*%
%ADD19C,2.2*%
%ADD20C,0.61*%
%ADD21C,0.6096*%
%ADD22C,0.5*%
G75*


G04 Copper Start*
G36*
G01X-2200000Y3464186D02*
G01X2200000Y3464186D01*
G02X2464186Y3200001I0J-264186D01*
G01X2464186Y-3200000D01*
G02X2200000Y-3464186I-264186J0D01*
G01X-2200000Y-3464186D01*
G02X-2464186Y-3200000I0J264186D01*
G01X-2464186Y3200000D01*
G02X-2200000Y3464186I264186J0D01*
G37*
%LPC*%
G36*
G01X-1939586Y3200000D02*
G03X-2460414Y3200000I-260414J0D01*
G03X-1939586Y3200000I260414J0D01*
G37*
G36*
G01X-1939586Y-3200000D02*
G03X-2460414Y-3200000I-260414J0D01*
G03X-1939586Y-3200000I260414J0D01*
G37*
G36*
G01X-1720489Y3149826D02*
G01X-1720489Y3209826D01*
G03X-1912117Y3209826I-95814J0D01*
G01X-1912117Y3149826D01*
G03X-1720489Y3149826I95814J0D01*
G37*
G36*
G01X-1504190Y2931414D02*
G03X-1587682Y2937048I-45210J-48514D01*
G03X-1610214Y2856457I38282J-54148D01*
G01X-1610214Y2843999D01*
G03X-1730241Y2853933I-63087J-32168D01*
G03X-1912117Y2811818I-86062J-42115D01*
G01X-1912117Y2711818D01*
G03X-1720489Y2711818I95814J0D01*
G01X-1720489Y2759029D01*
G03X-1610214Y2779663I47188J52802D01*
G01X-1610214Y2400090D01*
G01X-1789604Y2220700D01*
G03X-1812191Y2112109I24304J-61700D01*
G03X-1703600Y2134696I46891J46891D01*
G01X-1506398Y2331898D01*
G03X-1488586Y2374900I-43002J43002D01*
G01X-1488586Y2834386D01*
G01X-1226310Y2834386D01*
G03X-1165811Y2818372I45210J48514D01*
G03X-1048111Y2759029I70512J-6542D01*
G01X-1048111Y2711818D01*
G03X-856483Y2711818I95814J0D01*
G01X-856483Y2811818D01*
G03X-1038359Y2853933I-95814J0D01*
G03X-1114854Y2879892I-56940J-42102D01*
G03X-1226310Y2931414I-66246J3008D01*
G01X-1504190Y2931414D01*
G37*
G36*
G01X-1774205Y-1426195D02*
G03X-1788414Y-1460500I34305J-34305D01*
G01X-1788414Y-1738258D01*
G03X-1792986Y-1732790I-53086J-39742D01*
G01X-1792986Y-972595D01*
G01X-1750264Y-929873D01*
G03X-1705709Y-816709I-2336J66273D01*
G03X-1818873Y-861264I-46891J-46891D01*
G01X-1875805Y-918195D01*
G03X-1890014Y-952500I34305J-34305D01*
G01X-1890014Y-1732790D01*
G03X-1884038Y-1828874I48514J-45210D01*
G03X-1788414Y-1817742I42538J50874D01*
G01X-1788414Y-2070100D01*
G03X-1774205Y-2104405I48514J0D01*
G01X-1736105Y-2142505D01*
G03X-1701800Y-2156714I34305J34305D01*
G01X-1175795Y-2156714D01*
G01X-1133073Y-2199436D01*
G03X-1019909Y-2243991I66273J2336D01*
G03X-1064464Y-2130827I-46891J46891D01*
G01X-1121395Y-2073895D01*
G03X-1155700Y-2059686I-34305J-34305D01*
G01X-1681705Y-2059686D01*
G01X-1691386Y-2050005D01*
G01X-1691386Y-1480595D01*
G01X-1413495Y-1202705D01*
G03X-1399286Y-1168400I-34305J34305D01*
G01X-1399286Y1567405D01*
G01X-1249905Y1716786D01*
G01X-197895Y1716786D01*
G01X-150114Y1669005D01*
G01X-150114Y1614542D01*
G03X-248410Y1623314I-53086J-39742D01*
G01X-1104900Y1623314D01*
G03X-1139205Y1609105I0J-48514D01*
G01X-1355105Y1393205D01*
G03X-1369314Y1358900I34305J-34305D01*
G01X-1369314Y-754890D01*
G03X-1320800Y-866414I48514J-45210D01*
G03X-1272286Y-754890I0J66314D01*
G01X-1272286Y1338805D01*
G01X-1084805Y1526286D01*
G01X-287752Y1526286D01*
G03X-324610Y1509014I8352J-65786D01*
G01X-1054100Y1509014D01*
G03X-1088405Y1494805I0J-48514D01*
G01X-1177305Y1405905D01*
G03X-1191514Y1371600I34305J-34305D01*
G01X-1191514Y-792990D01*
G03X-1179163Y-893786I48514J-45210D01*
G01X-1189991Y-893786D01*
G03X-1224295Y-907996I0J-48514D01*
G01X-1299205Y-982905D01*
G03X-1313414Y-1017210I34305J-34305D01*
G01X-1313414Y-1065590D01*
G03X-1299205Y-1099895I48514J0D01*
G01X-1280414Y-1118686D01*
G01X-1280414Y-1521705D01*
G01X-1315495Y-1556786D01*
G01X-1478790Y-1556786D01*
G03X-1549124Y-1543929I-45210J-48514D01*
G03X-1645496Y-1504350I-63776J-18171D01*
G03X-1661414Y-1607310I32596J-57750D01*
G01X-1661414Y-1612900D01*
G03X-1647205Y-1647205I48514J0D01*
G01X-1596405Y-1698005D01*
G03X-1562100Y-1712214I34305J34305D01*
G01X-482600Y-1712214D01*
G03X-448295Y-1698005I0J48514D01*
G01X-397495Y-1647205D01*
G03X-383286Y-1612900I-34305J34305D01*
G01X-383286Y-1208142D01*
G03X-354504Y-1230100I53086J39742D01*
G01X-352914Y-1231690D01*
G01X-352914Y-1727200D01*
G03X-335102Y-1770202I60814J0D01*
G01X-297002Y-1808302D01*
G03X-254000Y-1826114I43002J43002D01*
G01X-102643Y-1826114D01*
G03X-49757Y-1826114I26443J60814D01*
G01X202157Y-1826114D01*
G03X294914Y-1765300I26443J60814D01*
G03X202157Y-1704486I-66314J0D01*
G01X-49757Y-1704486D01*
G03X-102643Y-1704486I-26443J-60814D01*
G01X-228810Y-1704486D01*
G01X-231286Y-1702010D01*
G01X-231286Y-1206500D01*
G03X-249098Y-1163498I-60814J0D01*
G01X-259182Y-1153414D01*
G01X450090Y-1153414D01*
G03X561614Y-1104900I45210J48514D01*
G03X450090Y-1056386I-66314J0D01*
G01X-387390Y-1056386D01*
G03X-421695Y-1070595I0J-48514D01*
G01X-466105Y-1115005D01*
G03X-480314Y-1149310I34305J-34305D01*
G01X-480314Y-1592805D01*
G01X-502695Y-1615186D01*
G01X-1236677Y-1615186D01*
G01X-1197595Y-1576104D01*
G03X-1183386Y-1541800I-34305J34305D01*
G01X-1183386Y-1103555D01*
G03X-1140227Y-1043736I-23114J62155D01*
G01X-1122905Y-1026414D01*
G01X624586Y-1026414D01*
G01X624586Y-2024605D01*
G01X397495Y-2251695D01*
G03X383286Y-2286000I34305J-34305D01*
G01X383286Y-2528486D01*
G01X341800Y-2528486D01*
G03X305986Y-2564300I0J-35814D01*
G01X305986Y-2744300D01*
G03X341800Y-2780114I35814J0D01*
G01X497586Y-2780114D01*
G01X497586Y-2801056D01*
G03X323732Y-2972723I-65786J-107244D01*
G03X557427Y-2901437I108068J64423D01*
G03X560326Y-2899060I-29287J38677D01*
G03X656544Y-3030665I125474J-9240D01*
G03X801884Y-2956814I29256J122365D01*
G01X889000Y-2956814D01*
G03X923305Y-2942605I0J48514D01*
G01X1075705Y-2790205D01*
G03X1089914Y-2755900I-34305J34305D01*
G01X1089914Y-1035810D01*
G03X1077214Y-934789I-48514J45210D01*
G01X1077214Y-121410D01*
G03X1028700Y-9886I-48514J45210D01*
G03X980186Y-121410I0J-66314D01*
G01X980186Y-965097D01*
G03X992886Y-1035810I61214J-25503D01*
G01X992886Y-1216377D01*
G01X962914Y-1186405D01*
G01X962914Y-1016000D01*
G03X948705Y-981695I-48514J0D01*
G01X943733Y-976724D01*
G03X950214Y-952500I-42033J24224D01*
G01X950214Y-50800D01*
G03X936005Y-16495I-48514J0D01*
G01X790173Y129336D01*
G03X677009Y173891I-66273J-2336D01*
G03X721564Y60727I46891J-46891D01*
G01X853186Y-70895D01*
G01X853186Y-915745D01*
G03X810312Y-984465I23114J-62155D01*
G03X865886Y-1043391I65988J6565D01*
G01X865886Y-1206500D01*
G03X880095Y-1240805I48514J0D01*
G01X916686Y-1277395D01*
G01X916686Y-2240505D01*
G01X868905Y-2288286D01*
G01X647700Y-2288286D01*
G03X613395Y-2302495I0J-48514D01*
G01X511795Y-2404095D01*
G03X497586Y-2438400I34305J-34305D01*
G01X497586Y-2528486D01*
G01X480314Y-2528486D01*
G01X480314Y-2306095D01*
G01X707405Y-2079005D01*
G03X721614Y-2044700I-34305J34305D01*
G01X721614Y-1023110D01*
G03X721614Y-932690I-48514J45210D01*
G01X721614Y-12700D01*
G03X707405Y21605I-48514J0D01*
G01X663173Y65836D01*
G03X645414Y108710I-66273J-2336D01*
G01X645414Y698500D01*
G03X631205Y732805I-48514J0D01*
G01X625073Y738936D01*
G03X514866Y786273I-66273J-2336D01*
G03X548386Y671109I43934J-49673D01*
G01X548386Y108710D01*
G03X594564Y-2773I48514J-45210D01*
G01X624586Y-32795D01*
G01X624586Y-929386D01*
G01X-409967Y-929386D01*
G01X402605Y-116814D01*
G03X416814Y-82510I-34305J34305D01*
G01X416814Y132590D01*
G03X368300Y244114I-48514J45210D01*
G03X319786Y132590I0J-66314D01*
G01X319786Y-62414D01*
G01X-416577Y-798777D01*
G03X-467564Y-771927I-53323J-39423D01*
G01X-469297Y-770194D01*
G03X-503601Y-755985I-34305J-34305D01*
G01X-937089Y-755985D01*
G03X-1048613Y-804499I-45210J-48514D01*
G03X-937089Y-853013I66314J0D01*
G01X-534539Y-853013D01*
G03X-509323Y-891523I64639J14813D01*
G01X-511586Y-893786D01*
G01X-1106837Y-893786D01*
G03X-1094486Y-792990I-36163J55586D01*
G01X-1094486Y1351505D01*
G01X-1034005Y1411986D01*
G01X-324610Y1411986D01*
G03X-219352Y1432361I45210J48514D01*
G03X-271048Y1526286I-60048J28139D01*
G01X-248410Y1526286D01*
G03X-150114Y1535058I45210J48514D01*
G01X-150114Y1333500D01*
G03X-142511Y1307425I48514J0D01*
G03X-38076Y1253840I66311J675D01*
G03X-53086Y1370255I-38124J54260D01*
G01X-53086Y1689100D01*
G03X-67295Y1723405I-48514J0D01*
G01X-143495Y1799605D01*
G03X-177800Y1813814I-34305J-34305D01*
G01X-982248Y1813814D01*
G03X-928900Y1855296I-8352J65786D01*
G01X-851110Y1933086D01*
G01X393910Y1933086D01*
G01X535200Y1791796D01*
G03X643791Y1769209I61700J24304D01*
G03X621204Y1877800I-46891J46891D01*
G01X553618Y1945386D01*
G01X863600Y1945386D01*
G03X897905Y1959595I0J48514D01*
G01X1056436Y2118127D01*
G03X1100991Y2231291I-2336J66273D01*
G03X987827Y2186736I-46891J-46891D01*
G01X843505Y2042414D01*
G01X455771Y2042414D01*
G03X419100Y2054714I-36671J-48514D01*
G01X-876300Y2054714D01*
G03X-919302Y2036902I0J-60814D01*
G01X-994368Y1961836D01*
G03X-1016000Y1965814I-21632J-56836D01*
G01X-1460500Y1965814D01*
G03X-1503502Y1948002I0J-60814D01*
G01X-1613713Y1837791D01*
G03X-1631525Y1794789I43002J-43002D01*
G01X-1631525Y877343D01*
G03X-1570711Y784586I60814J-26443D01*
G03X-1509897Y877343I0J66314D01*
G01X-1509897Y1769599D01*
G01X-1435310Y1844186D01*
G01X-1046666Y1844186D01*
G03X-998952Y1813814I56066J35414D01*
G01X-1270000Y1813814D01*
G03X-1304305Y1799605I0J-48514D01*
G01X-1482105Y1621805D01*
G03X-1496314Y1587500I34305J-34305D01*
G01X-1496314Y-1148305D01*
G01X-1774205Y-1426195D01*
G37*
G36*
G01X-79995Y-3039095D02*
G03X-114300Y-3024886I-34305J-34305D01*
G01X-1364205Y-3024886D01*
G01X-1521227Y-2867864D01*
G03X-1634391Y-2823309I-66273J-2336D01*
G03X-1589836Y-2936473I46891J-46891D01*
G01X-1418605Y-3107705D01*
G03X-1384300Y-3121914I34305J34305D01*
G01X-1029167Y-3121914D01*
G03X-990600Y-3336614I38567J-103886D01*
G03X-952033Y-3121914I0J110814D01*
G01X-775167Y-3121914D01*
G03X-736600Y-3336614I38567J-103886D01*
G03X-698033Y-3121914I0J110814D01*
G01X-521167Y-3121914D01*
G03X-482600Y-3336614I38567J-103886D01*
G03X-444033Y-3121914I0J110814D01*
G01X-267167Y-3121914D01*
G03X-228600Y-3336614I38567J-103886D01*
G03X-190033Y-3121914I0J110814D01*
G01X-134395Y-3121914D01*
G01X-47005Y-3209305D01*
G03X-12700Y-3223514I34305J34305D01*
G01X12700Y-3223514D01*
G03X45426Y-3210814I0J48514D01*
G01X315716Y-3210814D01*
G03X557614Y-3162300I116084J48514D01*
G03X315716Y-3113786I-125814J0D01*
G01X25400Y-3113786D01*
G03X1176Y-3120267I0J-48514D01*
G01X-79995Y-3039095D01*
G37*
G36*
G01X-879786Y-2463800D02*
G03X-1101414Y-2463800I-110814J0D01*
G03X-879786Y-2463800I110814J0D01*
G37*
G36*
G01X-856483Y3149826D02*
G01X-856483Y3209826D01*
G03X-1048111Y3209826I-95814J0D01*
G01X-1048111Y3149826D01*
G03X-856483Y3149826I95814J0D01*
G37*
G36*
G01X-625786Y-2463800D02*
G03X-847414Y-2463800I-110814J0D01*
G03X-625786Y-2463800I110814J0D01*
G37*
G36*
G01X-690964Y924414D02*
G03X-793116Y910991I-45636J-48114D01*
G03X-758844Y813828I56516J-34691D01*
G03X-723900Y802786I34944J49772D01*
G01X481557Y802786D01*
G03X574314Y863600I26443J60814D01*
G03X481557Y924414I-66314J0D01*
G01X-690964Y924414D01*
G37*
G36*
G01X-371786Y-2463800D02*
G03X-593414Y-2463800I-110814J0D01*
G03X-371786Y-2463800I110814J0D01*
G37*
G36*
G01X-117786Y-2463800D02*
G03X-339414Y-2463800I-110814J0D01*
G03X-117786Y-2463800I110814J0D01*
G37*
G36*
G01X797814Y1643890D02*
G03X749300Y1755414I-48514J45210D01*
G03X700786Y1643890I0J-66314D01*
G01X700786Y1340895D01*
G01X602205Y1242314D01*
G01X146810Y1242314D01*
G03X35286Y1193800I-45210J-48514D01*
G03X146810Y1145286I66314J0D01*
G01X622300Y1145286D01*
G03X656605Y1159495I0J48514D01*
G01X783605Y1286495D01*
G03X797814Y1320800I-34305J34305D01*
G01X797814Y1643890D01*
G37*
G36*
G01X685800Y-3036486D02*
G03X685800Y-3288114I0J-125814D01*
G03X685800Y-3036486I0J125814D01*
G37*
G36*
G01X1631539Y937988D02*
G03X1631539Y1219615I0J140814D01*
G03X1631539Y937988I0J-140814D01*
G37*
G36*
G01X1631539Y1437987D02*
G03X1631539Y1719614I0J140814D01*
G03X1631539Y1437987I0J-140814D01*
G37*
G36*
G01X1631539Y2437985D02*
G03X1631539Y2719612I0J140814D01*
G03X1631539Y2437985I0J-140814D01*
G37*
G36*
G01X1631539Y1937986D02*
G03X1631539Y2219613I0J140814D01*
G03X1631539Y1937986I0J-140814D01*
G37*
G36*
G01X1701800Y-2615011D02*
G03X1701800Y-2323384I0J145814D01*
G03X1701800Y-2615011I0J-145814D01*
G37*
G36*
G01X1701800Y-1615013D02*
G03X1701800Y-1323386I0J145814D01*
G03X1701800Y-1615013I0J-145814D01*
G37*
G36*
G01X1701800Y-2115012D02*
G03X1701800Y-1823385I0J145814D01*
G03X1701800Y-2115012I0J-145814D01*
G37*
G36*
G01X1701800Y-115016D02*
G03X1701800Y176611I0J145814D01*
G03X1701800Y-115016I0J-145814D01*
G37*
G36*
G01X1701800Y-615015D02*
G03X1701800Y-323388I0J145814D01*
G03X1701800Y-615015I0J-145814D01*
G37*
G36*
G01X1701800Y-1115014D02*
G03X1701800Y-823387I0J145814D01*
G03X1701800Y-1115014I0J-145814D01*
G37*
G36*
G01X2460414Y3200000D02*
G03X1939586Y3200000I-260414J0D01*
G03X2460414Y3200000I260414J0D01*
G37*
G36*
G01X2460414Y-3200000D02*
G03X1939586Y-3200000I-260414J0D01*
G03X2460414Y-3200000I260414J0D01*
G37*
%LPD*%
G54D10*
G01X-2200000Y3464186D02*
G01X2200000Y3464186D01*
G02X2464186Y3200001I0J-264186D01*
G01X2464186Y-3200000D01*
G02X2200000Y-3464186I-264186J0D01*
G01X-2200000Y-3464186D01*
G02X-2464186Y-3200000I0J264186D01*
G01X-2464186Y3200000D01*
G02X-2200000Y3464186I264186J0D01*
G01X-1939586Y3200000D02*
G03X-2460414Y3200000I-260414J0D01*
G03X-1939586Y3200000I260414J0D01*
G01X-1939586Y-3200000D02*
G03X-2460414Y-3200000I-260414J0D01*
G03X-1939586Y-3200000I260414J0D01*
G01X-1720489Y3149826D02*
G01X-1720489Y3209826D01*
G03X-1912117Y3209826I-95814J0D01*
G01X-1912117Y3149826D01*
G03X-1720489Y3149826I95814J0D01*
G01X-1504190Y2931414D02*
G03X-1587682Y2937048I-45210J-48514D01*
G03X-1610214Y2856457I38282J-54148D01*
G01X-1610214Y2843999D01*
G03X-1730241Y2853933I-63087J-32168D01*
G03X-1912117Y2811818I-86062J-42115D01*
G01X-1912117Y2711818D01*
G03X-1720489Y2711818I95814J0D01*
G01X-1720489Y2759029D01*
G03X-1610214Y2779663I47188J52802D01*
G01X-1610214Y2400090D01*
G01X-1789604Y2220700D01*
G03X-1812191Y2112109I24304J-61700D01*
G03X-1703600Y2134696I46891J46891D01*
G01X-1506398Y2331898D01*
G03X-1488586Y2374900I-43002J43002D01*
G01X-1488586Y2834386D01*
G01X-1226310Y2834386D01*
G03X-1165811Y2818372I45210J48514D01*
G03X-1048111Y2759029I70512J-6542D01*
G01X-1048111Y2711818D01*
G03X-856483Y2711818I95814J0D01*
G01X-856483Y2811818D01*
G03X-1038359Y2853933I-95814J0D01*
G03X-1114854Y2879892I-56940J-42102D01*
G03X-1226310Y2931414I-66246J3008D01*
G01X-1504190Y2931414D01*
G01X-1774205Y-1426195D02*
G03X-1788414Y-1460500I34305J-34305D01*
G01X-1788414Y-1738258D01*
G03X-1792986Y-1732790I-53086J-39742D01*
G01X-1792986Y-972595D01*
G01X-1750264Y-929873D01*
G03X-1705709Y-816709I-2336J66273D01*
G03X-1818873Y-861264I-46891J-46891D01*
G01X-1875805Y-918195D01*
G03X-1890014Y-952500I34305J-34305D01*
G01X-1890014Y-1732790D01*
G03X-1884038Y-1828874I48514J-45210D01*
G03X-1788414Y-1817742I42538J50874D01*
G01X-1788414Y-2070100D01*
G03X-1774205Y-2104405I48514J0D01*
G01X-1736105Y-2142505D01*
G03X-1701800Y-2156714I34305J34305D01*
G01X-1175795Y-2156714D01*
G01X-1133073Y-2199436D01*
G03X-1019909Y-2243991I66273J2336D01*
G03X-1064464Y-2130827I-46891J46891D01*
G01X-1121395Y-2073895D01*
G03X-1155700Y-2059686I-34305J-34305D01*
G01X-1681705Y-2059686D01*
G01X-1691386Y-2050005D01*
G01X-1691386Y-1480595D01*
G01X-1413495Y-1202705D01*
G03X-1399286Y-1168400I-34305J34305D01*
G01X-1399286Y1567405D01*
G01X-1249905Y1716786D01*
G01X-197895Y1716786D01*
G01X-150114Y1669005D01*
G01X-150114Y1614542D01*
G03X-248410Y1623314I-53086J-39742D01*
G01X-1104900Y1623314D01*
G03X-1139205Y1609105I0J-48514D01*
G01X-1355105Y1393205D01*
G03X-1369314Y1358900I34305J-34305D01*
G01X-1369314Y-754890D01*
G03X-1320800Y-866414I48514J-45210D01*
G03X-1272286Y-754890I0J66314D01*
G01X-1272286Y1338805D01*
G01X-1084805Y1526286D01*
G01X-287752Y1526286D01*
G03X-324610Y1509014I8352J-65786D01*
G01X-1054100Y1509014D01*
G03X-1088405Y1494805I0J-48514D01*
G01X-1177305Y1405905D01*
G03X-1191514Y1371600I34305J-34305D01*
G01X-1191514Y-792990D01*
G03X-1179163Y-893786I48514J-45210D01*
G01X-1189991Y-893786D01*
G03X-1224295Y-907996I0J-48514D01*
G01X-1299205Y-982905D01*
G03X-1313414Y-1017210I34305J-34305D01*
G01X-1313414Y-1065590D01*
G03X-1299205Y-1099895I48514J0D01*
G01X-1280414Y-1118686D01*
G01X-1280414Y-1521705D01*
G01X-1315495Y-1556786D01*
G01X-1478790Y-1556786D01*
G03X-1549124Y-1543929I-45210J-48514D01*
G03X-1645496Y-1504350I-63776J-18171D01*
G03X-1661414Y-1607310I32596J-57750D01*
G01X-1661414Y-1612900D01*
G03X-1647205Y-1647205I48514J0D01*
G01X-1596405Y-1698005D01*
G03X-1562100Y-1712214I34305J34305D01*
G01X-482600Y-1712214D01*
G03X-448295Y-1698005I0J48514D01*
G01X-397495Y-1647205D01*
G03X-383286Y-1612900I-34305J34305D01*
G01X-383286Y-1208142D01*
G03X-354504Y-1230100I53086J39742D01*
G01X-352914Y-1231690D01*
G01X-352914Y-1727200D01*
G03X-335102Y-1770202I60814J0D01*
G01X-297002Y-1808302D01*
G03X-254000Y-1826114I43002J43002D01*
G01X-102643Y-1826114D01*
G03X-49757Y-1826114I26443J60814D01*
G01X202157Y-1826114D01*
G03X294914Y-1765300I26443J60814D01*
G03X202157Y-1704486I-66314J0D01*
G01X-49757Y-1704486D01*
G03X-102643Y-1704486I-26443J-60814D01*
G01X-228810Y-1704486D01*
G01X-231286Y-1702010D01*
G01X-231286Y-1206500D01*
G03X-249098Y-1163498I-60814J0D01*
G01X-259182Y-1153414D01*
G01X450090Y-1153414D01*
G03X561614Y-1104900I45210J48514D01*
G03X450090Y-1056386I-66314J0D01*
G01X-387390Y-1056386D01*
G03X-421695Y-1070595I0J-48514D01*
G01X-466105Y-1115005D01*
G03X-480314Y-1149310I34305J-34305D01*
G01X-480314Y-1592805D01*
G01X-502695Y-1615186D01*
G01X-1236677Y-1615186D01*
G01X-1197595Y-1576104D01*
G03X-1183386Y-1541800I-34305J34305D01*
G01X-1183386Y-1103555D01*
G03X-1140227Y-1043736I-23114J62155D01*
G01X-1122905Y-1026414D01*
G01X624586Y-1026414D01*
G01X624586Y-2024605D01*
G01X397495Y-2251695D01*
G03X383286Y-2286000I34305J-34305D01*
G01X383286Y-2528486D01*
G01X341800Y-2528486D01*
G03X305986Y-2564300I0J-35814D01*
G01X305986Y-2744300D01*
G03X341800Y-2780114I35814J0D01*
G01X497586Y-2780114D01*
G01X497586Y-2801056D01*
G03X323732Y-2972723I-65786J-107244D01*
G03X557427Y-2901437I108068J64423D01*
G03X560326Y-2899060I-29287J38677D01*
G03X656544Y-3030665I125474J-9240D01*
G03X801884Y-2956814I29256J122365D01*
G01X889000Y-2956814D01*
G03X923305Y-2942605I0J48514D01*
G01X1075705Y-2790205D01*
G03X1089914Y-2755900I-34305J34305D01*
G01X1089914Y-1035810D01*
G03X1077214Y-934789I-48514J45210D01*
G01X1077214Y-121410D01*
G03X1028700Y-9886I-48514J45210D01*
G03X980186Y-121410I0J-66314D01*
G01X980186Y-965097D01*
G03X992886Y-1035810I61214J-25503D01*
G01X992886Y-1216377D01*
G01X962914Y-1186405D01*
G01X962914Y-1016000D01*
G03X948705Y-981695I-48514J0D01*
G01X943733Y-976724D01*
G03X950214Y-952500I-42033J24224D01*
G01X950214Y-50800D01*
G03X936005Y-16495I-48514J0D01*
G01X790173Y129336D01*
G03X677009Y173891I-66273J-2336D01*
G03X721564Y60727I46891J-46891D01*
G01X853186Y-70895D01*
G01X853186Y-915745D01*
G03X810312Y-984465I23114J-62155D01*
G03X865886Y-1043391I65988J6565D01*
G01X865886Y-1206500D01*
G03X880095Y-1240805I48514J0D01*
G01X916686Y-1277395D01*
G01X916686Y-2240505D01*
G01X868905Y-2288286D01*
G01X647700Y-2288286D01*
G03X613395Y-2302495I0J-48514D01*
G01X511795Y-2404095D01*
G03X497586Y-2438400I34305J-34305D01*
G01X497586Y-2528486D01*
G01X480314Y-2528486D01*
G01X480314Y-2306095D01*
G01X707405Y-2079005D01*
G03X721614Y-2044700I-34305J34305D01*
G01X721614Y-1023110D01*
G03X721614Y-932690I-48514J45210D01*
G01X721614Y-12700D01*
G03X707405Y21605I-48514J0D01*
G01X663173Y65836D01*
G03X645414Y108710I-66273J-2336D01*
G01X645414Y698500D01*
G03X631205Y732805I-48514J0D01*
G01X625073Y738936D01*
G03X514866Y786273I-66273J-2336D01*
G03X548386Y671109I43934J-49673D01*
G01X548386Y108710D01*
G03X594564Y-2773I48514J-45210D01*
G01X624586Y-32795D01*
G01X624586Y-929386D01*
G01X-409967Y-929386D01*
G01X402605Y-116814D01*
G03X416814Y-82510I-34305J34305D01*
G01X416814Y132590D01*
G03X368300Y244114I-48514J45210D01*
G03X319786Y132590I0J-66314D01*
G01X319786Y-62414D01*
G01X-416577Y-798777D01*
G03X-467564Y-771927I-53323J-39423D01*
G01X-469297Y-770194D01*
G03X-503601Y-755985I-34305J-34305D01*
G01X-937089Y-755985D01*
G03X-1048613Y-804499I-45210J-48514D01*
G03X-937089Y-853013I66314J0D01*
G01X-534539Y-853013D01*
G03X-509323Y-891523I64639J14813D01*
G01X-511586Y-893786D01*
G01X-1106837Y-893786D01*
G03X-1094486Y-792990I-36163J55586D01*
G01X-1094486Y1351505D01*
G01X-1034005Y1411986D01*
G01X-324610Y1411986D01*
G03X-219352Y1432361I45210J48514D01*
G03X-271048Y1526286I-60048J28139D01*
G01X-248410Y1526286D01*
G03X-150114Y1535058I45210J48514D01*
G01X-150114Y1333500D01*
G03X-142511Y1307425I48514J0D01*
G03X-38076Y1253840I66311J675D01*
G03X-53086Y1370255I-38124J54260D01*
G01X-53086Y1689100D01*
G03X-67295Y1723405I-48514J0D01*
G01X-143495Y1799605D01*
G03X-177800Y1813814I-34305J-34305D01*
G01X-982248Y1813814D01*
G03X-928900Y1855296I-8352J65786D01*
G01X-851110Y1933086D01*
G01X393910Y1933086D01*
G01X535200Y1791796D01*
G03X643791Y1769209I61700J24304D01*
G03X621204Y1877800I-46891J46891D01*
G01X553618Y1945386D01*
G01X863600Y1945386D01*
G03X897905Y1959595I0J48514D01*
G01X1056436Y2118127D01*
G03X1100991Y2231291I-2336J66273D01*
G03X987827Y2186736I-46891J-46891D01*
G01X843505Y2042414D01*
G01X455771Y2042414D01*
G03X419100Y2054714I-36671J-48514D01*
G01X-876300Y2054714D01*
G03X-919302Y2036902I0J-60814D01*
G01X-994368Y1961836D01*
G03X-1016000Y1965814I-21632J-56836D01*
G01X-1460500Y1965814D01*
G03X-1503502Y1948002I0J-60814D01*
G01X-1613713Y1837791D01*
G03X-1631525Y1794789I43002J-43002D01*
G01X-1631525Y877343D01*
G03X-1570711Y784586I60814J-26443D01*
G03X-1509897Y877343I0J66314D01*
G01X-1509897Y1769599D01*
G01X-1435310Y1844186D01*
G01X-1046666Y1844186D01*
G03X-998952Y1813814I56066J35414D01*
G01X-1270000Y1813814D01*
G03X-1304305Y1799605I0J-48514D01*
G01X-1482105Y1621805D01*
G03X-1496314Y1587500I34305J-34305D01*
G01X-1496314Y-1148305D01*
G01X-1774205Y-1426195D01*
G01X-79995Y-3039095D02*
G03X-114300Y-3024886I-34305J-34305D01*
G01X-1364205Y-3024886D01*
G01X-1521227Y-2867864D01*
G03X-1634391Y-2823309I-66273J-2336D01*
G03X-1589836Y-2936473I46891J-46891D01*
G01X-1418605Y-3107705D01*
G03X-1384300Y-3121914I34305J34305D01*
G01X-1029167Y-3121914D01*
G03X-990600Y-3336614I38567J-103886D01*
G03X-952033Y-3121914I0J110814D01*
G01X-775167Y-3121914D01*
G03X-736600Y-3336614I38567J-103886D01*
G03X-698033Y-3121914I0J110814D01*
G01X-521167Y-3121914D01*
G03X-482600Y-3336614I38567J-103886D01*
G03X-444033Y-3121914I0J110814D01*
G01X-267167Y-3121914D01*
G03X-228600Y-3336614I38567J-103886D01*
G03X-190033Y-3121914I0J110814D01*
G01X-134395Y-3121914D01*
G01X-47005Y-3209305D01*
G03X-12700Y-3223514I34305J34305D01*
G01X12700Y-3223514D01*
G03X45426Y-3210814I0J48514D01*
G01X315716Y-3210814D01*
G03X557614Y-3162300I116084J48514D01*
G03X315716Y-3113786I-125814J0D01*
G01X25400Y-3113786D01*
G03X1176Y-3120267I0J-48514D01*
G01X-79995Y-3039095D01*
G01X-879786Y-2463800D02*
G03X-1101414Y-2463800I-110814J0D01*
G03X-879786Y-2463800I110814J0D01*
G01X-856483Y3149826D02*
G01X-856483Y3209826D01*
G03X-1048111Y3209826I-95814J0D01*
G01X-1048111Y3149826D01*
G03X-856483Y3149826I95814J0D01*
G01X-625786Y-2463800D02*
G03X-847414Y-2463800I-110814J0D01*
G03X-625786Y-2463800I110814J0D01*
G01X-690964Y924414D02*
G03X-793116Y910991I-45636J-48114D01*
G03X-758844Y813828I56516J-34691D01*
G03X-723900Y802786I34944J49772D01*
G01X481557Y802786D01*
G03X574314Y863600I26443J60814D01*
G03X481557Y924414I-66314J0D01*
G01X-690964Y924414D01*
G01X-371786Y-2463800D02*
G03X-593414Y-2463800I-110814J0D01*
G03X-371786Y-2463800I110814J0D01*
G01X-117786Y-2463800D02*
G03X-339414Y-2463800I-110814J0D01*
G03X-117786Y-2463800I110814J0D01*
G01X797814Y1643890D02*
G03X749300Y1755414I-48514J45210D01*
G03X700786Y1643890I0J-66314D01*
G01X700786Y1340895D01*
G01X602205Y1242314D01*
G01X146810Y1242314D01*
G03X35286Y1193800I-45210J-48514D01*
G03X146810Y1145286I66314J0D01*
G01X622300Y1145286D01*
G03X656605Y1159495I0J48514D01*
G01X783605Y1286495D01*
G03X797814Y1320800I-34305J34305D01*
G01X797814Y1643890D01*
G01X685800Y-3036486D02*
G03X685800Y-3288114I0J-125814D01*
G03X685800Y-3036486I0J125814D01*
G01X1631539Y937988D02*
G03X1631539Y1219615I0J140814D01*
G03X1631539Y937988I0J-140814D01*
G01X1631539Y1437987D02*
G03X1631539Y1719614I0J140814D01*
G03X1631539Y1437987I0J-140814D01*
G01X1631539Y2437985D02*
G03X1631539Y2719612I0J140814D01*
G03X1631539Y2437985I0J-140814D01*
G01X1631539Y1937986D02*
G03X1631539Y2219613I0J140814D01*
G03X1631539Y1937986I0J-140814D01*
G01X1701800Y-2615011D02*
G03X1701800Y-2323384I0J145814D01*
G03X1701800Y-2615011I0J-145814D01*
G01X1701800Y-1615013D02*
G03X1701800Y-1323386I0J145814D01*
G03X1701800Y-1615013I0J-145814D01*
G01X1701800Y-2115012D02*
G03X1701800Y-1823385I0J145814D01*
G03X1701800Y-2115012I0J-145814D01*
G01X1701800Y-115016D02*
G03X1701800Y176611I0J145814D01*
G03X1701800Y-115016I0J-145814D01*
G01X1701800Y-615015D02*
G03X1701800Y-323388I0J145814D01*
G03X1701800Y-615015I0J-145814D01*
G01X1701800Y-1115014D02*
G03X1701800Y-823387I0J145814D01*
G03X1701800Y-1115014I0J-145814D01*
G01X2460414Y3200000D02*
G03X1939586Y3200000I-260414J0D01*
G03X2460414Y3200000I260414J0D01*
G01X2460414Y-3200000D02*
G03X1939586Y-3200000I-260414J0D01*
G03X2460414Y-3200000I260414J0D01*
G54D11*
G01X-1756557Y3179826D02*
G01X-1730649Y3179826D01*
G01X-1876049Y3179826D02*
G01X-1901957Y3179826D01*
G01X-1816303Y3090080D02*
G01X-1816303Y3064172D01*
G01X-1816303Y3269572D02*
G01X-1816303Y3295480D01*
G01X-1876049Y2761818D02*
G01X-1901957Y2761818D01*
G01X-1816303Y2652072D02*
G01X-1816303Y2626164D01*
G01X-1816303Y2871564D02*
G01X-1816303Y2897472D01*
G01X-915854Y-3225800D02*
G01X-889946Y-3225800D01*
G01X-1065346Y-3225800D02*
G01X-1091254Y-3225800D01*
G01X-990600Y-3300546D02*
G01X-990600Y-3326454D01*
G01X-892551Y3179826D02*
G01X-866643Y3179826D01*
G01X-1012043Y3179826D02*
G01X-1037951Y3179826D01*
G01X-952297Y3090080D02*
G01X-952297Y3064172D01*
G01X-952297Y3269572D02*
G01X-952297Y3295480D01*
G01X-892551Y2761818D02*
G01X-866643Y2761818D01*
G01X-952297Y2652072D02*
G01X-952297Y2626164D01*
G01X-952297Y2871564D02*
G01X-952297Y2897472D01*
G01X-661854Y-3225800D02*
G01X-635946Y-3225800D01*
G01X-811346Y-3225800D02*
G01X-837254Y-3225800D01*
G01X-736600Y-3300546D02*
G01X-736600Y-3326454D01*
G01X-407854Y-3225800D02*
G01X-381946Y-3225800D01*
G01X-557346Y-3225800D02*
G01X-583254Y-3225800D01*
G01X-482600Y-3300546D02*
G01X-482600Y-3326454D01*
G01X-153854Y-3225800D02*
G01X-127946Y-3225800D01*
G01X-303346Y-3225800D02*
G01X-329254Y-3225800D01*
G01X-228600Y-3300546D02*
G01X-228600Y-3326454D01*
G01X685800Y-3072554D02*
G01X685800Y-3046646D01*
G01X685800Y-3252046D02*
G01X685800Y-3277954D01*
G01X775546Y-3162300D02*
G01X801454Y-3162300D01*
G01X596054Y-3162300D02*
G01X570146Y-3162300D01*
G01X1631539Y974056D02*
G01X1631539Y948148D01*
G01X1631539Y1183547D02*
G01X1631539Y1209455D01*
G01X1526793Y1078802D02*
G01X1500885Y1078802D01*
G01X1736284Y1078802D02*
G01X1762192Y1078802D01*
G01X1701800Y-2078944D02*
G01X1701800Y-2104852D01*
G01X1701800Y-1859453D02*
G01X1701800Y-1833545D01*
G01X1592054Y-1969198D02*
G01X1566146Y-1969198D01*
G01X1811546Y-1969198D02*
G01X1837454Y-1969198D01*
G04 Copper End*

G04 Pad Start*
G54D12*
G01X-1816303Y3179826D03*
G01X-952297Y3179826D03*
G54D13*
G01X-1816303Y2761818D03*
G01X-952297Y2761818D03*
G54D14*
G01X685800Y-3162300D03*
G01X431800Y-3162300D03*
G01X685800Y-2908300D03*
G01X431800Y-2908300D03*
G01X685800Y-2654300D03*
G54D15*
G01X431800Y-2654300D03*
G54D17*
G01X-228600Y-2463800D03*
G01X-482600Y-2463800D03*
G01X-736600Y-2463800D03*
G01X-990600Y-2463800D03*
G01X-990600Y-3225800D03*
G01X-736600Y-3225800D03*
G01X-482600Y-3225800D03*
G01X-228600Y-3225800D03*
G54D18*
G01X1631539Y1078802D03*
G01X1631539Y1578801D03*
G01X1631539Y2078800D03*
G01X1631539Y2578799D03*
G54D19*
G01X1701800Y-2469197D03*
G01X1701800Y-1969198D03*
G01X1701800Y-1469199D03*
G01X1701800Y-969200D03*
G01X1701800Y-469201D03*
G01X1701800Y30798D03*
G04 Pad End*

G04 Via Start*
G54D20*
G01X-1181100Y2882900D03*
G01X-1549400Y2882900D03*
G01X101600Y1193800D03*
G01X749300Y1689100D03*
G01X596900Y1816100D03*
G01X-990600Y1879600D03*
G01X673100Y-977900D03*
G01X596900Y63500D03*
G01X1041400Y-990600D03*
G01X1028700Y-76200D03*
G01X876300Y-977900D03*
G01X723900Y127000D03*
G01X-76200Y-1765300D03*
G01X228600Y-1765300D03*
G01X-1587500Y-2870200D03*
G01X558800Y736600D03*
G01X-330200Y-1168400D03*
G01X-469900Y-838200D03*
G01X-982299Y-804499D03*
G01X1054100Y2184400D03*
G01X-1570711Y850900D03*
G01X-1206500Y-1041400D03*
G01X-1320800Y-800100D03*
G01X-203200Y1574800D03*
G01X-1143000Y-838200D03*
G01X-279400Y1460500D03*
G01X-1612900Y-1562100D03*
G01X495300Y-1104900D03*
G01X-1524000Y-1605300D03*
G01X368300Y177800D03*
G01X-76200Y1308100D03*
G01X-1066800Y-2197100D03*
G01X-1841500Y-1778000D03*
G01X-1752600Y-863600D03*
G01X-736600Y876300D03*
G01X508000Y863600D03*
G01X-1765300Y2159000D03*
G01X127000Y2661282D03*
G01X127000Y2565400D03*
G01X127000Y2468305D03*
G01X76200Y2362200D03*
G01X190500Y2362200D03*
G54D21*
G01X837413Y-405613D03*
G01X837413Y-305613D03*
G01X737400Y-305600D03*
G01X737400Y-405600D03*
G01X837413Y-1396221D03*
G01X837413Y-1296221D03*
G01X737400Y-1296208D03*
G01X737400Y-1396208D03*
G01X440453Y1485900D03*
G01X270747Y1485900D03*
G01X355600Y1570753D03*
G01X355600Y1401047D03*
G04 Via End*

G04 Track Start*
G54D11*
G01X-1181100Y2882900D02*
G01X-1549400Y2882900D01*
G01X101600Y1193800D02*
G01X622300Y1193800D01*
G01X749300Y1320800D02*
G01X749300Y1689100D01*
G01X622300Y1193800D02*
G01X749300Y1320800D01*
G54D22*
G01X596900Y1816100D02*
G01X419100Y1993900D01*
G01X-876300Y1993900D02*
G01X-990600Y1879600D01*
G01X419100Y1993900D02*
G01X-876300Y1993900D01*
G54D11*
G01X799313Y-405613D02*
G01X789659Y-415266D01*
G01X789659Y-1286568D01*
G01X799313Y-1296221D01*
G01X837413Y-405613D02*
G01X799313Y-405613D01*
G01X799313Y-1296221D02*
G01X837413Y-1296221D01*
G01X876300Y-977900D02*
G01X901700Y-952500D01*
G01X673100Y-977900D02*
G01X673100Y-2044700D01*
G01X889000Y-2908300D02*
G01X635000Y-2908300D01*
G54D22*
G01X-76200Y-1765300D02*
G01X228600Y-1765300D01*
G54D11*
G01X381000Y-3162300D02*
G01X25400Y-3162300D01*
G01X12700Y-3175000D01*
G01X-12700Y-3175000D01*
G01X-114300Y-3073400D01*
G01X-1384300Y-3073400D01*
G01X-1587500Y-2870200D01*
G01X901700Y-952500D02*
G01X901700Y-50800D01*
G01X723900Y127000D01*
G54D22*
G01X-76200Y-1765300D02*
G01X-254000Y-1765300D01*
G01X-292100Y-1727200D01*
G54D11*
G01X1054100Y2184400D02*
G01X863600Y1993900D01*
G01X419100Y1993900D01*
G54D22*
G01X-952297Y2908097D02*
G01X-952297Y2761818D01*
G01X-1816303Y2761818D02*
G01X-1816303Y2857297D01*
G01X-1016000Y2971800D02*
G01X-952297Y2908097D01*
G01X-1816303Y2857297D02*
G01X-1701800Y2971800D01*
G01X-1016000Y2971800D01*
G54D11*
G01X673100Y-977900D02*
G01X-1143000Y-977900D01*
G01X-1206500Y-1041400D01*
G01X673100Y-977900D02*
G01X673100Y-12700D01*
G01X596900Y63500D01*
G01X596900Y698500D01*
G01X558800Y736600D01*
G01X-1104900Y1574800D02*
G01X-203200Y1574800D01*
G01X-1841500Y-1778000D02*
G01X-1841500Y-952500D01*
G01X-1752600Y-863600D01*
G54D22*
G01X-990600Y1879600D02*
G01X-1016000Y1905000D01*
G01X-1460500Y1905000D01*
G01X-1570711Y1794789D01*
G01X-1549400Y2882900D02*
G01X-1549400Y2374900D01*
G01X-1765300Y2159000D01*
G54D11*
G01X-1612900Y-1562100D02*
G01X-1612900Y-1612900D01*
G01X-1562100Y-1663700D01*
G01X-482600Y-1663700D01*
G01X-1295400Y-1605300D02*
G01X-1231900Y-1541800D01*
G01X-1524000Y-1605300D02*
G01X-1295400Y-1605300D01*
G01X-1264900Y-1065590D02*
G01X-1264900Y-1017210D01*
G01X-1231900Y-1541800D02*
G01X-1231900Y-1098590D01*
G01X-1264900Y-1065590D01*
G01X-1264900Y-1017210D02*
G01X-1189991Y-942300D01*
G01X-491491Y-942300D01*
G01X368300Y-82510D01*
G01X368300Y177800D01*
G01X-101600Y1333500D02*
G01X-101600Y1689100D01*
G01X-177800Y1765300D01*
G01X-1270000Y1765300D01*
G01X-1447800Y1587500D01*
G01X-1447800Y-1168400D01*
G01X-1739900Y-1460500D01*
G01X-1739900Y-2070100D01*
G01X-1701800Y-2108200D01*
G01X-1155700Y-2108200D01*
G01X-76200Y1308100D02*
G01X-101600Y1333500D01*
G01X-1155700Y-2108200D02*
G01X-1066800Y-2197100D01*
G01X1041400Y-990600D02*
G01X1041400Y-2755900D01*
G01X889000Y-2908300D01*
G01X1041400Y-990600D02*
G01X1028700Y-977900D01*
G01X1028700Y-76200D01*
G01X-1143000Y-838200D02*
G01X-1143000Y1371600D01*
G01X-1054100Y1460500D01*
G01X-279400Y1460500D01*
G54D22*
G01X-1570711Y1794789D02*
G01X-1570711Y850900D01*
G54D11*
G01X-1320800Y-800100D02*
G01X-1320800Y1358900D01*
G01X-1104900Y1574800D01*
G01X-482600Y-1663700D02*
G01X-431800Y-1612900D01*
G01X-431800Y-1149310D01*
G54D22*
G01X-292100Y-1727200D02*
G01X-292100Y-1206500D01*
G01X-330200Y-1168400D01*
G54D11*
G01X-431800Y-1149310D02*
G01X-387390Y-1104900D01*
G01X495300Y-1104900D01*
G01X-469900Y-838200D02*
G01X-503601Y-804499D01*
G01X-982299Y-804499D01*
G54D22*
G01X-736600Y876300D02*
G01X-723900Y863600D01*
G01X508000Y863600D01*
G54D11*
G01X914400Y-1016000D02*
G01X914400Y-1206500D01*
G01X965200Y-1257300D01*
G01X965200Y-2260600D01*
G01X889000Y-2336800D01*
G01X647700Y-2336800D01*
G01X546100Y-2438400D01*
G01X546100Y-2844800D02*
G01X528139Y-2862761D01*
G01X477339Y-2862761D01*
G01X431800Y-2908300D01*
G01X876300Y-977900D02*
G01X914400Y-1016000D01*
G01X431800Y-2908300D02*
G01X381000Y-2908300D01*
G01X546100Y-2438400D02*
G01X546100Y-2549144D01*
G01X549700Y-2552744D01*
G01X549700Y-2755856D01*
G01X546100Y-2759456D01*
G01X546100Y-2844800D01*
G01X673100Y-2044700D02*
G01X431800Y-2286000D01*
G01X431800Y-2654300D01*
G01X381000Y-2654300D01*
G04 Track End*

M02*

