G04 Layer: TopSolderMaskLayer*
G04 EasyEDA Pro v2.2.40.8, 2025-08-17 12:16:25*
G04 Gerber Generator version 0.3*
G04 Scale: 100 percent, Rotated: No, Reflected: No*
G04 Dimensions in millimeters*
G04 Leading zeros omitted, absolute positions, 4 integers and 5 decimals*
G04 Generated by one-click*
%FSLAX45Y45*%
%MOMM*%
%AMRoundRect*1,1,$1,$2,$3*1,1,$1,$4,$5*1,1,$1,0-$2,0-$3*1,1,$1,0-$4,0-$5*20,1,$1,$2,$3,$4,$5,0*20,1,$1,$4,$5,0-$2,0-$3,0*20,1,$1,0-$2,0-$3,0-$4,0-$5,0*20,1,$1,0-$4,0-$5,$2,$3,0*4,1,4,$2,$3,$4,$5,0-$2,0-$3,0-$4,0-$5,$2,$3,0*%
%AMOval*1,1,$1,$2,$3*1,1,$1,$4,$5*20,1,$1,$2,$3,$4,$5,0*%
%ADD10C,0.7112*%
%ADD11O,0.46561X0.94859*%
%ADD12O,0.94859X0.46561*%
%ADD13RoundRect,0.09861X-1.6265X1.6265X1.6265X1.6265*%
%ADD14RoundRect,0.09495X-0.67833X-0.70833X-0.67833X0.70833*%
%ADD15RoundRect,0.09387X-0.57013X0.69237X0.57013X0.69237*%
%ADD16RoundRect,0.09495X-0.70833X0.67833X0.70833X0.67833*%
%ADD17RoundRect,0.1005X-0.75303X-0.95303X-0.75303X0.95303*%
%ADD18RoundRect,0.09554X-0.75303X-0.95303X-0.75303X0.95303*%
%ADD19RoundRect,0.08109X-0.16026X0.66026X0.16026X0.66026*%
%ADD20RoundRect,0.08875X-0.30643X0.65642X0.30643X0.65642*%
%ADD21O,1.3016X1.9016*%
%ADD22O,1.3016X2.3016*%
%ADD23RoundRect,0.09302X-0.62929X-0.50429X-0.62929X0.50429*%
%ADD24C,1.9016*%
%ADD25RoundRect,0.09645X-0.90257X-0.90257X-0.90257X0.90257*%
%ADD26Oval,0.46561X-0.17076X-0.17076X0.17076X0.17076*%
%ADD27Oval,0.46561X0.17076X-0.17076X-0.17076X0.17076*%
%ADD28RoundRect,0.09949X0.0X-3.32488X-3.32488X0.0*%
%ADD29O,0.4016X1.4016*%
%ADD30O,1.4016X0.4016*%
%ADD31RoundRect,0.09969X-2.60095X-2.60095X-2.60095X2.60095*%
%ADD32C,1.6*%
%ADD33RoundRect,0.09358X-2.47452X-0.54588X-2.47452X0.54588*%
%ADD34RoundRect,0.09387X-0.69237X-0.57013X-0.69237X0.57013*%
%ADD35RoundRect,0.09138X-0.40835X0.43711X0.40835X0.43711*%
%ADD36RoundRect,0.09598X-1.35281X-0.82031X-1.35281X0.82031*%
%ADD37RoundRect,0.09691X-1.00234X-1.00234X-1.00234X1.00234*%
%ADD38RoundRect,0.09691X-1.00234X1.00234X1.00234X1.00234*%
%ADD39RoundRect,0.0945X-0.62856X1.50355X0.62856X1.50355*%
%ADD40RoundRect,0.08756X-0.54302X-0.27302X-0.54302X0.27302*%
%ADD41RoundRect,0.08875X-0.30643X0.70642X0.30643X0.70642*%
%ADD42C,2.2016*%
%ADD43C,2.3016*%
%ADD44RoundRect,0.09774X-1.23693X1.80193X1.23693X1.80193*%
%ADD45RoundRect,0.09288X-1.23936X0.49437X1.23936X0.49437*%
G75*


G04 Pad Start*
G54D10*
G01X-2171700Y939800D03*
G01X-2171700Y1117600D03*
G01X-2171700Y762000D03*
G01X-1460500Y1168400D03*
G01X-393934Y1892300D03*
G01X419100Y3111500D03*
G01X-1333500Y-1663700D03*
G01X-533400Y-2082800D03*
G01X-533400Y-1962977D03*
G01X-317500Y-1333500D03*
G01X-317500Y-1434236D03*
G01X-317500Y-1536700D03*
G01X-241300Y-1562100D03*
G01X-241300Y-1462100D03*
G01X-241300Y-1362100D03*
G01X-1333500Y-927100D03*
G01X406400Y-901700D03*
G01X368300Y317500D03*
G01X723900Y281091D03*
G01X812800Y520700D03*
G01X482600Y63500D03*
G01X-50800Y1854200D03*
G01X-76200Y1193800D03*
G01X533400Y1041400D03*
G01X863600Y1689100D03*
G54D11*
G01X657403Y-605460D03*
G01X722401Y-605460D03*
G01X787400Y-605460D03*
G01X852399Y-605460D03*
G01X917397Y-605460D03*
G54D12*
G01X1037260Y-485597D03*
G01X1037260Y-420599D03*
G01X1037260Y-355600D03*
G01X1037260Y-290601D03*
G01X1037260Y-225603D03*
G54D11*
G01X917397Y-105740D03*
G01X852399Y-105740D03*
G01X787400Y-105740D03*
G01X722401Y-105740D03*
G01X657403Y-105740D03*
G54D12*
G01X537540Y-225603D03*
G01X537540Y-290601D03*
G01X537540Y-355600D03*
G01X537540Y-420599D03*
G01X537540Y-485597D03*
G54D13*
G01X787400Y-355600D03*
G54D14*
G01X953651Y112369D03*
G01X953651Y312369D03*
G01X356751Y-493219D03*
G01X356751Y-293220D03*
G01X115931Y-493700D03*
G01X115931Y-293700D03*
G54D15*
G01X625051Y-778231D03*
G01X825051Y-778231D03*
G54D11*
G01X657403Y-1596068D03*
G01X722401Y-1596068D03*
G01X787400Y-1596068D03*
G01X852399Y-1596068D03*
G01X917397Y-1596068D03*
G54D12*
G01X1037260Y-1476206D03*
G01X1037260Y-1411207D03*
G01X1037260Y-1346208D03*
G01X1037260Y-1281210D03*
G01X1037260Y-1216211D03*
G54D11*
G01X917397Y-1096349D03*
G01X852399Y-1096349D03*
G01X787400Y-1096349D03*
G01X722401Y-1096349D03*
G01X657403Y-1096349D03*
G54D12*
G01X537540Y-1216211D03*
G01X537540Y-1281210D03*
G01X537540Y-1346208D03*
G01X537540Y-1411207D03*
G01X537540Y-1476206D03*
G54D13*
G01X787400Y-1346208D03*
G54D14*
G01X979051Y-2059331D03*
G01X979051Y-1859331D03*
G01X127000Y-1446200D03*
G01X127000Y-1246200D03*
G01X357630Y-1445719D03*
G01X357630Y-1245720D03*
G54D15*
G01X522300Y-1866900D03*
G01X722300Y-1866900D03*
G54D16*
G01X-1687500Y-1079500D03*
G01X-1487500Y-1079500D03*
G54D14*
G01X-101600Y-1446200D03*
G01X-101600Y-1246200D03*
G54D15*
G01X-2033600Y-2603500D03*
G01X-2233600Y-2603500D03*
G54D18*
G01X-1689100Y-3219399D03*
G01X-1689100Y-2419401D03*
G54D19*
G01X-1559306Y2687574D03*
G01X-1509293Y2687574D03*
G01X-1459306Y2687574D03*
G01X-1409294Y2687574D03*
G01X-1359306Y2687574D03*
G01X-1309294Y2687574D03*
G01X-1259307Y2687574D03*
G01X-1209294Y2687574D03*
G54D20*
G01X-1624305Y2687574D03*
G01X-1704289Y2687574D03*
G01X-1144295Y2687574D03*
G01X-1064311Y2687574D03*
G54D21*
G01X-1816303Y3179826D03*
G01X-952297Y3179826D03*
G54D22*
G01X-1816303Y2761818D03*
G01X-952297Y2761818D03*
G54D23*
G01X-2031990Y-1710202D03*
G01X-2031990Y-1490188D03*
G01X-2032010Y-817098D03*
G01X-2032010Y-1037112D03*
G54D24*
G01X685800Y-3162300D03*
G01X431800Y-3162300D03*
G01X685800Y-2908300D03*
G01X431800Y-2908300D03*
G01X685800Y-2654300D03*
G54D25*
G01X431800Y-2654300D03*
G54D26*
G01X5693Y1411759D03*
G01X51654Y1365798D03*
G01X97615Y1319837D03*
G01X143576Y1273876D03*
G01X189537Y1227915D03*
G01X235498Y1181954D03*
G01X281459Y1135993D03*
G54D27*
G01X429741Y1135993D03*
G01X475702Y1181954D03*
G01X521663Y1227915D03*
G01X567624Y1273876D03*
G01X613585Y1319837D03*
G01X659546Y1365798D03*
G01X705507Y1411759D03*
G54D26*
G01X705507Y1560041D03*
G01X659546Y1606002D03*
G01X613585Y1651963D03*
G01X567624Y1697924D03*
G01X521663Y1743885D03*
G01X475702Y1789846D03*
G01X429741Y1835807D03*
G54D27*
G01X281459Y1835807D03*
G01X235498Y1789846D03*
G01X189537Y1743885D03*
G01X143576Y1697924D03*
G01X97615Y1651963D03*
G01X51654Y1606002D03*
G01X5693Y1560041D03*
G54D28*
G01X355600Y1485900D03*
G54D16*
G01X820727Y1051340D03*
G01X1020726Y1051340D03*
G01X827100Y838200D03*
G01X1027100Y838200D03*
G54D29*
G01X-575500Y-1072401D03*
G01X-625488Y-1072401D03*
G01X-675500Y-1072401D03*
G01X-725487Y-1072401D03*
G01X-775500Y-1072401D03*
G01X-825487Y-1072401D03*
G01X-875500Y-1072401D03*
G01X-925487Y-1072401D03*
G01X-975500Y-1072401D03*
G01X-1025487Y-1072401D03*
G01X-1075499Y-1072401D03*
G54D30*
G01X-1175499Y-1172400D03*
G01X-1175499Y-1222388D03*
G01X-1175499Y-1272400D03*
G01X-1175499Y-1322387D03*
G01X-1175499Y-1372400D03*
G01X-1175499Y-1422387D03*
G01X-1175499Y-1472400D03*
G01X-1175499Y-1522387D03*
G01X-1175499Y-1572400D03*
G01X-1175499Y-1622387D03*
G01X-1175499Y-1672399D03*
G54D29*
G01X-1075499Y-1772399D03*
G01X-1025487Y-1772399D03*
G01X-975500Y-1772399D03*
G01X-925487Y-1772399D03*
G01X-875500Y-1772399D03*
G01X-825487Y-1772399D03*
G01X-775500Y-1772399D03*
G01X-725487Y-1772399D03*
G01X-675500Y-1772399D03*
G01X-625488Y-1772399D03*
G01X-575500Y-1772399D03*
G54D30*
G01X-475501Y-1672399D03*
G01X-475501Y-1622387D03*
G01X-475501Y-1572400D03*
G01X-475501Y-1522387D03*
G01X-475501Y-1472400D03*
G01X-475501Y-1422387D03*
G01X-475501Y-1372400D03*
G01X-475501Y-1322387D03*
G01X-475501Y-1272400D03*
G01X-475501Y-1222388D03*
G01X-475501Y-1172400D03*
G54D31*
G01X-825487Y-1422387D03*
G54D16*
G01X-912800Y-660400D03*
G01X-712800Y-660400D03*
G01X-1106500Y-2032000D03*
G01X-1306500Y-2032000D03*
G54D32*
G01X-228600Y-2463800D03*
G01X-482600Y-2463800D03*
G01X-736600Y-2463800D03*
G01X-990600Y-2463800D03*
G01X-990600Y-3225800D03*
G01X-736600Y-3225800D03*
G01X-482600Y-3225800D03*
G01X-228600Y-3225800D03*
G54D33*
G01X-1981200Y1438605D03*
G01X-1981200Y1964995D03*
G54D34*
G01X-1470981Y1837506D03*
G01X-1470981Y2037505D03*
G01X-1206500Y1843100D03*
G01X-1206500Y2043100D03*
G54D14*
G01X-2222500Y2462200D03*
G01X-2222500Y2262200D03*
G54D35*
G01X-1231036Y2501900D03*
G01X-1080364Y2501900D03*
G01X-1279618Y2315305D03*
G01X-1128945Y2315305D03*
G54D16*
G01X695713Y2243220D03*
G01X895712Y2243220D03*
G54D14*
G01X977900Y2678100D03*
G01X977900Y2478100D03*
G01X704470Y2685147D03*
G01X704470Y2485147D03*
G54D36*
G01X-271818Y2724187D03*
G01X-271818Y2420708D03*
G54D37*
G01X-677200Y1439092D03*
G01X-677200Y1879096D03*
G54D38*
G01X-1015992Y1442703D03*
G01X-1455997Y1442703D03*
G54D39*
G01X-382275Y3106896D03*
G01X-157282Y3106896D03*
G54D34*
G01X-2032000Y-2284400D03*
G01X-2032000Y-2084400D03*
G01X-2032000Y-357200D03*
G01X-2032000Y-557200D03*
G54D15*
G01X-1786881Y2429605D03*
G01X-1586882Y2429605D03*
G54D34*
G01X-708981Y3202705D03*
G01X-708981Y3002705D03*
G54D15*
G01X52400Y850900D03*
G01X252400Y850900D03*
G01X430200Y2247900D03*
G01X230200Y2247900D03*
G54D34*
G01X-596900Y2360600D03*
G01X-596900Y2160600D03*
G54D15*
G01X-214300Y2133600D03*
G01X-14300Y2133600D03*
G54D40*
G01X12090Y2660396D03*
G01X12090Y2565400D03*
G01X12090Y2470404D03*
G01X241910Y2470404D03*
G01X241910Y2565400D03*
G01X241910Y2660396D03*
G54D41*
G01X-1720088Y-1384300D03*
G01X-1600200Y-1384300D03*
G01X-1480312Y-1384300D03*
G01X945388Y1892300D03*
G01X825500Y1892300D03*
G01X705612Y1892300D03*
G54D42*
G01X1631539Y1078802D03*
G01X1631539Y1578801D03*
G01X1631539Y2078800D03*
G01X1631539Y2578799D03*
G54D38*
G01X630895Y3124203D03*
G01X1070900Y3124203D03*
G54D43*
G01X1701800Y-2469197D03*
G01X1701800Y-1969198D03*
G01X1701800Y-1469199D03*
G01X1701800Y-969200D03*
G01X1701800Y-469201D03*
G01X1701800Y30798D03*
G54D44*
G01X-2086889Y444500D03*
G54D45*
G01X-1519911Y674497D03*
G01X-1519911Y444500D03*
G01X-1519911Y214503D03*
G54D16*
G01X-1954200Y990600D03*
G01X-1754200Y990600D03*
G01X-1991520Y-103721D03*
G01X-1791520Y-103721D03*
G54D14*
G01X143807Y3193147D03*
G01X143807Y2993147D03*
G54D15*
G01X523451Y-2111731D03*
G01X723451Y-2111731D03*
G54D34*
G01X443798Y2678457D03*
G01X443798Y2478457D03*
G01X-1537701Y-1865729D03*
G01X-1537701Y-2065728D03*
G01X-1752600Y-1868500D03*
G01X-1752600Y-2068500D03*
G01X-1346200Y-2363800D03*
G01X-1346200Y-2563800D03*
G04 Pad End*

M02*

